<?xml version="1.0" encoding="utf-8" standalone="no"?>
<!DOCTYPE svg PUBLIC "-//W3C//DTD SVG 1.1//EN"
  "http://www.w3.org/Graphics/SVG/1.1/DTD/svg11.dtd">
<svg xmlns:xlink="http://www.w3.org/1999/xlink" width="921.6pt" height="172.8pt" viewBox="0 0 921.6 172.8" xmlns="http://www.w3.org/2000/svg" version="1.1">
 <metadata>
  <rdf:RDF xmlns:dc="http://purl.org/dc/elements/1.1/" xmlns:cc="http://creativecommons.org/ns#" xmlns:rdf="http://www.w3.org/1999/02/22-rdf-syntax-ns#">
   <cc:Work>
    <dc:type rdf:resource="http://purl.org/dc/dcmitype/StillImage"/>
    <dc:date>2024-11-25T02:32:06.081387</dc:date>
    <dc:format>image/svg+xml</dc:format>
    <dc:creator>
     <cc:Agent>
      <dc:title>Matplotlib v3.7.1, https://matplotlib.org/</dc:title>
     </cc:Agent>
    </dc:creator>
   </cc:Work>
  </rdf:RDF>
 </metadata>
 <defs>
  <style type="text/css">*{stroke-linejoin: round; stroke-linecap: butt}</style>
 </defs>
 <g id="figure_1">
  <g id="patch_1">
   <path d="M 0 172.8 
L 921.6 172.8 
L 921.6 0 
L 0 0 
z
" style="fill: #ffffff"/>
  </g>
  <g id="axes_1">
   <g id="patch_2">
    <path d="M 115.2 153.792 
L 270.469565 153.792 
L 270.469565 20.736 
L 115.2 20.736 
z
" style="fill: #ffffff"/>
   </g>
   <g id="matplotlib.axis_1">
    <g id="xtick_1">
     <g id="line2d_1">
      <path d="M 122.257708 153.792 
L 122.257708 20.736 
" clip-path="url(#pcb6f987c82)" style="fill: none; stroke: #b0b0b0; stroke-opacity: 0.8; stroke-width: 0.5; stroke-linecap: square"/>
     </g>
     <g id="line2d_2">
      <defs>
       <path id="m10857736f3" d="M 0 0 
L 0 3.5 
" style="stroke: #000000; stroke-width: 0.8"/>
      </defs>
      <g>
       <use xlink:href="#m10857736f3" x="122.257708" y="153.792" style="stroke: #000000; stroke-width: 0.8"/>
      </g>
     </g>
     <g id="text_1">
      <!-- 2 -->
      <g transform="translate(120.348958 165.351062) scale(0.06 -0.06)">
       <defs>
        <path id="DejaVuSans-32" d="M 1228 531 
L 3431 531 
L 3431 0 
L 469 0 
L 469 531 
Q 828 903 1448 1529 
Q 2069 2156 2228 2338 
Q 2531 2678 2651 2914 
Q 2772 3150 2772 3378 
Q 2772 3750 2511 3984 
Q 2250 4219 1831 4219 
Q 1534 4219 1204 4116 
Q 875 4013 500 3803 
L 500 4441 
Q 881 4594 1212 4672 
Q 1544 4750 1819 4750 
Q 2544 4750 2975 4387 
Q 3406 4025 3406 3419 
Q 3406 3131 3298 2873 
Q 3191 2616 2906 2266 
Q 2828 2175 2409 1742 
Q 1991 1309 1228 531 
z
" transform="scale(0.015625)"/>
       </defs>
       <use xlink:href="#DejaVuSans-32"/>
      </g>
     </g>
    </g>
    <g id="xtick_2">
     <g id="line2d_3">
      <path d="M 157.546245 153.792 
L 157.546245 20.736 
" clip-path="url(#pcb6f987c82)" style="fill: none; stroke: #b0b0b0; stroke-opacity: 0.8; stroke-width: 0.5; stroke-linecap: square"/>
     </g>
     <g id="line2d_4">
      <g>
       <use xlink:href="#m10857736f3" x="157.546245" y="153.792" style="stroke: #000000; stroke-width: 0.8"/>
      </g>
     </g>
     <g id="text_2">
      <!-- 3 -->
      <g transform="translate(155.637495 165.351062) scale(0.06 -0.06)">
       <defs>
        <path id="DejaVuSans-33" d="M 2597 2516 
Q 3050 2419 3304 2112 
Q 3559 1806 3559 1356 
Q 3559 666 3084 287 
Q 2609 -91 1734 -91 
Q 1441 -91 1130 -33 
Q 819 25 488 141 
L 488 750 
Q 750 597 1062 519 
Q 1375 441 1716 441 
Q 2309 441 2620 675 
Q 2931 909 2931 1356 
Q 2931 1769 2642 2001 
Q 2353 2234 1838 2234 
L 1294 2234 
L 1294 2753 
L 1863 2753 
Q 2328 2753 2575 2939 
Q 2822 3125 2822 3475 
Q 2822 3834 2567 4026 
Q 2313 4219 1838 4219 
Q 1578 4219 1281 4162 
Q 984 4106 628 3988 
L 628 4550 
Q 988 4650 1302 4700 
Q 1616 4750 1894 4750 
Q 2613 4750 3031 4423 
Q 3450 4097 3450 3541 
Q 3450 3153 3228 2886 
Q 3006 2619 2597 2516 
z
" transform="scale(0.015625)"/>
       </defs>
       <use xlink:href="#DejaVuSans-33"/>
      </g>
     </g>
    </g>
    <g id="xtick_3">
     <g id="line2d_5">
      <path d="M 192.834783 153.792 
L 192.834783 20.736 
" clip-path="url(#pcb6f987c82)" style="fill: none; stroke: #b0b0b0; stroke-opacity: 0.8; stroke-width: 0.5; stroke-linecap: square"/>
     </g>
     <g id="line2d_6">
      <g>
       <use xlink:href="#m10857736f3" x="192.834783" y="153.792" style="stroke: #000000; stroke-width: 0.8"/>
      </g>
     </g>
     <g id="text_3">
      <!-- 4 -->
      <g transform="translate(190.926033 165.351062) scale(0.06 -0.06)">
       <defs>
        <path id="DejaVuSans-34" d="M 2419 4116 
L 825 1625 
L 2419 1625 
L 2419 4116 
z
M 2253 4666 
L 3047 4666 
L 3047 1625 
L 3713 1625 
L 3713 1100 
L 3047 1100 
L 3047 0 
L 2419 0 
L 2419 1100 
L 313 1100 
L 313 1709 
L 2253 4666 
z
" transform="scale(0.015625)"/>
       </defs>
       <use xlink:href="#DejaVuSans-34"/>
      </g>
     </g>
    </g>
    <g id="xtick_4">
     <g id="line2d_7">
      <path d="M 228.12332 153.792 
L 228.12332 20.736 
" clip-path="url(#pcb6f987c82)" style="fill: none; stroke: #b0b0b0; stroke-opacity: 0.8; stroke-width: 0.5; stroke-linecap: square"/>
     </g>
     <g id="line2d_8">
      <g>
       <use xlink:href="#m10857736f3" x="228.12332" y="153.792" style="stroke: #000000; stroke-width: 0.8"/>
      </g>
     </g>
     <g id="text_4">
      <!-- 5 -->
      <g transform="translate(226.21457 165.351062) scale(0.06 -0.06)">
       <defs>
        <path id="DejaVuSans-35" d="M 691 4666 
L 3169 4666 
L 3169 4134 
L 1269 4134 
L 1269 2991 
Q 1406 3038 1543 3061 
Q 1681 3084 1819 3084 
Q 2600 3084 3056 2656 
Q 3513 2228 3513 1497 
Q 3513 744 3044 326 
Q 2575 -91 1722 -91 
Q 1428 -91 1123 -41 
Q 819 9 494 109 
L 494 744 
Q 775 591 1075 516 
Q 1375 441 1709 441 
Q 2250 441 2565 725 
Q 2881 1009 2881 1497 
Q 2881 1984 2565 2268 
Q 2250 2553 1709 2553 
Q 1456 2553 1204 2497 
Q 953 2441 691 2322 
L 691 4666 
z
" transform="scale(0.015625)"/>
       </defs>
       <use xlink:href="#DejaVuSans-35"/>
      </g>
     </g>
    </g>
    <g id="xtick_5">
     <g id="line2d_9">
      <path d="M 263.411858 153.792 
L 263.411858 20.736 
" clip-path="url(#pcb6f987c82)" style="fill: none; stroke: #b0b0b0; stroke-opacity: 0.8; stroke-width: 0.5; stroke-linecap: square"/>
     </g>
     <g id="line2d_10">
      <g>
       <use xlink:href="#m10857736f3" x="263.411858" y="153.792" style="stroke: #000000; stroke-width: 0.8"/>
      </g>
     </g>
     <g id="text_5">
      <!-- 6 -->
      <g transform="translate(261.503108 165.351062) scale(0.06 -0.06)">
       <defs>
        <path id="DejaVuSans-36" d="M 2113 2584 
Q 1688 2584 1439 2293 
Q 1191 2003 1191 1497 
Q 1191 994 1439 701 
Q 1688 409 2113 409 
Q 2538 409 2786 701 
Q 3034 994 3034 1497 
Q 3034 2003 2786 2293 
Q 2538 2584 2113 2584 
z
M 3366 4563 
L 3366 3988 
Q 3128 4100 2886 4159 
Q 2644 4219 2406 4219 
Q 1781 4219 1451 3797 
Q 1122 3375 1075 2522 
Q 1259 2794 1537 2939 
Q 1816 3084 2150 3084 
Q 2853 3084 3261 2657 
Q 3669 2231 3669 1497 
Q 3669 778 3244 343 
Q 2819 -91 2113 -91 
Q 1303 -91 875 529 
Q 447 1150 447 2328 
Q 447 3434 972 4092 
Q 1497 4750 2381 4750 
Q 2619 4750 2861 4703 
Q 3103 4656 3366 4563 
z
" transform="scale(0.015625)"/>
       </defs>
       <use xlink:href="#DejaVuSans-36"/>
      </g>
     </g>
    </g>
   </g>
   <g id="matplotlib.axis_2">
    <g id="ytick_1">
     <g id="line2d_11">
      <path d="M 115.2 153.792 
L 270.469565 153.792 
" clip-path="url(#pcb6f987c82)" style="fill: none; stroke: #b0b0b0; stroke-opacity: 0.8; stroke-width: 0.5; stroke-linecap: square"/>
     </g>
     <g id="line2d_12">
      <defs>
       <path id="m5cb5b46720" d="M 0 0 
L -3.5 0 
" style="stroke: #000000; stroke-width: 0.8"/>
      </defs>
      <g>
       <use xlink:href="#m5cb5b46720" x="115.2" y="153.792" style="stroke: #000000; stroke-width: 0.8"/>
      </g>
     </g>
     <g id="text_6">
      <!-- 0.2 -->
      <g transform="translate(98.658125 156.071531) scale(0.06 -0.06)">
       <defs>
        <path id="DejaVuSans-30" d="M 2034 4250 
Q 1547 4250 1301 3770 
Q 1056 3291 1056 2328 
Q 1056 1369 1301 889 
Q 1547 409 2034 409 
Q 2525 409 2770 889 
Q 3016 1369 3016 2328 
Q 3016 3291 2770 3770 
Q 2525 4250 2034 4250 
z
M 2034 4750 
Q 2819 4750 3233 4129 
Q 3647 3509 3647 2328 
Q 3647 1150 3233 529 
Q 2819 -91 2034 -91 
Q 1250 -91 836 529 
Q 422 1150 422 2328 
Q 422 3509 836 4129 
Q 1250 4750 2034 4750 
z
" transform="scale(0.015625)"/>
        <path id="DejaVuSans-2e" d="M 684 794 
L 1344 794 
L 1344 0 
L 684 0 
L 684 794 
z
" transform="scale(0.015625)"/>
       </defs>
       <use xlink:href="#DejaVuSans-30"/>
       <use xlink:href="#DejaVuSans-2e" x="63.623047"/>
       <use xlink:href="#DejaVuSans-32" x="95.410156"/>
      </g>
     </g>
    </g>
    <g id="ytick_2">
     <g id="line2d_13">
      <path d="M 115.2 127.1808 
L 270.469565 127.1808 
" clip-path="url(#pcb6f987c82)" style="fill: none; stroke: #b0b0b0; stroke-opacity: 0.8; stroke-width: 0.5; stroke-linecap: square"/>
     </g>
     <g id="line2d_14">
      <g>
       <use xlink:href="#m5cb5b46720" x="115.2" y="127.1808" style="stroke: #000000; stroke-width: 0.8"/>
      </g>
     </g>
     <g id="text_7">
      <!-- 0.3 -->
      <g transform="translate(98.658125 129.460331) scale(0.06 -0.06)">
       <use xlink:href="#DejaVuSans-30"/>
       <use xlink:href="#DejaVuSans-2e" x="63.623047"/>
       <use xlink:href="#DejaVuSans-33" x="95.410156"/>
      </g>
     </g>
    </g>
    <g id="ytick_3">
     <g id="line2d_15">
      <path d="M 115.2 100.5696 
L 270.469565 100.5696 
" clip-path="url(#pcb6f987c82)" style="fill: none; stroke: #b0b0b0; stroke-opacity: 0.8; stroke-width: 0.5; stroke-linecap: square"/>
     </g>
     <g id="line2d_16">
      <g>
       <use xlink:href="#m5cb5b46720" x="115.2" y="100.5696" style="stroke: #000000; stroke-width: 0.8"/>
      </g>
     </g>
     <g id="text_8">
      <!-- 0.4 -->
      <g transform="translate(98.658125 102.849131) scale(0.06 -0.06)">
       <use xlink:href="#DejaVuSans-30"/>
       <use xlink:href="#DejaVuSans-2e" x="63.623047"/>
       <use xlink:href="#DejaVuSans-34" x="95.410156"/>
      </g>
     </g>
    </g>
    <g id="ytick_4">
     <g id="line2d_17">
      <path d="M 115.2 73.9584 
L 270.469565 73.9584 
" clip-path="url(#pcb6f987c82)" style="fill: none; stroke: #b0b0b0; stroke-opacity: 0.8; stroke-width: 0.5; stroke-linecap: square"/>
     </g>
     <g id="line2d_18">
      <g>
       <use xlink:href="#m5cb5b46720" x="115.2" y="73.9584" style="stroke: #000000; stroke-width: 0.8"/>
      </g>
     </g>
     <g id="text_9">
      <!-- 0.5 -->
      <g transform="translate(98.658125 76.237931) scale(0.06 -0.06)">
       <use xlink:href="#DejaVuSans-30"/>
       <use xlink:href="#DejaVuSans-2e" x="63.623047"/>
       <use xlink:href="#DejaVuSans-35" x="95.410156"/>
      </g>
     </g>
    </g>
    <g id="ytick_5">
     <g id="line2d_19">
      <path d="M 115.2 47.3472 
L 270.469565 47.3472 
" clip-path="url(#pcb6f987c82)" style="fill: none; stroke: #b0b0b0; stroke-opacity: 0.8; stroke-width: 0.5; stroke-linecap: square"/>
     </g>
     <g id="line2d_20">
      <g>
       <use xlink:href="#m5cb5b46720" x="115.2" y="47.3472" style="stroke: #000000; stroke-width: 0.8"/>
      </g>
     </g>
     <g id="text_10">
      <!-- 0.6 -->
      <g transform="translate(98.658125 49.626731) scale(0.06 -0.06)">
       <use xlink:href="#DejaVuSans-30"/>
       <use xlink:href="#DejaVuSans-2e" x="63.623047"/>
       <use xlink:href="#DejaVuSans-36" x="95.410156"/>
      </g>
     </g>
    </g>
    <g id="ytick_6">
     <g id="line2d_21">
      <path d="M 115.2 20.736 
L 270.469565 20.736 
" clip-path="url(#pcb6f987c82)" style="fill: none; stroke: #b0b0b0; stroke-opacity: 0.8; stroke-width: 0.5; stroke-linecap: square"/>
     </g>
     <g id="line2d_22">
      <g>
       <use xlink:href="#m5cb5b46720" x="115.2" y="20.736" style="stroke: #000000; stroke-width: 0.8"/>
      </g>
     </g>
     <g id="text_11">
      <!-- 0.7 -->
      <g transform="translate(98.658125 23.015531) scale(0.06 -0.06)">
       <defs>
        <path id="DejaVuSans-37" d="M 525 4666 
L 3525 4666 
L 3525 4397 
L 1831 0 
L 1172 0 
L 2766 4134 
L 525 4134 
L 525 4666 
z
" transform="scale(0.015625)"/>
       </defs>
       <use xlink:href="#DejaVuSans-30"/>
       <use xlink:href="#DejaVuSans-2e" x="63.623047"/>
       <use xlink:href="#DejaVuSans-37" x="95.410156"/>
      </g>
     </g>
    </g>
   </g>
   <g id="patch_3">
    <path d="M 115.2 153.792 
L 115.2 20.736 
" style="fill: none; stroke: #000000; stroke-width: 0.8; stroke-linejoin: miter; stroke-linecap: square"/>
   </g>
   <g id="patch_4">
    <path d="M 115.2 153.792 
L 270.469565 153.792 
" style="fill: none; stroke: #000000; stroke-width: 0.8; stroke-linejoin: miter; stroke-linecap: square"/>
   </g>
   <g id="text_12">
    <!-- Spi1 -->
    <g transform="translate(181.916033 14.736) scale(0.1 -0.1)">
     <defs>
      <path id="DejaVuSans-53" d="M 3425 4513 
L 3425 3897 
Q 3066 4069 2747 4153 
Q 2428 4238 2131 4238 
Q 1616 4238 1336 4038 
Q 1056 3838 1056 3469 
Q 1056 3159 1242 3001 
Q 1428 2844 1947 2747 
L 2328 2669 
Q 3034 2534 3370 2195 
Q 3706 1856 3706 1288 
Q 3706 609 3251 259 
Q 2797 -91 1919 -91 
Q 1588 -91 1214 -16 
Q 841 59 441 206 
L 441 856 
Q 825 641 1194 531 
Q 1563 422 1919 422 
Q 2459 422 2753 634 
Q 3047 847 3047 1241 
Q 3047 1584 2836 1778 
Q 2625 1972 2144 2069 
L 1759 2144 
Q 1053 2284 737 2584 
Q 422 2884 422 3419 
Q 422 4038 858 4394 
Q 1294 4750 2059 4750 
Q 2388 4750 2728 4690 
Q 3069 4631 3425 4513 
z
" transform="scale(0.015625)"/>
      <path id="DejaVuSans-70" d="M 1159 525 
L 1159 -1331 
L 581 -1331 
L 581 3500 
L 1159 3500 
L 1159 2969 
Q 1341 3281 1617 3432 
Q 1894 3584 2278 3584 
Q 2916 3584 3314 3078 
Q 3713 2572 3713 1747 
Q 3713 922 3314 415 
Q 2916 -91 2278 -91 
Q 1894 -91 1617 61 
Q 1341 213 1159 525 
z
M 3116 1747 
Q 3116 2381 2855 2742 
Q 2594 3103 2138 3103 
Q 1681 3103 1420 2742 
Q 1159 2381 1159 1747 
Q 1159 1113 1420 752 
Q 1681 391 2138 391 
Q 2594 391 2855 752 
Q 3116 1113 3116 1747 
z
" transform="scale(0.015625)"/>
      <path id="DejaVuSans-69" d="M 603 3500 
L 1178 3500 
L 1178 0 
L 603 0 
L 603 3500 
z
M 603 4863 
L 1178 4863 
L 1178 4134 
L 603 4134 
L 603 4863 
z
" transform="scale(0.015625)"/>
      <path id="DejaVuSans-31" d="M 794 531 
L 1825 531 
L 1825 4091 
L 703 3866 
L 703 4441 
L 1819 4666 
L 2450 4666 
L 2450 531 
L 3481 531 
L 3481 0 
L 794 0 
L 794 531 
z
" transform="scale(0.015625)"/>
     </defs>
     <use xlink:href="#DejaVuSans-53"/>
     <use xlink:href="#DejaVuSans-70" x="63.476562"/>
     <use xlink:href="#DejaVuSans-69" x="126.953125"/>
     <use xlink:href="#DejaVuSans-31" x="154.736328"/>
    </g>
   </g>
   <g id="PolyCollection_1">
    <path d="M 122.257708 138.009088 
L 122.257708 138.009088 
L 125.786558 129.142758 
L 129.315417 123.673188 
L 132.844267 119.02865 
L 136.373126 115.761205 
L 139.901976 114.108325 
L 143.430827 112.990878 
L 146.959685 111.633161 
L 150.488536 110.449941 
L 154.017395 108.924476 
L 157.546245 107.994318 
L 161.075095 106.126562 
L 164.603954 105.157607 
L 168.132805 103.092237 
L 171.661663 101.964806 
L 175.190514 99.602557 
L 178.719364 98.208695 
L 182.248223 95.561397 
L 185.777073 93.841406 
L 189.305932 91.021508 
L 192.834783 89.071559 
L 196.363633 86.202071 
L 199.892483 84.094849 
L 203.421351 81.241354 
L 206.950201 78.970641 
L 210.479051 76.093046 
L 214.007902 73.695608 
L 217.536752 70.824695 
L 221.065619 68.301309 
L 224.59447 65.471329 
L 228.12332 62.892902 
L 231.652171 60.101751 
L 235.181021 57.540488 
L 238.709888 54.838908 
L 242.238739 52.23962 
L 245.767589 49.559443 
L 249.296439 46.912283 
L 252.82529 44.199603 
L 256.354157 41.493568 
L 259.883007 38.768508 
L 263.411858 36.021009 
L 263.411858 79.827448 
L 263.411858 79.827448 
L 259.883007 81.297104 
L 256.354157 84.031007 
L 252.82529 86.194093 
L 249.296439 88.703925 
L 245.767589 90.957079 
L 242.238739 93.50633 
L 238.709888 95.785014 
L 235.181021 98.291814 
L 231.652171 100.515505 
L 228.12332 103.084364 
L 224.59447 105.142604 
L 221.065619 107.499048 
L 217.536752 109.392756 
L 214.007902 111.502692 
L 210.479051 112.976138 
L 206.950201 114.787385 
L 203.421351 115.870495 
L 199.892483 117.496714 
L 196.363633 118.37402 
L 192.834783 119.74038 
L 189.305932 120.426625 
L 185.777073 121.658383 
L 182.248223 121.953535 
L 178.719364 122.967465 
L 175.190514 123.156685 
L 171.661663 124.05436 
L 168.132805 124.180213 
L 164.603954 125.074067 
L 161.075095 125.235969 
L 157.546245 126.206818 
L 154.017395 126.507318 
L 150.488536 127.504277 
L 146.959685 128.135243 
L 143.430827 128.880479 
L 139.901976 129.699506 
L 136.373126 131.176761 
L 132.844267 132.821214 
L 129.315417 134.447756 
L 125.786558 137.605746 
L 122.257708 138.009088 
z
" clip-path="url(#pcb6f987c82)" style="fill: #023047; fill-opacity: 0.2"/>
   </g>
   <g id="PolyCollection_2">
    <path d="M 122.257708 138.009088 
L 122.257708 138.009088 
L 125.786558 131.193627 
L 129.315417 124.0004 
L 132.844267 118.433357 
L 136.373126 114.344011 
L 139.901976 111.118586 
L 143.430827 109.16691 
L 146.959685 106.817748 
L 150.488536 105.767504 
L 154.017395 103.841229 
L 157.546245 102.400151 
L 161.075095 100.862699 
L 164.603954 100.318552 
L 168.132805 97.71567 
L 171.661663 96.52474 
L 175.190514 94.094565 
L 178.719364 91.050229 
L 182.248223 87.090038 
L 185.777073 84.400469 
L 189.305932 80.928186 
L 192.834783 78.396012 
L 196.363633 75.883151 
L 199.892483 73.711668 
L 203.421351 70.86562 
L 206.950201 67.895278 
L 210.479051 64.619545 
L 214.007902 61.920679 
L 217.536752 58.94686 
L 221.065619 56.195204 
L 224.59447 53.084055 
L 228.12332 50.412433 
L 231.652171 47.603746 
L 235.181021 44.677628 
L 238.709888 41.837629 
L 242.238739 39.034024 
L 245.767589 36.74783 
L 249.296439 34.24188 
L 252.82529 32.224961 
L 256.354157 29.973402 
L 259.883007 28.084832 
L 263.411858 25.014085 
L 263.411858 65.983346 
L 263.411858 65.983346 
L 259.883007 69.245935 
L 256.354157 71.112284 
L 252.82529 73.480653 
L 249.296439 76.073727 
L 245.767589 78.025292 
L 242.238739 80.963832 
L 238.709888 83.713895 
L 235.181021 86.955233 
L 231.652171 90.715908 
L 228.12332 94.935994 
L 224.59447 98.655979 
L 221.065619 102.382511 
L 217.536752 105.4617 
L 214.007902 107.861995 
L 210.479051 110.027582 
L 206.950201 111.603866 
L 203.421351 113.194968 
L 199.892483 114.725173 
L 196.363633 116.642423 
L 192.834783 118.513074 
L 189.305932 120.411297 
L 185.777073 122.679078 
L 182.248223 124.380741 
L 178.719364 124.582536 
L 175.190514 125.049032 
L 171.661663 124.617712 
L 168.132805 124.6262 
L 164.603954 125.148276 
L 161.075095 126.69909 
L 157.546245 128.152844 
L 154.017395 128.832497 
L 150.488536 129.053833 
L 146.959685 129.68915 
L 143.430827 129.127939 
L 139.901976 129.470522 
L 136.373126 131.51777 
L 132.844267 133.760395 
L 129.315417 135.087387 
L 125.786558 139.378948 
L 122.257708 138.009088 
z
" clip-path="url(#pcb6f987c82)" style="fill: #f08700; fill-opacity: 0.2"/>
   </g>
   <g id="line2d_23">
    <path d="M 122.257708 138.009088 
L 125.786558 133.374252 
L 129.315417 129.060472 
L 132.844267 125.924932 
L 136.373126 123.468983 
L 139.901976 121.903916 
L 143.430827 120.935679 
L 146.959685 119.884202 
L 150.488536 118.977109 
L 154.017395 117.715897 
L 157.546245 117.100568 
L 161.075095 115.681266 
L 164.603954 115.115837 
L 168.132805 113.636225 
L 171.661663 113.009583 
L 175.190514 111.379621 
L 178.719364 110.58808 
L 182.248223 108.757466 
L 185.777073 107.749895 
L 189.305932 105.724067 
L 192.834783 104.405969 
L 196.363633 102.288046 
L 199.892483 100.795782 
L 203.421351 98.555924 
L 206.950201 96.879013 
L 210.479051 94.534592 
L 214.007902 92.59915 
L 217.536752 90.108725 
L 221.065619 87.900178 
L 224.59447 85.306966 
L 228.12332 82.988633 
L 231.652171 80.308628 
L 235.181021 77.916151 
L 238.709888 75.311961 
L 242.238739 72.872975 
L 245.767589 70.258261 
L 249.296439 67.808104 
L 252.82529 65.196848 
L 256.354157 62.762287 
L 259.883007 60.032806 
L 263.411858 57.924229 
" clip-path="url(#pcb6f987c82)" style="fill: none; stroke: #023047; stroke-width: 1.5; stroke-linecap: square"/>
   </g>
   <g id="line2d_24">
    <path d="M 122.257708 138.009088 
L 125.786558 135.286287 
L 129.315417 129.543894 
L 132.844267 126.096876 
L 136.373126 122.93089 
L 139.901976 120.294554 
L 143.430827 119.147424 
L 146.959685 118.253449 
L 150.488536 117.410669 
L 154.017395 116.336863 
L 157.546245 115.276497 
L 161.075095 113.780894 
L 164.603954 112.733414 
L 168.132805 111.170935 
L 171.661663 110.571226 
L 175.190514 109.571799 
L 178.719364 107.816382 
L 182.248223 105.735389 
L 185.777073 103.539773 
L 189.305932 100.669742 
L 192.834783 98.454543 
L 196.363633 96.262787 
L 199.892483 94.218421 
L 203.421351 92.030294 
L 206.950201 89.749572 
L 210.479051 87.323564 
L 214.007902 84.891337 
L 217.536752 82.20428 
L 221.065619 79.288858 
L 224.59447 75.870017 
L 228.12332 72.674214 
L 231.652171 69.159827 
L 235.181021 65.816431 
L 238.709888 62.775762 
L 242.238739 59.998928 
L 245.767589 57.386561 
L 249.296439 55.157804 
L 252.82529 52.852807 
L 256.354157 50.542843 
L 259.883007 48.665384 
L 263.411858 45.498716 
" clip-path="url(#pcb6f987c82)" style="fill: none; stroke: #f08700; stroke-width: 1.5; stroke-linecap: square"/>
   </g>
   <g id="PathCollection_1">
    <path d="M 122.257708 140.7477 
C 122.983996 140.7477 123.680636 140.459143 124.194199 139.945579 
C 124.707763 139.432016 124.99632 138.735376 124.99632 138.009088 
C 124.99632 137.282799 124.707763 136.58616 124.194199 136.072596 
C 123.680636 135.559032 122.983996 135.270475 122.257708 135.270475 
C 121.531419 135.270475 120.834779 135.559032 120.321216 136.072596 
C 119.807652 136.58616 119.519095 137.282799 119.519095 138.009088 
C 119.519095 138.735376 119.807652 139.432016 120.321216 139.945579 
C 120.834779 140.459143 121.531419 140.7477 122.257708 140.7477 
z
" clip-path="url(#pcb6f987c82)"/>
   </g>
   <g id="PathCollection_2">
    <path d="M 263.411858 60.662841 
C 264.138146 60.662841 264.834786 60.374284 265.348349 59.86072 
C 265.861913 59.347157 266.15047 58.650517 266.15047 57.924229 
C 266.15047 57.19794 265.861913 56.501301 265.348349 55.987737 
C 264.834786 55.474173 264.138146 55.185616 263.411858 55.185616 
C 262.685569 55.185616 261.98893 55.474173 261.475366 55.987737 
C 260.961802 56.501301 260.673245 57.19794 260.673245 57.924229 
C 260.673245 58.650517 260.961802 59.347157 261.475366 59.86072 
C 261.98893 60.374284 262.685569 60.662841 263.411858 60.662841 
z
" clip-path="url(#pcb6f987c82)" style="fill: #023047"/>
   </g>
   <g id="PathCollection_3">
    <path d="M 122.257708 140.7477 
C 122.983996 140.7477 123.680636 140.459143 124.194199 139.945579 
C 124.707763 139.432016 124.99632 138.735376 124.99632 138.009088 
C 124.99632 137.282799 124.707763 136.58616 124.194199 136.072596 
C 123.680636 135.559032 122.983996 135.270475 122.257708 135.270475 
C 121.531419 135.270475 120.834779 135.559032 120.321216 136.072596 
C 119.807652 136.58616 119.519095 137.282799 119.519095 138.009088 
C 119.519095 138.735376 119.807652 139.432016 120.321216 139.945579 
C 120.834779 140.459143 121.531419 140.7477 122.257708 140.7477 
z
" clip-path="url(#pcb6f987c82)"/>
   </g>
   <g id="PathCollection_4">
    <path d="M 263.411858 48.237329 
C 264.138146 48.237329 264.834786 47.948771 265.348349 47.435207 
C 265.861913 46.921644 266.15047 46.225004 266.15047 45.498716 
C 266.15047 44.772427 265.861913 44.075788 265.348349 43.562224 
C 264.834786 43.04866 264.138146 42.760103 263.411858 42.760103 
C 262.685569 42.760103 261.98893 43.04866 261.475366 43.562224 
C 260.961802 44.075788 260.673245 44.772427 260.673245 45.498716 
C 260.673245 46.225004 260.961802 46.921644 261.475366 47.435207 
C 261.98893 47.948771 262.685569 48.237329 263.411858 48.237329 
z
" clip-path="url(#pcb6f987c82)" style="fill: #f08700"/>
   </g>
  </g>
  <g id="axes_2">
   <g id="patch_5">
    <path d="M 301.523478 153.792 
L 456.793043 153.792 
L 456.793043 20.736 
L 301.523478 20.736 
z
" style="fill: #ffffff"/>
   </g>
   <g id="matplotlib.axis_3">
    <g id="xtick_6">
     <g id="line2d_25">
      <path d="M 308.581186 153.792 
L 308.581186 20.736 
" clip-path="url(#p9c407bedb6)" style="fill: none; stroke: #b0b0b0; stroke-opacity: 0.8; stroke-width: 0.5; stroke-linecap: square"/>
     </g>
     <g id="line2d_26">
      <g>
       <use xlink:href="#m10857736f3" x="308.581186" y="153.792" style="stroke: #000000; stroke-width: 0.8"/>
      </g>
     </g>
     <g id="text_13">
      <!-- 2 -->
      <g transform="translate(306.672436 165.351062) scale(0.06 -0.06)">
       <use xlink:href="#DejaVuSans-32"/>
      </g>
     </g>
    </g>
    <g id="xtick_7">
     <g id="line2d_27">
      <path d="M 343.869723 153.792 
L 343.869723 20.736 
" clip-path="url(#p9c407bedb6)" style="fill: none; stroke: #b0b0b0; stroke-opacity: 0.8; stroke-width: 0.5; stroke-linecap: square"/>
     </g>
     <g id="line2d_28">
      <g>
       <use xlink:href="#m10857736f3" x="343.869723" y="153.792" style="stroke: #000000; stroke-width: 0.8"/>
      </g>
     </g>
     <g id="text_14">
      <!-- 3 -->
      <g transform="translate(341.960973 165.351062) scale(0.06 -0.06)">
       <use xlink:href="#DejaVuSans-33"/>
      </g>
     </g>
    </g>
    <g id="xtick_8">
     <g id="line2d_29">
      <path d="M 379.158261 153.792 
L 379.158261 20.736 
" clip-path="url(#p9c407bedb6)" style="fill: none; stroke: #b0b0b0; stroke-opacity: 0.8; stroke-width: 0.5; stroke-linecap: square"/>
     </g>
     <g id="line2d_30">
      <g>
       <use xlink:href="#m10857736f3" x="379.158261" y="153.792" style="stroke: #000000; stroke-width: 0.8"/>
      </g>
     </g>
     <g id="text_15">
      <!-- 4 -->
      <g transform="translate(377.249511 165.351062) scale(0.06 -0.06)">
       <use xlink:href="#DejaVuSans-34"/>
      </g>
     </g>
    </g>
    <g id="xtick_9">
     <g id="line2d_31">
      <path d="M 414.446798 153.792 
L 414.446798 20.736 
" clip-path="url(#p9c407bedb6)" style="fill: none; stroke: #b0b0b0; stroke-opacity: 0.8; stroke-width: 0.5; stroke-linecap: square"/>
     </g>
     <g id="line2d_32">
      <g>
       <use xlink:href="#m10857736f3" x="414.446798" y="153.792" style="stroke: #000000; stroke-width: 0.8"/>
      </g>
     </g>
     <g id="text_16">
      <!-- 5 -->
      <g transform="translate(412.538048 165.351062) scale(0.06 -0.06)">
       <use xlink:href="#DejaVuSans-35"/>
      </g>
     </g>
    </g>
    <g id="xtick_10">
     <g id="line2d_33">
      <path d="M 449.735336 153.792 
L 449.735336 20.736 
" clip-path="url(#p9c407bedb6)" style="fill: none; stroke: #b0b0b0; stroke-opacity: 0.8; stroke-width: 0.5; stroke-linecap: square"/>
     </g>
     <g id="line2d_34">
      <g>
       <use xlink:href="#m10857736f3" x="449.735336" y="153.792" style="stroke: #000000; stroke-width: 0.8"/>
      </g>
     </g>
     <g id="text_17">
      <!-- 6 -->
      <g transform="translate(447.826586 165.351062) scale(0.06 -0.06)">
       <use xlink:href="#DejaVuSans-36"/>
      </g>
     </g>
    </g>
   </g>
   <g id="matplotlib.axis_4">
    <g id="ytick_7">
     <g id="line2d_35">
      <path d="M 301.523478 153.792 
L 456.793043 153.792 
" clip-path="url(#p9c407bedb6)" style="fill: none; stroke: #b0b0b0; stroke-opacity: 0.8; stroke-width: 0.5; stroke-linecap: square"/>
     </g>
     <g id="line2d_36">
      <g>
       <use xlink:href="#m5cb5b46720" x="301.523478" y="153.792" style="stroke: #000000; stroke-width: 0.8"/>
      </g>
     </g>
     <g id="text_18">
      <!-- 0.0 -->
      <g transform="translate(284.981603 156.071531) scale(0.06 -0.06)">
       <use xlink:href="#DejaVuSans-30"/>
       <use xlink:href="#DejaVuSans-2e" x="63.623047"/>
       <use xlink:href="#DejaVuSans-30" x="95.410156"/>
      </g>
     </g>
    </g>
    <g id="ytick_8">
     <g id="line2d_37">
      <path d="M 301.523478 127.1808 
L 456.793043 127.1808 
" clip-path="url(#p9c407bedb6)" style="fill: none; stroke: #b0b0b0; stroke-opacity: 0.8; stroke-width: 0.5; stroke-linecap: square"/>
     </g>
     <g id="line2d_38">
      <g>
       <use xlink:href="#m5cb5b46720" x="301.523478" y="127.1808" style="stroke: #000000; stroke-width: 0.8"/>
      </g>
     </g>
     <g id="text_19">
      <!-- 0.2 -->
      <g transform="translate(284.981603 129.460331) scale(0.06 -0.06)">
       <use xlink:href="#DejaVuSans-30"/>
       <use xlink:href="#DejaVuSans-2e" x="63.623047"/>
       <use xlink:href="#DejaVuSans-32" x="95.410156"/>
      </g>
     </g>
    </g>
    <g id="ytick_9">
     <g id="line2d_39">
      <path d="M 301.523478 100.5696 
L 456.793043 100.5696 
" clip-path="url(#p9c407bedb6)" style="fill: none; stroke: #b0b0b0; stroke-opacity: 0.8; stroke-width: 0.5; stroke-linecap: square"/>
     </g>
     <g id="line2d_40">
      <g>
       <use xlink:href="#m5cb5b46720" x="301.523478" y="100.5696" style="stroke: #000000; stroke-width: 0.8"/>
      </g>
     </g>
     <g id="text_20">
      <!-- 0.4 -->
      <g transform="translate(284.981603 102.849131) scale(0.06 -0.06)">
       <use xlink:href="#DejaVuSans-30"/>
       <use xlink:href="#DejaVuSans-2e" x="63.623047"/>
       <use xlink:href="#DejaVuSans-34" x="95.410156"/>
      </g>
     </g>
    </g>
    <g id="ytick_10">
     <g id="line2d_41">
      <path d="M 301.523478 73.9584 
L 456.793043 73.9584 
" clip-path="url(#p9c407bedb6)" style="fill: none; stroke: #b0b0b0; stroke-opacity: 0.8; stroke-width: 0.5; stroke-linecap: square"/>
     </g>
     <g id="line2d_42">
      <g>
       <use xlink:href="#m5cb5b46720" x="301.523478" y="73.9584" style="stroke: #000000; stroke-width: 0.8"/>
      </g>
     </g>
     <g id="text_21">
      <!-- 0.6 -->
      <g transform="translate(284.981603 76.237931) scale(0.06 -0.06)">
       <use xlink:href="#DejaVuSans-30"/>
       <use xlink:href="#DejaVuSans-2e" x="63.623047"/>
       <use xlink:href="#DejaVuSans-36" x="95.410156"/>
      </g>
     </g>
    </g>
    <g id="ytick_11">
     <g id="line2d_43">
      <path d="M 301.523478 47.3472 
L 456.793043 47.3472 
" clip-path="url(#p9c407bedb6)" style="fill: none; stroke: #b0b0b0; stroke-opacity: 0.8; stroke-width: 0.5; stroke-linecap: square"/>
     </g>
     <g id="line2d_44">
      <g>
       <use xlink:href="#m5cb5b46720" x="301.523478" y="47.3472" style="stroke: #000000; stroke-width: 0.8"/>
      </g>
     </g>
     <g id="text_22">
      <!-- 0.8 -->
      <g transform="translate(284.981603 49.626731) scale(0.06 -0.06)">
       <defs>
        <path id="DejaVuSans-38" d="M 2034 2216 
Q 1584 2216 1326 1975 
Q 1069 1734 1069 1313 
Q 1069 891 1326 650 
Q 1584 409 2034 409 
Q 2484 409 2743 651 
Q 3003 894 3003 1313 
Q 3003 1734 2745 1975 
Q 2488 2216 2034 2216 
z
M 1403 2484 
Q 997 2584 770 2862 
Q 544 3141 544 3541 
Q 544 4100 942 4425 
Q 1341 4750 2034 4750 
Q 2731 4750 3128 4425 
Q 3525 4100 3525 3541 
Q 3525 3141 3298 2862 
Q 3072 2584 2669 2484 
Q 3125 2378 3379 2068 
Q 3634 1759 3634 1313 
Q 3634 634 3220 271 
Q 2806 -91 2034 -91 
Q 1263 -91 848 271 
Q 434 634 434 1313 
Q 434 1759 690 2068 
Q 947 2378 1403 2484 
z
M 1172 3481 
Q 1172 3119 1398 2916 
Q 1625 2713 2034 2713 
Q 2441 2713 2670 2916 
Q 2900 3119 2900 3481 
Q 2900 3844 2670 4047 
Q 2441 4250 2034 4250 
Q 1625 4250 1398 4047 
Q 1172 3844 1172 3481 
z
" transform="scale(0.015625)"/>
       </defs>
       <use xlink:href="#DejaVuSans-30"/>
       <use xlink:href="#DejaVuSans-2e" x="63.623047"/>
       <use xlink:href="#DejaVuSans-38" x="95.410156"/>
      </g>
     </g>
    </g>
    <g id="ytick_12">
     <g id="line2d_45">
      <path d="M 301.523478 20.736 
L 456.793043 20.736 
" clip-path="url(#p9c407bedb6)" style="fill: none; stroke: #b0b0b0; stroke-opacity: 0.8; stroke-width: 0.5; stroke-linecap: square"/>
     </g>
     <g id="line2d_46">
      <g>
       <use xlink:href="#m5cb5b46720" x="301.523478" y="20.736" style="stroke: #000000; stroke-width: 0.8"/>
      </g>
     </g>
     <g id="text_23">
      <!-- 1.0 -->
      <g transform="translate(284.981603 23.015531) scale(0.06 -0.06)">
       <use xlink:href="#DejaVuSans-31"/>
       <use xlink:href="#DejaVuSans-2e" x="63.623047"/>
       <use xlink:href="#DejaVuSans-30" x="95.410156"/>
      </g>
     </g>
    </g>
   </g>
   <g id="patch_6">
    <path d="M 301.523478 153.792 
L 301.523478 20.736 
" style="fill: none; stroke: #000000; stroke-width: 0.8; stroke-linejoin: miter; stroke-linecap: square"/>
   </g>
   <g id="patch_7">
    <path d="M 301.523478 153.792 
L 456.793043 153.792 
" style="fill: none; stroke: #000000; stroke-width: 0.8; stroke-linejoin: miter; stroke-linecap: square"/>
   </g>
   <g id="text_24">
    <!-- Gfi1 -->
    <g transform="translate(368.953573 14.736) scale(0.1 -0.1)">
     <defs>
      <path id="DejaVuSans-47" d="M 3809 666 
L 3809 1919 
L 2778 1919 
L 2778 2438 
L 4434 2438 
L 4434 434 
Q 4069 175 3628 42 
Q 3188 -91 2688 -91 
Q 1594 -91 976 548 
Q 359 1188 359 2328 
Q 359 3472 976 4111 
Q 1594 4750 2688 4750 
Q 3144 4750 3555 4637 
Q 3966 4525 4313 4306 
L 4313 3634 
Q 3963 3931 3569 4081 
Q 3175 4231 2741 4231 
Q 1884 4231 1454 3753 
Q 1025 3275 1025 2328 
Q 1025 1384 1454 906 
Q 1884 428 2741 428 
Q 3075 428 3337 486 
Q 3600 544 3809 666 
z
" transform="scale(0.015625)"/>
      <path id="DejaVuSans-66" d="M 2375 4863 
L 2375 4384 
L 1825 4384 
Q 1516 4384 1395 4259 
Q 1275 4134 1275 3809 
L 1275 3500 
L 2222 3500 
L 2222 3053 
L 1275 3053 
L 1275 0 
L 697 0 
L 697 3053 
L 147 3053 
L 147 3500 
L 697 3500 
L 697 3744 
Q 697 4328 969 4595 
Q 1241 4863 1831 4863 
L 2375 4863 
z
" transform="scale(0.015625)"/>
     </defs>
     <use xlink:href="#DejaVuSans-47"/>
     <use xlink:href="#DejaVuSans-66" x="77.490234"/>
     <use xlink:href="#DejaVuSans-69" x="112.695312"/>
     <use xlink:href="#DejaVuSans-31" x="140.478516"/>
    </g>
   </g>
   <g id="PolyCollection_3">
    <path d="M 308.581186 137.720477 
L 308.581186 137.720477 
L 312.110036 123.421093 
L 315.638895 120.556863 
L 319.167745 113.377566 
L 322.696604 108.743447 
L 326.225455 103.264982 
L 329.754305 98.563171 
L 333.283164 94.285336 
L 336.812014 91.065527 
L 340.340873 87.236578 
L 343.869723 84.900241 
L 347.398574 81.723278 
L 350.927433 79.24238 
L 354.456283 75.988776 
L 357.985142 73.281769 
L 361.513992 69.811801 
L 365.042842 66.875904 
L 368.571701 63.495822 
L 372.100552 60.401026 
L 375.62941 57.050393 
L 379.158261 53.969441 
L 382.687111 50.666231 
L 386.215962 47.518019 
L 389.744829 44.311305 
L 393.273679 41.182445 
L 396.80253 38.273361 
L 400.33138 35.519676 
L 403.86023 32.926046 
L 407.389098 30.691392 
L 410.917948 28.587203 
L 414.446798 26.725557 
L 417.975649 25.124603 
L 421.504499 23.769362 
L 425.033366 22.727633 
L 428.562217 22.095188 
L 432.091067 21.782635 
L 435.619918 21.88564 
L 439.148768 22.428306 
L 442.677635 23.242413 
L 446.206486 24.213612 
L 449.735336 25.637999 
L 449.735336 118.265624 
L 449.735336 118.265624 
L 446.206486 115.262345 
L 442.677635 111.961557 
L 439.148768 108.762956 
L 435.619918 105.547631 
L 432.091067 102.497411 
L 428.562217 99.64136 
L 425.033366 97.04498 
L 421.504499 94.819818 
L 417.975649 92.972943 
L 414.446798 91.395128 
L 410.917948 90.143192 
L 407.389098 89.334631 
L 403.86023 88.817712 
L 400.33138 88.769228 
L 396.80253 88.90746 
L 393.273679 89.518524 
L 389.744829 90.037166 
L 386.215962 90.908714 
L 382.687111 91.569184 
L 379.158261 92.801936 
L 375.62941 93.614827 
L 372.100552 95.170289 
L 368.571701 96.42401 
L 365.042842 98.175003 
L 361.513992 99.332072 
L 357.985142 101.1486 
L 354.456283 102.285342 
L 350.927433 103.875744 
L 347.398574 104.974205 
L 343.869723 106.588694 
L 340.340873 107.756527 
L 336.812014 109.532317 
L 333.283164 111.213603 
L 329.754305 113.196442 
L 326.225455 116.005221 
L 322.696604 118.892979 
L 319.167745 121.503836 
L 315.638895 125.938531 
L 312.110036 126.432014 
L 308.581186 137.720477 
z
" clip-path="url(#p9c407bedb6)" style="fill: #023047; fill-opacity: 0.2"/>
   </g>
   <g id="PolyCollection_4">
    <path d="M 308.581186 137.720477 
L 308.581186 137.720477 
L 312.110036 124.150741 
L 315.638895 122.272712 
L 319.167745 115.19275 
L 322.696604 110.171747 
L 326.225455 103.877923 
L 329.754305 98.61789 
L 333.283164 93.18866 
L 336.812014 90.36794 
L 340.340873 87.825235 
L 343.869723 86.72239 
L 347.398574 84.33981 
L 350.927433 83.24313 
L 354.456283 80.994975 
L 357.985142 78.132533 
L 361.513992 75.961642 
L 365.042842 76.497033 
L 368.571701 77.181468 
L 372.100552 78.156933 
L 375.62941 79.253023 
L 379.158261 80.63689 
L 382.687111 79.691566 
L 386.215962 78.872849 
L 389.744829 78.943638 
L 393.273679 80.104769 
L 396.80253 79.417801 
L 400.33138 79.238737 
L 403.86023 79.32619 
L 407.389098 80.293515 
L 410.917948 80.7537 
L 414.446798 82.396346 
L 417.975649 85.205656 
L 421.504499 87.227349 
L 425.033366 87.516989 
L 428.562217 88.37011 
L 432.091067 89.368565 
L 435.619918 89.866667 
L 439.148768 90.764332 
L 442.677635 92.787403 
L 446.206486 92.98551 
L 449.735336 98.607743 
L 449.735336 143.468547 
L 449.735336 143.468547 
L 446.206486 142.313427 
L 442.677635 140.793088 
L 439.148768 138.627448 
L 435.619918 136.616873 
L 432.091067 134.018528 
L 428.562217 131.282484 
L 425.033366 129.500874 
L 421.504499 128.45814 
L 417.975649 127.329096 
L 414.446798 126.329419 
L 410.917948 124.338234 
L 407.389098 122.671847 
L 403.86023 120.488594 
L 400.33138 119.073075 
L 396.80253 117.455555 
L 393.273679 116.77958 
L 389.744829 117.075149 
L 386.215962 117.445658 
L 382.687111 115.82114 
L 379.158261 113.464007 
L 375.62941 112.477515 
L 372.100552 109.774358 
L 368.571701 107.539478 
L 365.042842 106.867608 
L 361.513992 108.374973 
L 357.985142 109.053338 
L 354.456283 109.326419 
L 350.927433 109.968743 
L 347.398574 110.771487 
L 343.869723 109.591709 
L 340.340873 109.276593 
L 336.812014 109.941532 
L 333.283164 111.180812 
L 329.754305 112.673679 
L 326.225455 116.628188 
L 322.696604 119.737934 
L 319.167745 122.826883 
L 315.638895 127.051662 
L 312.110036 127.062875 
L 308.581186 137.720477 
z
" clip-path="url(#p9c407bedb6)" style="fill: #f08700; fill-opacity: 0.2"/>
   </g>
   <g id="line2d_47">
    <path d="M 308.581186 137.720477 
L 312.110036 124.926553 
L 315.638895 123.247697 
L 319.167745 117.440701 
L 322.696604 113.818213 
L 326.225455 109.635101 
L 329.754305 105.879807 
L 333.283164 102.749469 
L 336.812014 100.298922 
L 340.340873 97.496552 
L 343.869723 95.744468 
L 347.398574 93.348742 
L 350.927433 91.559062 
L 354.456283 89.137059 
L 357.985142 87.215185 
L 361.513992 84.571936 
L 365.042842 82.525453 
L 368.571701 79.959916 
L 372.100552 77.785658 
L 375.62941 75.33261 
L 379.158261 73.385688 
L 382.687111 71.117708 
L 386.215962 69.213367 
L 389.744829 67.174236 
L 393.273679 65.350485 
L 396.80253 63.590411 
L 400.33138 62.144452 
L 403.86023 60.871879 
L 407.389098 60.013012 
L 410.917948 59.365198 
L 414.446798 59.060343 
L 417.975649 59.048773 
L 421.504499 59.29459 
L 425.033366 59.886306 
L 428.562217 60.868274 
L 432.091067 62.140023 
L 435.619918 63.716636 
L 439.148768 65.595631 
L 442.677635 67.601985 
L 446.206486 69.737979 
L 449.735336 71.951811 
" clip-path="url(#p9c407bedb6)" style="fill: none; stroke: #023047; stroke-width: 1.5; stroke-linecap: square"/>
   </g>
   <g id="line2d_48">
    <path d="M 308.581186 137.720477 
L 312.110036 125.606808 
L 315.638895 124.662187 
L 319.167745 119.009816 
L 322.696604 114.95484 
L 326.225455 110.253056 
L 329.754305 105.645784 
L 333.283164 102.184736 
L 336.812014 100.154736 
L 340.340873 98.550914 
L 343.869723 98.15705 
L 347.398574 97.555648 
L 350.927433 96.605937 
L 354.456283 95.160697 
L 357.985142 93.592936 
L 361.513992 92.168308 
L 365.042842 91.682321 
L 368.571701 92.360473 
L 372.100552 93.965646 
L 375.62941 95.865269 
L 379.158261 97.050449 
L 382.687111 97.756353 
L 386.215962 98.159254 
L 389.744829 98.009393 
L 393.273679 98.442174 
L 396.80253 98.436678 
L 400.33138 99.155906 
L 403.86023 99.907392 
L 407.389098 101.482681 
L 410.917948 102.545967 
L 414.446798 104.362882 
L 417.975649 106.267376 
L 421.504499 107.842744 
L 425.033366 108.508931 
L 428.562217 109.826297 
L 432.091067 111.693546 
L 435.619918 113.24177 
L 439.148768 114.69589 
L 442.677635 116.790245 
L 446.206486 117.649468 
L 449.735336 121.038145 
" clip-path="url(#p9c407bedb6)" style="fill: none; stroke: #f08700; stroke-width: 1.5; stroke-linecap: square"/>
   </g>
   <g id="PathCollection_5">
    <path d="M 308.581186 140.459089 
C 309.307474 140.459089 310.004114 140.170532 310.517677 139.656968 
C 311.031241 139.143405 311.319799 138.446765 311.319799 137.720477 
C 311.319799 136.994188 311.031241 136.297548 310.517677 135.783985 
C 310.004114 135.270421 309.307474 134.981864 308.581186 134.981864 
C 307.854897 134.981864 307.158258 135.270421 306.644694 135.783985 
C 306.131131 136.297548 305.842573 136.994188 305.842573 137.720477 
C 305.842573 138.446765 306.131131 139.143405 306.644694 139.656968 
C 307.158258 140.170532 307.854897 140.459089 308.581186 140.459089 
z
" clip-path="url(#p9c407bedb6)"/>
   </g>
   <g id="PathCollection_6">
    <path d="M 449.735336 74.690424 
C 450.461625 74.690424 451.158264 74.401867 451.671828 73.888303 
C 452.185391 73.374739 452.473949 72.6781 452.473949 71.951811 
C 452.473949 71.225523 452.185391 70.528883 451.671828 70.01532 
C 451.158264 69.501756 450.461625 69.213199 449.735336 69.213199 
C 449.009047 69.213199 448.312408 69.501756 447.798844 70.01532 
C 447.285281 70.528883 446.996723 71.225523 446.996723 71.951811 
C 446.996723 72.6781 447.285281 73.374739 447.798844 73.888303 
C 448.312408 74.401867 449.009047 74.690424 449.735336 74.690424 
z
" clip-path="url(#p9c407bedb6)" style="fill: #023047"/>
   </g>
   <g id="PathCollection_7">
    <path d="M 308.581186 140.459089 
C 309.307474 140.459089 310.004114 140.170532 310.517677 139.656968 
C 311.031241 139.143405 311.319799 138.446765 311.319799 137.720477 
C 311.319799 136.994188 311.031241 136.297548 310.517677 135.783985 
C 310.004114 135.270421 309.307474 134.981864 308.581186 134.981864 
C 307.854897 134.981864 307.158258 135.270421 306.644694 135.783985 
C 306.131131 136.297548 305.842573 136.994188 305.842573 137.720477 
C 305.842573 138.446765 306.131131 139.143405 306.644694 139.656968 
C 307.158258 140.170532 307.854897 140.459089 308.581186 140.459089 
z
" clip-path="url(#p9c407bedb6)"/>
   </g>
   <g id="PathCollection_8">
    <path d="M 449.735336 123.776757 
C 450.461625 123.776757 451.158264 123.4882 451.671828 122.974636 
C 452.185391 122.461073 452.473949 121.764433 452.473949 121.038145 
C 452.473949 120.311856 452.185391 119.615216 451.671828 119.101653 
C 451.158264 118.588089 450.461625 118.299532 449.735336 118.299532 
C 449.009047 118.299532 448.312408 118.588089 447.798844 119.101653 
C 447.285281 119.615216 446.996723 120.311856 446.996723 121.038145 
C 446.996723 121.764433 447.285281 122.461073 447.798844 122.974636 
C 448.312408 123.4882 449.009047 123.776757 449.735336 123.776757 
z
" clip-path="url(#p9c407bedb6)" style="fill: #f08700"/>
   </g>
  </g>
  <g id="axes_3">
   <g id="patch_8">
    <path d="M 487.846957 153.792 
L 643.116522 153.792 
L 643.116522 20.736 
L 487.846957 20.736 
z
" style="fill: #ffffff"/>
   </g>
   <g id="matplotlib.axis_5">
    <g id="xtick_11">
     <g id="line2d_49">
      <path d="M 494.904664 153.792 
L 494.904664 20.736 
" clip-path="url(#pcaa17f1a73)" style="fill: none; stroke: #b0b0b0; stroke-opacity: 0.8; stroke-width: 0.5; stroke-linecap: square"/>
     </g>
     <g id="line2d_50">
      <g>
       <use xlink:href="#m10857736f3" x="494.904664" y="153.792" style="stroke: #000000; stroke-width: 0.8"/>
      </g>
     </g>
     <g id="text_25">
      <!-- 2 -->
      <g transform="translate(492.995914 165.351062) scale(0.06 -0.06)">
       <use xlink:href="#DejaVuSans-32"/>
      </g>
     </g>
    </g>
    <g id="xtick_12">
     <g id="line2d_51">
      <path d="M 530.193202 153.792 
L 530.193202 20.736 
" clip-path="url(#pcaa17f1a73)" style="fill: none; stroke: #b0b0b0; stroke-opacity: 0.8; stroke-width: 0.5; stroke-linecap: square"/>
     </g>
     <g id="line2d_52">
      <g>
       <use xlink:href="#m10857736f3" x="530.193202" y="153.792" style="stroke: #000000; stroke-width: 0.8"/>
      </g>
     </g>
     <g id="text_26">
      <!-- 3 -->
      <g transform="translate(528.284452 165.351062) scale(0.06 -0.06)">
       <use xlink:href="#DejaVuSans-33"/>
      </g>
     </g>
    </g>
    <g id="xtick_13">
     <g id="line2d_53">
      <path d="M 565.481739 153.792 
L 565.481739 20.736 
" clip-path="url(#pcaa17f1a73)" style="fill: none; stroke: #b0b0b0; stroke-opacity: 0.8; stroke-width: 0.5; stroke-linecap: square"/>
     </g>
     <g id="line2d_54">
      <g>
       <use xlink:href="#m10857736f3" x="565.481739" y="153.792" style="stroke: #000000; stroke-width: 0.8"/>
      </g>
     </g>
     <g id="text_27">
      <!-- 4 -->
      <g transform="translate(563.572989 165.351062) scale(0.06 -0.06)">
       <use xlink:href="#DejaVuSans-34"/>
      </g>
     </g>
    </g>
    <g id="xtick_14">
     <g id="line2d_55">
      <path d="M 600.770277 153.792 
L 600.770277 20.736 
" clip-path="url(#pcaa17f1a73)" style="fill: none; stroke: #b0b0b0; stroke-opacity: 0.8; stroke-width: 0.5; stroke-linecap: square"/>
     </g>
     <g id="line2d_56">
      <g>
       <use xlink:href="#m10857736f3" x="600.770277" y="153.792" style="stroke: #000000; stroke-width: 0.8"/>
      </g>
     </g>
     <g id="text_28">
      <!-- 5 -->
      <g transform="translate(598.861527 165.351062) scale(0.06 -0.06)">
       <use xlink:href="#DejaVuSans-35"/>
      </g>
     </g>
    </g>
    <g id="xtick_15">
     <g id="line2d_57">
      <path d="M 636.058814 153.792 
L 636.058814 20.736 
" clip-path="url(#pcaa17f1a73)" style="fill: none; stroke: #b0b0b0; stroke-opacity: 0.8; stroke-width: 0.5; stroke-linecap: square"/>
     </g>
     <g id="line2d_58">
      <g>
       <use xlink:href="#m10857736f3" x="636.058814" y="153.792" style="stroke: #000000; stroke-width: 0.8"/>
      </g>
     </g>
     <g id="text_29">
      <!-- 6 -->
      <g transform="translate(634.150064 165.351062) scale(0.06 -0.06)">
       <use xlink:href="#DejaVuSans-36"/>
      </g>
     </g>
    </g>
   </g>
   <g id="matplotlib.axis_6">
    <g id="ytick_13">
     <g id="line2d_59">
      <path d="M 487.846957 153.792 
L 643.116522 153.792 
" clip-path="url(#pcaa17f1a73)" style="fill: none; stroke: #b0b0b0; stroke-opacity: 0.8; stroke-width: 0.5; stroke-linecap: square"/>
     </g>
     <g id="line2d_60">
      <g>
       <use xlink:href="#m5cb5b46720" x="487.846957" y="153.792" style="stroke: #000000; stroke-width: 0.8"/>
      </g>
     </g>
     <g id="text_30">
      <!-- 0.00 -->
      <g transform="translate(467.487582 156.071531) scale(0.06 -0.06)">
       <use xlink:href="#DejaVuSans-30"/>
       <use xlink:href="#DejaVuSans-2e" x="63.623047"/>
       <use xlink:href="#DejaVuSans-30" x="95.410156"/>
       <use xlink:href="#DejaVuSans-30" x="159.033203"/>
      </g>
     </g>
    </g>
    <g id="ytick_14">
     <g id="line2d_61">
      <path d="M 487.846957 137.16 
L 643.116522 137.16 
" clip-path="url(#pcaa17f1a73)" style="fill: none; stroke: #b0b0b0; stroke-opacity: 0.8; stroke-width: 0.5; stroke-linecap: square"/>
     </g>
     <g id="line2d_62">
      <g>
       <use xlink:href="#m5cb5b46720" x="487.846957" y="137.16" style="stroke: #000000; stroke-width: 0.8"/>
      </g>
     </g>
     <g id="text_31">
      <!-- 0.05 -->
      <g transform="translate(467.487582 139.439531) scale(0.06 -0.06)">
       <use xlink:href="#DejaVuSans-30"/>
       <use xlink:href="#DejaVuSans-2e" x="63.623047"/>
       <use xlink:href="#DejaVuSans-30" x="95.410156"/>
       <use xlink:href="#DejaVuSans-35" x="159.033203"/>
      </g>
     </g>
    </g>
    <g id="ytick_15">
     <g id="line2d_63">
      <path d="M 487.846957 120.528 
L 643.116522 120.528 
" clip-path="url(#pcaa17f1a73)" style="fill: none; stroke: #b0b0b0; stroke-opacity: 0.8; stroke-width: 0.5; stroke-linecap: square"/>
     </g>
     <g id="line2d_64">
      <g>
       <use xlink:href="#m5cb5b46720" x="487.846957" y="120.528" style="stroke: #000000; stroke-width: 0.8"/>
      </g>
     </g>
     <g id="text_32">
      <!-- 0.10 -->
      <g transform="translate(467.487582 122.807531) scale(0.06 -0.06)">
       <use xlink:href="#DejaVuSans-30"/>
       <use xlink:href="#DejaVuSans-2e" x="63.623047"/>
       <use xlink:href="#DejaVuSans-31" x="95.410156"/>
       <use xlink:href="#DejaVuSans-30" x="159.033203"/>
      </g>
     </g>
    </g>
    <g id="ytick_16">
     <g id="line2d_65">
      <path d="M 487.846957 103.896 
L 643.116522 103.896 
" clip-path="url(#pcaa17f1a73)" style="fill: none; stroke: #b0b0b0; stroke-opacity: 0.8; stroke-width: 0.5; stroke-linecap: square"/>
     </g>
     <g id="line2d_66">
      <g>
       <use xlink:href="#m5cb5b46720" x="487.846957" y="103.896" style="stroke: #000000; stroke-width: 0.8"/>
      </g>
     </g>
     <g id="text_33">
      <!-- 0.15 -->
      <g transform="translate(467.487582 106.175531) scale(0.06 -0.06)">
       <use xlink:href="#DejaVuSans-30"/>
       <use xlink:href="#DejaVuSans-2e" x="63.623047"/>
       <use xlink:href="#DejaVuSans-31" x="95.410156"/>
       <use xlink:href="#DejaVuSans-35" x="159.033203"/>
      </g>
     </g>
    </g>
    <g id="ytick_17">
     <g id="line2d_67">
      <path d="M 487.846957 87.264 
L 643.116522 87.264 
" clip-path="url(#pcaa17f1a73)" style="fill: none; stroke: #b0b0b0; stroke-opacity: 0.8; stroke-width: 0.5; stroke-linecap: square"/>
     </g>
     <g id="line2d_68">
      <g>
       <use xlink:href="#m5cb5b46720" x="487.846957" y="87.264" style="stroke: #000000; stroke-width: 0.8"/>
      </g>
     </g>
     <g id="text_34">
      <!-- 0.20 -->
      <g transform="translate(467.487582 89.543531) scale(0.06 -0.06)">
       <use xlink:href="#DejaVuSans-30"/>
       <use xlink:href="#DejaVuSans-2e" x="63.623047"/>
       <use xlink:href="#DejaVuSans-32" x="95.410156"/>
       <use xlink:href="#DejaVuSans-30" x="159.033203"/>
      </g>
     </g>
    </g>
    <g id="ytick_18">
     <g id="line2d_69">
      <path d="M 487.846957 70.632 
L 643.116522 70.632 
" clip-path="url(#pcaa17f1a73)" style="fill: none; stroke: #b0b0b0; stroke-opacity: 0.8; stroke-width: 0.5; stroke-linecap: square"/>
     </g>
     <g id="line2d_70">
      <g>
       <use xlink:href="#m5cb5b46720" x="487.846957" y="70.632" style="stroke: #000000; stroke-width: 0.8"/>
      </g>
     </g>
     <g id="text_35">
      <!-- 0.25 -->
      <g transform="translate(467.487582 72.911531) scale(0.06 -0.06)">
       <use xlink:href="#DejaVuSans-30"/>
       <use xlink:href="#DejaVuSans-2e" x="63.623047"/>
       <use xlink:href="#DejaVuSans-32" x="95.410156"/>
       <use xlink:href="#DejaVuSans-35" x="159.033203"/>
      </g>
     </g>
    </g>
    <g id="ytick_19">
     <g id="line2d_71">
      <path d="M 487.846957 54 
L 643.116522 54 
" clip-path="url(#pcaa17f1a73)" style="fill: none; stroke: #b0b0b0; stroke-opacity: 0.8; stroke-width: 0.5; stroke-linecap: square"/>
     </g>
     <g id="line2d_72">
      <g>
       <use xlink:href="#m5cb5b46720" x="487.846957" y="54" style="stroke: #000000; stroke-width: 0.8"/>
      </g>
     </g>
     <g id="text_36">
      <!-- 0.30 -->
      <g transform="translate(467.487582 56.279531) scale(0.06 -0.06)">
       <use xlink:href="#DejaVuSans-30"/>
       <use xlink:href="#DejaVuSans-2e" x="63.623047"/>
       <use xlink:href="#DejaVuSans-33" x="95.410156"/>
       <use xlink:href="#DejaVuSans-30" x="159.033203"/>
      </g>
     </g>
    </g>
    <g id="ytick_20">
     <g id="line2d_73">
      <path d="M 487.846957 37.368 
L 643.116522 37.368 
" clip-path="url(#pcaa17f1a73)" style="fill: none; stroke: #b0b0b0; stroke-opacity: 0.8; stroke-width: 0.5; stroke-linecap: square"/>
     </g>
     <g id="line2d_74">
      <g>
       <use xlink:href="#m5cb5b46720" x="487.846957" y="37.368" style="stroke: #000000; stroke-width: 0.8"/>
      </g>
     </g>
     <g id="text_37">
      <!-- 0.35 -->
      <g transform="translate(467.487582 39.647531) scale(0.06 -0.06)">
       <use xlink:href="#DejaVuSans-30"/>
       <use xlink:href="#DejaVuSans-2e" x="63.623047"/>
       <use xlink:href="#DejaVuSans-33" x="95.410156"/>
       <use xlink:href="#DejaVuSans-35" x="159.033203"/>
      </g>
     </g>
    </g>
    <g id="ytick_21">
     <g id="line2d_75">
      <path d="M 487.846957 20.736 
L 643.116522 20.736 
" clip-path="url(#pcaa17f1a73)" style="fill: none; stroke: #b0b0b0; stroke-opacity: 0.8; stroke-width: 0.5; stroke-linecap: square"/>
     </g>
     <g id="line2d_76">
      <g>
       <use xlink:href="#m5cb5b46720" x="487.846957" y="20.736" style="stroke: #000000; stroke-width: 0.8"/>
      </g>
     </g>
     <g id="text_38">
      <!-- 0.40 -->
      <g transform="translate(467.487582 23.015531) scale(0.06 -0.06)">
       <use xlink:href="#DejaVuSans-30"/>
       <use xlink:href="#DejaVuSans-2e" x="63.623047"/>
       <use xlink:href="#DejaVuSans-34" x="95.410156"/>
       <use xlink:href="#DejaVuSans-30" x="159.033203"/>
      </g>
     </g>
    </g>
   </g>
   <g id="patch_9">
    <path d="M 487.846957 153.792 
L 487.846957 20.736 
" style="fill: none; stroke: #000000; stroke-width: 0.8; stroke-linejoin: miter; stroke-linecap: square"/>
   </g>
   <g id="patch_10">
    <path d="M 487.846957 153.792 
L 643.116522 153.792 
" style="fill: none; stroke: #000000; stroke-width: 0.8; stroke-linejoin: miter; stroke-linecap: square"/>
   </g>
   <g id="text_39">
    <!-- Irf8 -->
    <g transform="translate(557.009864 14.736) scale(0.1 -0.1)">
     <defs>
      <path id="DejaVuSans-49" d="M 628 4666 
L 1259 4666 
L 1259 0 
L 628 0 
L 628 4666 
z
" transform="scale(0.015625)"/>
      <path id="DejaVuSans-72" d="M 2631 2963 
Q 2534 3019 2420 3045 
Q 2306 3072 2169 3072 
Q 1681 3072 1420 2755 
Q 1159 2438 1159 1844 
L 1159 0 
L 581 0 
L 581 3500 
L 1159 3500 
L 1159 2956 
Q 1341 3275 1631 3429 
Q 1922 3584 2338 3584 
Q 2397 3584 2469 3576 
Q 2541 3569 2628 3553 
L 2631 2963 
z
" transform="scale(0.015625)"/>
     </defs>
     <use xlink:href="#DejaVuSans-49"/>
     <use xlink:href="#DejaVuSans-72" x="29.492188"/>
     <use xlink:href="#DejaVuSans-66" x="70.605469"/>
     <use xlink:href="#DejaVuSans-38" x="105.810547"/>
    </g>
   </g>
   <g id="PolyCollection_5">
    <path d="M 494.904664 143.042999 
L 494.904664 143.042999 
L 498.433514 127.00516 
L 501.962373 125.122429 
L 505.491224 119.589406 
L 509.020082 116.830095 
L 512.548933 114.521322 
L 516.077783 113.274598 
L 519.606642 111.183569 
L 523.135492 109.834797 
L 526.664351 108.196028 
L 530.193202 107.449492 
L 533.722052 106.046481 
L 537.250911 105.539507 
L 540.779761 103.719271 
L 544.30862 103.408206 
L 547.83747 101.830639 
L 551.366321 101.640446 
L 554.89518 100.108039 
L 558.42403 100.267149 
L 561.952889 98.958592 
L 565.481739 99.349504 
L 569.01059 98.487001 
L 572.53944 99.125888 
L 576.068307 98.656798 
L 579.597158 99.475964 
L 583.126008 99.182082 
L 586.654858 99.998911 
L 590.183709 99.990277 
L 593.712576 100.991656 
L 597.241426 101.397097 
L 600.770277 102.636702 
L 604.299127 103.445109 
L 607.827977 104.728134 
L 611.356845 105.659438 
L 614.885695 106.90574 
L 618.414545 107.878543 
L 621.943396 109.078998 
L 625.472246 110.2243 
L 629.001113 111.569327 
L 632.529964 112.647741 
L 636.058814 114.371501 
L 636.058814 148.084658 
L 636.058814 148.084658 
L 632.529964 147.492665 
L 629.001113 146.49653 
L 625.472246 145.522394 
L 621.943396 144.47092 
L 618.414545 143.268723 
L 614.885695 142.120749 
L 611.356845 140.686278 
L 607.827977 139.459953 
L 604.299127 137.860915 
L 600.770277 136.783416 
L 597.241426 135.2652 
L 593.712576 134.466722 
L 590.183709 133.198816 
L 586.654858 132.593328 
L 583.126008 131.311658 
L 579.597158 130.844143 
L 576.068307 129.566721 
L 572.53944 129.313193 
L 569.01059 128.485724 
L 565.481739 128.435096 
L 561.952889 127.860522 
L 558.42403 127.996174 
L 554.89518 127.453589 
L 551.366321 127.807095 
L 547.83747 127.694907 
L 544.30862 128.158222 
L 540.779761 128.203573 
L 537.250911 128.862908 
L 533.722052 129.116519 
L 530.193202 129.545127 
L 526.664351 129.911681 
L 523.135492 130.897156 
L 519.606642 131.655696 
L 516.077783 132.835518 
L 512.548933 133.753605 
L 509.020082 135.179982 
L 505.491224 135.630672 
L 501.962373 137.468946 
L 498.433514 135.409727 
L 494.904664 143.042999 
z
" clip-path="url(#pcaa17f1a73)" style="fill: #023047; fill-opacity: 0.2"/>
   </g>
   <g id="PolyCollection_6">
    <path d="M 494.904664 143.042999 
L 494.904664 143.042999 
L 498.433514 129.041871 
L 501.962373 127.078493 
L 505.491224 122.533697 
L 509.020082 119.490351 
L 512.548933 116.456016 
L 516.077783 115.592869 
L 519.606642 113.118042 
L 523.135492 110.931053 
L 526.664351 108.50051 
L 530.193202 106.746909 
L 533.722052 105.111982 
L 537.250911 102.924474 
L 540.779761 100.618446 
L 544.30862 99.666107 
L 547.83747 98.47928 
L 551.366321 95.253168 
L 554.89518 91.733232 
L 558.42403 87.957322 
L 561.952889 83.047099 
L 565.481739 78.745207 
L 569.01059 73.754403 
L 572.53944 69.134209 
L 576.068307 62.543584 
L 579.597158 58.144895 
L 583.126008 52.523503 
L 586.654858 48.434827 
L 590.183709 43.850214 
L 593.712576 43.075154 
L 597.241426 40.602374 
L 600.770277 38.783397 
L 604.299127 36.828075 
L 607.827977 36.072557 
L 611.356845 34.467319 
L 614.885695 32.753184 
L 618.414545 31.35578 
L 621.943396 30.784295 
L 625.472246 29.82115 
L 629.001113 27.806551 
L 632.529964 28.355236 
L 636.058814 24.046777 
L 636.058814 93.624591 
L 636.058814 93.624591 
L 632.529964 94.089293 
L 629.001113 92.785083 
L 625.472246 90.894094 
L 621.943396 90.05767 
L 618.414545 89.023247 
L 614.885695 90.566551 
L 611.356845 89.607103 
L 607.827977 90.834804 
L 604.299127 92.403014 
L 600.770277 94.229723 
L 597.241426 94.880864 
L 593.712576 98.654891 
L 590.183709 101.497824 
L 586.654858 103.63259 
L 583.126008 105.531273 
L 579.597158 109.173838 
L 576.068307 110.247751 
L 572.53944 113.849887 
L 569.01059 114.823643 
L 565.481739 118.276112 
L 561.952889 117.446426 
L 558.42403 119.360479 
L 554.89518 119.652309 
L 551.366321 123.615676 
L 547.83747 122.898157 
L 544.30862 124.668638 
L 540.779761 126.021679 
L 537.250911 126.478122 
L 533.722052 126.174311 
L 530.193202 128.547259 
L 526.664351 129.817574 
L 523.135492 130.792591 
L 519.606642 132.265216 
L 516.077783 133.157189 
L 512.548933 134.501094 
L 509.020082 135.899973 
L 505.491224 136.797224 
L 501.962373 138.678228 
L 498.433514 137.170688 
L 494.904664 143.042999 
z
" clip-path="url(#pcaa17f1a73)" style="fill: #f08700; fill-opacity: 0.2"/>
   </g>
   <g id="line2d_77">
    <path d="M 494.904664 143.042999 
L 498.433514 131.207443 
L 501.962373 131.295688 
L 505.491224 127.610039 
L 509.020082 126.005038 
L 512.548933 124.137463 
L 516.077783 123.055058 
L 519.606642 121.419633 
L 523.135492 120.365977 
L 526.664351 119.053855 
L 530.193202 118.497309 
L 533.722052 117.5815 
L 537.250911 117.201207 
L 540.779761 115.961422 
L 544.30862 115.783214 
L 547.83747 114.762773 
L 551.366321 114.72377 
L 554.89518 113.780814 
L 558.42403 114.131662 
L 561.952889 113.409557 
L 565.481739 113.8923 
L 569.01059 113.486362 
L 572.53944 114.21954 
L 576.068307 114.11176 
L 579.597158 115.160053 
L 583.126008 115.24687 
L 586.654858 116.29612 
L 590.183709 116.594547 
L 593.712576 117.729189 
L 597.241426 118.331149 
L 600.770277 119.710059 
L 604.299127 120.653012 
L 607.827977 122.094043 
L 611.356845 123.172858 
L 614.885695 124.513245 
L 618.414545 125.573633 
L 621.943396 126.774959 
L 625.472246 127.873347 
L 629.001113 129.032928 
L 632.529964 130.070203 
L 636.058814 131.228079 
" clip-path="url(#pcaa17f1a73)" style="fill: none; stroke: #023047; stroke-width: 1.5; stroke-linecap: square"/>
   </g>
   <g id="line2d_78">
    <path d="M 494.904664 143.042999 
L 498.433514 133.106279 
L 501.962373 132.87836 
L 505.491224 129.66546 
L 509.020082 127.695162 
L 512.548933 125.478555 
L 516.077783 124.375029 
L 519.606642 122.691629 
L 523.135492 120.861822 
L 526.664351 119.159042 
L 530.193202 117.647084 
L 533.722052 115.643147 
L 537.250911 114.701298 
L 540.779761 113.320063 
L 544.30862 112.167372 
L 547.83747 110.688718 
L 551.366321 109.434422 
L 554.89518 105.692771 
L 558.42403 103.6589 
L 561.952889 100.246762 
L 565.481739 98.51066 
L 569.01059 94.289023 
L 572.53944 91.492048 
L 576.068307 86.395668 
L 579.597158 83.659367 
L 583.126008 79.027388 
L 586.654858 76.033708 
L 590.183709 72.674019 
L 593.712576 70.865023 
L 597.241426 67.741619 
L 600.770277 66.50656 
L 604.299127 64.615545 
L 607.827977 63.45368 
L 611.356845 62.037211 
L 614.885695 61.659868 
L 618.414545 60.189513 
L 621.943396 60.420982 
L 625.472246 60.357622 
L 629.001113 60.295817 
L 632.529964 61.222265 
L 636.058814 58.835684 
" clip-path="url(#pcaa17f1a73)" style="fill: none; stroke: #f08700; stroke-width: 1.5; stroke-linecap: square"/>
   </g>
   <g id="PathCollection_9">
    <path d="M 494.904664 145.781612 
C 495.630953 145.781612 496.327592 145.493055 496.841156 144.979491 
C 497.354719 144.465927 497.643277 143.769288 497.643277 143.042999 
C 497.643277 142.316711 497.354719 141.620071 496.841156 141.106508 
C 496.327592 140.592944 495.630953 140.304387 494.904664 140.304387 
C 494.178375 140.304387 493.481736 140.592944 492.968172 141.106508 
C 492.454609 141.620071 492.166051 142.316711 492.166051 143.042999 
C 492.166051 143.769288 492.454609 144.465927 492.968172 144.979491 
C 493.481736 145.493055 494.178375 145.781612 494.904664 145.781612 
z
" clip-path="url(#pcaa17f1a73)"/>
   </g>
   <g id="PathCollection_10">
    <path d="M 636.058814 133.966692 
C 636.785103 133.966692 637.481742 133.678134 637.995306 133.164571 
C 638.508869 132.651007 638.797427 131.954368 638.797427 131.228079 
C 638.797427 130.501791 638.508869 129.805151 637.995306 129.291588 
C 637.481742 128.778024 636.785103 128.489466 636.058814 128.489466 
C 635.332526 128.489466 634.635886 128.778024 634.122323 129.291588 
C 633.608759 129.805151 633.320201 130.501791 633.320201 131.228079 
C 633.320201 131.954368 633.608759 132.651007 634.122323 133.164571 
C 634.635886 133.678134 635.332526 133.966692 636.058814 133.966692 
z
" clip-path="url(#pcaa17f1a73)" style="fill: #023047"/>
   </g>
   <g id="PathCollection_11">
    <path d="M 494.904664 145.781612 
C 495.630953 145.781612 496.327592 145.493055 496.841156 144.979491 
C 497.354719 144.465927 497.643277 143.769288 497.643277 143.042999 
C 497.643277 142.316711 497.354719 141.620071 496.841156 141.106508 
C 496.327592 140.592944 495.630953 140.304387 494.904664 140.304387 
C 494.178375 140.304387 493.481736 140.592944 492.968172 141.106508 
C 492.454609 141.620071 492.166051 142.316711 492.166051 143.042999 
C 492.166051 143.769288 492.454609 144.465927 492.968172 144.979491 
C 493.481736 145.493055 494.178375 145.781612 494.904664 145.781612 
z
" clip-path="url(#pcaa17f1a73)"/>
   </g>
   <g id="PathCollection_12">
    <path d="M 636.058814 61.574297 
C 636.785103 61.574297 637.481742 61.285739 637.995306 60.772175 
C 638.508869 60.258612 638.797427 59.561972 638.797427 58.835684 
C 638.797427 58.109395 638.508869 57.412756 637.995306 56.899192 
C 637.481742 56.385628 636.785103 56.097071 636.058814 56.097071 
C 635.332526 56.097071 634.635886 56.385628 634.122323 56.899192 
C 633.608759 57.412756 633.320201 58.109395 633.320201 58.835684 
C 633.320201 59.561972 633.608759 60.258612 634.122323 60.772175 
C 634.635886 61.285739 635.332526 61.574297 636.058814 61.574297 
z
" clip-path="url(#pcaa17f1a73)" style="fill: #f08700"/>
   </g>
  </g>
  <g id="axes_4">
   <g id="patch_11">
    <path d="M 674.170435 153.792 
L 829.44 153.792 
L 829.44 20.736 
L 674.170435 20.736 
z
" style="fill: #ffffff"/>
   </g>
   <g id="matplotlib.axis_7">
    <g id="xtick_16">
     <g id="line2d_79">
      <path d="M 681.228142 153.792 
L 681.228142 20.736 
" clip-path="url(#p56036f77bd)" style="fill: none; stroke: #b0b0b0; stroke-opacity: 0.8; stroke-width: 0.5; stroke-linecap: square"/>
     </g>
     <g id="line2d_80">
      <g>
       <use xlink:href="#m10857736f3" x="681.228142" y="153.792" style="stroke: #000000; stroke-width: 0.8"/>
      </g>
     </g>
     <g id="text_40">
      <!-- 2 -->
      <g transform="translate(679.319392 165.351062) scale(0.06 -0.06)">
       <use xlink:href="#DejaVuSans-32"/>
      </g>
     </g>
    </g>
    <g id="xtick_17">
     <g id="line2d_81">
      <path d="M 716.51668 153.792 
L 716.51668 20.736 
" clip-path="url(#p56036f77bd)" style="fill: none; stroke: #b0b0b0; stroke-opacity: 0.8; stroke-width: 0.5; stroke-linecap: square"/>
     </g>
     <g id="line2d_82">
      <g>
       <use xlink:href="#m10857736f3" x="716.51668" y="153.792" style="stroke: #000000; stroke-width: 0.8"/>
      </g>
     </g>
     <g id="text_41">
      <!-- 3 -->
      <g transform="translate(714.60793 165.351062) scale(0.06 -0.06)">
       <use xlink:href="#DejaVuSans-33"/>
      </g>
     </g>
    </g>
    <g id="xtick_18">
     <g id="line2d_83">
      <path d="M 751.805217 153.792 
L 751.805217 20.736 
" clip-path="url(#p56036f77bd)" style="fill: none; stroke: #b0b0b0; stroke-opacity: 0.8; stroke-width: 0.5; stroke-linecap: square"/>
     </g>
     <g id="line2d_84">
      <g>
       <use xlink:href="#m10857736f3" x="751.805217" y="153.792" style="stroke: #000000; stroke-width: 0.8"/>
      </g>
     </g>
     <g id="text_42">
      <!-- 4 -->
      <g transform="translate(749.896467 165.351062) scale(0.06 -0.06)">
       <use xlink:href="#DejaVuSans-34"/>
      </g>
     </g>
    </g>
    <g id="xtick_19">
     <g id="line2d_85">
      <path d="M 787.093755 153.792 
L 787.093755 20.736 
" clip-path="url(#p56036f77bd)" style="fill: none; stroke: #b0b0b0; stroke-opacity: 0.8; stroke-width: 0.5; stroke-linecap: square"/>
     </g>
     <g id="line2d_86">
      <g>
       <use xlink:href="#m10857736f3" x="787.093755" y="153.792" style="stroke: #000000; stroke-width: 0.8"/>
      </g>
     </g>
     <g id="text_43">
      <!-- 5 -->
      <g transform="translate(785.185005 165.351062) scale(0.06 -0.06)">
       <use xlink:href="#DejaVuSans-35"/>
      </g>
     </g>
    </g>
    <g id="xtick_20">
     <g id="line2d_87">
      <path d="M 822.382292 153.792 
L 822.382292 20.736 
" clip-path="url(#p56036f77bd)" style="fill: none; stroke: #b0b0b0; stroke-opacity: 0.8; stroke-width: 0.5; stroke-linecap: square"/>
     </g>
     <g id="line2d_88">
      <g>
       <use xlink:href="#m10857736f3" x="822.382292" y="153.792" style="stroke: #000000; stroke-width: 0.8"/>
      </g>
     </g>
     <g id="text_44">
      <!-- 6 -->
      <g transform="translate(820.473542 165.351062) scale(0.06 -0.06)">
       <use xlink:href="#DejaVuSans-36"/>
      </g>
     </g>
    </g>
   </g>
   <g id="matplotlib.axis_8">
    <g id="ytick_22">
     <g id="line2d_89">
      <path d="M 674.170435 153.792 
L 829.44 153.792 
" clip-path="url(#p56036f77bd)" style="fill: none; stroke: #b0b0b0; stroke-opacity: 0.8; stroke-width: 0.5; stroke-linecap: square"/>
     </g>
     <g id="line2d_90">
      <g>
       <use xlink:href="#m5cb5b46720" x="674.170435" y="153.792" style="stroke: #000000; stroke-width: 0.8"/>
      </g>
     </g>
     <g id="text_45">
      <!-- 0.1 -->
      <g transform="translate(652.600747 156.071531) scale(0.06 -0.06)">
       <defs>
        <path id="DejaVuSans-2212" d="M 678 2272 
L 4684 2272 
L 4684 1741 
L 678 1741 
L 678 2272 
z
" transform="scale(0.015625)"/>
       </defs>
       <use xlink:href="#DejaVuSans-2212"/>
       <use xlink:href="#DejaVuSans-30" x="83.789062"/>
       <use xlink:href="#DejaVuSans-2e" x="147.412109"/>
       <use xlink:href="#DejaVuSans-31" x="179.199219"/>
      </g>
     </g>
    </g>
    <g id="ytick_23">
     <g id="line2d_91">
      <path d="M 674.170435 137.16 
L 829.44 137.16 
" clip-path="url(#p56036f77bd)" style="fill: none; stroke: #b0b0b0; stroke-opacity: 0.8; stroke-width: 0.5; stroke-linecap: square"/>
     </g>
     <g id="line2d_92">
      <g>
       <use xlink:href="#m5cb5b46720" x="674.170435" y="137.16" style="stroke: #000000; stroke-width: 0.8"/>
      </g>
     </g>
     <g id="text_46">
      <!-- 0.0 -->
      <g transform="translate(657.62856 139.439531) scale(0.06 -0.06)">
       <use xlink:href="#DejaVuSans-30"/>
       <use xlink:href="#DejaVuSans-2e" x="63.623047"/>
       <use xlink:href="#DejaVuSans-30" x="95.410156"/>
      </g>
     </g>
    </g>
    <g id="ytick_24">
     <g id="line2d_93">
      <path d="M 674.170435 120.528 
L 829.44 120.528 
" clip-path="url(#p56036f77bd)" style="fill: none; stroke: #b0b0b0; stroke-opacity: 0.8; stroke-width: 0.5; stroke-linecap: square"/>
     </g>
     <g id="line2d_94">
      <g>
       <use xlink:href="#m5cb5b46720" x="674.170435" y="120.528" style="stroke: #000000; stroke-width: 0.8"/>
      </g>
     </g>
     <g id="text_47">
      <!-- 0.1 -->
      <g transform="translate(657.62856 122.807531) scale(0.06 -0.06)">
       <use xlink:href="#DejaVuSans-30"/>
       <use xlink:href="#DejaVuSans-2e" x="63.623047"/>
       <use xlink:href="#DejaVuSans-31" x="95.410156"/>
      </g>
     </g>
    </g>
    <g id="ytick_25">
     <g id="line2d_95">
      <path d="M 674.170435 103.896 
L 829.44 103.896 
" clip-path="url(#p56036f77bd)" style="fill: none; stroke: #b0b0b0; stroke-opacity: 0.8; stroke-width: 0.5; stroke-linecap: square"/>
     </g>
     <g id="line2d_96">
      <g>
       <use xlink:href="#m5cb5b46720" x="674.170435" y="103.896" style="stroke: #000000; stroke-width: 0.8"/>
      </g>
     </g>
     <g id="text_48">
      <!-- 0.2 -->
      <g transform="translate(657.62856 106.175531) scale(0.06 -0.06)">
       <use xlink:href="#DejaVuSans-30"/>
       <use xlink:href="#DejaVuSans-2e" x="63.623047"/>
       <use xlink:href="#DejaVuSans-32" x="95.410156"/>
      </g>
     </g>
    </g>
    <g id="ytick_26">
     <g id="line2d_97">
      <path d="M 674.170435 87.264 
L 829.44 87.264 
" clip-path="url(#p56036f77bd)" style="fill: none; stroke: #b0b0b0; stroke-opacity: 0.8; stroke-width: 0.5; stroke-linecap: square"/>
     </g>
     <g id="line2d_98">
      <g>
       <use xlink:href="#m5cb5b46720" x="674.170435" y="87.264" style="stroke: #000000; stroke-width: 0.8"/>
      </g>
     </g>
     <g id="text_49">
      <!-- 0.3 -->
      <g transform="translate(657.62856 89.543531) scale(0.06 -0.06)">
       <use xlink:href="#DejaVuSans-30"/>
       <use xlink:href="#DejaVuSans-2e" x="63.623047"/>
       <use xlink:href="#DejaVuSans-33" x="95.410156"/>
      </g>
     </g>
    </g>
    <g id="ytick_27">
     <g id="line2d_99">
      <path d="M 674.170435 70.632 
L 829.44 70.632 
" clip-path="url(#p56036f77bd)" style="fill: none; stroke: #b0b0b0; stroke-opacity: 0.8; stroke-width: 0.5; stroke-linecap: square"/>
     </g>
     <g id="line2d_100">
      <g>
       <use xlink:href="#m5cb5b46720" x="674.170435" y="70.632" style="stroke: #000000; stroke-width: 0.8"/>
      </g>
     </g>
     <g id="text_50">
      <!-- 0.4 -->
      <g transform="translate(657.62856 72.911531) scale(0.06 -0.06)">
       <use xlink:href="#DejaVuSans-30"/>
       <use xlink:href="#DejaVuSans-2e" x="63.623047"/>
       <use xlink:href="#DejaVuSans-34" x="95.410156"/>
      </g>
     </g>
    </g>
    <g id="ytick_28">
     <g id="line2d_101">
      <path d="M 674.170435 54 
L 829.44 54 
" clip-path="url(#p56036f77bd)" style="fill: none; stroke: #b0b0b0; stroke-opacity: 0.8; stroke-width: 0.5; stroke-linecap: square"/>
     </g>
     <g id="line2d_102">
      <g>
       <use xlink:href="#m5cb5b46720" x="674.170435" y="54" style="stroke: #000000; stroke-width: 0.8"/>
      </g>
     </g>
     <g id="text_51">
      <!-- 0.5 -->
      <g transform="translate(657.62856 56.279531) scale(0.06 -0.06)">
       <use xlink:href="#DejaVuSans-30"/>
       <use xlink:href="#DejaVuSans-2e" x="63.623047"/>
       <use xlink:href="#DejaVuSans-35" x="95.410156"/>
      </g>
     </g>
    </g>
    <g id="ytick_29">
     <g id="line2d_103">
      <path d="M 674.170435 37.368 
L 829.44 37.368 
" clip-path="url(#p56036f77bd)" style="fill: none; stroke: #b0b0b0; stroke-opacity: 0.8; stroke-width: 0.5; stroke-linecap: square"/>
     </g>
     <g id="line2d_104">
      <g>
       <use xlink:href="#m5cb5b46720" x="674.170435" y="37.368" style="stroke: #000000; stroke-width: 0.8"/>
      </g>
     </g>
     <g id="text_52">
      <!-- 0.6 -->
      <g transform="translate(657.62856 39.647531) scale(0.06 -0.06)">
       <use xlink:href="#DejaVuSans-30"/>
       <use xlink:href="#DejaVuSans-2e" x="63.623047"/>
       <use xlink:href="#DejaVuSans-36" x="95.410156"/>
      </g>
     </g>
    </g>
    <g id="ytick_30">
     <g id="line2d_105">
      <path d="M 674.170435 20.736 
L 829.44 20.736 
" clip-path="url(#p56036f77bd)" style="fill: none; stroke: #b0b0b0; stroke-opacity: 0.8; stroke-width: 0.5; stroke-linecap: square"/>
     </g>
     <g id="line2d_106">
      <g>
       <use xlink:href="#m5cb5b46720" x="674.170435" y="20.736" style="stroke: #000000; stroke-width: 0.8"/>
      </g>
     </g>
     <g id="text_53">
      <!-- 0.7 -->
      <g transform="translate(657.62856 23.015531) scale(0.06 -0.06)">
       <use xlink:href="#DejaVuSans-30"/>
       <use xlink:href="#DejaVuSans-2e" x="63.623047"/>
       <use xlink:href="#DejaVuSans-37" x="95.410156"/>
      </g>
     </g>
    </g>
   </g>
   <g id="patch_12">
    <path d="M 674.170435 153.792 
L 674.170435 20.736 
" style="fill: none; stroke: #000000; stroke-width: 0.8; stroke-linejoin: miter; stroke-linecap: square"/>
   </g>
   <g id="patch_13">
    <path d="M 674.170435 153.792 
L 829.44 153.792 
" style="fill: none; stroke: #000000; stroke-width: 0.8; stroke-linejoin: miter; stroke-linecap: square"/>
   </g>
   <g id="text_54">
    <!-- Klf4 -->
    <g transform="translate(742.195842 14.736) scale(0.1 -0.1)">
     <defs>
      <path id="DejaVuSans-4b" d="M 628 4666 
L 1259 4666 
L 1259 2694 
L 3353 4666 
L 4166 4666 
L 1850 2491 
L 4331 0 
L 3500 0 
L 1259 2247 
L 1259 0 
L 628 0 
L 628 4666 
z
" transform="scale(0.015625)"/>
      <path id="DejaVuSans-6c" d="M 603 4863 
L 1178 4863 
L 1178 0 
L 603 0 
L 603 4863 
z
" transform="scale(0.015625)"/>
     </defs>
     <use xlink:href="#DejaVuSans-4b"/>
     <use xlink:href="#DejaVuSans-6c" x="65.576172"/>
     <use xlink:href="#DejaVuSans-66" x="93.359375"/>
     <use xlink:href="#DejaVuSans-34" x="128.564453"/>
    </g>
   </g>
   <g id="PolyCollection_7">
    <path d="M 681.228142 134.84082 
L 681.228142 134.84082 
L 684.756993 134.753486 
L 688.285851 131.875172 
L 691.814702 130.029968 
L 695.343561 128.357428 
L 698.872411 126.706207 
L 702.401261 125.951415 
L 705.93012 124.832532 
L 709.458971 124.462343 
L 712.987829 123.556747 
L 716.51668 123.138729 
L 720.04553 122.336281 
L 723.574389 121.912261 
L 727.103239 121.044101 
L 730.632098 120.567285 
L 734.160949 119.727781 
L 737.689799 119.181077 
L 741.218658 118.301685 
L 744.747508 117.658648 
L 748.276367 116.803754 
L 751.805217 116.181409 
L 755.334068 115.445319 
L 758.862918 114.950504 
L 762.391785 114.404069 
L 765.920636 114.010679 
L 769.449486 113.578952 
L 772.978337 113.222338 
L 776.507187 112.870673 
L 780.036054 112.579071 
L 783.564905 112.299821 
L 787.093755 112.072848 
L 790.622605 111.894828 
L 794.151456 111.738215 
L 797.680323 111.642947 
L 801.209173 111.59768 
L 804.738024 111.586856 
L 808.266874 111.639951 
L 811.795724 111.735656 
L 815.324592 111.876789 
L 818.853442 111.989459 
L 822.382292 112.246998 
L 822.382292 129.232138 
L 822.382292 129.232138 
L 818.853442 128.830014 
L 815.324592 128.709417 
L 811.795724 128.515731 
L 808.266874 128.473389 
L 804.738024 128.45283 
L 801.209173 128.567464 
L 797.680323 128.693197 
L 794.151456 128.938521 
L 790.622605 129.142758 
L 787.093755 129.516347 
L 783.564905 129.816343 
L 780.036054 130.260562 
L 776.507187 130.616443 
L 772.978337 131.064509 
L 769.449486 131.325589 
L 765.920636 131.696149 
L 762.391785 131.84352 
L 758.862918 132.144285 
L 755.334068 132.217599 
L 751.805217 132.503298 
L 748.276367 132.540774 
L 744.747508 132.810967 
L 741.218658 132.767267 
L 737.689799 133.038347 
L 734.160949 133.00811 
L 730.632098 133.259841 
L 727.103239 133.160999 
L 723.574389 133.432409 
L 720.04553 133.362185 
L 716.51668 133.605447 
L 712.987829 133.573585 
L 709.458971 133.979343 
L 705.93012 134.039879 
L 702.401261 134.537203 
L 698.872411 134.955188 
L 695.343561 135.730225 
L 691.814702 136.238581 
L 688.285851 136.363787 
L 684.756993 137.494487 
L 681.228142 134.84082 
z
" clip-path="url(#p56036f77bd)" style="fill: #023047; fill-opacity: 0.2"/>
   </g>
   <g id="PolyCollection_8">
    <path d="M 681.228142 134.84082 
L 681.228142 134.84082 
L 684.756993 135.600842 
L 688.285851 131.621432 
L 691.814702 128.633674 
L 695.343561 125.346197 
L 698.872411 121.964338 
L 702.401261 119.99507 
L 705.93012 117.682564 
L 709.458971 116.68492 
L 712.987829 115.127554 
L 716.51668 113.654217 
L 720.04553 111.937325 
L 723.574389 110.861617 
L 727.103239 108.9423 
L 730.632098 107.523057 
L 734.160949 105.926873 
L 737.689799 103.560121 
L 741.218658 100.193591 
L 744.747508 97.146111 
L 748.276367 93.552603 
L 751.805217 90.257657 
L 755.334068 86.908368 
L 758.862918 84.058558 
L 762.391785 80.714026 
L 765.920636 77.791964 
L 769.449486 74.569049 
L 772.978337 71.50589 
L 776.507187 68.440991 
L 780.036054 65.429116 
L 783.564905 62.159931 
L 787.093755 58.551047 
L 790.622605 55.632573 
L 794.151456 52.21039 
L 797.680323 49.395131 
L 801.209173 46.384394 
L 804.738024 43.989882 
L 808.266874 41.182278 
L 811.795724 38.93477 
L 815.324592 36.443509 
L 818.853442 34.459852 
L 822.382292 31.765194 
L 822.382292 72.894097 
L 822.382292 72.894097 
L 818.853442 76.301907 
L 815.324592 77.121019 
L 811.795724 79.445915 
L 808.266874 81.532387 
L 804.738024 84.072492 
L 801.209173 86.77958 
L 797.680323 89.72751 
L 794.151456 92.675719 
L 790.622605 95.977935 
L 787.093755 99.335396 
L 783.564905 102.669229 
L 780.036054 106.262301 
L 776.507187 109.459804 
L 772.978337 111.965834 
L 769.449486 114.238086 
L 765.920636 116.098881 
L 762.391785 117.655134 
L 758.862918 119.195229 
L 755.334068 121.097374 
L 751.805217 122.959707 
L 748.276367 124.383741 
L 744.747508 125.728767 
L 741.218658 126.560601 
L 737.689799 126.788081 
L 734.160949 126.852536 
L 730.632098 127.047747 
L 727.103239 127.764043 
L 723.574389 128.801 
L 720.04553 129.944714 
L 716.51668 131.297403 
L 712.987829 131.982466 
L 709.458971 132.719711 
L 705.93012 132.977225 
L 702.401261 133.693066 
L 698.872411 134.37694 
L 695.343561 135.658616 
L 691.814702 136.249604 
L 688.285851 136.501941 
L 684.756993 137.524399 
L 681.228142 134.84082 
z
" clip-path="url(#p56036f77bd)" style="fill: #f08700; fill-opacity: 0.2"/>
   </g>
   <g id="line2d_107">
    <path d="M 681.228142 134.84082 
L 684.756993 136.123987 
L 688.285851 134.11948 
L 691.814702 133.134274 
L 695.343561 132.043826 
L 698.872411 130.830698 
L 702.401261 130.244309 
L 705.93012 129.436205 
L 709.458971 129.220843 
L 712.987829 128.565166 
L 716.51668 128.372088 
L 720.04553 127.849233 
L 723.574389 127.672335 
L 727.103239 127.10255 
L 730.632098 126.913563 
L 734.160949 126.367946 
L 737.689799 126.109712 
L 741.218658 125.534476 
L 744.747508 125.234807 
L 748.276367 124.672264 
L 751.805217 124.342353 
L 755.334068 123.831459 
L 758.862918 123.547395 
L 762.391785 123.123794 
L 765.920636 122.853414 
L 769.449486 122.452271 
L 772.978337 122.143424 
L 776.507187 121.743558 
L 780.036054 121.419816 
L 783.564905 121.058082 
L 787.093755 120.794597 
L 790.622605 120.518793 
L 794.151456 120.338368 
L 797.680323 120.168072 
L 801.209173 120.082572 
L 804.738024 120.019843 
L 808.266874 120.05667 
L 811.795724 120.125694 
L 815.324592 120.293103 
L 818.853442 120.409736 
L 822.382292 120.739568 
" clip-path="url(#p56036f77bd)" style="fill: none; stroke: #023047; stroke-width: 1.5; stroke-linecap: square"/>
   </g>
   <g id="line2d_108">
    <path d="M 681.228142 134.84082 
L 684.756993 136.562621 
L 688.285851 134.061686 
L 691.814702 132.441639 
L 695.343561 130.502407 
L 698.872411 128.170639 
L 702.401261 126.844068 
L 705.93012 125.329895 
L 709.458971 124.702315 
L 712.987829 123.55501 
L 716.51668 122.47581 
L 720.04553 120.94102 
L 723.574389 119.831308 
L 727.103239 118.353171 
L 730.632098 117.285402 
L 734.160949 116.389705 
L 737.689799 115.174101 
L 741.218658 113.377096 
L 744.747508 111.437439 
L 748.276367 108.968172 
L 751.805217 106.608682 
L 755.334068 104.002871 
L 758.862918 101.626894 
L 762.391785 99.18458 
L 765.920636 96.945422 
L 769.449486 94.403568 
L 772.978337 91.735862 
L 776.507187 88.950397 
L 780.036054 85.845708 
L 783.564905 82.41458 
L 787.093755 78.943221 
L 790.622605 75.805254 
L 794.151456 72.443054 
L 797.680323 69.561321 
L 801.209173 66.581987 
L 804.738024 64.031187 
L 808.266874 61.357333 
L 811.795724 59.190343 
L 815.324592 56.782264 
L 818.853442 55.38088 
L 822.382292 52.329645 
" clip-path="url(#p56036f77bd)" style="fill: none; stroke: #f08700; stroke-width: 1.5; stroke-linecap: square"/>
   </g>
   <g id="PathCollection_13">
    <path d="M 681.228142 137.579432 
C 681.954431 137.579432 682.65107 137.290875 683.164634 136.777311 
C 683.678198 136.263748 683.966755 135.567108 683.966755 134.84082 
C 683.966755 134.114531 683.678198 133.417891 683.164634 132.904328 
C 682.65107 132.390764 681.954431 132.102207 681.228142 132.102207 
C 680.501854 132.102207 679.805214 132.390764 679.291651 132.904328 
C 678.778087 133.417891 678.48953 134.114531 678.48953 134.84082 
C 678.48953 135.567108 678.778087 136.263748 679.291651 136.777311 
C 679.805214 137.290875 680.501854 137.579432 681.228142 137.579432 
z
" clip-path="url(#p56036f77bd)"/>
   </g>
   <g id="PathCollection_14">
    <path d="M 822.382292 123.47818 
C 823.108581 123.47818 823.805221 123.189623 824.318784 122.676059 
C 824.832348 122.162496 825.120905 121.465856 825.120905 120.739568 
C 825.120905 120.013279 824.832348 119.316639 824.318784 118.803076 
C 823.805221 118.289512 823.108581 118.000955 822.382292 118.000955 
C 821.656004 118.000955 820.959364 118.289512 820.445801 118.803076 
C 819.932237 119.316639 819.64368 120.013279 819.64368 120.739568 
C 819.64368 121.465856 819.932237 122.162496 820.445801 122.676059 
C 820.959364 123.189623 821.656004 123.47818 822.382292 123.47818 
z
" clip-path="url(#p56036f77bd)" style="fill: #023047"/>
   </g>
   <g id="PathCollection_15">
    <path d="M 681.228142 137.579432 
C 681.954431 137.579432 682.65107 137.290875 683.164634 136.777311 
C 683.678198 136.263748 683.966755 135.567108 683.966755 134.84082 
C 683.966755 134.114531 683.678198 133.417891 683.164634 132.904328 
C 682.65107 132.390764 681.954431 132.102207 681.228142 132.102207 
C 680.501854 132.102207 679.805214 132.390764 679.291651 132.904328 
C 678.778087 133.417891 678.48953 134.114531 678.48953 134.84082 
C 678.48953 135.567108 678.778087 136.263748 679.291651 136.777311 
C 679.805214 137.290875 680.501854 137.579432 681.228142 137.579432 
z
" clip-path="url(#p56036f77bd)"/>
   </g>
   <g id="PathCollection_16">
    <path d="M 822.382292 55.068258 
C 823.108581 55.068258 823.805221 54.779701 824.318784 54.266137 
C 824.832348 53.752574 825.120905 53.055934 825.120905 52.329645 
C 825.120905 51.603357 824.832348 50.906717 824.318784 50.393154 
C 823.805221 49.87959 823.108581 49.591033 822.382292 49.591033 
C 821.656004 49.591033 820.959364 49.87959 820.445801 50.393154 
C 819.932237 50.906717 819.64368 51.603357 819.64368 52.329645 
C 819.64368 53.055934 819.932237 53.752574 820.445801 54.266137 
C 820.959364 54.779701 821.656004 55.068258 822.382292 55.068258 
z
" clip-path="url(#p56036f77bd)" style="fill: #f08700"/>
   </g>
  </g>
 </g>
 <defs>
  <clipPath id="pcb6f987c82">
   <rect x="115.2" y="20.736" width="155.269565" height="133.056"/>
  </clipPath>
  <clipPath id="p9c407bedb6">
   <rect x="301.523478" y="20.736" width="155.269565" height="133.056"/>
  </clipPath>
  <clipPath id="pcaa17f1a73">
   <rect x="487.846957" y="20.736" width="155.269565" height="133.056"/>
  </clipPath>
  <clipPath id="p56036f77bd">
   <rect x="674.170435" y="20.736" width="155.269565" height="133.056"/>
  </clipPath>
 </defs>
</svg>
