<?xml version="1.0" encoding="utf-8" standalone="no"?>
<!DOCTYPE svg PUBLIC "-//W3C//DTD SVG 1.1//EN"
  "http://www.w3.org/Graphics/SVG/1.1/DTD/svg11.dtd">
<svg xmlns:xlink="http://www.w3.org/1999/xlink" width="921.6pt" height="172.8pt" viewBox="0 0 921.6 172.8" xmlns="http://www.w3.org/2000/svg" version="1.1">
 <metadata>
  <rdf:RDF xmlns:dc="http://purl.org/dc/elements/1.1/" xmlns:cc="http://creativecommons.org/ns#" xmlns:rdf="http://www.w3.org/1999/02/22-rdf-syntax-ns#">
   <cc:Work>
    <dc:type rdf:resource="http://purl.org/dc/dcmitype/StillImage"/>
    <dc:date>2024-11-20T19:11:41.274120</dc:date>
    <dc:format>image/svg+xml</dc:format>
    <dc:creator>
     <cc:Agent>
      <dc:title>Matplotlib v3.7.1, https://matplotlib.org/</dc:title>
     </cc:Agent>
    </dc:creator>
   </cc:Work>
  </rdf:RDF>
 </metadata>
 <defs>
  <style type="text/css">*{stroke-linejoin: round; stroke-linecap: butt}</style>
 </defs>
 <g id="figure_1">
  <g id="patch_1">
   <path d="M 0 172.8 
L 921.6 172.8 
L 921.6 0 
L 0 0 
z
" style="fill: #ffffff"/>
  </g>
  <g id="axes_1">
   <g id="patch_2">
    <path d="M 115.2 153.792 
L 270.469565 153.792 
L 270.469565 20.736 
L 115.2 20.736 
z
" style="fill: #ffffff"/>
   </g>
   <g id="matplotlib.axis_1">
    <g id="xtick_1">
     <g id="line2d_1">
      <path d="M 122.257708 153.792 
L 122.257708 20.736 
" clip-path="url(#p72be90ce5c)" style="fill: none; stroke: #b0b0b0; stroke-opacity: 0.8; stroke-width: 0.5; stroke-linecap: square"/>
     </g>
     <g id="line2d_2">
      <defs>
       <path id="m7f67db3984" d="M 0 0 
L 0 3.5 
" style="stroke: #000000; stroke-width: 0.8"/>
      </defs>
      <g>
       <use xlink:href="#m7f67db3984" x="122.257708" y="153.792" style="stroke: #000000; stroke-width: 0.8"/>
      </g>
     </g>
     <g id="text_1">
      <!-- 2 -->
      <g transform="translate(120.348958 165.351062) scale(0.06 -0.06)">
       <defs>
        <path id="DejaVuSans-32" d="M 1228 531 
L 3431 531 
L 3431 0 
L 469 0 
L 469 531 
Q 828 903 1448 1529 
Q 2069 2156 2228 2338 
Q 2531 2678 2651 2914 
Q 2772 3150 2772 3378 
Q 2772 3750 2511 3984 
Q 2250 4219 1831 4219 
Q 1534 4219 1204 4116 
Q 875 4013 500 3803 
L 500 4441 
Q 881 4594 1212 4672 
Q 1544 4750 1819 4750 
Q 2544 4750 2975 4387 
Q 3406 4025 3406 3419 
Q 3406 3131 3298 2873 
Q 3191 2616 2906 2266 
Q 2828 2175 2409 1742 
Q 1991 1309 1228 531 
z
" transform="scale(0.015625)"/>
       </defs>
       <use xlink:href="#DejaVuSans-32"/>
      </g>
     </g>
    </g>
    <g id="xtick_2">
     <g id="line2d_3">
      <path d="M 157.546245 153.792 
L 157.546245 20.736 
" clip-path="url(#p72be90ce5c)" style="fill: none; stroke: #b0b0b0; stroke-opacity: 0.8; stroke-width: 0.5; stroke-linecap: square"/>
     </g>
     <g id="line2d_4">
      <g>
       <use xlink:href="#m7f67db3984" x="157.546245" y="153.792" style="stroke: #000000; stroke-width: 0.8"/>
      </g>
     </g>
     <g id="text_2">
      <!-- 3 -->
      <g transform="translate(155.637495 165.351062) scale(0.06 -0.06)">
       <defs>
        <path id="DejaVuSans-33" d="M 2597 2516 
Q 3050 2419 3304 2112 
Q 3559 1806 3559 1356 
Q 3559 666 3084 287 
Q 2609 -91 1734 -91 
Q 1441 -91 1130 -33 
Q 819 25 488 141 
L 488 750 
Q 750 597 1062 519 
Q 1375 441 1716 441 
Q 2309 441 2620 675 
Q 2931 909 2931 1356 
Q 2931 1769 2642 2001 
Q 2353 2234 1838 2234 
L 1294 2234 
L 1294 2753 
L 1863 2753 
Q 2328 2753 2575 2939 
Q 2822 3125 2822 3475 
Q 2822 3834 2567 4026 
Q 2313 4219 1838 4219 
Q 1578 4219 1281 4162 
Q 984 4106 628 3988 
L 628 4550 
Q 988 4650 1302 4700 
Q 1616 4750 1894 4750 
Q 2613 4750 3031 4423 
Q 3450 4097 3450 3541 
Q 3450 3153 3228 2886 
Q 3006 2619 2597 2516 
z
" transform="scale(0.015625)"/>
       </defs>
       <use xlink:href="#DejaVuSans-33"/>
      </g>
     </g>
    </g>
    <g id="xtick_3">
     <g id="line2d_5">
      <path d="M 192.834783 153.792 
L 192.834783 20.736 
" clip-path="url(#p72be90ce5c)" style="fill: none; stroke: #b0b0b0; stroke-opacity: 0.8; stroke-width: 0.5; stroke-linecap: square"/>
     </g>
     <g id="line2d_6">
      <g>
       <use xlink:href="#m7f67db3984" x="192.834783" y="153.792" style="stroke: #000000; stroke-width: 0.8"/>
      </g>
     </g>
     <g id="text_3">
      <!-- 4 -->
      <g transform="translate(190.926033 165.351062) scale(0.06 -0.06)">
       <defs>
        <path id="DejaVuSans-34" d="M 2419 4116 
L 825 1625 
L 2419 1625 
L 2419 4116 
z
M 2253 4666 
L 3047 4666 
L 3047 1625 
L 3713 1625 
L 3713 1100 
L 3047 1100 
L 3047 0 
L 2419 0 
L 2419 1100 
L 313 1100 
L 313 1709 
L 2253 4666 
z
" transform="scale(0.015625)"/>
       </defs>
       <use xlink:href="#DejaVuSans-34"/>
      </g>
     </g>
    </g>
    <g id="xtick_4">
     <g id="line2d_7">
      <path d="M 228.12332 153.792 
L 228.12332 20.736 
" clip-path="url(#p72be90ce5c)" style="fill: none; stroke: #b0b0b0; stroke-opacity: 0.8; stroke-width: 0.5; stroke-linecap: square"/>
     </g>
     <g id="line2d_8">
      <g>
       <use xlink:href="#m7f67db3984" x="228.12332" y="153.792" style="stroke: #000000; stroke-width: 0.8"/>
      </g>
     </g>
     <g id="text_4">
      <!-- 5 -->
      <g transform="translate(226.21457 165.351062) scale(0.06 -0.06)">
       <defs>
        <path id="DejaVuSans-35" d="M 691 4666 
L 3169 4666 
L 3169 4134 
L 1269 4134 
L 1269 2991 
Q 1406 3038 1543 3061 
Q 1681 3084 1819 3084 
Q 2600 3084 3056 2656 
Q 3513 2228 3513 1497 
Q 3513 744 3044 326 
Q 2575 -91 1722 -91 
Q 1428 -91 1123 -41 
Q 819 9 494 109 
L 494 744 
Q 775 591 1075 516 
Q 1375 441 1709 441 
Q 2250 441 2565 725 
Q 2881 1009 2881 1497 
Q 2881 1984 2565 2268 
Q 2250 2553 1709 2553 
Q 1456 2553 1204 2497 
Q 953 2441 691 2322 
L 691 4666 
z
" transform="scale(0.015625)"/>
       </defs>
       <use xlink:href="#DejaVuSans-35"/>
      </g>
     </g>
    </g>
    <g id="xtick_5">
     <g id="line2d_9">
      <path d="M 263.411858 153.792 
L 263.411858 20.736 
" clip-path="url(#p72be90ce5c)" style="fill: none; stroke: #b0b0b0; stroke-opacity: 0.8; stroke-width: 0.5; stroke-linecap: square"/>
     </g>
     <g id="line2d_10">
      <g>
       <use xlink:href="#m7f67db3984" x="263.411858" y="153.792" style="stroke: #000000; stroke-width: 0.8"/>
      </g>
     </g>
     <g id="text_5">
      <!-- 6 -->
      <g transform="translate(261.503108 165.351062) scale(0.06 -0.06)">
       <defs>
        <path id="DejaVuSans-36" d="M 2113 2584 
Q 1688 2584 1439 2293 
Q 1191 2003 1191 1497 
Q 1191 994 1439 701 
Q 1688 409 2113 409 
Q 2538 409 2786 701 
Q 3034 994 3034 1497 
Q 3034 2003 2786 2293 
Q 2538 2584 2113 2584 
z
M 3366 4563 
L 3366 3988 
Q 3128 4100 2886 4159 
Q 2644 4219 2406 4219 
Q 1781 4219 1451 3797 
Q 1122 3375 1075 2522 
Q 1259 2794 1537 2939 
Q 1816 3084 2150 3084 
Q 2853 3084 3261 2657 
Q 3669 2231 3669 1497 
Q 3669 778 3244 343 
Q 2819 -91 2113 -91 
Q 1303 -91 875 529 
Q 447 1150 447 2328 
Q 447 3434 972 4092 
Q 1497 4750 2381 4750 
Q 2619 4750 2861 4703 
Q 3103 4656 3366 4563 
z
" transform="scale(0.015625)"/>
       </defs>
       <use xlink:href="#DejaVuSans-36"/>
      </g>
     </g>
    </g>
   </g>
   <g id="matplotlib.axis_2">
    <g id="ytick_1">
     <g id="line2d_11">
      <path d="M 115.2 134.842415 
L 270.469565 134.842415 
" clip-path="url(#p72be90ce5c)" style="fill: none; stroke: #b0b0b0; stroke-opacity: 0.8; stroke-width: 0.5; stroke-linecap: square"/>
     </g>
     <g id="line2d_12">
      <defs>
       <path id="m035c6dc2ec" d="M 0 0 
L -3.5 0 
" style="stroke: #000000; stroke-width: 0.8"/>
      </defs>
      <g>
       <use xlink:href="#m035c6dc2ec" x="115.2" y="134.842415" style="stroke: #000000; stroke-width: 0.8"/>
      </g>
     </g>
     <g id="text_6">
      <!-- 0.3 -->
      <g transform="translate(98.658125 137.121947) scale(0.06 -0.06)">
       <defs>
        <path id="DejaVuSans-30" d="M 2034 4250 
Q 1547 4250 1301 3770 
Q 1056 3291 1056 2328 
Q 1056 1369 1301 889 
Q 1547 409 2034 409 
Q 2525 409 2770 889 
Q 3016 1369 3016 2328 
Q 3016 3291 2770 3770 
Q 2525 4250 2034 4250 
z
M 2034 4750 
Q 2819 4750 3233 4129 
Q 3647 3509 3647 2328 
Q 3647 1150 3233 529 
Q 2819 -91 2034 -91 
Q 1250 -91 836 529 
Q 422 1150 422 2328 
Q 422 3509 836 4129 
Q 1250 4750 2034 4750 
z
" transform="scale(0.015625)"/>
        <path id="DejaVuSans-2e" d="M 684 794 
L 1344 794 
L 1344 0 
L 684 0 
L 684 794 
z
" transform="scale(0.015625)"/>
       </defs>
       <use xlink:href="#DejaVuSans-30"/>
       <use xlink:href="#DejaVuSans-2e" x="63.623047"/>
       <use xlink:href="#DejaVuSans-33" x="95.410156"/>
      </g>
     </g>
    </g>
    <g id="ytick_2">
     <g id="line2d_13">
      <path d="M 115.2 106.696614 
L 270.469565 106.696614 
" clip-path="url(#p72be90ce5c)" style="fill: none; stroke: #b0b0b0; stroke-opacity: 0.8; stroke-width: 0.5; stroke-linecap: square"/>
     </g>
     <g id="line2d_14">
      <g>
       <use xlink:href="#m035c6dc2ec" x="115.2" y="106.696614" style="stroke: #000000; stroke-width: 0.8"/>
      </g>
     </g>
     <g id="text_7">
      <!-- 0.4 -->
      <g transform="translate(98.658125 108.976145) scale(0.06 -0.06)">
       <use xlink:href="#DejaVuSans-30"/>
       <use xlink:href="#DejaVuSans-2e" x="63.623047"/>
       <use xlink:href="#DejaVuSans-34" x="95.410156"/>
      </g>
     </g>
    </g>
    <g id="ytick_3">
     <g id="line2d_15">
      <path d="M 115.2 78.550812 
L 270.469565 78.550812 
" clip-path="url(#p72be90ce5c)" style="fill: none; stroke: #b0b0b0; stroke-opacity: 0.8; stroke-width: 0.5; stroke-linecap: square"/>
     </g>
     <g id="line2d_16">
      <g>
       <use xlink:href="#m035c6dc2ec" x="115.2" y="78.550812" style="stroke: #000000; stroke-width: 0.8"/>
      </g>
     </g>
     <g id="text_8">
      <!-- 0.5 -->
      <g transform="translate(98.658125 80.830343) scale(0.06 -0.06)">
       <use xlink:href="#DejaVuSans-30"/>
       <use xlink:href="#DejaVuSans-2e" x="63.623047"/>
       <use xlink:href="#DejaVuSans-35" x="95.410156"/>
      </g>
     </g>
    </g>
    <g id="ytick_4">
     <g id="line2d_17">
      <path d="M 115.2 50.40501 
L 270.469565 50.40501 
" clip-path="url(#p72be90ce5c)" style="fill: none; stroke: #b0b0b0; stroke-opacity: 0.8; stroke-width: 0.5; stroke-linecap: square"/>
     </g>
     <g id="line2d_18">
      <g>
       <use xlink:href="#m035c6dc2ec" x="115.2" y="50.40501" style="stroke: #000000; stroke-width: 0.8"/>
      </g>
     </g>
     <g id="text_9">
      <!-- 0.6 -->
      <g transform="translate(98.658125 52.684541) scale(0.06 -0.06)">
       <use xlink:href="#DejaVuSans-30"/>
       <use xlink:href="#DejaVuSans-2e" x="63.623047"/>
       <use xlink:href="#DejaVuSans-36" x="95.410156"/>
      </g>
     </g>
    </g>
    <g id="ytick_5">
     <g id="line2d_19">
      <path d="M 115.2 22.259208 
L 270.469565 22.259208 
" clip-path="url(#p72be90ce5c)" style="fill: none; stroke: #b0b0b0; stroke-opacity: 0.8; stroke-width: 0.5; stroke-linecap: square"/>
     </g>
     <g id="line2d_20">
      <g>
       <use xlink:href="#m035c6dc2ec" x="115.2" y="22.259208" style="stroke: #000000; stroke-width: 0.8"/>
      </g>
     </g>
     <g id="text_10">
      <!-- 0.7 -->
      <g transform="translate(98.658125 24.538739) scale(0.06 -0.06)">
       <defs>
        <path id="DejaVuSans-37" d="M 525 4666 
L 3525 4666 
L 3525 4397 
L 1831 0 
L 1172 0 
L 2766 4134 
L 525 4134 
L 525 4666 
z
" transform="scale(0.015625)"/>
       </defs>
       <use xlink:href="#DejaVuSans-30"/>
       <use xlink:href="#DejaVuSans-2e" x="63.623047"/>
       <use xlink:href="#DejaVuSans-37" x="95.410156"/>
      </g>
     </g>
    </g>
   </g>
   <g id="patch_3">
    <path d="M 115.2 153.792 
L 115.2 20.736 
" style="fill: none; stroke: #000000; stroke-width: 0.8; stroke-linejoin: miter; stroke-linecap: square"/>
   </g>
   <g id="patch_4">
    <path d="M 115.2 153.792 
L 270.469565 153.792 
" style="fill: none; stroke: #000000; stroke-width: 0.8; stroke-linejoin: miter; stroke-linecap: square"/>
   </g>
   <g id="text_11">
    <!-- Spi1 -->
    <g transform="translate(181.916033 14.736) scale(0.1 -0.1)">
     <defs>
      <path id="DejaVuSans-53" d="M 3425 4513 
L 3425 3897 
Q 3066 4069 2747 4153 
Q 2428 4238 2131 4238 
Q 1616 4238 1336 4038 
Q 1056 3838 1056 3469 
Q 1056 3159 1242 3001 
Q 1428 2844 1947 2747 
L 2328 2669 
Q 3034 2534 3370 2195 
Q 3706 1856 3706 1288 
Q 3706 609 3251 259 
Q 2797 -91 1919 -91 
Q 1588 -91 1214 -16 
Q 841 59 441 206 
L 441 856 
Q 825 641 1194 531 
Q 1563 422 1919 422 
Q 2459 422 2753 634 
Q 3047 847 3047 1241 
Q 3047 1584 2836 1778 
Q 2625 1972 2144 2069 
L 1759 2144 
Q 1053 2284 737 2584 
Q 422 2884 422 3419 
Q 422 4038 858 4394 
Q 1294 4750 2059 4750 
Q 2388 4750 2728 4690 
Q 3069 4631 3425 4513 
z
" transform="scale(0.015625)"/>
      <path id="DejaVuSans-70" d="M 1159 525 
L 1159 -1331 
L 581 -1331 
L 581 3500 
L 1159 3500 
L 1159 2969 
Q 1341 3281 1617 3432 
Q 1894 3584 2278 3584 
Q 2916 3584 3314 3078 
Q 3713 2572 3713 1747 
Q 3713 922 3314 415 
Q 2916 -91 2278 -91 
Q 1894 -91 1617 61 
Q 1341 213 1159 525 
z
M 3116 1747 
Q 3116 2381 2855 2742 
Q 2594 3103 2138 3103 
Q 1681 3103 1420 2742 
Q 1159 2381 1159 1747 
Q 1159 1113 1420 752 
Q 1681 391 2138 391 
Q 2594 391 2855 752 
Q 3116 1113 3116 1747 
z
" transform="scale(0.015625)"/>
      <path id="DejaVuSans-69" d="M 603 3500 
L 1178 3500 
L 1178 0 
L 603 0 
L 603 3500 
z
M 603 4863 
L 1178 4863 
L 1178 4134 
L 603 4134 
L 603 4863 
z
" transform="scale(0.015625)"/>
      <path id="DejaVuSans-31" d="M 794 531 
L 1825 531 
L 1825 4091 
L 703 3866 
L 703 4441 
L 1819 4666 
L 2450 4666 
L 2450 531 
L 3481 531 
L 3481 0 
L 794 0 
L 794 531 
z
" transform="scale(0.015625)"/>
     </defs>
     <use xlink:href="#DejaVuSans-53"/>
     <use xlink:href="#DejaVuSans-70" x="63.476562"/>
     <use xlink:href="#DejaVuSans-69" x="126.953125"/>
     <use xlink:href="#DejaVuSans-31" x="154.736328"/>
    </g>
   </g>
   <g id="PolyCollection_1">
    <path d="M 122.257708 146.295143 
L 122.257708 146.295143 
L 125.786558 136.917515 
L 129.315417 131.132528 
L 132.844267 126.220151 
L 136.373126 122.76428 
L 139.901976 121.016084 
L 143.430827 119.834196 
L 146.959685 118.398183 
L 150.488536 117.146729 
L 154.017395 115.533295 
L 157.546245 114.549496 
L 161.075095 112.574032 
L 164.603954 111.5492 
L 168.132805 109.364724 
L 171.661663 108.172278 
L 175.190514 105.673803 
L 178.719364 104.199561 
L 182.248223 101.3996 
L 185.777073 99.580421 
L 189.305932 96.597906 
L 192.834783 94.535509 
L 196.363633 91.500545 
L 199.892483 89.271805 
L 203.421351 86.253755 
L 206.950201 83.852096 
L 210.479051 80.808557 
L 214.007902 78.272866 
L 217.536752 75.236394 
L 221.065619 72.56749 
L 224.59447 69.574312 
L 228.12332 66.847194 
L 231.652171 63.895085 
L 235.181021 61.186119 
L 238.709888 58.328746 
L 242.238739 55.579563 
L 245.767589 52.744828 
L 249.296439 49.945012 
L 252.82529 47.075899 
L 256.354157 44.213813 
L 259.883007 41.331606 
L 263.411858 38.425666 
L 263.411858 84.758313 
L 263.411858 84.758313 
L 259.883007 86.31272 
L 256.354157 89.204281 
L 252.82529 91.492107 
L 249.296439 94.146674 
L 245.767589 96.529763 
L 242.238739 99.226022 
L 238.709888 101.636112 
L 235.181021 104.287474 
L 231.652171 106.639399 
L 228.12332 109.356398 
L 224.59447 111.533331 
L 221.065619 114.025665 
L 217.536752 116.028579 
L 214.007902 118.26019 
L 210.479051 119.818606 
L 206.950201 121.734303 
L 203.421351 122.879873 
L 199.892483 124.599872 
L 196.363633 125.52777 
L 192.834783 126.972925 
L 189.305932 127.698744 
L 185.777073 129.001535 
L 182.248223 129.313707 
L 178.719364 130.386107 
L 175.190514 130.586239 
L 171.661663 131.535681 
L 168.132805 131.668791 
L 164.603954 132.614192 
L 161.075095 132.785431 
L 157.546245 133.812267 
L 154.017395 134.130095 
L 150.488536 135.184547 
L 146.959685 135.851899 
L 143.430827 136.640111 
L 139.901976 137.506368 
L 136.373126 139.068813 
L 132.844267 140.808098 
L 129.315417 142.528438 
L 125.786558 145.868542 
L 122.257708 146.295143 
z
" clip-path="url(#p72be90ce5c)" style="fill: #023047; fill-opacity: 0.2"/>
   </g>
   <g id="PolyCollection_2">
    <path d="M 122.257708 146.295143 
L 122.257708 146.295143 
L 125.786558 139.086652 
L 129.315417 131.47861 
L 132.844267 125.590529 
L 136.373126 121.26536 
L 139.901976 117.853934 
L 143.430827 115.789709 
L 146.959685 113.305077 
L 150.488536 112.194268 
L 154.017395 110.156909 
L 157.546245 108.632728 
L 161.075095 107.006615 
L 164.603954 106.431088 
L 168.132805 103.678104 
L 171.661663 102.418496 
L 175.190514 99.848179 
L 178.719364 96.628284 
L 182.248223 92.439718 
L 185.777073 89.595049 
L 189.305932 85.922528 
L 192.834783 83.244329 
L 196.363633 80.586558 
L 199.892483 78.289852 
L 203.421351 75.279679 
L 206.950201 72.138045 
L 210.479051 68.673408 
L 214.007902 65.818905 
L 217.536752 62.673593 
L 221.065619 59.763257 
L 224.59447 56.472695 
L 228.12332 53.647008 
L 231.652171 50.67635 
L 235.181021 47.58149 
L 238.709888 44.577715 
L 242.238739 41.612433 
L 245.767589 39.1944 
L 249.296439 36.543939 
L 252.82529 34.410709 
L 256.354157 32.029308 
L 259.883007 30.031829 
L 263.411858 26.784 
L 263.411858 70.115856 
L 263.411858 70.115856 
L 259.883007 73.566591 
L 256.354157 75.540568 
L 252.82529 78.045514 
L 249.296439 80.788124 
L 245.767589 82.852231 
L 242.238739 85.960229 
L 238.709888 88.868881 
L 235.181021 92.29714 
L 231.652171 96.274684 
L 228.12332 100.738131 
L 224.59447 104.672639 
L 221.065619 108.614071 
L 217.536752 111.870828 
L 214.007902 114.409542 
L 210.479051 116.700014 
L 206.950201 118.367198 
L 203.421351 120.050055 
L 199.892483 121.668503 
L 196.363633 123.696316 
L 192.834783 125.674843 
L 189.305932 127.682532 
L 185.777073 130.08109 
L 182.248223 131.880884 
L 178.719364 132.094316 
L 175.190514 132.587714 
L 171.661663 132.13152 
L 168.132805 132.140497 
L 164.603954 132.69268 
L 161.075095 134.332926 
L 157.546245 135.870515 
L 154.017395 136.589362 
L 150.488536 136.823462 
L 146.959685 137.495415 
L 143.430827 136.901841 
L 139.901976 137.26418 
L 136.373126 139.429487 
L 132.844267 141.801439 
L 129.315417 143.204955 
L 125.786558 147.744 
L 122.257708 146.295143 
z
" clip-path="url(#p72be90ce5c)" style="fill: #f08700; fill-opacity: 0.2"/>
   </g>
   <g id="line2d_21">
    <path d="M 122.257708 146.295143 
L 125.786558 141.393029 
L 129.315417 136.830483 
L 132.844267 133.514124 
L 136.373126 130.916547 
L 139.901976 129.261226 
L 143.430827 128.237153 
L 146.959685 127.125041 
L 150.488536 126.165638 
L 154.017395 124.831695 
L 157.546245 124.180882 
L 161.075095 122.679732 
L 164.603954 122.081696 
L 168.132805 120.516758 
L 171.661663 119.85398 
L 175.190514 118.130021 
L 178.719364 117.292834 
L 182.248223 115.356653 
L 185.777073 114.290978 
L 189.305932 112.148325 
L 192.834783 110.754217 
L 196.363633 108.514158 
L 199.892483 106.935838 
L 203.421351 104.566814 
L 206.950201 102.7932 
L 210.479051 100.313582 
L 214.007902 98.266528 
L 217.536752 95.632486 
L 221.065619 93.296578 
L 224.59447 90.553822 
L 228.12332 88.101796 
L 231.652171 85.267242 
L 235.181021 82.736796 
L 238.709888 79.982429 
L 242.238739 77.402793 
L 245.767589 74.637295 
L 249.296439 72.045843 
L 252.82529 69.284003 
L 256.354157 66.709047 
L 259.883007 63.822163 
L 263.411858 61.591989 
" clip-path="url(#p72be90ce5c)" style="fill: none; stroke: #023047; stroke-width: 1.5; stroke-linecap: square"/>
   </g>
   <g id="line2d_22">
    <path d="M 122.257708 146.295143 
L 125.786558 143.415326 
L 129.315417 137.341783 
L 132.844267 133.695984 
L 136.373126 130.347424 
L 139.901976 127.559057 
L 143.430827 126.345775 
L 146.959685 125.400246 
L 150.488536 124.508865 
L 154.017395 123.373135 
L 157.546245 122.251621 
L 161.075095 120.66977 
L 164.603954 119.561884 
L 168.132805 117.909301 
L 171.661663 117.275008 
L 175.190514 116.217946 
L 178.719364 114.3613 
L 182.248223 112.160301 
L 185.777073 109.838069 
L 189.305932 106.80253 
L 192.834783 104.459586 
L 196.363633 102.141437 
L 199.892483 99.979178 
L 203.421351 97.664867 
L 206.950201 95.252621 
L 210.479051 92.686711 
L 214.007902 90.114224 
L 217.536752 87.272211 
L 221.065619 84.188664 
L 224.59447 80.572667 
L 228.12332 77.192569 
L 231.652171 73.475517 
L 235.181021 69.939315 
L 238.709888 66.723298 
L 242.238739 63.786331 
L 245.767589 61.023316 
L 249.296439 58.666032 
L 252.82529 56.228111 
L 256.354157 53.784938 
L 259.883007 51.79921 
L 263.411858 48.449928 
" clip-path="url(#p72be90ce5c)" style="fill: none; stroke: #f08700; stroke-width: 1.5; stroke-linecap: square"/>
   </g>
   <g id="PathCollection_1">
    <path d="M 122.257708 149.033756 
C 122.983996 149.033756 123.680636 148.745199 124.194199 148.231635 
C 124.707763 147.718071 124.99632 147.021432 124.99632 146.295143 
C 124.99632 145.568855 124.707763 144.872215 124.194199 144.358652 
C 123.680636 143.845088 122.983996 143.556531 122.257708 143.556531 
C 121.531419 143.556531 120.834779 143.845088 120.321216 144.358652 
C 119.807652 144.872215 119.519095 145.568855 119.519095 146.295143 
C 119.519095 147.021432 119.807652 147.718071 120.321216 148.231635 
C 120.834779 148.745199 121.531419 149.033756 122.257708 149.033756 
z
" clip-path="url(#p72be90ce5c)"/>
   </g>
   <g id="PathCollection_2">
    <path d="M 263.411858 64.330602 
C 264.138146 64.330602 264.834786 64.042045 265.348349 63.528481 
C 265.861913 63.014918 266.15047 62.318278 266.15047 61.591989 
C 266.15047 60.865701 265.861913 60.169061 265.348349 59.655498 
C 264.834786 59.141934 264.138146 58.853377 263.411858 58.853377 
C 262.685569 58.853377 261.98893 59.141934 261.475366 59.655498 
C 260.961802 60.169061 260.673245 60.865701 260.673245 61.591989 
C 260.673245 62.318278 260.961802 63.014918 261.475366 63.528481 
C 261.98893 64.042045 262.685569 64.330602 263.411858 64.330602 
z
" clip-path="url(#p72be90ce5c)" style="fill: #023047"/>
   </g>
   <g id="PathCollection_3">
    <path d="M 122.257708 149.033756 
C 122.983996 149.033756 123.680636 148.745199 124.194199 148.231635 
C 124.707763 147.718071 124.99632 147.021432 124.99632 146.295143 
C 124.99632 145.568855 124.707763 144.872215 124.194199 144.358652 
C 123.680636 143.845088 122.983996 143.556531 122.257708 143.556531 
C 121.531419 143.556531 120.834779 143.845088 120.321216 144.358652 
C 119.807652 144.872215 119.519095 145.568855 119.519095 146.295143 
C 119.519095 147.021432 119.807652 147.718071 120.321216 148.231635 
C 120.834779 148.745199 121.531419 149.033756 122.257708 149.033756 
z
" clip-path="url(#p72be90ce5c)"/>
   </g>
   <g id="PathCollection_4">
    <path d="M 263.411858 51.188541 
C 264.138146 51.188541 264.834786 50.899983 265.348349 50.38642 
C 265.861913 49.872856 266.15047 49.176217 266.15047 48.449928 
C 266.15047 47.72364 265.861913 47.027 265.348349 46.513436 
C 264.834786 45.999873 264.138146 45.711315 263.411858 45.711315 
C 262.685569 45.711315 261.98893 45.999873 261.475366 46.513436 
C 260.961802 47.027 260.673245 47.72364 260.673245 48.449928 
C 260.673245 49.176217 260.961802 49.872856 261.475366 50.38642 
C 261.98893 50.899983 262.685569 51.188541 263.411858 51.188541 
z
" clip-path="url(#p72be90ce5c)" style="fill: #f08700"/>
   </g>
  </g>
  <g id="axes_2">
   <g id="patch_5">
    <path d="M 301.523478 153.792 
L 456.793043 153.792 
L 456.793043 20.736 
L 301.523478 20.736 
z
" style="fill: #ffffff"/>
   </g>
   <g id="matplotlib.axis_3">
    <g id="xtick_6">
     <g id="line2d_23">
      <path d="M 308.581186 153.792 
L 308.581186 20.736 
" clip-path="url(#p3505a1d82b)" style="fill: none; stroke: #b0b0b0; stroke-opacity: 0.8; stroke-width: 0.5; stroke-linecap: square"/>
     </g>
     <g id="line2d_24">
      <g>
       <use xlink:href="#m7f67db3984" x="308.581186" y="153.792" style="stroke: #000000; stroke-width: 0.8"/>
      </g>
     </g>
     <g id="text_12">
      <!-- 2 -->
      <g transform="translate(306.672436 165.351062) scale(0.06 -0.06)">
       <use xlink:href="#DejaVuSans-32"/>
      </g>
     </g>
    </g>
    <g id="xtick_7">
     <g id="line2d_25">
      <path d="M 343.869723 153.792 
L 343.869723 20.736 
" clip-path="url(#p3505a1d82b)" style="fill: none; stroke: #b0b0b0; stroke-opacity: 0.8; stroke-width: 0.5; stroke-linecap: square"/>
     </g>
     <g id="line2d_26">
      <g>
       <use xlink:href="#m7f67db3984" x="343.869723" y="153.792" style="stroke: #000000; stroke-width: 0.8"/>
      </g>
     </g>
     <g id="text_13">
      <!-- 3 -->
      <g transform="translate(341.960973 165.351062) scale(0.06 -0.06)">
       <use xlink:href="#DejaVuSans-33"/>
      </g>
     </g>
    </g>
    <g id="xtick_8">
     <g id="line2d_27">
      <path d="M 379.158261 153.792 
L 379.158261 20.736 
" clip-path="url(#p3505a1d82b)" style="fill: none; stroke: #b0b0b0; stroke-opacity: 0.8; stroke-width: 0.5; stroke-linecap: square"/>
     </g>
     <g id="line2d_28">
      <g>
       <use xlink:href="#m7f67db3984" x="379.158261" y="153.792" style="stroke: #000000; stroke-width: 0.8"/>
      </g>
     </g>
     <g id="text_14">
      <!-- 4 -->
      <g transform="translate(377.249511 165.351062) scale(0.06 -0.06)">
       <use xlink:href="#DejaVuSans-34"/>
      </g>
     </g>
    </g>
    <g id="xtick_9">
     <g id="line2d_29">
      <path d="M 414.446798 153.792 
L 414.446798 20.736 
" clip-path="url(#p3505a1d82b)" style="fill: none; stroke: #b0b0b0; stroke-opacity: 0.8; stroke-width: 0.5; stroke-linecap: square"/>
     </g>
     <g id="line2d_30">
      <g>
       <use xlink:href="#m7f67db3984" x="414.446798" y="153.792" style="stroke: #000000; stroke-width: 0.8"/>
      </g>
     </g>
     <g id="text_15">
      <!-- 5 -->
      <g transform="translate(412.538048 165.351062) scale(0.06 -0.06)">
       <use xlink:href="#DejaVuSans-35"/>
      </g>
     </g>
    </g>
    <g id="xtick_10">
     <g id="line2d_31">
      <path d="M 449.735336 153.792 
L 449.735336 20.736 
" clip-path="url(#p3505a1d82b)" style="fill: none; stroke: #b0b0b0; stroke-opacity: 0.8; stroke-width: 0.5; stroke-linecap: square"/>
     </g>
     <g id="line2d_32">
      <g>
       <use xlink:href="#m7f67db3984" x="449.735336" y="153.792" style="stroke: #000000; stroke-width: 0.8"/>
      </g>
     </g>
     <g id="text_16">
      <!-- 6 -->
      <g transform="translate(447.826586 165.351062) scale(0.06 -0.06)">
       <use xlink:href="#DejaVuSans-36"/>
      </g>
     </g>
    </g>
   </g>
   <g id="matplotlib.axis_4">
    <g id="ytick_6">
     <g id="line2d_33">
      <path d="M 301.523478 131.553417 
L 456.793043 131.553417 
" clip-path="url(#p3505a1d82b)" style="fill: none; stroke: #b0b0b0; stroke-opacity: 0.8; stroke-width: 0.5; stroke-linecap: square"/>
     </g>
     <g id="line2d_34">
      <g>
       <use xlink:href="#m035c6dc2ec" x="301.523478" y="131.553417" style="stroke: #000000; stroke-width: 0.8"/>
      </g>
     </g>
     <g id="text_17">
      <!-- 0.2 -->
      <g transform="translate(284.981603 133.832949) scale(0.06 -0.06)">
       <use xlink:href="#DejaVuSans-30"/>
       <use xlink:href="#DejaVuSans-2e" x="63.623047"/>
       <use xlink:href="#DejaVuSans-32" x="95.410156"/>
      </g>
     </g>
    </g>
    <g id="ytick_7">
     <g id="line2d_35">
      <path d="M 301.523478 105.100965 
L 456.793043 105.100965 
" clip-path="url(#p3505a1d82b)" style="fill: none; stroke: #b0b0b0; stroke-opacity: 0.8; stroke-width: 0.5; stroke-linecap: square"/>
     </g>
     <g id="line2d_36">
      <g>
       <use xlink:href="#m035c6dc2ec" x="301.523478" y="105.100965" style="stroke: #000000; stroke-width: 0.8"/>
      </g>
     </g>
     <g id="text_18">
      <!-- 0.4 -->
      <g transform="translate(284.981603 107.380496) scale(0.06 -0.06)">
       <use xlink:href="#DejaVuSans-30"/>
       <use xlink:href="#DejaVuSans-2e" x="63.623047"/>
       <use xlink:href="#DejaVuSans-34" x="95.410156"/>
      </g>
     </g>
    </g>
    <g id="ytick_8">
     <g id="line2d_37">
      <path d="M 301.523478 78.648513 
L 456.793043 78.648513 
" clip-path="url(#p3505a1d82b)" style="fill: none; stroke: #b0b0b0; stroke-opacity: 0.8; stroke-width: 0.5; stroke-linecap: square"/>
     </g>
     <g id="line2d_38">
      <g>
       <use xlink:href="#m035c6dc2ec" x="301.523478" y="78.648513" style="stroke: #000000; stroke-width: 0.8"/>
      </g>
     </g>
     <g id="text_19">
      <!-- 0.6 -->
      <g transform="translate(284.981603 80.928044) scale(0.06 -0.06)">
       <use xlink:href="#DejaVuSans-30"/>
       <use xlink:href="#DejaVuSans-2e" x="63.623047"/>
       <use xlink:href="#DejaVuSans-36" x="95.410156"/>
      </g>
     </g>
    </g>
    <g id="ytick_9">
     <g id="line2d_39">
      <path d="M 301.523478 52.196061 
L 456.793043 52.196061 
" clip-path="url(#p3505a1d82b)" style="fill: none; stroke: #b0b0b0; stroke-opacity: 0.8; stroke-width: 0.5; stroke-linecap: square"/>
     </g>
     <g id="line2d_40">
      <g>
       <use xlink:href="#m035c6dc2ec" x="301.523478" y="52.196061" style="stroke: #000000; stroke-width: 0.8"/>
      </g>
     </g>
     <g id="text_20">
      <!-- 0.8 -->
      <g transform="translate(284.981603 54.475592) scale(0.06 -0.06)">
       <defs>
        <path id="DejaVuSans-38" d="M 2034 2216 
Q 1584 2216 1326 1975 
Q 1069 1734 1069 1313 
Q 1069 891 1326 650 
Q 1584 409 2034 409 
Q 2484 409 2743 651 
Q 3003 894 3003 1313 
Q 3003 1734 2745 1975 
Q 2488 2216 2034 2216 
z
M 1403 2484 
Q 997 2584 770 2862 
Q 544 3141 544 3541 
Q 544 4100 942 4425 
Q 1341 4750 2034 4750 
Q 2731 4750 3128 4425 
Q 3525 4100 3525 3541 
Q 3525 3141 3298 2862 
Q 3072 2584 2669 2484 
Q 3125 2378 3379 2068 
Q 3634 1759 3634 1313 
Q 3634 634 3220 271 
Q 2806 -91 2034 -91 
Q 1263 -91 848 271 
Q 434 634 434 1313 
Q 434 1759 690 2068 
Q 947 2378 1403 2484 
z
M 1172 3481 
Q 1172 3119 1398 2916 
Q 1625 2713 2034 2713 
Q 2441 2713 2670 2916 
Q 2900 3119 2900 3481 
Q 2900 3844 2670 4047 
Q 2441 4250 2034 4250 
Q 1625 4250 1398 4047 
Q 1172 3844 1172 3481 
z
" transform="scale(0.015625)"/>
       </defs>
       <use xlink:href="#DejaVuSans-30"/>
       <use xlink:href="#DejaVuSans-2e" x="63.623047"/>
       <use xlink:href="#DejaVuSans-38" x="95.410156"/>
      </g>
     </g>
    </g>
    <g id="ytick_10">
     <g id="line2d_41">
      <path d="M 301.523478 25.743609 
L 456.793043 25.743609 
" clip-path="url(#p3505a1d82b)" style="fill: none; stroke: #b0b0b0; stroke-opacity: 0.8; stroke-width: 0.5; stroke-linecap: square"/>
     </g>
     <g id="line2d_42">
      <g>
       <use xlink:href="#m035c6dc2ec" x="301.523478" y="25.743609" style="stroke: #000000; stroke-width: 0.8"/>
      </g>
     </g>
     <g id="text_21">
      <!-- 1.0 -->
      <g transform="translate(284.981603 28.02314) scale(0.06 -0.06)">
       <use xlink:href="#DejaVuSans-31"/>
       <use xlink:href="#DejaVuSans-2e" x="63.623047"/>
       <use xlink:href="#DejaVuSans-30" x="95.410156"/>
      </g>
     </g>
    </g>
   </g>
   <g id="patch_6">
    <path d="M 301.523478 153.792 
L 301.523478 20.736 
" style="fill: none; stroke: #000000; stroke-width: 0.8; stroke-linejoin: miter; stroke-linecap: square"/>
   </g>
   <g id="patch_7">
    <path d="M 301.523478 153.792 
L 456.793043 153.792 
" style="fill: none; stroke: #000000; stroke-width: 0.8; stroke-linejoin: miter; stroke-linecap: square"/>
   </g>
   <g id="text_22">
    <!-- Gfi1 -->
    <g transform="translate(368.953573 14.736) scale(0.1 -0.1)">
     <defs>
      <path id="DejaVuSans-47" d="M 3809 666 
L 3809 1919 
L 2778 1919 
L 2778 2438 
L 4434 2438 
L 4434 434 
Q 4069 175 3628 42 
Q 3188 -91 2688 -91 
Q 1594 -91 976 548 
Q 359 1188 359 2328 
Q 359 3472 976 4111 
Q 1594 4750 2688 4750 
Q 3144 4750 3555 4637 
Q 3966 4525 4313 4306 
L 4313 3634 
Q 3963 3931 3569 4081 
Q 3175 4231 2741 4231 
Q 1884 4231 1454 3753 
Q 1025 3275 1025 2328 
Q 1025 1384 1454 906 
Q 1884 428 2741 428 
Q 3075 428 3337 486 
Q 3600 544 3809 666 
z
" transform="scale(0.015625)"/>
      <path id="DejaVuSans-66" d="M 2375 4863 
L 2375 4384 
L 1825 4384 
Q 1516 4384 1395 4259 
Q 1275 4134 1275 3809 
L 1275 3500 
L 2222 3500 
L 2222 3053 
L 1275 3053 
L 1275 0 
L 697 0 
L 697 3053 
L 147 3053 
L 147 3500 
L 697 3500 
L 697 3744 
Q 697 4328 969 4595 
Q 1241 4863 1831 4863 
L 2375 4863 
z
" transform="scale(0.015625)"/>
     </defs>
     <use xlink:href="#DejaVuSans-47"/>
     <use xlink:href="#DejaVuSans-66" x="77.490234"/>
     <use xlink:href="#DejaVuSans-69" x="112.695312"/>
     <use xlink:href="#DejaVuSans-31" x="140.478516"/>
    </g>
   </g>
   <g id="PolyCollection_3">
    <path d="M 308.581186 142.03022 
L 308.581186 142.03022 
L 312.110036 127.816139 
L 315.638895 124.968995 
L 319.167745 117.832526 
L 322.696604 113.226051 
L 326.225455 107.780268 
L 329.754305 103.106506 
L 333.283164 98.854189 
L 336.812014 95.653588 
L 340.340873 91.847481 
L 343.869723 89.525081 
L 347.398574 86.36707 
L 350.927433 83.900972 
L 354.456283 80.666777 
L 357.985142 77.975918 
L 361.513992 74.526651 
L 365.042842 71.608267 
L 368.571701 68.248349 
L 372.100552 65.172015 
L 375.62941 61.84137 
L 379.158261 58.778797 
L 382.687111 55.495293 
L 386.215962 52.365861 
L 389.744829 49.178277 
L 393.273679 46.068082 
L 396.80253 43.176352 
L 400.33138 40.439093 
L 403.86023 37.860936 
L 407.389098 35.639612 
L 410.917948 33.547976 
L 414.446798 31.697436 
L 417.975649 30.106032 
L 421.504499 28.758875 
L 425.033366 27.723361 
L 428.562217 27.094688 
L 432.091067 26.784 
L 435.619918 26.88639 
L 439.148768 27.425819 
L 442.677635 28.23507 
L 446.206486 29.200475 
L 449.735336 30.616365 
L 449.735336 122.691424 
L 449.735336 122.691424 
L 446.206486 119.706062 
L 442.677635 116.424964 
L 439.148768 113.245444 
L 435.619918 110.0493 
L 432.091067 107.017276 
L 428.562217 104.178262 
L 425.033366 101.597371 
L 421.504499 99.385483 
L 417.975649 97.549626 
L 414.446798 95.981223 
L 410.917948 94.736756 
L 407.389098 93.933018 
L 403.86023 93.419182 
L 400.33138 93.370988 
L 396.80253 93.508395 
L 393.273679 94.115814 
L 389.744829 94.631362 
L 386.215962 95.497711 
L 382.687111 96.154241 
L 379.158261 97.379639 
L 375.62941 98.187681 
L 372.100552 99.733864 
L 368.571701 100.980106 
L 365.042842 102.720653 
L 361.513992 103.870819 
L 357.985142 105.676511 
L 354.456283 106.806472 
L 350.927433 108.387387 
L 347.398574 109.479295 
L 343.869723 111.084153 
L 340.340873 112.245019 
L 336.812014 114.010215 
L 333.283164 115.681472 
L 329.754305 117.652483 
L 326.225455 120.444505 
L 322.696604 123.315037 
L 319.167745 125.910319 
L 315.638895 130.318559 
L 312.110036 130.809098 
L 308.581186 142.03022 
z
" clip-path="url(#p3505a1d82b)" style="fill: #023047; fill-opacity: 0.2"/>
   </g>
   <g id="PolyCollection_4">
    <path d="M 308.581186 142.03022 
L 308.581186 142.03022 
L 312.110036 128.541434 
L 315.638895 126.674608 
L 319.167745 119.636881 
L 322.696604 114.645831 
L 326.225455 108.389553 
L 329.754305 103.160898 
L 333.283164 97.764056 
L 336.812014 94.960163 
L 340.340873 92.432626 
L 343.869723 91.336361 
L 347.398574 88.967993 
L 350.927433 87.877856 
L 354.456283 85.643112 
L 357.985142 82.797746 
L 361.513992 80.639805 
L 365.042842 81.172002 
L 368.571701 81.852354 
L 372.100552 82.822 
L 375.62941 83.911551 
L 379.158261 85.287163 
L 382.687111 84.347478 
L 386.215962 83.533645 
L 389.744829 83.604012 
L 393.273679 84.758216 
L 396.80253 84.075346 
L 400.33138 83.897351 
L 403.86023 83.984282 
L 407.389098 84.945836 
L 410.917948 85.403276 
L 414.446798 87.036123 
L 417.975649 89.828674 
L 421.504499 91.838307 
L 425.033366 92.126219 
L 428.562217 92.97425 
L 432.091067 93.96675 
L 435.619918 94.46188 
L 439.148768 95.35419 
L 442.677635 97.365193 
L 446.206486 97.562118 
L 449.735336 103.150811 
L 449.735336 147.744 
L 449.735336 147.744 
L 446.206486 146.595771 
L 442.677635 145.084501 
L 439.148768 142.931781 
L 435.619918 140.9332 
L 432.091067 138.350355 
L 428.562217 135.630633 
L 425.033366 133.859651 
L 421.504499 132.823137 
L 417.975649 131.700828 
L 414.446798 130.707115 
L 410.917948 128.727809 
L 407.389098 127.071363 
L 403.86023 124.901134 
L 400.33138 123.494059 
L 396.80253 121.886188 
L 393.273679 121.214245 
L 389.744829 121.508051 
L 386.215962 121.87635 
L 382.687111 120.261523 
L 379.158261 117.918451 
L 375.62941 116.937844 
L 372.100552 114.250813 
L 368.571701 112.029265 
L 365.042842 111.361403 
L 361.513992 112.859776 
L 357.985142 113.534094 
L 354.456283 113.805546 
L 350.927433 114.444038 
L 347.398574 115.241993 
L 343.869723 114.069253 
L 340.340873 113.756017 
L 336.812014 114.416989 
L 333.283164 115.648876 
L 329.754305 117.132837 
L 326.225455 121.063757 
L 322.696604 124.154951 
L 319.167745 127.225473 
L 315.638895 131.42505 
L 312.110036 131.436195 
L 308.581186 142.03022 
z
" clip-path="url(#p3505a1d82b)" style="fill: #f08700; fill-opacity: 0.2"/>
   </g>
   <g id="line2d_43">
    <path d="M 308.581186 142.03022 
L 312.110036 129.312618 
L 315.638895 127.643777 
L 319.167745 121.871422 
L 322.696604 118.270544 
L 326.225455 114.112386 
L 329.754305 110.379494 
L 333.283164 107.267831 
L 336.812014 104.831902 
L 340.340873 102.04625 
L 343.869723 100.304617 
L 347.398574 97.923182 
L 350.927433 96.144179 
L 354.456283 93.736624 
L 357.985142 91.826215 
L 361.513992 89.198735 
L 365.042842 87.16446 
L 368.571701 84.614227 
L 372.100552 82.45294 
L 375.62941 80.014525 
L 379.158261 78.079218 
L 382.687111 75.824767 
L 386.215962 73.931786 
L 389.744829 71.904819 
L 393.273679 70.091948 
L 396.80253 68.342374 
L 400.33138 66.90504 
L 403.86023 65.640059 
L 407.389098 64.786315 
L 410.917948 64.142366 
L 414.446798 63.83933 
L 417.975649 63.827829 
L 421.504499 64.072179 
L 425.033366 64.660366 
L 428.562217 65.636475 
L 432.091067 66.900638 
L 435.619918 68.467845 
L 439.148768 70.335632 
L 442.677635 72.330017 
L 446.206486 74.453269 
L 449.735336 76.653895 
" clip-path="url(#p3505a1d82b)" style="fill: none; stroke: #023047; stroke-width: 1.5; stroke-linecap: square"/>
   </g>
   <g id="line2d_44">
    <path d="M 308.581186 142.03022 
L 312.110036 129.988815 
L 315.638895 129.049829 
L 319.167745 123.431177 
L 322.696604 119.400391 
L 326.225455 114.726655 
L 329.754305 110.146868 
L 333.283164 106.706466 
L 336.812014 104.688576 
L 340.340873 103.094321 
L 343.869723 102.702807 
L 347.398574 102.104993 
L 350.927433 101.160947 
L 354.456283 99.724329 
L 357.985142 98.16592 
L 361.513992 96.74979 
L 365.042842 96.266702 
L 368.571701 96.940809 
L 372.100552 98.536406 
L 375.62941 100.424697 
L 379.158261 101.602807 
L 382.687111 102.304501 
L 386.215962 102.704998 
L 389.744829 102.556031 
L 393.273679 102.986231 
L 396.80253 102.980767 
L 400.33138 103.695705 
L 403.86023 104.442708 
L 407.389098 106.008599 
L 410.917948 107.065542 
L 414.446798 108.871619 
L 417.975649 110.764751 
L 421.504499 112.330722 
L 425.033366 112.992935 
L 428.562217 114.302442 
L 432.091067 116.158552 
L 435.619918 117.69754 
L 439.148768 119.142985 
L 442.677635 121.224847 
L 446.206486 122.078944 
L 449.735336 125.447406 
" clip-path="url(#p3505a1d82b)" style="fill: none; stroke: #f08700; stroke-width: 1.5; stroke-linecap: square"/>
   </g>
   <g id="PathCollection_5">
    <path d="M 308.581186 144.768833 
C 309.307474 144.768833 310.004114 144.480275 310.517677 143.966712 
C 311.031241 143.453148 311.319799 142.756508 311.319799 142.03022 
C 311.319799 141.303931 311.031241 140.607292 310.517677 140.093728 
C 310.004114 139.580165 309.307474 139.291607 308.581186 139.291607 
C 307.854897 139.291607 307.158258 139.580165 306.644694 140.093728 
C 306.131131 140.607292 305.842573 141.303931 305.842573 142.03022 
C 305.842573 142.756508 306.131131 143.453148 306.644694 143.966712 
C 307.158258 144.480275 307.854897 144.768833 308.581186 144.768833 
z
" clip-path="url(#p3505a1d82b)"/>
   </g>
   <g id="PathCollection_6">
    <path d="M 449.735336 79.392507 
C 450.461625 79.392507 451.158264 79.10395 451.671828 78.590386 
C 452.185391 78.076823 452.473949 77.380183 452.473949 76.653895 
C 452.473949 75.927606 452.185391 75.230967 451.671828 74.717403 
C 451.158264 74.203839 450.461625 73.915282 449.735336 73.915282 
C 449.009047 73.915282 448.312408 74.203839 447.798844 74.717403 
C 447.285281 75.230967 446.996723 75.927606 446.996723 76.653895 
C 446.996723 77.380183 447.285281 78.076823 447.798844 78.590386 
C 448.312408 79.10395 449.009047 79.392507 449.735336 79.392507 
z
" clip-path="url(#p3505a1d82b)" style="fill: #023047"/>
   </g>
   <g id="PathCollection_7">
    <path d="M 308.581186 144.768833 
C 309.307474 144.768833 310.004114 144.480275 310.517677 143.966712 
C 311.031241 143.453148 311.319799 142.756508 311.319799 142.03022 
C 311.319799 141.303931 311.031241 140.607292 310.517677 140.093728 
C 310.004114 139.580165 309.307474 139.291607 308.581186 139.291607 
C 307.854897 139.291607 307.158258 139.580165 306.644694 140.093728 
C 306.131131 140.607292 305.842573 141.303931 305.842573 142.03022 
C 305.842573 142.756508 306.131131 143.453148 306.644694 143.966712 
C 307.158258 144.480275 307.854897 144.768833 308.581186 144.768833 
z
" clip-path="url(#p3505a1d82b)"/>
   </g>
   <g id="PathCollection_8">
    <path d="M 449.735336 128.186018 
C 450.461625 128.186018 451.158264 127.897461 451.671828 127.383897 
C 452.185391 126.870334 452.473949 126.173694 452.473949 125.447406 
C 452.473949 124.721117 452.185391 124.024478 451.671828 123.510914 
C 451.158264 122.99735 450.461625 122.708793 449.735336 122.708793 
C 449.009047 122.708793 448.312408 122.99735 447.798844 123.510914 
C 447.285281 124.024478 446.996723 124.721117 446.996723 125.447406 
C 446.996723 126.173694 447.285281 126.870334 447.798844 127.383897 
C 448.312408 127.897461 449.009047 128.186018 449.735336 128.186018 
z
" clip-path="url(#p3505a1d82b)" style="fill: #f08700"/>
   </g>
  </g>
  <g id="axes_3">
   <g id="patch_8">
    <path d="M 487.846957 153.792 
L 643.116522 153.792 
L 643.116522 20.736 
L 487.846957 20.736 
z
" style="fill: #ffffff"/>
   </g>
   <g id="matplotlib.axis_5">
    <g id="xtick_11">
     <g id="line2d_45">
      <path d="M 494.904664 153.792 
L 494.904664 20.736 
" clip-path="url(#pebdffce120)" style="fill: none; stroke: #b0b0b0; stroke-opacity: 0.8; stroke-width: 0.5; stroke-linecap: square"/>
     </g>
     <g id="line2d_46">
      <g>
       <use xlink:href="#m7f67db3984" x="494.904664" y="153.792" style="stroke: #000000; stroke-width: 0.8"/>
      </g>
     </g>
     <g id="text_23">
      <!-- 2 -->
      <g transform="translate(492.995914 165.351062) scale(0.06 -0.06)">
       <use xlink:href="#DejaVuSans-32"/>
      </g>
     </g>
    </g>
    <g id="xtick_12">
     <g id="line2d_47">
      <path d="M 530.193202 153.792 
L 530.193202 20.736 
" clip-path="url(#pebdffce120)" style="fill: none; stroke: #b0b0b0; stroke-opacity: 0.8; stroke-width: 0.5; stroke-linecap: square"/>
     </g>
     <g id="line2d_48">
      <g>
       <use xlink:href="#m7f67db3984" x="530.193202" y="153.792" style="stroke: #000000; stroke-width: 0.8"/>
      </g>
     </g>
     <g id="text_24">
      <!-- 3 -->
      <g transform="translate(528.284452 165.351062) scale(0.06 -0.06)">
       <use xlink:href="#DejaVuSans-33"/>
      </g>
     </g>
    </g>
    <g id="xtick_13">
     <g id="line2d_49">
      <path d="M 565.481739 153.792 
L 565.481739 20.736 
" clip-path="url(#pebdffce120)" style="fill: none; stroke: #b0b0b0; stroke-opacity: 0.8; stroke-width: 0.5; stroke-linecap: square"/>
     </g>
     <g id="line2d_50">
      <g>
       <use xlink:href="#m7f67db3984" x="565.481739" y="153.792" style="stroke: #000000; stroke-width: 0.8"/>
      </g>
     </g>
     <g id="text_25">
      <!-- 4 -->
      <g transform="translate(563.572989 165.351062) scale(0.06 -0.06)">
       <use xlink:href="#DejaVuSans-34"/>
      </g>
     </g>
    </g>
    <g id="xtick_14">
     <g id="line2d_51">
      <path d="M 600.770277 153.792 
L 600.770277 20.736 
" clip-path="url(#pebdffce120)" style="fill: none; stroke: #b0b0b0; stroke-opacity: 0.8; stroke-width: 0.5; stroke-linecap: square"/>
     </g>
     <g id="line2d_52">
      <g>
       <use xlink:href="#m7f67db3984" x="600.770277" y="153.792" style="stroke: #000000; stroke-width: 0.8"/>
      </g>
     </g>
     <g id="text_26">
      <!-- 5 -->
      <g transform="translate(598.861527 165.351062) scale(0.06 -0.06)">
       <use xlink:href="#DejaVuSans-35"/>
      </g>
     </g>
    </g>
    <g id="xtick_15">
     <g id="line2d_53">
      <path d="M 636.058814 153.792 
L 636.058814 20.736 
" clip-path="url(#pebdffce120)" style="fill: none; stroke: #b0b0b0; stroke-opacity: 0.8; stroke-width: 0.5; stroke-linecap: square"/>
     </g>
     <g id="line2d_54">
      <g>
       <use xlink:href="#m7f67db3984" x="636.058814" y="153.792" style="stroke: #000000; stroke-width: 0.8"/>
      </g>
     </g>
     <g id="text_27">
      <!-- 6 -->
      <g transform="translate(634.150064 165.351062) scale(0.06 -0.06)">
       <use xlink:href="#DejaVuSans-36"/>
      </g>
     </g>
    </g>
   </g>
   <g id="matplotlib.axis_6">
    <g id="ytick_11">
     <g id="line2d_55">
      <path d="M 487.846957 153.30972 
L 643.116522 153.30972 
" clip-path="url(#pebdffce120)" style="fill: none; stroke: #b0b0b0; stroke-opacity: 0.8; stroke-width: 0.5; stroke-linecap: square"/>
     </g>
     <g id="line2d_56">
      <g>
       <use xlink:href="#m035c6dc2ec" x="487.846957" y="153.30972" style="stroke: #000000; stroke-width: 0.8"/>
      </g>
     </g>
     <g id="text_28">
      <!-- 0.00 -->
      <g transform="translate(467.487582 155.589251) scale(0.06 -0.06)">
       <use xlink:href="#DejaVuSans-30"/>
       <use xlink:href="#DejaVuSans-2e" x="63.623047"/>
       <use xlink:href="#DejaVuSans-30" x="95.410156"/>
       <use xlink:href="#DejaVuSans-30" x="159.033203"/>
      </g>
     </g>
    </g>
    <g id="ytick_12">
     <g id="line2d_57">
      <path d="M 487.846957 137.090427 
L 643.116522 137.090427 
" clip-path="url(#pebdffce120)" style="fill: none; stroke: #b0b0b0; stroke-opacity: 0.8; stroke-width: 0.5; stroke-linecap: square"/>
     </g>
     <g id="line2d_58">
      <g>
       <use xlink:href="#m035c6dc2ec" x="487.846957" y="137.090427" style="stroke: #000000; stroke-width: 0.8"/>
      </g>
     </g>
     <g id="text_29">
      <!-- 0.05 -->
      <g transform="translate(467.487582 139.369958) scale(0.06 -0.06)">
       <use xlink:href="#DejaVuSans-30"/>
       <use xlink:href="#DejaVuSans-2e" x="63.623047"/>
       <use xlink:href="#DejaVuSans-30" x="95.410156"/>
       <use xlink:href="#DejaVuSans-35" x="159.033203"/>
      </g>
     </g>
    </g>
    <g id="ytick_13">
     <g id="line2d_59">
      <path d="M 487.846957 120.871134 
L 643.116522 120.871134 
" clip-path="url(#pebdffce120)" style="fill: none; stroke: #b0b0b0; stroke-opacity: 0.8; stroke-width: 0.5; stroke-linecap: square"/>
     </g>
     <g id="line2d_60">
      <g>
       <use xlink:href="#m035c6dc2ec" x="487.846957" y="120.871134" style="stroke: #000000; stroke-width: 0.8"/>
      </g>
     </g>
     <g id="text_30">
      <!-- 0.10 -->
      <g transform="translate(467.487582 123.150665) scale(0.06 -0.06)">
       <use xlink:href="#DejaVuSans-30"/>
       <use xlink:href="#DejaVuSans-2e" x="63.623047"/>
       <use xlink:href="#DejaVuSans-31" x="95.410156"/>
       <use xlink:href="#DejaVuSans-30" x="159.033203"/>
      </g>
     </g>
    </g>
    <g id="ytick_14">
     <g id="line2d_61">
      <path d="M 487.846957 104.651841 
L 643.116522 104.651841 
" clip-path="url(#pebdffce120)" style="fill: none; stroke: #b0b0b0; stroke-opacity: 0.8; stroke-width: 0.5; stroke-linecap: square"/>
     </g>
     <g id="line2d_62">
      <g>
       <use xlink:href="#m035c6dc2ec" x="487.846957" y="104.651841" style="stroke: #000000; stroke-width: 0.8"/>
      </g>
     </g>
     <g id="text_31">
      <!-- 0.15 -->
      <g transform="translate(467.487582 106.931373) scale(0.06 -0.06)">
       <use xlink:href="#DejaVuSans-30"/>
       <use xlink:href="#DejaVuSans-2e" x="63.623047"/>
       <use xlink:href="#DejaVuSans-31" x="95.410156"/>
       <use xlink:href="#DejaVuSans-35" x="159.033203"/>
      </g>
     </g>
    </g>
    <g id="ytick_15">
     <g id="line2d_63">
      <path d="M 487.846957 88.432548 
L 643.116522 88.432548 
" clip-path="url(#pebdffce120)" style="fill: none; stroke: #b0b0b0; stroke-opacity: 0.8; stroke-width: 0.5; stroke-linecap: square"/>
     </g>
     <g id="line2d_64">
      <g>
       <use xlink:href="#m035c6dc2ec" x="487.846957" y="88.432548" style="stroke: #000000; stroke-width: 0.8"/>
      </g>
     </g>
     <g id="text_32">
      <!-- 0.20 -->
      <g transform="translate(467.487582 90.71208) scale(0.06 -0.06)">
       <use xlink:href="#DejaVuSans-30"/>
       <use xlink:href="#DejaVuSans-2e" x="63.623047"/>
       <use xlink:href="#DejaVuSans-32" x="95.410156"/>
       <use xlink:href="#DejaVuSans-30" x="159.033203"/>
      </g>
     </g>
    </g>
    <g id="ytick_16">
     <g id="line2d_65">
      <path d="M 487.846957 72.213255 
L 643.116522 72.213255 
" clip-path="url(#pebdffce120)" style="fill: none; stroke: #b0b0b0; stroke-opacity: 0.8; stroke-width: 0.5; stroke-linecap: square"/>
     </g>
     <g id="line2d_66">
      <g>
       <use xlink:href="#m035c6dc2ec" x="487.846957" y="72.213255" style="stroke: #000000; stroke-width: 0.8"/>
      </g>
     </g>
     <g id="text_33">
      <!-- 0.25 -->
      <g transform="translate(467.487582 74.492787) scale(0.06 -0.06)">
       <use xlink:href="#DejaVuSans-30"/>
       <use xlink:href="#DejaVuSans-2e" x="63.623047"/>
       <use xlink:href="#DejaVuSans-32" x="95.410156"/>
       <use xlink:href="#DejaVuSans-35" x="159.033203"/>
      </g>
     </g>
    </g>
    <g id="ytick_17">
     <g id="line2d_67">
      <path d="M 487.846957 55.993963 
L 643.116522 55.993963 
" clip-path="url(#pebdffce120)" style="fill: none; stroke: #b0b0b0; stroke-opacity: 0.8; stroke-width: 0.5; stroke-linecap: square"/>
     </g>
     <g id="line2d_68">
      <g>
       <use xlink:href="#m035c6dc2ec" x="487.846957" y="55.993963" style="stroke: #000000; stroke-width: 0.8"/>
      </g>
     </g>
     <g id="text_34">
      <!-- 0.30 -->
      <g transform="translate(467.487582 58.273494) scale(0.06 -0.06)">
       <use xlink:href="#DejaVuSans-30"/>
       <use xlink:href="#DejaVuSans-2e" x="63.623047"/>
       <use xlink:href="#DejaVuSans-33" x="95.410156"/>
       <use xlink:href="#DejaVuSans-30" x="159.033203"/>
      </g>
     </g>
    </g>
    <g id="ytick_18">
     <g id="line2d_69">
      <path d="M 487.846957 39.77467 
L 643.116522 39.77467 
" clip-path="url(#pebdffce120)" style="fill: none; stroke: #b0b0b0; stroke-opacity: 0.8; stroke-width: 0.5; stroke-linecap: square"/>
     </g>
     <g id="line2d_70">
      <g>
       <use xlink:href="#m035c6dc2ec" x="487.846957" y="39.77467" style="stroke: #000000; stroke-width: 0.8"/>
      </g>
     </g>
     <g id="text_35">
      <!-- 0.35 -->
      <g transform="translate(467.487582 42.054201) scale(0.06 -0.06)">
       <use xlink:href="#DejaVuSans-30"/>
       <use xlink:href="#DejaVuSans-2e" x="63.623047"/>
       <use xlink:href="#DejaVuSans-33" x="95.410156"/>
       <use xlink:href="#DejaVuSans-35" x="159.033203"/>
      </g>
     </g>
    </g>
    <g id="ytick_19">
     <g id="line2d_71">
      <path d="M 487.846957 23.555377 
L 643.116522 23.555377 
" clip-path="url(#pebdffce120)" style="fill: none; stroke: #b0b0b0; stroke-opacity: 0.8; stroke-width: 0.5; stroke-linecap: square"/>
     </g>
     <g id="line2d_72">
      <g>
       <use xlink:href="#m035c6dc2ec" x="487.846957" y="23.555377" style="stroke: #000000; stroke-width: 0.8"/>
      </g>
     </g>
     <g id="text_36">
      <!-- 0.40 -->
      <g transform="translate(467.487582 25.834908) scale(0.06 -0.06)">
       <use xlink:href="#DejaVuSans-30"/>
       <use xlink:href="#DejaVuSans-2e" x="63.623047"/>
       <use xlink:href="#DejaVuSans-34" x="95.410156"/>
       <use xlink:href="#DejaVuSans-30" x="159.033203"/>
      </g>
     </g>
    </g>
   </g>
   <g id="patch_9">
    <path d="M 487.846957 153.792 
L 487.846957 20.736 
" style="fill: none; stroke: #000000; stroke-width: 0.8; stroke-linejoin: miter; stroke-linecap: square"/>
   </g>
   <g id="patch_10">
    <path d="M 487.846957 153.792 
L 643.116522 153.792 
" style="fill: none; stroke: #000000; stroke-width: 0.8; stroke-linejoin: miter; stroke-linecap: square"/>
   </g>
   <g id="text_37">
    <!-- Irf8 -->
    <g transform="translate(557.009864 14.736) scale(0.1 -0.1)">
     <defs>
      <path id="DejaVuSans-49" d="M 628 4666 
L 1259 4666 
L 1259 0 
L 628 0 
L 628 4666 
z
" transform="scale(0.015625)"/>
      <path id="DejaVuSans-72" d="M 2631 2963 
Q 2534 3019 2420 3045 
Q 2306 3072 2169 3072 
Q 1681 3072 1420 2755 
Q 1159 2438 1159 1844 
L 1159 0 
L 581 0 
L 581 3500 
L 1159 3500 
L 1159 2956 
Q 1341 3275 1631 3429 
Q 1922 3584 2338 3584 
Q 2397 3584 2469 3576 
Q 2541 3569 2628 3553 
L 2631 2963 
z
" transform="scale(0.015625)"/>
     </defs>
     <use xlink:href="#DejaVuSans-49"/>
     <use xlink:href="#DejaVuSans-72" x="29.492188"/>
     <use xlink:href="#DejaVuSans-66" x="70.605469"/>
     <use xlink:href="#DejaVuSans-38" x="105.810547"/>
    </g>
   </g>
   <g id="PolyCollection_5">
    <path d="M 494.904664 142.827446 
L 494.904664 142.827446 
L 498.433514 127.18757 
L 501.962373 125.351557 
L 505.491224 119.95583 
L 509.020082 117.264989 
L 512.548933 115.013506 
L 516.077783 113.797719 
L 519.606642 111.758577 
L 523.135492 110.443273 
L 526.664351 108.845168 
L 530.193202 108.117156 
L 533.722052 106.74896 
L 537.250911 106.254566 
L 540.779761 104.479498 
L 544.30862 104.176152 
L 547.83747 102.637731 
L 551.366321 102.452257 
L 554.89518 100.957875 
L 558.42403 101.113037 
L 561.952889 99.83695 
L 565.481739 100.218162 
L 569.01059 99.377062 
L 572.53944 100.000095 
L 576.068307 99.542645 
L 579.597158 100.341484 
L 583.126008 100.054895 
L 586.654858 100.851455 
L 590.183709 100.843035 
L 593.712576 101.819566 
L 597.241426 102.214946 
L 600.770277 103.423791 
L 604.299127 104.212139 
L 607.827977 105.463326 
L 611.356845 106.371521 
L 614.885695 107.586898 
L 618.414545 108.535561 
L 621.943396 109.706228 
L 625.472246 110.82311 
L 629.001113 112.134762 
L 632.529964 113.186416 
L 636.058814 114.867402 
L 636.058814 147.744 
L 636.058814 147.744 
L 632.529964 147.166697 
L 629.001113 146.19528 
L 625.472246 145.245316 
L 621.943396 144.219934 
L 618.414545 143.047568 
L 614.885695 141.92808 
L 611.356845 140.529204 
L 607.827977 139.333309 
L 604.299127 137.77395 
L 600.770277 136.723188 
L 597.241426 135.242645 
L 593.712576 134.46398 
L 590.183709 133.227536 
L 586.654858 132.637073 
L 583.126008 131.387206 
L 579.597158 130.931292 
L 576.068307 129.685568 
L 572.53944 129.438331 
L 569.01059 128.631395 
L 565.481739 128.582023 
L 561.952889 128.021707 
L 558.42403 128.153993 
L 554.89518 127.624871 
L 551.366321 127.969605 
L 547.83747 127.860201 
L 544.30862 128.312019 
L 540.779761 128.356246 
L 537.250911 128.999219 
L 533.722052 129.246537 
L 530.193202 129.66451 
L 526.664351 130.021968 
L 523.135492 130.98299 
L 519.606642 131.722707 
L 516.077783 132.873253 
L 512.548933 133.768558 
L 509.020082 135.159541 
L 505.491224 135.599048 
L 501.962373 137.391707 
L 498.433514 135.383585 
L 494.904664 142.827446 
z
" clip-path="url(#pebdffce120)" style="fill: #023047; fill-opacity: 0.2"/>
   </g>
   <g id="PolyCollection_6">
    <path d="M 494.904664 142.827446 
L 494.904664 142.827446 
L 498.433514 129.173742 
L 501.962373 127.259083 
L 505.491224 122.827062 
L 509.020082 119.859233 
L 512.548933 116.900193 
L 516.077783 116.058464 
L 519.606642 113.645047 
L 523.135492 111.512326 
L 526.664351 109.142095 
L 530.193202 107.432008 
L 533.722052 105.83765 
L 537.250911 103.704423 
L 540.779761 101.455617 
L 544.30862 100.526909 
L 547.83747 99.369532 
L 551.366321 96.223473 
L 554.89518 92.790881 
L 558.42403 89.108666 
L 561.952889 84.320286 
L 565.481739 80.125141 
L 569.01059 75.258179 
L 572.53944 70.752631 
L 576.068307 64.325546 
L 579.597158 60.036006 
L 583.126008 54.554104 
L 586.654858 50.566884 
L 590.183709 46.096034 
L 593.712576 45.340206 
L 597.241426 42.928785 
L 600.770277 41.154945 
L 604.299127 39.248142 
L 607.827977 38.511372 
L 611.356845 36.945966 
L 614.885695 35.274366 
L 618.414545 33.911637 
L 621.943396 33.354333 
L 625.472246 32.415088 
L 629.001113 30.450479 
L 632.529964 30.985549 
L 636.058814 26.784 
L 636.058814 94.635307 
L 636.058814 94.635307 
L 632.529964 95.088478 
L 629.001113 93.816631 
L 625.472246 91.972565 
L 621.943396 91.156896 
L 618.414545 90.148141 
L 614.885695 91.65315 
L 611.356845 90.71751 
L 607.827977 91.914746 
L 604.299127 93.444043 
L 600.770277 95.225424 
L 597.241426 95.860408 
L 593.712576 99.540785 
L 590.183709 102.313174 
L 586.654858 104.394967 
L 583.126008 106.246537 
L 579.597158 109.798715 
L 576.068307 110.84598 
L 572.53944 114.358732 
L 569.01059 115.308325 
L 565.481739 118.675125 
L 561.952889 117.866027 
L 558.42403 119.732584 
L 554.89518 120.017173 
L 551.366321 123.882193 
L 547.83747 123.182478 
L 544.30862 124.909026 
L 540.779761 126.228493 
L 537.250911 126.673609 
L 533.722052 126.377338 
L 530.193202 128.691403 
L 526.664351 129.930196 
L 523.135492 130.881019 
L 519.606642 132.317102 
L 516.077783 133.186942 
L 512.548933 134.497499 
L 509.020082 135.861666 
L 505.491224 136.736653 
L 501.962373 138.570982 
L 498.433514 137.10085 
L 494.904664 142.827446 
z
" clip-path="url(#pebdffce120)" style="fill: #f08700; fill-opacity: 0.2"/>
   </g>
   <g id="line2d_73">
    <path d="M 494.904664 142.827446 
L 498.433514 131.285578 
L 501.962373 131.371632 
L 505.491224 127.777439 
L 509.020082 126.212265 
L 512.548933 124.391032 
L 516.077783 123.335486 
L 519.606642 121.740642 
L 523.135492 120.713131 
L 526.664351 119.433568 
L 530.193202 118.890833 
L 533.722052 117.997749 
L 537.250911 117.626893 
L 540.779761 116.417872 
L 544.30862 116.244085 
L 547.83747 115.248966 
L 551.366321 115.210931 
L 554.89518 114.291373 
L 558.42403 114.633515 
L 561.952889 113.929329 
L 565.481739 114.400093 
L 569.01059 114.004228 
L 572.53944 114.719213 
L 576.068307 114.614107 
L 579.597158 115.636388 
L 583.126008 115.721051 
L 586.654858 116.744264 
L 590.183709 117.035286 
L 593.712576 118.141773 
L 597.241426 118.728796 
L 600.770277 120.073489 
L 604.299127 120.993044 
L 607.827977 122.398318 
L 611.356845 123.450363 
L 614.885695 124.757489 
L 618.414545 125.791564 
L 621.943396 126.963081 
L 625.472246 128.034213 
L 629.001113 129.165021 
L 632.529964 130.176556 
L 636.058814 131.305701 
" clip-path="url(#pebdffce120)" style="fill: none; stroke: #023047; stroke-width: 1.5; stroke-linecap: square"/>
   </g>
   <g id="line2d_74">
    <path d="M 494.904664 142.827446 
L 498.433514 133.137296 
L 501.962373 132.915032 
L 505.491224 129.781857 
L 509.020082 127.86045 
L 512.548933 125.698846 
L 516.077783 124.622703 
L 519.606642 122.981074 
L 523.135492 121.196672 
L 526.664351 119.536145 
L 530.193202 118.061706 
L 533.722052 116.107494 
L 537.250911 115.189016 
L 540.779761 113.842055 
L 544.30862 112.717968 
L 547.83747 111.276005 
L 551.366321 110.052833 
L 554.89518 106.404027 
L 558.42403 104.420625 
L 561.952889 101.093156 
L 565.481739 99.400133 
L 569.01059 95.283252 
L 572.53944 92.555681 
L 576.068307 87.585763 
L 579.597158 84.917361 
L 583.126008 80.40032 
L 586.654858 77.480926 
L 590.183709 74.204604 
L 593.712576 72.440496 
L 597.241426 69.394597 
L 600.770277 68.190185 
L 604.299127 66.346093 
L 607.827977 65.213059 
L 611.356845 63.831738 
L 614.885695 63.463758 
L 618.414545 62.029889 
L 621.943396 62.255614 
L 625.472246 62.193826 
L 629.001113 62.133555 
L 632.529964 63.037014 
L 636.058814 60.709653 
" clip-path="url(#pebdffce120)" style="fill: none; stroke: #f08700; stroke-width: 1.5; stroke-linecap: square"/>
   </g>
   <g id="PathCollection_9">
    <path d="M 494.904664 145.566058 
C 495.630953 145.566058 496.327592 145.277501 496.841156 144.763937 
C 497.354719 144.250374 497.643277 143.553734 497.643277 142.827446 
C 497.643277 142.101157 497.354719 141.404517 496.841156 140.890954 
C 496.327592 140.37739 495.630953 140.088833 494.904664 140.088833 
C 494.178375 140.088833 493.481736 140.37739 492.968172 140.890954 
C 492.454609 141.404517 492.166051 142.101157 492.166051 142.827446 
C 492.166051 143.553734 492.454609 144.250374 492.968172 144.763937 
C 493.481736 145.277501 494.178375 145.566058 494.904664 145.566058 
z
" clip-path="url(#pebdffce120)"/>
   </g>
   <g id="PathCollection_10">
    <path d="M 636.058814 134.044314 
C 636.785103 134.044314 637.481742 133.755757 637.995306 133.242193 
C 638.508869 132.728629 638.797427 132.03199 638.797427 131.305701 
C 638.797427 130.579413 638.508869 129.882773 637.995306 129.36921 
C 637.481742 128.855646 636.785103 128.567088 636.058814 128.567088 
C 635.332526 128.567088 634.635886 128.855646 634.122323 129.36921 
C 633.608759 129.882773 633.320201 130.579413 633.320201 131.305701 
C 633.320201 132.03199 633.608759 132.728629 634.122323 133.242193 
C 634.635886 133.755757 635.332526 134.044314 636.058814 134.044314 
z
" clip-path="url(#pebdffce120)" style="fill: #023047"/>
   </g>
   <g id="PathCollection_11">
    <path d="M 494.904664 145.566058 
C 495.630953 145.566058 496.327592 145.277501 496.841156 144.763937 
C 497.354719 144.250374 497.643277 143.553734 497.643277 142.827446 
C 497.643277 142.101157 497.354719 141.404517 496.841156 140.890954 
C 496.327592 140.37739 495.630953 140.088833 494.904664 140.088833 
C 494.178375 140.088833 493.481736 140.37739 492.968172 140.890954 
C 492.454609 141.404517 492.166051 142.101157 492.166051 142.827446 
C 492.166051 143.553734 492.454609 144.250374 492.968172 144.763937 
C 493.481736 145.277501 494.178375 145.566058 494.904664 145.566058 
z
" clip-path="url(#pebdffce120)"/>
   </g>
   <g id="PathCollection_12">
    <path d="M 636.058814 63.448266 
C 636.785103 63.448266 637.481742 63.159709 637.995306 62.646145 
C 638.508869 62.132582 638.797427 61.435942 638.797427 60.709653 
C 638.797427 59.983365 638.508869 59.286725 637.995306 58.773162 
C 637.481742 58.259598 636.785103 57.971041 636.058814 57.971041 
C 635.332526 57.971041 634.635886 58.259598 634.122323 58.773162 
C 633.608759 59.286725 633.320201 59.983365 633.320201 60.709653 
C 633.320201 61.435942 633.608759 62.132582 634.122323 62.646145 
C 634.635886 63.159709 635.332526 63.448266 636.058814 63.448266 
z
" clip-path="url(#pebdffce120)" style="fill: #f08700"/>
   </g>
  </g>
  <g id="axes_4">
   <g id="patch_11">
    <path d="M 674.170435 153.792 
L 829.44 153.792 
L 829.44 20.736 
L 674.170435 20.736 
z
" style="fill: #ffffff"/>
   </g>
   <g id="matplotlib.axis_7">
    <g id="xtick_16">
     <g id="line2d_75">
      <path d="M 681.228142 153.792 
L 681.228142 20.736 
" clip-path="url(#pc1d04e20ab)" style="fill: none; stroke: #b0b0b0; stroke-opacity: 0.8; stroke-width: 0.5; stroke-linecap: square"/>
     </g>
     <g id="line2d_76">
      <g>
       <use xlink:href="#m7f67db3984" x="681.228142" y="153.792" style="stroke: #000000; stroke-width: 0.8"/>
      </g>
     </g>
     <g id="text_38">
      <!-- 2 -->
      <g transform="translate(679.319392 165.351062) scale(0.06 -0.06)">
       <use xlink:href="#DejaVuSans-32"/>
      </g>
     </g>
    </g>
    <g id="xtick_17">
     <g id="line2d_77">
      <path d="M 716.51668 153.792 
L 716.51668 20.736 
" clip-path="url(#pc1d04e20ab)" style="fill: none; stroke: #b0b0b0; stroke-opacity: 0.8; stroke-width: 0.5; stroke-linecap: square"/>
     </g>
     <g id="line2d_78">
      <g>
       <use xlink:href="#m7f67db3984" x="716.51668" y="153.792" style="stroke: #000000; stroke-width: 0.8"/>
      </g>
     </g>
     <g id="text_39">
      <!-- 3 -->
      <g transform="translate(714.60793 165.351062) scale(0.06 -0.06)">
       <use xlink:href="#DejaVuSans-33"/>
      </g>
     </g>
    </g>
    <g id="xtick_18">
     <g id="line2d_79">
      <path d="M 751.805217 153.792 
L 751.805217 20.736 
" clip-path="url(#pc1d04e20ab)" style="fill: none; stroke: #b0b0b0; stroke-opacity: 0.8; stroke-width: 0.5; stroke-linecap: square"/>
     </g>
     <g id="line2d_80">
      <g>
       <use xlink:href="#m7f67db3984" x="751.805217" y="153.792" style="stroke: #000000; stroke-width: 0.8"/>
      </g>
     </g>
     <g id="text_40">
      <!-- 4 -->
      <g transform="translate(749.896467 165.351062) scale(0.06 -0.06)">
       <use xlink:href="#DejaVuSans-34"/>
      </g>
     </g>
    </g>
    <g id="xtick_19">
     <g id="line2d_81">
      <path d="M 787.093755 153.792 
L 787.093755 20.736 
" clip-path="url(#pc1d04e20ab)" style="fill: none; stroke: #b0b0b0; stroke-opacity: 0.8; stroke-width: 0.5; stroke-linecap: square"/>
     </g>
     <g id="line2d_82">
      <g>
       <use xlink:href="#m7f67db3984" x="787.093755" y="153.792" style="stroke: #000000; stroke-width: 0.8"/>
      </g>
     </g>
     <g id="text_41">
      <!-- 5 -->
      <g transform="translate(785.185005 165.351062) scale(0.06 -0.06)">
       <use xlink:href="#DejaVuSans-35"/>
      </g>
     </g>
    </g>
    <g id="xtick_20">
     <g id="line2d_83">
      <path d="M 822.382292 153.792 
L 822.382292 20.736 
" clip-path="url(#pc1d04e20ab)" style="fill: none; stroke: #b0b0b0; stroke-opacity: 0.8; stroke-width: 0.5; stroke-linecap: square"/>
     </g>
     <g id="line2d_84">
      <g>
       <use xlink:href="#m7f67db3984" x="822.382292" y="153.792" style="stroke: #000000; stroke-width: 0.8"/>
      </g>
     </g>
     <g id="text_42">
      <!-- 6 -->
      <g transform="translate(820.473542 165.351062) scale(0.06 -0.06)">
       <use xlink:href="#DejaVuSans-36"/>
      </g>
     </g>
    </g>
   </g>
   <g id="matplotlib.axis_8">
    <g id="ytick_20">
     <g id="line2d_85">
      <path d="M 674.170435 147.327225 
L 829.44 147.327225 
" clip-path="url(#pc1d04e20ab)" style="fill: none; stroke: #b0b0b0; stroke-opacity: 0.8; stroke-width: 0.5; stroke-linecap: square"/>
     </g>
     <g id="line2d_86">
      <g>
       <use xlink:href="#m035c6dc2ec" x="674.170435" y="147.327225" style="stroke: #000000; stroke-width: 0.8"/>
      </g>
     </g>
     <g id="text_43">
      <!-- 0.0 -->
      <g transform="translate(657.62856 149.606757) scale(0.06 -0.06)">
       <use xlink:href="#DejaVuSans-30"/>
       <use xlink:href="#DejaVuSans-2e" x="63.623047"/>
       <use xlink:href="#DejaVuSans-30" x="95.410156"/>
      </g>
     </g>
    </g>
    <g id="ytick_21">
     <g id="line2d_87">
      <path d="M 674.170435 128.304704 
L 829.44 128.304704 
" clip-path="url(#pc1d04e20ab)" style="fill: none; stroke: #b0b0b0; stroke-opacity: 0.8; stroke-width: 0.5; stroke-linecap: square"/>
     </g>
     <g id="line2d_88">
      <g>
       <use xlink:href="#m035c6dc2ec" x="674.170435" y="128.304704" style="stroke: #000000; stroke-width: 0.8"/>
      </g>
     </g>
     <g id="text_44">
      <!-- 0.1 -->
      <g transform="translate(657.62856 130.584235) scale(0.06 -0.06)">
       <use xlink:href="#DejaVuSans-30"/>
       <use xlink:href="#DejaVuSans-2e" x="63.623047"/>
       <use xlink:href="#DejaVuSans-31" x="95.410156"/>
      </g>
     </g>
    </g>
    <g id="ytick_22">
     <g id="line2d_89">
      <path d="M 674.170435 109.282183 
L 829.44 109.282183 
" clip-path="url(#pc1d04e20ab)" style="fill: none; stroke: #b0b0b0; stroke-opacity: 0.8; stroke-width: 0.5; stroke-linecap: square"/>
     </g>
     <g id="line2d_90">
      <g>
       <use xlink:href="#m035c6dc2ec" x="674.170435" y="109.282183" style="stroke: #000000; stroke-width: 0.8"/>
      </g>
     </g>
     <g id="text_45">
      <!-- 0.2 -->
      <g transform="translate(657.62856 111.561714) scale(0.06 -0.06)">
       <use xlink:href="#DejaVuSans-30"/>
       <use xlink:href="#DejaVuSans-2e" x="63.623047"/>
       <use xlink:href="#DejaVuSans-32" x="95.410156"/>
      </g>
     </g>
    </g>
    <g id="ytick_23">
     <g id="line2d_91">
      <path d="M 674.170435 90.259662 
L 829.44 90.259662 
" clip-path="url(#pc1d04e20ab)" style="fill: none; stroke: #b0b0b0; stroke-opacity: 0.8; stroke-width: 0.5; stroke-linecap: square"/>
     </g>
     <g id="line2d_92">
      <g>
       <use xlink:href="#m035c6dc2ec" x="674.170435" y="90.259662" style="stroke: #000000; stroke-width: 0.8"/>
      </g>
     </g>
     <g id="text_46">
      <!-- 0.3 -->
      <g transform="translate(657.62856 92.539193) scale(0.06 -0.06)">
       <use xlink:href="#DejaVuSans-30"/>
       <use xlink:href="#DejaVuSans-2e" x="63.623047"/>
       <use xlink:href="#DejaVuSans-33" x="95.410156"/>
      </g>
     </g>
    </g>
    <g id="ytick_24">
     <g id="line2d_93">
      <path d="M 674.170435 71.237141 
L 829.44 71.237141 
" clip-path="url(#pc1d04e20ab)" style="fill: none; stroke: #b0b0b0; stroke-opacity: 0.8; stroke-width: 0.5; stroke-linecap: square"/>
     </g>
     <g id="line2d_94">
      <g>
       <use xlink:href="#m035c6dc2ec" x="674.170435" y="71.237141" style="stroke: #000000; stroke-width: 0.8"/>
      </g>
     </g>
     <g id="text_47">
      <!-- 0.4 -->
      <g transform="translate(657.62856 73.516672) scale(0.06 -0.06)">
       <use xlink:href="#DejaVuSans-30"/>
       <use xlink:href="#DejaVuSans-2e" x="63.623047"/>
       <use xlink:href="#DejaVuSans-34" x="95.410156"/>
      </g>
     </g>
    </g>
    <g id="ytick_25">
     <g id="line2d_95">
      <path d="M 674.170435 52.214619 
L 829.44 52.214619 
" clip-path="url(#pc1d04e20ab)" style="fill: none; stroke: #b0b0b0; stroke-opacity: 0.8; stroke-width: 0.5; stroke-linecap: square"/>
     </g>
     <g id="line2d_96">
      <g>
       <use xlink:href="#m035c6dc2ec" x="674.170435" y="52.214619" style="stroke: #000000; stroke-width: 0.8"/>
      </g>
     </g>
     <g id="text_48">
      <!-- 0.5 -->
      <g transform="translate(657.62856 54.494151) scale(0.06 -0.06)">
       <use xlink:href="#DejaVuSans-30"/>
       <use xlink:href="#DejaVuSans-2e" x="63.623047"/>
       <use xlink:href="#DejaVuSans-35" x="95.410156"/>
      </g>
     </g>
    </g>
    <g id="ytick_26">
     <g id="line2d_97">
      <path d="M 674.170435 33.192098 
L 829.44 33.192098 
" clip-path="url(#pc1d04e20ab)" style="fill: none; stroke: #b0b0b0; stroke-opacity: 0.8; stroke-width: 0.5; stroke-linecap: square"/>
     </g>
     <g id="line2d_98">
      <g>
       <use xlink:href="#m035c6dc2ec" x="674.170435" y="33.192098" style="stroke: #000000; stroke-width: 0.8"/>
      </g>
     </g>
     <g id="text_49">
      <!-- 0.6 -->
      <g transform="translate(657.62856 35.47163) scale(0.06 -0.06)">
       <use xlink:href="#DejaVuSans-30"/>
       <use xlink:href="#DejaVuSans-2e" x="63.623047"/>
       <use xlink:href="#DejaVuSans-36" x="95.410156"/>
      </g>
     </g>
    </g>
   </g>
   <g id="patch_12">
    <path d="M 674.170435 153.792 
L 674.170435 20.736 
" style="fill: none; stroke: #000000; stroke-width: 0.8; stroke-linejoin: miter; stroke-linecap: square"/>
   </g>
   <g id="patch_13">
    <path d="M 674.170435 153.792 
L 829.44 153.792 
" style="fill: none; stroke: #000000; stroke-width: 0.8; stroke-linejoin: miter; stroke-linecap: square"/>
   </g>
   <g id="text_50">
    <!-- Klf4 -->
    <g transform="translate(742.195842 14.736) scale(0.1 -0.1)">
     <defs>
      <path id="DejaVuSans-4b" d="M 628 4666 
L 1259 4666 
L 1259 2694 
L 3353 4666 
L 4166 4666 
L 1850 2491 
L 4331 0 
L 3500 0 
L 1259 2247 
L 1259 0 
L 628 0 
L 628 4666 
z
" transform="scale(0.015625)"/>
      <path id="DejaVuSans-6c" d="M 603 4863 
L 1178 4863 
L 1178 0 
L 603 0 
L 603 4863 
z
" transform="scale(0.015625)"/>
     </defs>
     <use xlink:href="#DejaVuSans-4b"/>
     <use xlink:href="#DejaVuSans-6c" x="65.576172"/>
     <use xlink:href="#DejaVuSans-66" x="93.359375"/>
     <use xlink:href="#DejaVuSans-34" x="128.564453"/>
    </g>
   </g>
   <g id="PolyCollection_7">
    <path d="M 681.228142 144.674708 
L 681.228142 144.674708 
L 684.756993 144.574823 
L 688.285851 141.282808 
L 691.814702 139.172392 
L 695.343561 137.259457 
L 698.872411 135.370906 
L 702.401261 134.507628 
L 705.93012 133.227928 
L 709.458971 132.804531 
L 712.987829 131.768773 
L 716.51668 131.290673 
L 720.04553 130.37289 
L 723.574389 129.887926 
L 727.103239 128.894984 
L 730.632098 128.349635 
L 734.160949 127.38947 
L 737.689799 126.764188 
L 741.218658 125.7584 
L 744.747508 125.022939 
L 748.276367 124.045171 
L 751.805217 123.333376 
L 755.334068 122.491488 
L 758.862918 121.925554 
L 762.391785 121.300579 
L 765.920636 120.850647 
L 769.449486 120.356868 
L 772.978337 119.948998 
L 776.507187 119.546788 
L 780.036054 119.213273 
L 783.564905 118.893887 
L 787.093755 118.634291 
L 790.622605 118.430684 
L 794.151456 118.251562 
L 797.680323 118.142601 
L 801.209173 118.090827 
L 804.738024 118.078448 
L 808.266874 118.139174 
L 811.795724 118.248635 
L 815.324592 118.410052 
L 818.853442 118.538917 
L 822.382292 118.833471 
L 822.382292 138.259889 
L 822.382292 138.259889 
L 818.853442 137.799968 
L 815.324592 137.662039 
L 811.795724 137.440514 
L 808.266874 137.392086 
L 804.738024 137.368572 
L 801.209173 137.499682 
L 797.680323 137.643487 
L 794.151456 137.924071 
L 790.622605 138.157663 
L 787.093755 138.584948 
L 783.564905 138.928063 
L 780.036054 139.43613 
L 776.507187 139.843162 
L 772.978337 140.355628 
L 769.449486 140.654233 
L 765.920636 141.078054 
L 762.391785 141.246606 
L 758.862918 141.5906 
L 755.334068 141.674452 
L 751.805217 142.001214 
L 748.276367 142.044077 
L 744.747508 142.353105 
L 741.218658 142.303124 
L 737.689799 142.613166 
L 734.160949 142.578584 
L 730.632098 142.866495 
L 727.103239 142.753447 
L 723.574389 143.063867 
L 720.04553 142.983549 
L 716.51668 143.261776 
L 712.987829 143.225335 
L 709.458971 143.689412 
L 705.93012 143.758648 
L 702.401261 144.327454 
L 698.872411 144.805515 
L 695.343561 145.691948 
L 691.814702 146.27337 
L 688.285851 146.416573 
L 684.756993 147.709788 
L 681.228142 144.674708 
z
" clip-path="url(#pc1d04e20ab)" style="fill: #023047; fill-opacity: 0.2"/>
   </g>
   <g id="PolyCollection_8">
    <path d="M 681.228142 144.674708 
L 681.228142 144.674708 
L 684.756993 145.543969 
L 688.285851 140.992597 
L 691.814702 137.575409 
L 695.343561 133.815422 
L 698.872411 129.947487 
L 702.401261 127.695176 
L 705.93012 125.050293 
L 709.458971 123.909257 
L 712.987829 122.128051 
L 716.51668 120.442951 
L 720.04553 118.47929 
L 723.574389 117.248969 
L 727.103239 115.053788 
L 730.632098 113.430557 
L 734.160949 111.604953 
L 737.689799 108.898028 
L 741.218658 105.047626 
L 744.747508 101.562131 
L 748.276367 97.452127 
L 751.805217 93.683597 
L 755.334068 89.852915 
L 758.862918 86.593501 
L 762.391785 82.768259 
L 765.920636 79.426208 
L 769.449486 75.740063 
L 772.978337 72.236635 
L 776.507187 68.731217 
L 780.036054 65.286445 
L 783.564905 61.54738 
L 787.093755 57.41979 
L 790.622605 54.081842 
L 794.151456 50.167789 
L 797.680323 46.947892 
L 801.209173 43.50442 
L 804.738024 40.765745 
L 808.266874 37.554604 
L 811.795724 34.984061 
L 815.324592 32.134731 
L 818.853442 29.865962 
L 822.382292 26.784 
L 822.382292 73.824369 
L 822.382292 73.824369 
L 818.853442 77.721985 
L 815.324592 78.658827 
L 811.795724 81.317881 
L 808.266874 83.704243 
L 804.738024 86.609438 
L 801.209173 89.705616 
L 797.680323 93.077253 
L 794.151456 96.449208 
L 790.622605 100.226053 
L 787.093755 104.066082 
L 783.564905 107.879088 
L 780.036054 111.988592 
L 776.507187 115.645674 
L 772.978337 118.511896 
L 769.449486 121.11074 
L 765.920636 123.238986 
L 762.391785 125.01892 
L 758.862918 126.780374 
L 755.334068 128.955914 
L 751.805217 131.085921 
L 748.276367 132.714631 
L 744.747508 134.252979 
L 741.218658 135.204372 
L 737.689799 135.464548 
L 734.160949 135.538268 
L 730.632098 135.761536 
L 727.103239 136.580785 
L 723.574389 137.766784 
L 720.04553 139.074885 
L 716.51668 140.621996 
L 712.987829 141.405524 
L 709.458971 142.248732 
L 705.93012 142.543259 
L 702.401261 143.361988 
L 698.872411 144.144156 
L 695.343561 145.610047 
L 691.814702 146.285978 
L 688.285851 146.574583 
L 684.756993 147.744 
L 681.228142 144.674708 
z
" clip-path="url(#pc1d04e20ab)" style="fill: #f08700; fill-opacity: 0.2"/>
   </g>
   <g id="line2d_99">
    <path d="M 681.228142 144.674708 
L 684.756993 146.142306 
L 688.285851 143.84969 
L 691.814702 142.722881 
L 695.343561 141.475703 
L 698.872411 140.088211 
L 702.401261 139.417541 
L 705.93012 138.493288 
L 709.458971 138.246972 
L 712.987829 137.497054 
L 716.51668 137.276225 
L 720.04553 136.678219 
L 723.574389 136.475896 
L 727.103239 135.824215 
L 730.632098 135.608065 
L 734.160949 134.984027 
L 737.689799 134.688677 
L 741.218658 134.030762 
L 744.747508 133.688022 
L 748.276367 133.044624 
L 751.805217 132.667295 
L 755.334068 132.08297 
L 758.862918 131.758077 
L 762.391785 131.273593 
L 765.920636 130.96435 
L 769.449486 130.505551 
L 772.978337 130.152313 
L 776.507187 129.694975 
L 780.036054 129.324701 
L 783.564905 128.910975 
L 787.093755 128.60962 
L 790.622605 128.294173 
L 794.151456 128.087817 
L 797.680323 127.893044 
L 801.209173 127.795254 
L 804.738024 127.72351 
L 808.266874 127.76563 
L 811.795724 127.844574 
L 815.324592 128.036045 
L 818.853442 128.169442 
L 822.382292 128.54668 
" clip-path="url(#pc1d04e20ab)" style="fill: none; stroke: #023047; stroke-width: 1.5; stroke-linecap: square"/>
   </g>
   <g id="line2d_100">
    <path d="M 681.228142 144.674708 
L 684.756993 146.643985 
L 688.285851 143.78359 
L 691.814702 141.930694 
L 695.343561 139.712735 
L 698.872411 137.045821 
L 702.401261 135.528582 
L 705.93012 133.796776 
L 709.458971 133.078995 
L 712.987829 131.766787 
L 716.51668 130.532473 
L 720.04553 128.777087 
L 723.574389 127.507877 
L 727.103239 125.817287 
L 730.632098 124.596046 
L 734.160949 123.571611 
L 737.689799 122.181288 
L 741.218658 120.125999 
L 744.747508 117.907555 
L 748.276367 115.083379 
L 751.805217 112.384759 
L 755.334068 109.404415 
L 758.862918 106.686937 
L 762.391785 103.893589 
L 765.920636 101.332597 
L 769.449486 98.425401 
L 772.978337 95.374266 
L 776.507187 92.188446 
L 780.036054 88.637519 
L 783.564905 84.713234 
L 787.093755 80.742936 
L 790.622605 77.153948 
L 794.151456 73.308498 
L 797.680323 70.012572 
L 801.209173 66.605018 
L 804.738024 63.687591 
L 808.266874 60.629423 
L 811.795724 58.150971 
L 815.324592 55.396779 
L 818.853442 53.793974 
L 822.382292 50.304184 
" clip-path="url(#pc1d04e20ab)" style="fill: none; stroke: #f08700; stroke-width: 1.5; stroke-linecap: square"/>
   </g>
   <g id="PathCollection_13">
    <path d="M 681.228142 147.413321 
C 681.954431 147.413321 682.65107 147.124764 683.164634 146.6112 
C 683.678198 146.097637 683.966755 145.400997 683.966755 144.674708 
C 683.966755 143.94842 683.678198 143.25178 683.164634 142.738217 
C 682.65107 142.224653 681.954431 141.936096 681.228142 141.936096 
C 680.501854 141.936096 679.805214 142.224653 679.291651 142.738217 
C 678.778087 143.25178 678.48953 143.94842 678.48953 144.674708 
C 678.48953 145.400997 678.778087 146.097637 679.291651 146.6112 
C 679.805214 147.124764 680.501854 147.413321 681.228142 147.413321 
z
" clip-path="url(#pc1d04e20ab)"/>
   </g>
   <g id="PathCollection_14">
    <path d="M 822.382292 131.285293 
C 823.108581 131.285293 823.805221 130.996736 824.318784 130.483172 
C 824.832348 129.969608 825.120905 129.272969 825.120905 128.54668 
C 825.120905 127.820392 824.832348 127.123752 824.318784 126.610189 
C 823.805221 126.096625 823.108581 125.808068 822.382292 125.808068 
C 821.656004 125.808068 820.959364 126.096625 820.445801 126.610189 
C 819.932237 127.123752 819.64368 127.820392 819.64368 128.54668 
C 819.64368 129.272969 819.932237 129.969608 820.445801 130.483172 
C 820.959364 130.996736 821.656004 131.285293 822.382292 131.285293 
z
" clip-path="url(#pc1d04e20ab)" style="fill: #023047"/>
   </g>
   <g id="PathCollection_15">
    <path d="M 681.228142 147.413321 
C 681.954431 147.413321 682.65107 147.124764 683.164634 146.6112 
C 683.678198 146.097637 683.966755 145.400997 683.966755 144.674708 
C 683.966755 143.94842 683.678198 143.25178 683.164634 142.738217 
C 682.65107 142.224653 681.954431 141.936096 681.228142 141.936096 
C 680.501854 141.936096 679.805214 142.224653 679.291651 142.738217 
C 678.778087 143.25178 678.48953 143.94842 678.48953 144.674708 
C 678.48953 145.400997 678.778087 146.097637 679.291651 146.6112 
C 679.805214 147.124764 680.501854 147.413321 681.228142 147.413321 
z
" clip-path="url(#pc1d04e20ab)"/>
   </g>
   <g id="PathCollection_16">
    <path d="M 822.382292 53.042797 
C 823.108581 53.042797 823.805221 52.75424 824.318784 52.240676 
C 824.832348 51.727113 825.120905 51.030473 825.120905 50.304184 
C 825.120905 49.577896 824.832348 48.881256 824.318784 48.367693 
C 823.805221 47.854129 823.108581 47.565572 822.382292 47.565572 
C 821.656004 47.565572 820.959364 47.854129 820.445801 48.367693 
C 819.932237 48.881256 819.64368 49.577896 819.64368 50.304184 
C 819.64368 51.030473 819.932237 51.727113 820.445801 52.240676 
C 820.959364 52.75424 821.656004 53.042797 822.382292 53.042797 
z
" clip-path="url(#pc1d04e20ab)" style="fill: #f08700"/>
   </g>
  </g>
 </g>
 <defs>
  <clipPath id="p72be90ce5c">
   <rect x="115.2" y="20.736" width="155.269565" height="133.056"/>
  </clipPath>
  <clipPath id="p3505a1d82b">
   <rect x="301.523478" y="20.736" width="155.269565" height="133.056"/>
  </clipPath>
  <clipPath id="pebdffce120">
   <rect x="487.846957" y="20.736" width="155.269565" height="133.056"/>
  </clipPath>
  <clipPath id="pc1d04e20ab">
   <rect x="674.170435" y="20.736" width="155.269565" height="133.056"/>
  </clipPath>
 </defs>
</svg>
