<?xml version="1.0" encoding="utf-8" standalone="no"?>
<!DOCTYPE svg PUBLIC "-//W3C//DTD SVG 1.1//EN"
  "http://www.w3.org/Graphics/SVG/1.1/DTD/svg11.dtd">
<svg xmlns:xlink="http://www.w3.org/1999/xlink" width="460.8pt" height="172.8pt" viewBox="0 0 460.8 172.8" xmlns="http://www.w3.org/2000/svg" version="1.1">
 <metadata>
  <rdf:RDF xmlns:dc="http://purl.org/dc/elements/1.1/" xmlns:cc="http://creativecommons.org/ns#" xmlns:rdf="http://www.w3.org/1999/02/22-rdf-syntax-ns#">
   <cc:Work>
    <dc:type rdf:resource="http://purl.org/dc/dcmitype/StillImage"/>
    <dc:date>2024-09-29T19:29:49.653046</dc:date>
    <dc:format>image/svg+xml</dc:format>
    <dc:creator>
     <cc:Agent>
      <dc:title>Matplotlib v3.7.1, https://matplotlib.org/</dc:title>
     </cc:Agent>
    </dc:creator>
   </cc:Work>
  </rdf:RDF>
 </metadata>
 <defs>
  <style type="text/css">*{stroke-linejoin: round; stroke-linecap: butt}</style>
 </defs>
 <g id="figure_1">
  <g id="patch_1">
   <path d="M 0 172.8 
L 460.8 172.8 
L 460.8 0 
L 0 0 
z
" style="fill: #ffffff"/>
  </g>
  <g id="axes_1">
   <g id="patch_2">
    <path d="M 57.6 153.792 
L 414.72 153.792 
L 414.72 20.736 
L 57.6 20.736 
z
" style="fill: #ffffff"/>
   </g>
   <g id="PathCollection_1">
    <defs>
     <path id="C0_0_65a11c74b9" d="M 0 2.5 
C 0.663008 2.5 1.29895 2.236584 1.767767 1.767767 
C 2.236584 1.29895 2.5 0.663008 2.5 -0 
C 2.5 -0.663008 2.236584 -1.29895 1.767767 -1.767767 
C 1.29895 -2.236584 0.663008 -2.5 0 -2.5 
C -0.663008 -2.5 -1.29895 -2.236584 -1.767767 -1.767767 
C -2.236584 -1.29895 -2.5 -0.663008 -2.5 0 
C -2.5 0.663008 -2.236584 1.29895 -1.767767 1.767767 
C -1.29895 2.236584 -0.663008 2.5 0 2.5 
z
"/>
    </defs>
    <g clip-path="url(#p4e01e38001)">
     <use xlink:href="#C0_0_65a11c74b9" x="76.27945" y="39.611324" style="fill: #262626; fill-opacity: 0.8"/>
    </g>
    <g clip-path="url(#p4e01e38001)">
     <use xlink:href="#C0_0_65a11c74b9" x="75.140717" y="41.381539" style="fill: #262626; fill-opacity: 0.8"/>
    </g>
    <g clip-path="url(#p4e01e38001)">
     <use xlink:href="#C0_0_65a11c74b9" x="71.91917" y="39.389881" style="fill: #262626; fill-opacity: 0.8"/>
    </g>
    <g clip-path="url(#p4e01e38001)">
     <use xlink:href="#C0_0_65a11c74b9" x="71.455635" y="39.611324" style="fill: #262626; fill-opacity: 0.8"/>
    </g>
    <g clip-path="url(#p4e01e38001)">
     <use xlink:href="#C0_0_65a11c74b9" x="76.44946" y="38.504868" style="fill: #262626; fill-opacity: 0.8"/>
    </g>
   </g>
   <g id="PathCollection_2">
    <path d="M 106.298182 87.252473 
C 106.96119 87.252473 107.597131 86.989057 108.065949 86.52024 
C 108.534766 86.051423 108.798182 85.415481 108.798182 84.752473 
C 108.798182 84.089465 108.534766 83.453523 108.065949 82.984706 
C 107.597131 82.515889 106.96119 82.252473 106.298182 82.252473 
C 105.635174 82.252473 104.999232 82.515889 104.530415 82.984706 
C 104.061598 83.453523 103.798182 84.089465 103.798182 84.752473 
C 103.798182 85.415481 104.061598 86.051423 104.530415 86.52024 
C 104.999232 86.989057 105.635174 87.252473 106.298182 87.252473 
z
" clip-path="url(#p4e01e38001)" style="fill: #f9626c; fill-opacity: 0.8"/>
   </g>
   <g id="PathCollection_3">
    <defs>
     <path id="C1_0_be9fe4f143" d="M 0 2.5 
C 0.663008 2.5 1.29895 2.236584 1.767767 1.767767 
C 2.236584 1.29895 2.5 0.663008 2.5 -0 
C 2.5 -0.663008 2.236584 -1.29895 1.767767 -1.767767 
C 1.29895 -2.236584 0.663008 -2.5 0 -2.5 
C -0.663008 -2.5 -1.29895 -2.236584 -1.767767 -1.767767 
C -2.236584 -1.29895 -2.5 -0.663008 -2.5 0 
C -2.5 0.663008 -2.236584 1.29895 -1.767767 1.767767 
C -1.29895 2.236584 -0.663008 2.5 0 2.5 
z
"/>
    </defs>
    <g clip-path="url(#p4e01e38001)">
     <use xlink:href="#C1_0_be9fe4f143" x="138.306118" y="72.803315" style="fill: #9d0610; fill-opacity: 0.8"/>
    </g>
    <g clip-path="url(#p4e01e38001)">
     <use xlink:href="#C1_0_be9fe4f143" x="135.62579" y="46.028368" style="fill: #9d0610; fill-opacity: 0.8"/>
    </g>
    <g clip-path="url(#p4e01e38001)">
     <use xlink:href="#C1_0_be9fe4f143" x="138.648474" y="77.228927" style="fill: #9d0610; fill-opacity: 0.8"/>
    </g>
    <g clip-path="url(#p4e01e38001)">
     <use xlink:href="#C1_0_be9fe4f143" x="137.139055" y="78.55661" style="fill: #9d0610; fill-opacity: 0.8"/>
    </g>
    <g clip-path="url(#p4e01e38001)">
     <use xlink:href="#C1_0_be9fe4f143" x="136.182122" y="55.100871" style="fill: #9d0610; fill-opacity: 0.8"/>
    </g>
    <g clip-path="url(#p4e01e38001)">
     <use xlink:href="#C1_0_be9fe4f143" x="136.684927" y="47.356051" style="fill: #9d0610; fill-opacity: 0.8"/>
    </g>
   </g>
   <g id="PathCollection_4">
    <path d="M 171.229091 148.52804 
C 171.892099 148.52804 172.528041 148.264625 172.996858 147.795807 
C 173.465675 147.32699 173.729091 146.691048 173.729091 146.02804 
C 173.729091 145.365033 173.465675 144.729091 172.996858 144.260273 
C 172.528041 143.791456 171.892099 143.52804 171.229091 143.52804 
C 170.566083 143.52804 169.930141 143.791456 169.461324 144.260273 
C 168.992507 144.729091 168.729091 145.365033 168.729091 146.02804 
C 168.729091 146.691048 168.992507 147.32699 169.461324 147.795807 
C 169.930141 148.264625 170.566083 148.52804 171.229091 148.52804 
z
" clip-path="url(#p4e01e38001)" style="fill: #ffcc00; fill-opacity: 0.8"/>
   </g>
   <g id="PathCollection_5">
    <path d="M 203.694545 129.620515 
C 204.357553 129.620515 204.993495 129.357099 205.462312 128.888282 
C 205.93113 128.419465 206.194545 127.783523 206.194545 127.120515 
C 206.194545 126.457507 205.93113 125.821565 205.462312 125.352748 
C 204.993495 124.883931 204.357553 124.620515 203.694545 124.620515 
C 203.031538 124.620515 202.395596 124.883931 201.926779 125.352748 
C 201.457961 125.821565 201.194545 126.457507 201.194545 127.120515 
C 201.194545 127.783523 201.457961 128.419465 201.926779 128.888282 
C 202.395596 129.357099 203.031538 129.620515 203.694545 129.620515 
z
" clip-path="url(#p4e01e38001)" style="fill: #99cc33; fill-opacity: 0.8"/>
   </g>
   <g id="PathCollection_6">
    <path d="M 236.16 113.087848 
C 236.823008 113.087848 237.45895 112.824432 237.927767 112.355615 
C 238.396584 111.886798 238.66 111.250856 238.66 110.587848 
C 238.66 109.92484 238.396584 109.288898 237.927767 108.820081 
C 237.45895 108.351264 236.823008 108.087848 236.16 108.087848 
C 235.496992 108.087848 234.86105 108.351264 234.392233 108.820081 
C 233.923416 109.288898 233.66 109.92484 233.66 110.587848 
C 233.66 111.250856 233.923416 111.886798 234.392233 112.355615 
C 234.86105 112.824432 235.496992 113.087848 236.16 113.087848 
z
" clip-path="url(#p4e01e38001)" style="fill: #669900; fill-opacity: 0.8"/>
   </g>
   <g id="PathCollection_7">
    <defs>
     <path id="C2_0_7dc58e98d9" d="M 0 2.5 
C 0.663008 2.5 1.29895 2.236584 1.767767 1.767767 
C 2.236584 1.29895 2.5 0.663008 2.5 -0 
C 2.5 -0.663008 2.236584 -1.29895 1.767767 -1.767767 
C 1.29895 -2.236584 0.663008 -2.5 0 -2.5 
C -0.663008 -2.5 -1.29895 -2.236584 -1.767767 -1.767767 
C -2.236584 -1.29895 -2.5 -0.663008 -2.5 0 
C -2.5 0.663008 -2.236584 1.29895 -1.767767 1.767767 
C -1.29895 2.236584 -0.663008 2.5 0 2.5 
z
"/>
    </defs>
    <g clip-path="url(#p4e01e38001)">
     <use xlink:href="#C2_0_7dc58e98d9" x="268.504743" y="71.033071" style="fill: #f27f34; fill-opacity: 0.8"/>
    </g>
    <g clip-path="url(#p4e01e38001)">
     <use xlink:href="#C2_0_7dc58e98d9" x="266.577025" y="76.565085" style="fill: #f27f34; fill-opacity: 0.8"/>
    </g>
    <g clip-path="url(#p4e01e38001)">
     <use xlink:href="#C2_0_7dc58e98d9" x="266.595792" y="75.016121" style="fill: #f27f34; fill-opacity: 0.8"/>
    </g>
    <g clip-path="url(#p4e01e38001)">
     <use xlink:href="#C2_0_7dc58e98d9" x="269.979345" y="71.033071" style="fill: #f27f34; fill-opacity: 0.8"/>
    </g>
    <g clip-path="url(#p4e01e38001)">
     <use xlink:href="#C2_0_7dc58e98d9" x="268.285601" y="71.696913" style="fill: #f27f34; fill-opacity: 0.8"/>
    </g>
   </g>
   <g id="PathCollection_8">
    <defs>
     <path id="C3_0_d784f8710a" d="M 0 2.5 
C 0.663008 2.5 1.29895 2.236584 1.767767 1.767767 
C 2.236584 1.29895 2.5 0.663008 2.5 -0 
C 2.5 -0.663008 2.236584 -1.29895 1.767767 -1.767767 
C 1.29895 -2.236584 0.663008 -2.5 0 -2.5 
C -0.663008 -2.5 -1.29895 -2.236584 -1.767767 -1.767767 
C -2.236584 -1.29895 -2.5 -0.663008 -2.5 0 
C -2.5 0.663008 -2.236584 1.29895 -1.767767 1.767767 
C -1.29895 2.236584 -0.663008 2.5 0 2.5 
z
"/>
    </defs>
    <g clip-path="url(#p4e01e38001)">
     <use xlink:href="#C3_0_d784f8710a" x="298.180712" y="58.198799" style="fill: #eb5e28; fill-opacity: 0.8"/>
    </g>
    <g clip-path="url(#p4e01e38001)">
     <use xlink:href="#C3_0_d784f8710a" x="301.489336" y="54.437029" style="fill: #eb5e28; fill-opacity: 0.8"/>
    </g>
    <g clip-path="url(#p4e01e38001)">
     <use xlink:href="#C3_0_d784f8710a" x="297.934024" y="55.543432" style="fill: #eb5e28; fill-opacity: 0.8"/>
    </g>
    <g clip-path="url(#p4e01e38001)">
     <use xlink:href="#C3_0_d784f8710a" x="299.27758" y="57.534957" style="fill: #eb5e28; fill-opacity: 0.8"/>
    </g>
    <g clip-path="url(#p4e01e38001)">
     <use xlink:href="#C3_0_d784f8710a" x="303.334264" y="61.075446" style="fill: #eb5e28; fill-opacity: 0.8"/>
    </g>
   </g>
   <g id="PathCollection_9">
    <defs>
     <path id="C4_0_e142325cb7" d="M 0 2.5 
C 0.663008 2.5 1.29895 2.236584 1.767767 1.767767 
C 2.236584 1.29895 2.5 0.663008 2.5 -0 
C 2.5 -0.663008 2.236584 -1.29895 1.767767 -1.767767 
C 1.29895 -2.236584 0.663008 -2.5 0 -2.5 
C -0.663008 -2.5 -1.29895 -2.236584 -1.767767 -1.767767 
C -2.236584 -1.29895 -2.5 -0.663008 -2.5 0 
C -2.5 0.663008 -2.236584 1.29895 -1.767767 1.767767 
C -1.29895 2.236584 -0.663008 2.5 0 2.5 
z
"/>
    </defs>
    <g clip-path="url(#p4e01e38001)">
     <use xlink:href="#C4_0_e142325cb7" x="335.81747" y="57.092396" style="fill: #00b4d8; fill-opacity: 0.8"/>
    </g>
    <g clip-path="url(#p4e01e38001)">
     <use xlink:href="#C4_0_e142325cb7" x="336.168264" y="51.339101" style="fill: #00b4d8; fill-opacity: 0.8"/>
    </g>
    <g clip-path="url(#p4e01e38001)">
     <use xlink:href="#C4_0_e142325cb7" x="332.461209" y="51.339101" style="fill: #00b4d8; fill-opacity: 0.8"/>
    </g>
    <g clip-path="url(#p4e01e38001)">
     <use xlink:href="#C4_0_e142325cb7" x="333.579876" y="56.207274" style="fill: #00b4d8; fill-opacity: 0.8"/>
    </g>
    <g clip-path="url(#p4e01e38001)">
     <use xlink:href="#C4_0_e142325cb7" x="334.857532" y="53.773187" style="fill: #00b4d8; fill-opacity: 0.8"/>
    </g>
   </g>
   <g id="PathCollection_10">
    <defs>
     <path id="C5_0_65a7ef7d0a" d="M 0 2.5 
C 0.663008 2.5 1.29895 2.236584 1.767767 1.767767 
C 2.236584 1.29895 2.5 0.663008 2.5 -0 
C 2.5 -0.663008 2.236584 -1.29895 1.767767 -1.767767 
C 1.29895 -2.236584 0.663008 -2.5 0 -2.5 
C -0.663008 -2.5 -1.29895 -2.236584 -1.767767 -1.767767 
C -2.236584 -1.29895 -2.5 -0.663008 -2.5 0 
C -2.5 0.663008 -2.236584 1.29895 -1.767767 1.767767 
C -1.29895 2.236584 -0.663008 2.5 0 2.5 
z
"/>
    </defs>
    <g clip-path="url(#p4e01e38001)">
     <use xlink:href="#C5_0_65a7ef7d0a" x="366.667853" y="35.18562" style="fill: #0096c7; fill-opacity: 0.8"/>
    </g>
    <g clip-path="url(#p4e01e38001)">
     <use xlink:href="#C5_0_65a7ef7d0a" x="368.2291" y="59.747763" style="fill: #0096c7; fill-opacity: 0.8"/>
    </g>
    <g clip-path="url(#p4e01e38001)">
     <use xlink:href="#C5_0_65a7ef7d0a" x="368.17399" y="53.551907" style="fill: #0096c7; fill-opacity: 0.8"/>
    </g>
    <g clip-path="url(#p4e01e38001)">
     <use xlink:href="#C5_0_65a7ef7d0a" x="365.81339" y="59.747763" style="fill: #0096c7; fill-opacity: 0.8"/>
    </g>
    <g clip-path="url(#p4e01e38001)">
     <use xlink:href="#C5_0_65a7ef7d0a" x="365.359472" y="57.534957" style="fill: #0096c7; fill-opacity: 0.8"/>
    </g>
   </g>
   <g id="PathCollection_11">
    <defs>
     <path id="C6_0_d2fc0a218f" d="M 0 2.5 
C 0.663008 2.5 1.29895 2.236584 1.767767 1.767767 
C 2.236584 1.29895 2.5 0.663008 2.5 -0 
C 2.5 -0.663008 2.236584 -1.29895 1.767767 -1.767767 
C 1.29895 -2.236584 0.663008 -2.5 0 -2.5 
C -0.663008 -2.5 -1.29895 -2.236584 -1.767767 -1.767767 
C -2.236584 -1.29895 -2.5 -0.663008 -2.5 0 
C -2.5 0.663008 -2.236584 1.29895 -1.767767 1.767767 
C -1.29895 2.236584 -0.663008 2.5 0 2.5 
z
"/>
    </defs>
    <g clip-path="url(#p4e01e38001)">
     <use xlink:href="#C6_0_d2fc0a218f" x="401.315595" y="48.905015" style="fill: #0077b6; fill-opacity: 0.8"/>
    </g>
    <g clip-path="url(#p4e01e38001)">
     <use xlink:href="#C6_0_d2fc0a218f" x="397.658924" y="59.083921" style="fill: #0077b6; fill-opacity: 0.8"/>
    </g>
    <g clip-path="url(#p4e01e38001)">
     <use xlink:href="#C6_0_d2fc0a218f" x="395.646189" y="44.036843" style="fill: #0077b6; fill-opacity: 0.8"/>
    </g>
    <g clip-path="url(#p4e01e38001)">
     <use xlink:href="#C6_0_d2fc0a218f" x="398.192906" y="48.683735" style="fill: #0077b6; fill-opacity: 0.8"/>
    </g>
    <g clip-path="url(#p4e01e38001)">
     <use xlink:href="#C6_0_d2fc0a218f" x="398.367823" y="48.462454" style="fill: #0077b6; fill-opacity: 0.8"/>
    </g>
   </g>
   <g id="patch_3">
    <path d="M 63.281455 39.611324 
L 84.384 39.611324 
L 84.384 39.389881 
L 63.281455 39.389881 
L 63.281455 39.611324 
z
" clip-path="url(#p4e01e38001)" style="fill: #262626; opacity: 0.2; stroke: #000000; stroke-linejoin: miter"/>
   </g>
   <g id="line2d_1">
    <path d="M 73.832727 39.611324 
L 73.832727 39.611324 
" clip-path="url(#p4e01e38001)" style="fill: none; stroke: #000000; stroke-opacity: 0; stroke-linecap: square"/>
   </g>
   <g id="line2d_2">
    <path d="M 73.832727 39.389881 
L 73.832727 39.389881 
" clip-path="url(#p4e01e38001)" style="fill: none; stroke: #000000; stroke-opacity: 0; stroke-linecap: square"/>
   </g>
   <g id="line2d_3">
    <path d="M 68.557091 39.611324 
L 79.108364 39.611324 
" clip-path="url(#p4e01e38001)" style="fill: none; stroke: #000000; stroke-opacity: 0; stroke-linecap: square"/>
   </g>
   <g id="line2d_4">
    <path d="M 68.557091 39.389881 
L 79.108364 39.389881 
" clip-path="url(#p4e01e38001)" style="fill: none; stroke: #000000; stroke-opacity: 0; stroke-linecap: square"/>
   </g>
   <g id="patch_4">
    <path d="M 95.746909 84.752473 
L 116.849455 84.752473 
L 116.849455 84.752473 
L 95.746909 84.752473 
L 95.746909 84.752473 
z
" clip-path="url(#p4e01e38001)" style="fill: #f9626c; opacity: 0.2; stroke: #000000; stroke-linejoin: miter"/>
   </g>
   <g id="line2d_5">
    <path d="M 106.298182 84.752473 
L 106.298182 84.752473 
" clip-path="url(#p4e01e38001)" style="fill: none; stroke: #000000; stroke-opacity: 0; stroke-linecap: square"/>
   </g>
   <g id="line2d_6">
    <path d="M 106.298182 84.752473 
L 106.298182 84.752473 
" clip-path="url(#p4e01e38001)" style="fill: none; stroke: #000000; stroke-opacity: 0; stroke-linecap: square"/>
   </g>
   <g id="line2d_7">
    <path d="M 101.022545 84.752473 
L 111.573818 84.752473 
" clip-path="url(#p4e01e38001)" style="fill: none; stroke: #000000; stroke-opacity: 0; stroke-linecap: square"/>
   </g>
   <g id="line2d_8">
    <path d="M 101.022545 84.752473 
L 111.573818 84.752473 
" clip-path="url(#p4e01e38001)" style="fill: none; stroke: #000000; stroke-opacity: 0; stroke-linecap: square"/>
   </g>
   <g id="patch_5">
    <path d="M 128.212364 76.122524 
L 149.314909 76.122524 
L 149.314909 49.292256 
L 128.212364 49.292256 
L 128.212364 76.122524 
z
" clip-path="url(#p4e01e38001)" style="fill: #9d0610; opacity: 0.2; stroke: #000000; stroke-linejoin: miter"/>
   </g>
   <g id="line2d_9">
    <path d="M 138.763636 76.122524 
L 138.763636 78.55661 
" clip-path="url(#p4e01e38001)" style="fill: none; stroke: #000000; stroke-opacity: 0; stroke-linecap: square"/>
   </g>
   <g id="line2d_10">
    <path d="M 138.763636 49.292256 
L 138.763636 46.028368 
" clip-path="url(#p4e01e38001)" style="fill: none; stroke: #000000; stroke-opacity: 0; stroke-linecap: square"/>
   </g>
   <g id="line2d_11">
    <path d="M 133.488 78.55661 
L 144.039273 78.55661 
" clip-path="url(#p4e01e38001)" style="fill: none; stroke: #000000; stroke-opacity: 0; stroke-linecap: square"/>
   </g>
   <g id="line2d_12">
    <path d="M 133.488 46.028368 
L 144.039273 46.028368 
" clip-path="url(#p4e01e38001)" style="fill: none; stroke: #000000; stroke-opacity: 0; stroke-linecap: square"/>
   </g>
   <g id="patch_6">
    <path d="M 160.677818 146.02804 
L 181.780364 146.02804 
L 181.780364 146.02804 
L 160.677818 146.02804 
L 160.677818 146.02804 
z
" clip-path="url(#p4e01e38001)" style="fill: #ffcc00; opacity: 0.2; stroke: #000000; stroke-linejoin: miter"/>
   </g>
   <g id="line2d_13">
    <path d="M 171.229091 146.02804 
L 171.229091 146.02804 
" clip-path="url(#p4e01e38001)" style="fill: none; stroke: #000000; stroke-opacity: 0; stroke-linecap: square"/>
   </g>
   <g id="line2d_14">
    <path d="M 171.229091 146.02804 
L 171.229091 146.02804 
" clip-path="url(#p4e01e38001)" style="fill: none; stroke: #000000; stroke-opacity: 0; stroke-linecap: square"/>
   </g>
   <g id="line2d_15">
    <path d="M 165.953455 146.02804 
L 176.504727 146.02804 
" clip-path="url(#p4e01e38001)" style="fill: none; stroke: #000000; stroke-opacity: 0; stroke-linecap: square"/>
   </g>
   <g id="line2d_16">
    <path d="M 165.953455 146.02804 
L 176.504727 146.02804 
" clip-path="url(#p4e01e38001)" style="fill: none; stroke: #000000; stroke-opacity: 0; stroke-linecap: square"/>
   </g>
   <g id="patch_7">
    <path d="M 193.143273 127.120515 
L 214.245818 127.120515 
L 214.245818 127.120515 
L 193.143273 127.120515 
L 193.143273 127.120515 
z
" clip-path="url(#p4e01e38001)" style="fill: #99cc33; opacity: 0.2; stroke: #000000; stroke-linejoin: miter"/>
   </g>
   <g id="line2d_17">
    <path d="M 203.694545 127.120515 
L 203.694545 127.120515 
" clip-path="url(#p4e01e38001)" style="fill: none; stroke: #000000; stroke-opacity: 0; stroke-linecap: square"/>
   </g>
   <g id="line2d_18">
    <path d="M 203.694545 127.120515 
L 203.694545 127.120515 
" clip-path="url(#p4e01e38001)" style="fill: none; stroke: #000000; stroke-opacity: 0; stroke-linecap: square"/>
   </g>
   <g id="line2d_19">
    <path d="M 198.418909 127.120515 
L 208.970182 127.120515 
" clip-path="url(#p4e01e38001)" style="fill: none; stroke: #000000; stroke-opacity: 0; stroke-linecap: square"/>
   </g>
   <g id="line2d_20">
    <path d="M 198.418909 127.120515 
L 208.970182 127.120515 
" clip-path="url(#p4e01e38001)" style="fill: none; stroke: #000000; stroke-opacity: 0; stroke-linecap: square"/>
   </g>
   <g id="patch_8">
    <path d="M 225.608727 110.587848 
L 246.711273 110.587848 
L 246.711273 110.587848 
L 225.608727 110.587848 
L 225.608727 110.587848 
z
" clip-path="url(#p4e01e38001)" style="fill: #669900; opacity: 0.2; stroke: #000000; stroke-linejoin: miter"/>
   </g>
   <g id="line2d_21">
    <path d="M 236.16 110.587848 
L 236.16 110.587848 
" clip-path="url(#p4e01e38001)" style="fill: none; stroke: #000000; stroke-opacity: 0; stroke-linecap: square"/>
   </g>
   <g id="line2d_22">
    <path d="M 236.16 110.587848 
L 236.16 110.587848 
" clip-path="url(#p4e01e38001)" style="fill: none; stroke: #000000; stroke-opacity: 0; stroke-linecap: square"/>
   </g>
   <g id="line2d_23">
    <path d="M 230.884364 110.587848 
L 241.435636 110.587848 
" clip-path="url(#p4e01e38001)" style="fill: none; stroke: #000000; stroke-opacity: 0; stroke-linecap: square"/>
   </g>
   <g id="line2d_24">
    <path d="M 230.884364 110.587848 
L 241.435636 110.587848 
" clip-path="url(#p4e01e38001)" style="fill: none; stroke: #000000; stroke-opacity: 0; stroke-linecap: square"/>
   </g>
   <g id="patch_9">
    <path d="M 258.074182 75.016121 
L 279.176727 75.016121 
L 279.176727 71.033071 
L 258.074182 71.033071 
L 258.074182 75.016121 
z
" clip-path="url(#p4e01e38001)" style="fill: #f27f34; opacity: 0.2; stroke: #000000; stroke-linejoin: miter"/>
   </g>
   <g id="line2d_25">
    <path d="M 268.625455 75.016121 
L 268.625455 76.565085 
" clip-path="url(#p4e01e38001)" style="fill: none; stroke: #000000; stroke-opacity: 0; stroke-linecap: square"/>
   </g>
   <g id="line2d_26">
    <path d="M 268.625455 71.033071 
L 268.625455 71.033071 
" clip-path="url(#p4e01e38001)" style="fill: none; stroke: #000000; stroke-opacity: 0; stroke-linecap: square"/>
   </g>
   <g id="line2d_27">
    <path d="M 263.349818 76.565085 
L 273.901091 76.565085 
" clip-path="url(#p4e01e38001)" style="fill: none; stroke: #000000; stroke-opacity: 0; stroke-linecap: square"/>
   </g>
   <g id="line2d_28">
    <path d="M 263.349818 71.033071 
L 273.901091 71.033071 
" clip-path="url(#p4e01e38001)" style="fill: none; stroke: #000000; stroke-opacity: 0; stroke-linecap: square"/>
   </g>
   <g id="patch_10">
    <path d="M 290.539636 58.198799 
L 311.642182 58.198799 
L 311.642182 55.543432 
L 290.539636 55.543432 
L 290.539636 58.198799 
z
" clip-path="url(#p4e01e38001)" style="fill: #eb5e28; opacity: 0.2; stroke: #000000; stroke-linejoin: miter"/>
   </g>
   <g id="line2d_29">
    <path d="M 301.090909 58.198799 
L 301.090909 61.075446 
" clip-path="url(#p4e01e38001)" style="fill: none; stroke: #000000; stroke-opacity: 0; stroke-linecap: square"/>
   </g>
   <g id="line2d_30">
    <path d="M 301.090909 55.543432 
L 301.090909 54.437029 
" clip-path="url(#p4e01e38001)" style="fill: none; stroke: #000000; stroke-opacity: 0; stroke-linecap: square"/>
   </g>
   <g id="line2d_31">
    <path d="M 295.815273 61.075446 
L 306.366545 61.075446 
" clip-path="url(#p4e01e38001)" style="fill: none; stroke: #000000; stroke-opacity: 0; stroke-linecap: square"/>
   </g>
   <g id="line2d_32">
    <path d="M 295.815273 54.437029 
L 306.366545 54.437029 
" clip-path="url(#p4e01e38001)" style="fill: none; stroke: #000000; stroke-opacity: 0; stroke-linecap: square"/>
   </g>
   <g id="patch_11">
    <path d="M 323.005091 56.207274 
L 344.107636 56.207274 
L 344.107636 51.339101 
L 323.005091 51.339101 
L 323.005091 56.207274 
z
" clip-path="url(#p4e01e38001)" style="fill: #00b4d8; opacity: 0.2; stroke: #000000; stroke-linejoin: miter"/>
   </g>
   <g id="line2d_33">
    <path d="M 333.556364 56.207274 
L 333.556364 57.092396 
" clip-path="url(#p4e01e38001)" style="fill: none; stroke: #000000; stroke-opacity: 0; stroke-linecap: square"/>
   </g>
   <g id="line2d_34">
    <path d="M 333.556364 51.339101 
L 333.556364 51.339101 
" clip-path="url(#p4e01e38001)" style="fill: none; stroke: #000000; stroke-opacity: 0; stroke-linecap: square"/>
   </g>
   <g id="line2d_35">
    <path d="M 328.280727 57.092396 
L 338.832 57.092396 
" clip-path="url(#p4e01e38001)" style="fill: none; stroke: #000000; stroke-opacity: 0; stroke-linecap: square"/>
   </g>
   <g id="line2d_36">
    <path d="M 328.280727 51.339101 
L 338.832 51.339101 
" clip-path="url(#p4e01e38001)" style="fill: none; stroke: #000000; stroke-opacity: 0; stroke-linecap: square"/>
   </g>
   <g id="patch_12">
    <path d="M 355.470545 59.747763 
L 376.573091 59.747763 
L 376.573091 53.551907 
L 355.470545 53.551907 
L 355.470545 59.747763 
z
" clip-path="url(#p4e01e38001)" style="fill: #0096c7; opacity: 0.2; stroke: #000000; stroke-linejoin: miter"/>
   </g>
   <g id="line2d_37">
    <path d="M 366.021818 59.747763 
L 366.021818 59.747763 
" clip-path="url(#p4e01e38001)" style="fill: none; stroke: #000000; stroke-opacity: 0; stroke-linecap: square"/>
   </g>
   <g id="line2d_38">
    <path d="M 366.021818 53.551907 
L 366.021818 53.551907 
" clip-path="url(#p4e01e38001)" style="fill: none; stroke: #000000; stroke-opacity: 0; stroke-linecap: square"/>
   </g>
   <g id="line2d_39">
    <path d="M 360.746182 59.747763 
L 371.297455 59.747763 
" clip-path="url(#p4e01e38001)" style="fill: none; stroke: #000000; stroke-opacity: 0; stroke-linecap: square"/>
   </g>
   <g id="line2d_40">
    <path d="M 360.746182 53.551907 
L 371.297455 53.551907 
" clip-path="url(#p4e01e38001)" style="fill: none; stroke: #000000; stroke-opacity: 0; stroke-linecap: square"/>
   </g>
   <g id="patch_13">
    <path d="M 387.936 48.905015 
L 409.038545 48.905015 
L 409.038545 48.462454 
L 387.936 48.462454 
L 387.936 48.905015 
z
" clip-path="url(#p4e01e38001)" style="fill: #0077b6; opacity: 0.2; stroke: #000000; stroke-linejoin: miter"/>
   </g>
   <g id="line2d_41">
    <path d="M 398.487273 48.905015 
L 398.487273 48.905015 
" clip-path="url(#p4e01e38001)" style="fill: none; stroke: #000000; stroke-opacity: 0; stroke-linecap: square"/>
   </g>
   <g id="line2d_42">
    <path d="M 398.487273 48.462454 
L 398.487273 48.462454 
" clip-path="url(#p4e01e38001)" style="fill: none; stroke: #000000; stroke-opacity: 0; stroke-linecap: square"/>
   </g>
   <g id="line2d_43">
    <path d="M 393.211636 48.905015 
L 403.762909 48.905015 
" clip-path="url(#p4e01e38001)" style="fill: none; stroke: #000000; stroke-opacity: 0; stroke-linecap: square"/>
   </g>
   <g id="line2d_44">
    <path d="M 393.211636 48.462454 
L 403.762909 48.462454 
" clip-path="url(#p4e01e38001)" style="fill: none; stroke: #000000; stroke-opacity: 0; stroke-linecap: square"/>
   </g>
   <g id="line2d_45">
    <path d="M 63.281455 39.699787 
L 84.384 39.699787 
" clip-path="url(#p4e01e38001)" style="fill: none; stroke-dasharray: 3.7,1.6; stroke-dashoffset: 0; stroke: #262626"/>
   </g>
   <g id="line2d_46">
    <path d="M 95.746909 84.752473 
L 116.849455 84.752473 
" clip-path="url(#p4e01e38001)" style="fill: none; stroke-dasharray: 3.7,1.6; stroke-dashoffset: 0; stroke: #f9626c"/>
   </g>
   <g id="line2d_47">
    <path d="M 128.212364 62.84569 
L 149.314909 62.84569 
" clip-path="url(#p4e01e38001)" style="fill: none; stroke-dasharray: 3.7,1.6; stroke-dashoffset: 0; stroke: #9d0610"/>
   </g>
   <g id="line2d_48">
    <path d="M 160.677818 146.02804 
L 181.780364 146.02804 
" clip-path="url(#p4e01e38001)" style="fill: none; stroke-dasharray: 3.7,1.6; stroke-dashoffset: 0; stroke: #ffcc00"/>
   </g>
   <g id="line2d_49">
    <path d="M 193.143273 127.120515 
L 214.245818 127.120515 
" clip-path="url(#p4e01e38001)" style="fill: none; stroke-dasharray: 3.7,1.6; stroke-dashoffset: 0; stroke: #99cc33"/>
   </g>
   <g id="line2d_50">
    <path d="M 225.608727 110.587848 
L 246.711273 110.587848 
" clip-path="url(#p4e01e38001)" style="fill: none; stroke-dasharray: 3.7,1.6; stroke-dashoffset: 0; stroke: #669900"/>
   </g>
   <g id="line2d_51">
    <path d="M 258.074182 73.068852 
L 279.176727 73.068852 
" clip-path="url(#p4e01e38001)" style="fill: none; stroke-dasharray: 3.7,1.6; stroke-dashoffset: 0; stroke: #f27f34"/>
   </g>
   <g id="line2d_52">
    <path d="M 290.539636 57.357932 
L 311.642182 57.357932 
" clip-path="url(#p4e01e38001)" style="fill: none; stroke-dasharray: 3.7,1.6; stroke-dashoffset: 0; stroke: #eb5e28"/>
   </g>
   <g id="line2d_53">
    <path d="M 323.005091 53.950212 
L 344.107636 53.950212 
" clip-path="url(#p4e01e38001)" style="fill: none; stroke-dasharray: 3.7,1.6; stroke-dashoffset: 0; stroke: #00b4d8"/>
   </g>
   <g id="line2d_54">
    <path d="M 355.470545 53.153602 
L 376.573091 53.153602 
" clip-path="url(#p4e01e38001)" style="fill: none; stroke-dasharray: 3.7,1.6; stroke-dashoffset: 0; stroke: #0096c7"/>
   </g>
   <g id="line2d_55">
    <path d="M 387.936 49.834393 
L 409.038545 49.834393 
" clip-path="url(#p4e01e38001)" style="fill: none; stroke-dasharray: 3.7,1.6; stroke-dashoffset: 0; stroke: #0077b6"/>
   </g>
   <g id="matplotlib.axis_1">
    <g id="xtick_1">
     <g id="line2d_56">
      <defs>
       <path id="mcb9299bcc4" d="M 0 0 
L 0 3.5 
" style="stroke: #000000; stroke-width: 0.8"/>
      </defs>
      <g>
       <use xlink:href="#mcb9299bcc4" x="73.832727" y="153.792" style="stroke: #000000; stroke-width: 0.8"/>
      </g>
     </g>
     <g id="text_1">
      <!-- LR -->
      <g transform="translate(67.638472 169.327663) rotate(-45) scale(0.06 -0.06)">
       <defs>
        <path id="DejaVuSans-4c" d="M 628 4666 
L 1259 4666 
L 1259 531 
L 3531 531 
L 3531 0 
L 628 0 
L 628 4666 
z
" transform="scale(0.015625)"/>
        <path id="DejaVuSans-52" d="M 2841 2188 
Q 3044 2119 3236 1894 
Q 3428 1669 3622 1275 
L 4263 0 
L 3584 0 
L 2988 1197 
Q 2756 1666 2539 1819 
Q 2322 1972 1947 1972 
L 1259 1972 
L 1259 0 
L 628 0 
L 628 4666 
L 2053 4666 
Q 2853 4666 3247 4331 
Q 3641 3997 3641 3322 
Q 3641 2881 3436 2590 
Q 3231 2300 2841 2188 
z
M 1259 4147 
L 1259 2491 
L 2053 2491 
Q 2509 2491 2742 2702 
Q 2975 2913 2975 3322 
Q 2975 3731 2742 3939 
Q 2509 4147 2053 4147 
L 1259 4147 
z
" transform="scale(0.015625)"/>
       </defs>
       <use xlink:href="#DejaVuSans-4c"/>
       <use xlink:href="#DejaVuSans-52" x="55.712891"/>
      </g>
     </g>
    </g>
    <g id="xtick_2">
     <g id="line2d_57">
      <g>
       <use xlink:href="#mcb9299bcc4" x="106.298182" y="153.792" style="stroke: #000000; stroke-width: 0.8"/>
      </g>
     </g>
     <g id="text_2">
      <!-- PBA -->
      <g transform="translate(97.044585 172.387004) rotate(-45) scale(0.06 -0.06)">
       <defs>
        <path id="DejaVuSans-50" d="M 1259 4147 
L 1259 2394 
L 2053 2394 
Q 2494 2394 2734 2622 
Q 2975 2850 2975 3272 
Q 2975 3691 2734 3919 
Q 2494 4147 2053 4147 
L 1259 4147 
z
M 628 4666 
L 2053 4666 
Q 2838 4666 3239 4311 
Q 3641 3956 3641 3272 
Q 3641 2581 3239 2228 
Q 2838 1875 2053 1875 
L 1259 1875 
L 1259 0 
L 628 0 
L 628 4666 
z
" transform="scale(0.015625)"/>
        <path id="DejaVuSans-42" d="M 1259 2228 
L 1259 519 
L 2272 519 
Q 2781 519 3026 730 
Q 3272 941 3272 1375 
Q 3272 1813 3026 2020 
Q 2781 2228 2272 2228 
L 1259 2228 
z
M 1259 4147 
L 1259 2741 
L 2194 2741 
Q 2656 2741 2882 2914 
Q 3109 3088 3109 3444 
Q 3109 3797 2882 3972 
Q 2656 4147 2194 4147 
L 1259 4147 
z
M 628 4666 
L 2241 4666 
Q 2963 4666 3353 4366 
Q 3744 4066 3744 3513 
Q 3744 3084 3544 2831 
Q 3344 2578 2956 2516 
Q 3422 2416 3680 2098 
Q 3938 1781 3938 1306 
Q 3938 681 3513 340 
Q 3088 0 2303 0 
L 628 0 
L 628 4666 
z
" transform="scale(0.015625)"/>
        <path id="DejaVuSans-41" d="M 2188 4044 
L 1331 1722 
L 3047 1722 
L 2188 4044 
z
M 1831 4666 
L 2547 4666 
L 4325 0 
L 3669 0 
L 3244 1197 
L 1141 1197 
L 716 0 
L 50 0 
L 1831 4666 
z
" transform="scale(0.015625)"/>
       </defs>
       <use xlink:href="#DejaVuSans-50"/>
       <use xlink:href="#DejaVuSans-42" x="60.302734"/>
       <use xlink:href="#DejaVuSans-41" x="128.90625"/>
      </g>
     </g>
    </g>
    <g id="xtick_3">
     <g id="line2d_58">
      <g>
       <use xlink:href="#mcb9299bcc4" x="138.763636" y="153.792" style="stroke: #000000; stroke-width: 0.8"/>
      </g>
     </g>
     <g id="text_3">
      <!-- torch-pba -->
      <g transform="translate(117.434423 184.46262) rotate(-45) scale(0.06 -0.06)">
       <defs>
        <path id="DejaVuSans-74" d="M 1172 4494 
L 1172 3500 
L 2356 3500 
L 2356 3053 
L 1172 3053 
L 1172 1153 
Q 1172 725 1289 603 
Q 1406 481 1766 481 
L 2356 481 
L 2356 0 
L 1766 0 
Q 1100 0 847 248 
Q 594 497 594 1153 
L 594 3053 
L 172 3053 
L 172 3500 
L 594 3500 
L 594 4494 
L 1172 4494 
z
" transform="scale(0.015625)"/>
        <path id="DejaVuSans-6f" d="M 1959 3097 
Q 1497 3097 1228 2736 
Q 959 2375 959 1747 
Q 959 1119 1226 758 
Q 1494 397 1959 397 
Q 2419 397 2687 759 
Q 2956 1122 2956 1747 
Q 2956 2369 2687 2733 
Q 2419 3097 1959 3097 
z
M 1959 3584 
Q 2709 3584 3137 3096 
Q 3566 2609 3566 1747 
Q 3566 888 3137 398 
Q 2709 -91 1959 -91 
Q 1206 -91 779 398 
Q 353 888 353 1747 
Q 353 2609 779 3096 
Q 1206 3584 1959 3584 
z
" transform="scale(0.015625)"/>
        <path id="DejaVuSans-72" d="M 2631 2963 
Q 2534 3019 2420 3045 
Q 2306 3072 2169 3072 
Q 1681 3072 1420 2755 
Q 1159 2438 1159 1844 
L 1159 0 
L 581 0 
L 581 3500 
L 1159 3500 
L 1159 2956 
Q 1341 3275 1631 3429 
Q 1922 3584 2338 3584 
Q 2397 3584 2469 3576 
Q 2541 3569 2628 3553 
L 2631 2963 
z
" transform="scale(0.015625)"/>
        <path id="DejaVuSans-63" d="M 3122 3366 
L 3122 2828 
Q 2878 2963 2633 3030 
Q 2388 3097 2138 3097 
Q 1578 3097 1268 2742 
Q 959 2388 959 1747 
Q 959 1106 1268 751 
Q 1578 397 2138 397 
Q 2388 397 2633 464 
Q 2878 531 3122 666 
L 3122 134 
Q 2881 22 2623 -34 
Q 2366 -91 2075 -91 
Q 1284 -91 818 406 
Q 353 903 353 1747 
Q 353 2603 823 3093 
Q 1294 3584 2113 3584 
Q 2378 3584 2631 3529 
Q 2884 3475 3122 3366 
z
" transform="scale(0.015625)"/>
        <path id="DejaVuSans-68" d="M 3513 2113 
L 3513 0 
L 2938 0 
L 2938 2094 
Q 2938 2591 2744 2837 
Q 2550 3084 2163 3084 
Q 1697 3084 1428 2787 
Q 1159 2491 1159 1978 
L 1159 0 
L 581 0 
L 581 4863 
L 1159 4863 
L 1159 2956 
Q 1366 3272 1645 3428 
Q 1925 3584 2291 3584 
Q 2894 3584 3203 3211 
Q 3513 2838 3513 2113 
z
" transform="scale(0.015625)"/>
        <path id="DejaVuSans-2d" d="M 313 2009 
L 1997 2009 
L 1997 1497 
L 313 1497 
L 313 2009 
z
" transform="scale(0.015625)"/>
        <path id="DejaVuSans-70" d="M 1159 525 
L 1159 -1331 
L 581 -1331 
L 581 3500 
L 1159 3500 
L 1159 2969 
Q 1341 3281 1617 3432 
Q 1894 3584 2278 3584 
Q 2916 3584 3314 3078 
Q 3713 2572 3713 1747 
Q 3713 922 3314 415 
Q 2916 -91 2278 -91 
Q 1894 -91 1617 61 
Q 1341 213 1159 525 
z
M 3116 1747 
Q 3116 2381 2855 2742 
Q 2594 3103 2138 3103 
Q 1681 3103 1420 2742 
Q 1159 2381 1159 1747 
Q 1159 1113 1420 752 
Q 1681 391 2138 391 
Q 2594 391 2855 752 
Q 3116 1113 3116 1747 
z
" transform="scale(0.015625)"/>
        <path id="DejaVuSans-62" d="M 3116 1747 
Q 3116 2381 2855 2742 
Q 2594 3103 2138 3103 
Q 1681 3103 1420 2742 
Q 1159 2381 1159 1747 
Q 1159 1113 1420 752 
Q 1681 391 2138 391 
Q 2594 391 2855 752 
Q 3116 1113 3116 1747 
z
M 1159 2969 
Q 1341 3281 1617 3432 
Q 1894 3584 2278 3584 
Q 2916 3584 3314 3078 
Q 3713 2572 3713 1747 
Q 3713 922 3314 415 
Q 2916 -91 2278 -91 
Q 1894 -91 1617 61 
Q 1341 213 1159 525 
L 1159 0 
L 581 0 
L 581 4863 
L 1159 4863 
L 1159 2969 
z
" transform="scale(0.015625)"/>
        <path id="DejaVuSans-61" d="M 2194 1759 
Q 1497 1759 1228 1600 
Q 959 1441 959 1056 
Q 959 750 1161 570 
Q 1363 391 1709 391 
Q 2188 391 2477 730 
Q 2766 1069 2766 1631 
L 2766 1759 
L 2194 1759 
z
M 3341 1997 
L 3341 0 
L 2766 0 
L 2766 531 
Q 2569 213 2275 61 
Q 1981 -91 1556 -91 
Q 1019 -91 701 211 
Q 384 513 384 1019 
Q 384 1609 779 1909 
Q 1175 2209 1959 2209 
L 2766 2209 
L 2766 2266 
Q 2766 2663 2505 2880 
Q 2244 3097 1772 3097 
Q 1472 3097 1187 3025 
Q 903 2953 641 2809 
L 641 3341 
Q 956 3463 1253 3523 
Q 1550 3584 1831 3584 
Q 2591 3584 2966 3190 
Q 3341 2797 3341 1997 
z
" transform="scale(0.015625)"/>
       </defs>
       <use xlink:href="#DejaVuSans-74"/>
       <use xlink:href="#DejaVuSans-6f" x="39.208984"/>
       <use xlink:href="#DejaVuSans-72" x="100.390625"/>
       <use xlink:href="#DejaVuSans-63" x="139.253906"/>
       <use xlink:href="#DejaVuSans-68" x="194.234375"/>
       <use xlink:href="#DejaVuSans-2d" x="257.613281"/>
       <use xlink:href="#DejaVuSans-70" x="293.697266"/>
       <use xlink:href="#DejaVuSans-62" x="357.173828"/>
       <use xlink:href="#DejaVuSans-61" x="420.650391"/>
      </g>
     </g>
    </g>
    <g id="xtick_4">
     <g id="line2d_59">
      <g>
       <use xlink:href="#mcb9299bcc4" x="171.229091" y="153.792" style="stroke: #000000; stroke-width: 0.8"/>
      </g>
     </g>
     <g id="text_4">
      <!-- TIGON -->
      <g transform="translate(156.702687 177.659811) rotate(-45) scale(0.06 -0.06)">
       <defs>
        <path id="DejaVuSans-54" d="M -19 4666 
L 3928 4666 
L 3928 4134 
L 2272 4134 
L 2272 0 
L 1638 0 
L 1638 4134 
L -19 4134 
L -19 4666 
z
" transform="scale(0.015625)"/>
        <path id="DejaVuSans-49" d="M 628 4666 
L 1259 4666 
L 1259 0 
L 628 0 
L 628 4666 
z
" transform="scale(0.015625)"/>
        <path id="DejaVuSans-47" d="M 3809 666 
L 3809 1919 
L 2778 1919 
L 2778 2438 
L 4434 2438 
L 4434 434 
Q 4069 175 3628 42 
Q 3188 -91 2688 -91 
Q 1594 -91 976 548 
Q 359 1188 359 2328 
Q 359 3472 976 4111 
Q 1594 4750 2688 4750 
Q 3144 4750 3555 4637 
Q 3966 4525 4313 4306 
L 4313 3634 
Q 3963 3931 3569 4081 
Q 3175 4231 2741 4231 
Q 1884 4231 1454 3753 
Q 1025 3275 1025 2328 
Q 1025 1384 1454 906 
Q 1884 428 2741 428 
Q 3075 428 3337 486 
Q 3600 544 3809 666 
z
" transform="scale(0.015625)"/>
        <path id="DejaVuSans-4f" d="M 2522 4238 
Q 1834 4238 1429 3725 
Q 1025 3213 1025 2328 
Q 1025 1447 1429 934 
Q 1834 422 2522 422 
Q 3209 422 3611 934 
Q 4013 1447 4013 2328 
Q 4013 3213 3611 3725 
Q 3209 4238 2522 4238 
z
M 2522 4750 
Q 3503 4750 4090 4092 
Q 4678 3434 4678 2328 
Q 4678 1225 4090 567 
Q 3503 -91 2522 -91 
Q 1538 -91 948 565 
Q 359 1222 359 2328 
Q 359 3434 948 4092 
Q 1538 4750 2522 4750 
z
" transform="scale(0.015625)"/>
        <path id="DejaVuSans-4e" d="M 628 4666 
L 1478 4666 
L 3547 763 
L 3547 4666 
L 4159 4666 
L 4159 0 
L 3309 0 
L 1241 3903 
L 1241 0 
L 628 0 
L 628 4666 
z
" transform="scale(0.015625)"/>
       </defs>
       <use xlink:href="#DejaVuSans-54"/>
       <use xlink:href="#DejaVuSans-49" x="61.083984"/>
       <use xlink:href="#DejaVuSans-47" x="90.576172"/>
       <use xlink:href="#DejaVuSans-4f" x="168.066406"/>
       <use xlink:href="#DejaVuSans-4e" x="246.777344"/>
      </g>
     </g>
    </g>
    <g id="xtick_5">
     <g id="line2d_60">
      <g>
       <use xlink:href="#mcb9299bcc4" x="203.694545" y="153.792" style="stroke: #000000; stroke-width: 0.8"/>
      </g>
     </g>
     <g id="text_5">
      <!-- CellRank -->
      <g transform="translate(184.283801 182.544151) rotate(-45) scale(0.06 -0.06)">
       <defs>
        <path id="DejaVuSans-43" d="M 4122 4306 
L 4122 3641 
Q 3803 3938 3442 4084 
Q 3081 4231 2675 4231 
Q 1875 4231 1450 3742 
Q 1025 3253 1025 2328 
Q 1025 1406 1450 917 
Q 1875 428 2675 428 
Q 3081 428 3442 575 
Q 3803 722 4122 1019 
L 4122 359 
Q 3791 134 3420 21 
Q 3050 -91 2638 -91 
Q 1578 -91 968 557 
Q 359 1206 359 2328 
Q 359 3453 968 4101 
Q 1578 4750 2638 4750 
Q 3056 4750 3426 4639 
Q 3797 4528 4122 4306 
z
" transform="scale(0.015625)"/>
        <path id="DejaVuSans-65" d="M 3597 1894 
L 3597 1613 
L 953 1613 
Q 991 1019 1311 708 
Q 1631 397 2203 397 
Q 2534 397 2845 478 
Q 3156 559 3463 722 
L 3463 178 
Q 3153 47 2828 -22 
Q 2503 -91 2169 -91 
Q 1331 -91 842 396 
Q 353 884 353 1716 
Q 353 2575 817 3079 
Q 1281 3584 2069 3584 
Q 2775 3584 3186 3129 
Q 3597 2675 3597 1894 
z
M 3022 2063 
Q 3016 2534 2758 2815 
Q 2500 3097 2075 3097 
Q 1594 3097 1305 2825 
Q 1016 2553 972 2059 
L 3022 2063 
z
" transform="scale(0.015625)"/>
        <path id="DejaVuSans-6c" d="M 603 4863 
L 1178 4863 
L 1178 0 
L 603 0 
L 603 4863 
z
" transform="scale(0.015625)"/>
        <path id="DejaVuSans-6e" d="M 3513 2113 
L 3513 0 
L 2938 0 
L 2938 2094 
Q 2938 2591 2744 2837 
Q 2550 3084 2163 3084 
Q 1697 3084 1428 2787 
Q 1159 2491 1159 1978 
L 1159 0 
L 581 0 
L 581 3500 
L 1159 3500 
L 1159 2956 
Q 1366 3272 1645 3428 
Q 1925 3584 2291 3584 
Q 2894 3584 3203 3211 
Q 3513 2838 3513 2113 
z
" transform="scale(0.015625)"/>
        <path id="DejaVuSans-6b" d="M 581 4863 
L 1159 4863 
L 1159 1991 
L 2875 3500 
L 3609 3500 
L 1753 1863 
L 3688 0 
L 2938 0 
L 1159 1709 
L 1159 0 
L 581 0 
L 581 4863 
z
" transform="scale(0.015625)"/>
       </defs>
       <use xlink:href="#DejaVuSans-43"/>
       <use xlink:href="#DejaVuSans-65" x="69.824219"/>
       <use xlink:href="#DejaVuSans-6c" x="131.347656"/>
       <use xlink:href="#DejaVuSans-6c" x="159.130859"/>
       <use xlink:href="#DejaVuSans-52" x="186.914062"/>
       <use xlink:href="#DejaVuSans-61" x="254.146484"/>
       <use xlink:href="#DejaVuSans-6e" x="315.425781"/>
       <use xlink:href="#DejaVuSans-6b" x="378.804688"/>
      </g>
     </g>
    </g>
    <g id="xtick_6">
     <g id="line2d_61">
      <g>
       <use xlink:href="#mcb9299bcc4" x="236.16" y="153.792" style="stroke: #000000; stroke-width: 0.8"/>
      </g>
     </g>
     <g id="text_6">
      <!-- Dynamo -->
      <g transform="translate(217.482437 181.81097) rotate(-45) scale(0.06 -0.06)">
       <defs>
        <path id="DejaVuSans-44" d="M 1259 4147 
L 1259 519 
L 2022 519 
Q 2988 519 3436 956 
Q 3884 1394 3884 2338 
Q 3884 3275 3436 3711 
Q 2988 4147 2022 4147 
L 1259 4147 
z
M 628 4666 
L 1925 4666 
Q 3281 4666 3915 4102 
Q 4550 3538 4550 2338 
Q 4550 1131 3912 565 
Q 3275 0 1925 0 
L 628 0 
L 628 4666 
z
" transform="scale(0.015625)"/>
        <path id="DejaVuSans-79" d="M 2059 -325 
Q 1816 -950 1584 -1140 
Q 1353 -1331 966 -1331 
L 506 -1331 
L 506 -850 
L 844 -850 
Q 1081 -850 1212 -737 
Q 1344 -625 1503 -206 
L 1606 56 
L 191 3500 
L 800 3500 
L 1894 763 
L 2988 3500 
L 3597 3500 
L 2059 -325 
z
" transform="scale(0.015625)"/>
        <path id="DejaVuSans-6d" d="M 3328 2828 
Q 3544 3216 3844 3400 
Q 4144 3584 4550 3584 
Q 5097 3584 5394 3201 
Q 5691 2819 5691 2113 
L 5691 0 
L 5113 0 
L 5113 2094 
Q 5113 2597 4934 2840 
Q 4756 3084 4391 3084 
Q 3944 3084 3684 2787 
Q 3425 2491 3425 1978 
L 3425 0 
L 2847 0 
L 2847 2094 
Q 2847 2600 2669 2842 
Q 2491 3084 2119 3084 
Q 1678 3084 1418 2786 
Q 1159 2488 1159 1978 
L 1159 0 
L 581 0 
L 581 3500 
L 1159 3500 
L 1159 2956 
Q 1356 3278 1631 3431 
Q 1906 3584 2284 3584 
Q 2666 3584 2933 3390 
Q 3200 3197 3328 2828 
z
" transform="scale(0.015625)"/>
       </defs>
       <use xlink:href="#DejaVuSans-44"/>
       <use xlink:href="#DejaVuSans-79" x="77.001953"/>
       <use xlink:href="#DejaVuSans-6e" x="136.181641"/>
       <use xlink:href="#DejaVuSans-61" x="199.560547"/>
       <use xlink:href="#DejaVuSans-6d" x="260.839844"/>
       <use xlink:href="#DejaVuSans-6f" x="358.251953"/>
      </g>
     </g>
    </g>
    <g id="xtick_7">
     <g id="line2d_62">
      <g>
       <use xlink:href="#mcb9299bcc4" x="268.625455" y="153.792" style="stroke: #000000; stroke-width: 0.8"/>
      </g>
     </g>
     <g id="text_7">
      <!-- PRESCIENT -->
      <g transform="translate(244.202428 187.556434) rotate(-45) scale(0.06 -0.06)">
       <defs>
        <path id="DejaVuSans-45" d="M 628 4666 
L 3578 4666 
L 3578 4134 
L 1259 4134 
L 1259 2753 
L 3481 2753 
L 3481 2222 
L 1259 2222 
L 1259 531 
L 3634 531 
L 3634 0 
L 628 0 
L 628 4666 
z
" transform="scale(0.015625)"/>
        <path id="DejaVuSans-53" d="M 3425 4513 
L 3425 3897 
Q 3066 4069 2747 4153 
Q 2428 4238 2131 4238 
Q 1616 4238 1336 4038 
Q 1056 3838 1056 3469 
Q 1056 3159 1242 3001 
Q 1428 2844 1947 2747 
L 2328 2669 
Q 3034 2534 3370 2195 
Q 3706 1856 3706 1288 
Q 3706 609 3251 259 
Q 2797 -91 1919 -91 
Q 1588 -91 1214 -16 
Q 841 59 441 206 
L 441 856 
Q 825 641 1194 531 
Q 1563 422 1919 422 
Q 2459 422 2753 634 
Q 3047 847 3047 1241 
Q 3047 1584 2836 1778 
Q 2625 1972 2144 2069 
L 1759 2144 
Q 1053 2284 737 2584 
Q 422 2884 422 3419 
Q 422 4038 858 4394 
Q 1294 4750 2059 4750 
Q 2388 4750 2728 4690 
Q 3069 4631 3425 4513 
z
" transform="scale(0.015625)"/>
       </defs>
       <use xlink:href="#DejaVuSans-50"/>
       <use xlink:href="#DejaVuSans-52" x="60.302734"/>
       <use xlink:href="#DejaVuSans-45" x="129.785156"/>
       <use xlink:href="#DejaVuSans-53" x="192.96875"/>
       <use xlink:href="#DejaVuSans-43" x="256.445312"/>
       <use xlink:href="#DejaVuSans-49" x="326.269531"/>
       <use xlink:href="#DejaVuSans-45" x="355.761719"/>
       <use xlink:href="#DejaVuSans-4e" x="418.945312"/>
       <use xlink:href="#DejaVuSans-54" x="493.75"/>
      </g>
     </g>
    </g>
    <g id="xtick_8">
     <g id="line2d_63">
      <g>
       <use xlink:href="#mcb9299bcc4" x="301.090909" y="153.792" style="stroke: #000000; stroke-width: 0.8"/>
      </g>
     </g>
     <g id="text_8">
      <!-- PRESCIENT-KEGG -->
      <g transform="translate(263.486529 200.737788) rotate(-45) scale(0.06 -0.06)">
       <defs>
        <path id="DejaVuSans-4b" d="M 628 4666 
L 1259 4666 
L 1259 2694 
L 3353 4666 
L 4166 4666 
L 1850 2491 
L 4331 0 
L 3500 0 
L 1259 2247 
L 1259 0 
L 628 0 
L 628 4666 
z
" transform="scale(0.015625)"/>
       </defs>
       <use xlink:href="#DejaVuSans-50"/>
       <use xlink:href="#DejaVuSans-52" x="60.302734"/>
       <use xlink:href="#DejaVuSans-45" x="129.785156"/>
       <use xlink:href="#DejaVuSans-53" x="192.96875"/>
       <use xlink:href="#DejaVuSans-43" x="256.445312"/>
       <use xlink:href="#DejaVuSans-49" x="326.269531"/>
       <use xlink:href="#DejaVuSans-45" x="355.761719"/>
       <use xlink:href="#DejaVuSans-4e" x="418.945312"/>
       <use xlink:href="#DejaVuSans-54" x="493.75"/>
       <use xlink:href="#DejaVuSans-2d" x="545.708984"/>
       <use xlink:href="#DejaVuSans-4b" x="581.792969"/>
       <use xlink:href="#DejaVuSans-45" x="647.369141"/>
       <use xlink:href="#DejaVuSans-47" x="710.552734"/>
       <use xlink:href="#DejaVuSans-47" x="788.042969"/>
      </g>
     </g>
    </g>
    <g id="xtick_9">
     <g id="line2d_64">
      <g>
       <use xlink:href="#mcb9299bcc4" x="333.556364" y="153.792" style="stroke: #000000; stroke-width: 0.8"/>
      </g>
     </g>
     <g id="text_9">
      <!-- scDiffEq -->
      <g transform="translate(315.324278 181.365493) rotate(-45) scale(0.06 -0.06)">
       <defs>
        <path id="DejaVuSans-73" d="M 2834 3397 
L 2834 2853 
Q 2591 2978 2328 3040 
Q 2066 3103 1784 3103 
Q 1356 3103 1142 2972 
Q 928 2841 928 2578 
Q 928 2378 1081 2264 
Q 1234 2150 1697 2047 
L 1894 2003 
Q 2506 1872 2764 1633 
Q 3022 1394 3022 966 
Q 3022 478 2636 193 
Q 2250 -91 1575 -91 
Q 1294 -91 989 -36 
Q 684 19 347 128 
L 347 722 
Q 666 556 975 473 
Q 1284 391 1588 391 
Q 1994 391 2212 530 
Q 2431 669 2431 922 
Q 2431 1156 2273 1281 
Q 2116 1406 1581 1522 
L 1381 1569 
Q 847 1681 609 1914 
Q 372 2147 372 2553 
Q 372 3047 722 3315 
Q 1072 3584 1716 3584 
Q 2034 3584 2315 3537 
Q 2597 3491 2834 3397 
z
" transform="scale(0.015625)"/>
        <path id="DejaVuSans-69" d="M 603 3500 
L 1178 3500 
L 1178 0 
L 603 0 
L 603 3500 
z
M 603 4863 
L 1178 4863 
L 1178 4134 
L 603 4134 
L 603 4863 
z
" transform="scale(0.015625)"/>
        <path id="DejaVuSans-66" d="M 2375 4863 
L 2375 4384 
L 1825 4384 
Q 1516 4384 1395 4259 
Q 1275 4134 1275 3809 
L 1275 3500 
L 2222 3500 
L 2222 3053 
L 1275 3053 
L 1275 0 
L 697 0 
L 697 3053 
L 147 3053 
L 147 3500 
L 697 3500 
L 697 3744 
Q 697 4328 969 4595 
Q 1241 4863 1831 4863 
L 2375 4863 
z
" transform="scale(0.015625)"/>
        <path id="DejaVuSans-71" d="M 947 1747 
Q 947 1113 1208 752 
Q 1469 391 1925 391 
Q 2381 391 2643 752 
Q 2906 1113 2906 1747 
Q 2906 2381 2643 2742 
Q 2381 3103 1925 3103 
Q 1469 3103 1208 2742 
Q 947 2381 947 1747 
z
M 2906 525 
Q 2725 213 2448 61 
Q 2172 -91 1784 -91 
Q 1150 -91 751 415 
Q 353 922 353 1747 
Q 353 2572 751 3078 
Q 1150 3584 1784 3584 
Q 2172 3584 2448 3432 
Q 2725 3281 2906 2969 
L 2906 3500 
L 3481 3500 
L 3481 -1331 
L 2906 -1331 
L 2906 525 
z
" transform="scale(0.015625)"/>
       </defs>
       <use xlink:href="#DejaVuSans-73"/>
       <use xlink:href="#DejaVuSans-63" x="52.099609"/>
       <use xlink:href="#DejaVuSans-44" x="107.080078"/>
       <use xlink:href="#DejaVuSans-69" x="184.082031"/>
       <use xlink:href="#DejaVuSans-66" x="211.865234"/>
       <use xlink:href="#DejaVuSans-66" x="247.070312"/>
       <use xlink:href="#DejaVuSans-45" x="282.275391"/>
       <use xlink:href="#DejaVuSans-71" x="345.458984"/>
      </g>
     </g>
    </g>
    <g id="xtick_10">
     <g id="line2d_65">
      <g>
       <use xlink:href="#mcb9299bcc4" x="366.021818" y="153.792" style="stroke: #000000; stroke-width: 0.8"/>
      </g>
     </g>
     <g id="text_10">
      <!-- scDiffEq-KEGG -->
      <g transform="translate(334.221237 194.933988) rotate(-45) scale(0.06 -0.06)">
       <use xlink:href="#DejaVuSans-73"/>
       <use xlink:href="#DejaVuSans-63" x="52.099609"/>
       <use xlink:href="#DejaVuSans-44" x="107.080078"/>
       <use xlink:href="#DejaVuSans-69" x="184.082031"/>
       <use xlink:href="#DejaVuSans-66" x="211.865234"/>
       <use xlink:href="#DejaVuSans-66" x="247.070312"/>
       <use xlink:href="#DejaVuSans-45" x="282.275391"/>
       <use xlink:href="#DejaVuSans-71" x="345.458984"/>
       <use xlink:href="#DejaVuSans-2d" x="408.935547"/>
       <use xlink:href="#DejaVuSans-4b" x="445.019531"/>
       <use xlink:href="#DejaVuSans-45" x="510.595703"/>
       <use xlink:href="#DejaVuSans-47" x="573.779297"/>
       <use xlink:href="#DejaVuSans-47" x="651.269531"/>
      </g>
     </g>
    </g>
    <g id="xtick_11">
     <g id="line2d_66">
      <g>
       <use xlink:href="#mcb9299bcc4" x="398.487273" y="153.792" style="stroke: #000000; stroke-width: 0.8"/>
      </g>
     </g>
     <g id="text_11">
      <!-- scDiffEq-KEGG-RV -->
      <g transform="translate(359.539168 202.081512) rotate(-45) scale(0.06 -0.06)">
       <defs>
        <path id="DejaVuSans-56" d="M 1831 0 
L 50 4666 
L 709 4666 
L 2188 738 
L 3669 4666 
L 4325 4666 
L 2547 0 
L 1831 0 
z
" transform="scale(0.015625)"/>
       </defs>
       <use xlink:href="#DejaVuSans-73"/>
       <use xlink:href="#DejaVuSans-63" x="52.099609"/>
       <use xlink:href="#DejaVuSans-44" x="107.080078"/>
       <use xlink:href="#DejaVuSans-69" x="184.082031"/>
       <use xlink:href="#DejaVuSans-66" x="211.865234"/>
       <use xlink:href="#DejaVuSans-66" x="247.070312"/>
       <use xlink:href="#DejaVuSans-45" x="282.275391"/>
       <use xlink:href="#DejaVuSans-71" x="345.458984"/>
       <use xlink:href="#DejaVuSans-2d" x="408.935547"/>
       <use xlink:href="#DejaVuSans-4b" x="445.019531"/>
       <use xlink:href="#DejaVuSans-45" x="510.595703"/>
       <use xlink:href="#DejaVuSans-47" x="573.779297"/>
       <use xlink:href="#DejaVuSans-47" x="651.269531"/>
       <use xlink:href="#DejaVuSans-2d" x="728.759766"/>
       <use xlink:href="#DejaVuSans-52" x="764.84375"/>
       <use xlink:href="#DejaVuSans-56" x="828.826172"/>
      </g>
     </g>
    </g>
    <g id="text_12">
     <!-- Method -->
     <g transform="translate(221.1575 213.042598) scale(0.08 -0.08)">
      <defs>
       <path id="DejaVuSans-4d" d="M 628 4666 
L 1569 4666 
L 2759 1491 
L 3956 4666 
L 4897 4666 
L 4897 0 
L 4281 0 
L 4281 4097 
L 3078 897 
L 2444 897 
L 1241 4097 
L 1241 0 
L 628 0 
L 628 4666 
z
" transform="scale(0.015625)"/>
       <path id="DejaVuSans-64" d="M 2906 2969 
L 2906 4863 
L 3481 4863 
L 3481 0 
L 2906 0 
L 2906 525 
Q 2725 213 2448 61 
Q 2172 -91 1784 -91 
Q 1150 -91 751 415 
Q 353 922 353 1747 
Q 353 2572 751 3078 
Q 1150 3584 1784 3584 
Q 2172 3584 2448 3432 
Q 2725 3281 2906 2969 
z
M 947 1747 
Q 947 1113 1208 752 
Q 1469 391 1925 391 
Q 2381 391 2643 752 
Q 2906 1113 2906 1747 
Q 2906 2381 2643 2742 
Q 2381 3103 1925 3103 
Q 1469 3103 1208 2742 
Q 947 2381 947 1747 
z
" transform="scale(0.015625)"/>
      </defs>
      <use xlink:href="#DejaVuSans-4d"/>
      <use xlink:href="#DejaVuSans-65" x="86.279297"/>
      <use xlink:href="#DejaVuSans-74" x="147.802734"/>
      <use xlink:href="#DejaVuSans-68" x="187.011719"/>
      <use xlink:href="#DejaVuSans-6f" x="250.390625"/>
      <use xlink:href="#DejaVuSans-64" x="311.572266"/>
     </g>
    </g>
   </g>
   <g id="matplotlib.axis_2">
    <g id="ytick_1">
     <g id="line2d_67">
      <defs>
       <path id="m838d04d9f8" d="M 0 0 
L -3.5 0 
" style="stroke: #000000; stroke-width: 0.8"/>
      </defs>
      <g>
       <use xlink:href="#m838d04d9f8" x="57.6" y="153.792" style="stroke: #000000; stroke-width: 0.8"/>
      </g>
     </g>
     <g id="text_13">
      <!-- 0.0 -->
      <g transform="translate(41.058125 156.071531) scale(0.06 -0.06)">
       <defs>
        <path id="DejaVuSans-30" d="M 2034 4250 
Q 1547 4250 1301 3770 
Q 1056 3291 1056 2328 
Q 1056 1369 1301 889 
Q 1547 409 2034 409 
Q 2525 409 2770 889 
Q 3016 1369 3016 2328 
Q 3016 3291 2770 3770 
Q 2525 4250 2034 4250 
z
M 2034 4750 
Q 2819 4750 3233 4129 
Q 3647 3509 3647 2328 
Q 3647 1150 3233 529 
Q 2819 -91 2034 -91 
Q 1250 -91 836 529 
Q 422 1150 422 2328 
Q 422 3509 836 4129 
Q 1250 4750 2034 4750 
z
" transform="scale(0.015625)"/>
        <path id="DejaVuSans-2e" d="M 684 794 
L 1344 794 
L 1344 0 
L 684 0 
L 684 794 
z
" transform="scale(0.015625)"/>
       </defs>
       <use xlink:href="#DejaVuSans-30"/>
       <use xlink:href="#DejaVuSans-2e" x="63.623047"/>
       <use xlink:href="#DejaVuSans-30" x="95.410156"/>
      </g>
     </g>
    </g>
    <g id="ytick_2">
     <g id="line2d_68">
      <g>
       <use xlink:href="#m838d04d9f8" x="57.6" y="134.784" style="stroke: #000000; stroke-width: 0.8"/>
      </g>
     </g>
     <g id="text_14">
      <!-- 0.1 -->
      <g transform="translate(41.058125 137.063531) scale(0.06 -0.06)">
       <defs>
        <path id="DejaVuSans-31" d="M 794 531 
L 1825 531 
L 1825 4091 
L 703 3866 
L 703 4441 
L 1819 4666 
L 2450 4666 
L 2450 531 
L 3481 531 
L 3481 0 
L 794 0 
L 794 531 
z
" transform="scale(0.015625)"/>
       </defs>
       <use xlink:href="#DejaVuSans-30"/>
       <use xlink:href="#DejaVuSans-2e" x="63.623047"/>
       <use xlink:href="#DejaVuSans-31" x="95.410156"/>
      </g>
     </g>
    </g>
    <g id="ytick_3">
     <g id="line2d_69">
      <g>
       <use xlink:href="#m838d04d9f8" x="57.6" y="115.776" style="stroke: #000000; stroke-width: 0.8"/>
      </g>
     </g>
     <g id="text_15">
      <!-- 0.2 -->
      <g transform="translate(41.058125 118.055531) scale(0.06 -0.06)">
       <defs>
        <path id="DejaVuSans-32" d="M 1228 531 
L 3431 531 
L 3431 0 
L 469 0 
L 469 531 
Q 828 903 1448 1529 
Q 2069 2156 2228 2338 
Q 2531 2678 2651 2914 
Q 2772 3150 2772 3378 
Q 2772 3750 2511 3984 
Q 2250 4219 1831 4219 
Q 1534 4219 1204 4116 
Q 875 4013 500 3803 
L 500 4441 
Q 881 4594 1212 4672 
Q 1544 4750 1819 4750 
Q 2544 4750 2975 4387 
Q 3406 4025 3406 3419 
Q 3406 3131 3298 2873 
Q 3191 2616 2906 2266 
Q 2828 2175 2409 1742 
Q 1991 1309 1228 531 
z
" transform="scale(0.015625)"/>
       </defs>
       <use xlink:href="#DejaVuSans-30"/>
       <use xlink:href="#DejaVuSans-2e" x="63.623047"/>
       <use xlink:href="#DejaVuSans-32" x="95.410156"/>
      </g>
     </g>
    </g>
    <g id="ytick_4">
     <g id="line2d_70">
      <g>
       <use xlink:href="#m838d04d9f8" x="57.6" y="96.768" style="stroke: #000000; stroke-width: 0.8"/>
      </g>
     </g>
     <g id="text_16">
      <!-- 0.3 -->
      <g transform="translate(41.058125 99.047531) scale(0.06 -0.06)">
       <defs>
        <path id="DejaVuSans-33" d="M 2597 2516 
Q 3050 2419 3304 2112 
Q 3559 1806 3559 1356 
Q 3559 666 3084 287 
Q 2609 -91 1734 -91 
Q 1441 -91 1130 -33 
Q 819 25 488 141 
L 488 750 
Q 750 597 1062 519 
Q 1375 441 1716 441 
Q 2309 441 2620 675 
Q 2931 909 2931 1356 
Q 2931 1769 2642 2001 
Q 2353 2234 1838 2234 
L 1294 2234 
L 1294 2753 
L 1863 2753 
Q 2328 2753 2575 2939 
Q 2822 3125 2822 3475 
Q 2822 3834 2567 4026 
Q 2313 4219 1838 4219 
Q 1578 4219 1281 4162 
Q 984 4106 628 3988 
L 628 4550 
Q 988 4650 1302 4700 
Q 1616 4750 1894 4750 
Q 2613 4750 3031 4423 
Q 3450 4097 3450 3541 
Q 3450 3153 3228 2886 
Q 3006 2619 2597 2516 
z
" transform="scale(0.015625)"/>
       </defs>
       <use xlink:href="#DejaVuSans-30"/>
       <use xlink:href="#DejaVuSans-2e" x="63.623047"/>
       <use xlink:href="#DejaVuSans-33" x="95.410156"/>
      </g>
     </g>
    </g>
    <g id="ytick_5">
     <g id="line2d_71">
      <g>
       <use xlink:href="#m838d04d9f8" x="57.6" y="77.76" style="stroke: #000000; stroke-width: 0.8"/>
      </g>
     </g>
     <g id="text_17">
      <!-- 0.4 -->
      <g transform="translate(41.058125 80.039531) scale(0.06 -0.06)">
       <defs>
        <path id="DejaVuSans-34" d="M 2419 4116 
L 825 1625 
L 2419 1625 
L 2419 4116 
z
M 2253 4666 
L 3047 4666 
L 3047 1625 
L 3713 1625 
L 3713 1100 
L 3047 1100 
L 3047 0 
L 2419 0 
L 2419 1100 
L 313 1100 
L 313 1709 
L 2253 4666 
z
" transform="scale(0.015625)"/>
       </defs>
       <use xlink:href="#DejaVuSans-30"/>
       <use xlink:href="#DejaVuSans-2e" x="63.623047"/>
       <use xlink:href="#DejaVuSans-34" x="95.410156"/>
      </g>
     </g>
    </g>
    <g id="ytick_6">
     <g id="line2d_72">
      <g>
       <use xlink:href="#m838d04d9f8" x="57.6" y="58.752" style="stroke: #000000; stroke-width: 0.8"/>
      </g>
     </g>
     <g id="text_18">
      <!-- 0.5 -->
      <g transform="translate(41.058125 61.031531) scale(0.06 -0.06)">
       <defs>
        <path id="DejaVuSans-35" d="M 691 4666 
L 3169 4666 
L 3169 4134 
L 1269 4134 
L 1269 2991 
Q 1406 3038 1543 3061 
Q 1681 3084 1819 3084 
Q 2600 3084 3056 2656 
Q 3513 2228 3513 1497 
Q 3513 744 3044 326 
Q 2575 -91 1722 -91 
Q 1428 -91 1123 -41 
Q 819 9 494 109 
L 494 744 
Q 775 591 1075 516 
Q 1375 441 1709 441 
Q 2250 441 2565 725 
Q 2881 1009 2881 1497 
Q 2881 1984 2565 2268 
Q 2250 2553 1709 2553 
Q 1456 2553 1204 2497 
Q 953 2441 691 2322 
L 691 4666 
z
" transform="scale(0.015625)"/>
       </defs>
       <use xlink:href="#DejaVuSans-30"/>
       <use xlink:href="#DejaVuSans-2e" x="63.623047"/>
       <use xlink:href="#DejaVuSans-35" x="95.410156"/>
      </g>
     </g>
    </g>
    <g id="ytick_7">
     <g id="line2d_73">
      <g>
       <use xlink:href="#m838d04d9f8" x="57.6" y="39.744" style="stroke: #000000; stroke-width: 0.8"/>
      </g>
     </g>
     <g id="text_19">
      <!-- 0.6 -->
      <g transform="translate(41.058125 42.023531) scale(0.06 -0.06)">
       <defs>
        <path id="DejaVuSans-36" d="M 2113 2584 
Q 1688 2584 1439 2293 
Q 1191 2003 1191 1497 
Q 1191 994 1439 701 
Q 1688 409 2113 409 
Q 2538 409 2786 701 
Q 3034 994 3034 1497 
Q 3034 2003 2786 2293 
Q 2538 2584 2113 2584 
z
M 3366 4563 
L 3366 3988 
Q 3128 4100 2886 4159 
Q 2644 4219 2406 4219 
Q 1781 4219 1451 3797 
Q 1122 3375 1075 2522 
Q 1259 2794 1537 2939 
Q 1816 3084 2150 3084 
Q 2853 3084 3261 2657 
Q 3669 2231 3669 1497 
Q 3669 778 3244 343 
Q 2819 -91 2113 -91 
Q 1303 -91 875 529 
Q 447 1150 447 2328 
Q 447 3434 972 4092 
Q 1497 4750 2381 4750 
Q 2619 4750 2861 4703 
Q 3103 4656 3366 4563 
z
" transform="scale(0.015625)"/>
       </defs>
       <use xlink:href="#DejaVuSans-30"/>
       <use xlink:href="#DejaVuSans-2e" x="63.623047"/>
       <use xlink:href="#DejaVuSans-36" x="95.410156"/>
      </g>
     </g>
    </g>
    <g id="ytick_8">
     <g id="line2d_74">
      <g>
       <use xlink:href="#m838d04d9f8" x="57.6" y="20.736" style="stroke: #000000; stroke-width: 0.8"/>
      </g>
     </g>
     <g id="text_20">
      <!-- 0.7 -->
      <g transform="translate(41.058125 23.015531) scale(0.06 -0.06)">
       <defs>
        <path id="DejaVuSans-37" d="M 525 4666 
L 3525 4666 
L 3525 4397 
L 1831 0 
L 1172 0 
L 2766 4134 
L 525 4134 
L 525 4666 
z
" transform="scale(0.015625)"/>
       </defs>
       <use xlink:href="#DejaVuSans-30"/>
       <use xlink:href="#DejaVuSans-2e" x="63.623047"/>
       <use xlink:href="#DejaVuSans-37" x="95.410156"/>
      </g>
     </g>
    </g>
    <g id="text_21">
     <!-- Accuracy Score -->
     <g transform="translate(35.394375 117.999625) rotate(-90) scale(0.08 -0.08)">
      <defs>
       <path id="DejaVuSans-75" d="M 544 1381 
L 544 3500 
L 1119 3500 
L 1119 1403 
Q 1119 906 1312 657 
Q 1506 409 1894 409 
Q 2359 409 2629 706 
Q 2900 1003 2900 1516 
L 2900 3500 
L 3475 3500 
L 3475 0 
L 2900 0 
L 2900 538 
Q 2691 219 2414 64 
Q 2138 -91 1772 -91 
Q 1169 -91 856 284 
Q 544 659 544 1381 
z
M 1991 3584 
L 1991 3584 
z
" transform="scale(0.015625)"/>
       <path id="DejaVuSans-20" transform="scale(0.015625)"/>
      </defs>
      <use xlink:href="#DejaVuSans-41"/>
      <use xlink:href="#DejaVuSans-63" x="66.658203"/>
      <use xlink:href="#DejaVuSans-63" x="121.638672"/>
      <use xlink:href="#DejaVuSans-75" x="176.619141"/>
      <use xlink:href="#DejaVuSans-72" x="239.998047"/>
      <use xlink:href="#DejaVuSans-61" x="281.111328"/>
      <use xlink:href="#DejaVuSans-63" x="342.390625"/>
      <use xlink:href="#DejaVuSans-79" x="397.371094"/>
      <use xlink:href="#DejaVuSans-20" x="456.550781"/>
      <use xlink:href="#DejaVuSans-53" x="488.337891"/>
      <use xlink:href="#DejaVuSans-63" x="551.814453"/>
      <use xlink:href="#DejaVuSans-6f" x="606.794922"/>
      <use xlink:href="#DejaVuSans-72" x="667.976562"/>
      <use xlink:href="#DejaVuSans-65" x="706.839844"/>
     </g>
    </g>
   </g>
   <g id="patch_14">
    <path d="M 63.281455 39.611324 
L 84.384 39.611324 
L 84.384 39.389881 
L 63.281455 39.389881 
L 63.281455 39.611324 
L 63.281455 39.611324 
z
" clip-path="url(#p4e01e38001)" style="fill: none; stroke: #262626; stroke-linejoin: miter"/>
   </g>
   <g id="line2d_75">
    <path d="M 73.832727 39.611324 
L 73.832727 39.611324 
" clip-path="url(#p4e01e38001)" style="fill: none; stroke: #262626; stroke-linecap: square"/>
   </g>
   <g id="line2d_76">
    <path d="M 73.832727 39.389881 
L 73.832727 39.389881 
" clip-path="url(#p4e01e38001)" style="fill: none; stroke: #262626; stroke-linecap: square"/>
   </g>
   <g id="line2d_77">
    <path d="M 68.557091 39.611324 
L 79.108364 39.611324 
" clip-path="url(#p4e01e38001)" style="fill: none; stroke: #262626; stroke-linecap: square"/>
   </g>
   <g id="line2d_78">
    <path d="M 68.557091 39.389881 
L 79.108364 39.389881 
" clip-path="url(#p4e01e38001)" style="fill: none; stroke: #262626; stroke-linecap: square"/>
   </g>
   <g id="patch_15">
    <path d="M 95.746909 84.752473 
L 116.849455 84.752473 
L 116.849455 84.752473 
L 95.746909 84.752473 
L 95.746909 84.752473 
L 95.746909 84.752473 
z
" clip-path="url(#p4e01e38001)" style="fill: none; stroke: #f9626c; stroke-linejoin: miter"/>
   </g>
   <g id="line2d_79">
    <path d="M 106.298182 84.752473 
L 106.298182 84.752473 
" clip-path="url(#p4e01e38001)" style="fill: none; stroke: #f9626c; stroke-linecap: square"/>
   </g>
   <g id="line2d_80">
    <path d="M 106.298182 84.752473 
L 106.298182 84.752473 
" clip-path="url(#p4e01e38001)" style="fill: none; stroke: #f9626c; stroke-linecap: square"/>
   </g>
   <g id="line2d_81">
    <path d="M 101.022545 84.752473 
L 111.573818 84.752473 
" clip-path="url(#p4e01e38001)" style="fill: none; stroke: #f9626c; stroke-linecap: square"/>
   </g>
   <g id="line2d_82">
    <path d="M 101.022545 84.752473 
L 111.573818 84.752473 
" clip-path="url(#p4e01e38001)" style="fill: none; stroke: #f9626c; stroke-linecap: square"/>
   </g>
   <g id="patch_16">
    <path d="M 128.212364 76.122524 
L 149.314909 76.122524 
L 149.314909 49.292256 
L 128.212364 49.292256 
L 128.212364 76.122524 
L 128.212364 76.122524 
z
" clip-path="url(#p4e01e38001)" style="fill: none; stroke: #9d0610; stroke-linejoin: miter"/>
   </g>
   <g id="line2d_83">
    <path d="M 138.763636 76.122524 
L 138.763636 78.55661 
" clip-path="url(#p4e01e38001)" style="fill: none; stroke: #9d0610; stroke-linecap: square"/>
   </g>
   <g id="line2d_84">
    <path d="M 138.763636 49.292256 
L 138.763636 46.028368 
" clip-path="url(#p4e01e38001)" style="fill: none; stroke: #9d0610; stroke-linecap: square"/>
   </g>
   <g id="line2d_85">
    <path d="M 133.488 78.55661 
L 144.039273 78.55661 
" clip-path="url(#p4e01e38001)" style="fill: none; stroke: #9d0610; stroke-linecap: square"/>
   </g>
   <g id="line2d_86">
    <path d="M 133.488 46.028368 
L 144.039273 46.028368 
" clip-path="url(#p4e01e38001)" style="fill: none; stroke: #9d0610; stroke-linecap: square"/>
   </g>
   <g id="patch_17">
    <path d="M 160.677818 146.02804 
L 181.780364 146.02804 
L 181.780364 146.02804 
L 160.677818 146.02804 
L 160.677818 146.02804 
L 160.677818 146.02804 
z
" clip-path="url(#p4e01e38001)" style="fill: none; stroke: #ffcc00; stroke-linejoin: miter"/>
   </g>
   <g id="line2d_87">
    <path d="M 171.229091 146.02804 
L 171.229091 146.02804 
" clip-path="url(#p4e01e38001)" style="fill: none; stroke: #ffcc00; stroke-linecap: square"/>
   </g>
   <g id="line2d_88">
    <path d="M 171.229091 146.02804 
L 171.229091 146.02804 
" clip-path="url(#p4e01e38001)" style="fill: none; stroke: #ffcc00; stroke-linecap: square"/>
   </g>
   <g id="line2d_89">
    <path d="M 165.953455 146.02804 
L 176.504727 146.02804 
" clip-path="url(#p4e01e38001)" style="fill: none; stroke: #ffcc00; stroke-linecap: square"/>
   </g>
   <g id="line2d_90">
    <path d="M 165.953455 146.02804 
L 176.504727 146.02804 
" clip-path="url(#p4e01e38001)" style="fill: none; stroke: #ffcc00; stroke-linecap: square"/>
   </g>
   <g id="patch_18">
    <path d="M 193.143273 127.120515 
L 214.245818 127.120515 
L 214.245818 127.120515 
L 193.143273 127.120515 
L 193.143273 127.120515 
L 193.143273 127.120515 
z
" clip-path="url(#p4e01e38001)" style="fill: none; stroke: #99cc33; stroke-linejoin: miter"/>
   </g>
   <g id="line2d_91">
    <path d="M 203.694545 127.120515 
L 203.694545 127.120515 
" clip-path="url(#p4e01e38001)" style="fill: none; stroke: #99cc33; stroke-linecap: square"/>
   </g>
   <g id="line2d_92">
    <path d="M 203.694545 127.120515 
L 203.694545 127.120515 
" clip-path="url(#p4e01e38001)" style="fill: none; stroke: #99cc33; stroke-linecap: square"/>
   </g>
   <g id="line2d_93">
    <path d="M 198.418909 127.120515 
L 208.970182 127.120515 
" clip-path="url(#p4e01e38001)" style="fill: none; stroke: #99cc33; stroke-linecap: square"/>
   </g>
   <g id="line2d_94">
    <path d="M 198.418909 127.120515 
L 208.970182 127.120515 
" clip-path="url(#p4e01e38001)" style="fill: none; stroke: #99cc33; stroke-linecap: square"/>
   </g>
   <g id="patch_19">
    <path d="M 225.608727 110.587848 
L 246.711273 110.587848 
L 246.711273 110.587848 
L 225.608727 110.587848 
L 225.608727 110.587848 
L 225.608727 110.587848 
z
" clip-path="url(#p4e01e38001)" style="fill: none; stroke: #669900; stroke-linejoin: miter"/>
   </g>
   <g id="line2d_95">
    <path d="M 236.16 110.587848 
L 236.16 110.587848 
" clip-path="url(#p4e01e38001)" style="fill: none; stroke: #669900; stroke-linecap: square"/>
   </g>
   <g id="line2d_96">
    <path d="M 236.16 110.587848 
L 236.16 110.587848 
" clip-path="url(#p4e01e38001)" style="fill: none; stroke: #669900; stroke-linecap: square"/>
   </g>
   <g id="line2d_97">
    <path d="M 230.884364 110.587848 
L 241.435636 110.587848 
" clip-path="url(#p4e01e38001)" style="fill: none; stroke: #669900; stroke-linecap: square"/>
   </g>
   <g id="line2d_98">
    <path d="M 230.884364 110.587848 
L 241.435636 110.587848 
" clip-path="url(#p4e01e38001)" style="fill: none; stroke: #669900; stroke-linecap: square"/>
   </g>
   <g id="patch_20">
    <path d="M 258.074182 75.016121 
L 279.176727 75.016121 
L 279.176727 71.033071 
L 258.074182 71.033071 
L 258.074182 75.016121 
L 258.074182 75.016121 
z
" clip-path="url(#p4e01e38001)" style="fill: none; stroke: #f27f34; stroke-linejoin: miter"/>
   </g>
   <g id="line2d_99">
    <path d="M 268.625455 75.016121 
L 268.625455 76.565085 
" clip-path="url(#p4e01e38001)" style="fill: none; stroke: #f27f34; stroke-linecap: square"/>
   </g>
   <g id="line2d_100">
    <path d="M 268.625455 71.033071 
L 268.625455 71.033071 
" clip-path="url(#p4e01e38001)" style="fill: none; stroke: #f27f34; stroke-linecap: square"/>
   </g>
   <g id="line2d_101">
    <path d="M 263.349818 76.565085 
L 273.901091 76.565085 
" clip-path="url(#p4e01e38001)" style="fill: none; stroke: #f27f34; stroke-linecap: square"/>
   </g>
   <g id="line2d_102">
    <path d="M 263.349818 71.033071 
L 273.901091 71.033071 
" clip-path="url(#p4e01e38001)" style="fill: none; stroke: #f27f34; stroke-linecap: square"/>
   </g>
   <g id="patch_21">
    <path d="M 290.539636 58.198799 
L 311.642182 58.198799 
L 311.642182 55.543432 
L 290.539636 55.543432 
L 290.539636 58.198799 
L 290.539636 58.198799 
z
" clip-path="url(#p4e01e38001)" style="fill: none; stroke: #eb5e28; stroke-linejoin: miter"/>
   </g>
   <g id="line2d_103">
    <path d="M 301.090909 58.198799 
L 301.090909 61.075446 
" clip-path="url(#p4e01e38001)" style="fill: none; stroke: #eb5e28; stroke-linecap: square"/>
   </g>
   <g id="line2d_104">
    <path d="M 301.090909 55.543432 
L 301.090909 54.437029 
" clip-path="url(#p4e01e38001)" style="fill: none; stroke: #eb5e28; stroke-linecap: square"/>
   </g>
   <g id="line2d_105">
    <path d="M 295.815273 61.075446 
L 306.366545 61.075446 
" clip-path="url(#p4e01e38001)" style="fill: none; stroke: #eb5e28; stroke-linecap: square"/>
   </g>
   <g id="line2d_106">
    <path d="M 295.815273 54.437029 
L 306.366545 54.437029 
" clip-path="url(#p4e01e38001)" style="fill: none; stroke: #eb5e28; stroke-linecap: square"/>
   </g>
   <g id="patch_22">
    <path d="M 323.005091 56.207274 
L 344.107636 56.207274 
L 344.107636 51.339101 
L 323.005091 51.339101 
L 323.005091 56.207274 
L 323.005091 56.207274 
z
" clip-path="url(#p4e01e38001)" style="fill: none; stroke: #00b4d8; stroke-linejoin: miter"/>
   </g>
   <g id="line2d_107">
    <path d="M 333.556364 56.207274 
L 333.556364 57.092396 
" clip-path="url(#p4e01e38001)" style="fill: none; stroke: #00b4d8; stroke-linecap: square"/>
   </g>
   <g id="line2d_108">
    <path d="M 333.556364 51.339101 
L 333.556364 51.339101 
" clip-path="url(#p4e01e38001)" style="fill: none; stroke: #00b4d8; stroke-linecap: square"/>
   </g>
   <g id="line2d_109">
    <path d="M 328.280727 57.092396 
L 338.832 57.092396 
" clip-path="url(#p4e01e38001)" style="fill: none; stroke: #00b4d8; stroke-linecap: square"/>
   </g>
   <g id="line2d_110">
    <path d="M 328.280727 51.339101 
L 338.832 51.339101 
" clip-path="url(#p4e01e38001)" style="fill: none; stroke: #00b4d8; stroke-linecap: square"/>
   </g>
   <g id="patch_23">
    <path d="M 355.470545 59.747763 
L 376.573091 59.747763 
L 376.573091 53.551907 
L 355.470545 53.551907 
L 355.470545 59.747763 
L 355.470545 59.747763 
z
" clip-path="url(#p4e01e38001)" style="fill: none; stroke: #0096c7; stroke-linejoin: miter"/>
   </g>
   <g id="line2d_111">
    <path d="M 366.021818 59.747763 
L 366.021818 59.747763 
" clip-path="url(#p4e01e38001)" style="fill: none; stroke: #0096c7; stroke-linecap: square"/>
   </g>
   <g id="line2d_112">
    <path d="M 366.021818 53.551907 
L 366.021818 53.551907 
" clip-path="url(#p4e01e38001)" style="fill: none; stroke: #0096c7; stroke-linecap: square"/>
   </g>
   <g id="line2d_113">
    <path d="M 360.746182 59.747763 
L 371.297455 59.747763 
" clip-path="url(#p4e01e38001)" style="fill: none; stroke: #0096c7; stroke-linecap: square"/>
   </g>
   <g id="line2d_114">
    <path d="M 360.746182 53.551907 
L 371.297455 53.551907 
" clip-path="url(#p4e01e38001)" style="fill: none; stroke: #0096c7; stroke-linecap: square"/>
   </g>
   <g id="patch_24">
    <path d="M 387.936 48.905015 
L 409.038545 48.905015 
L 409.038545 48.462454 
L 387.936 48.462454 
L 387.936 48.905015 
L 387.936 48.905015 
z
" clip-path="url(#p4e01e38001)" style="fill: none; stroke: #0077b6; stroke-linejoin: miter"/>
   </g>
   <g id="line2d_115">
    <path d="M 398.487273 48.905015 
L 398.487273 48.905015 
" clip-path="url(#p4e01e38001)" style="fill: none; stroke: #0077b6; stroke-linecap: square"/>
   </g>
   <g id="line2d_116">
    <path d="M 398.487273 48.462454 
L 398.487273 48.462454 
" clip-path="url(#p4e01e38001)" style="fill: none; stroke: #0077b6; stroke-linecap: square"/>
   </g>
   <g id="line2d_117">
    <path d="M 393.211636 48.905015 
L 403.762909 48.905015 
" clip-path="url(#p4e01e38001)" style="fill: none; stroke: #0077b6; stroke-linecap: square"/>
   </g>
   <g id="line2d_118">
    <path d="M 393.211636 48.462454 
L 403.762909 48.462454 
" clip-path="url(#p4e01e38001)" style="fill: none; stroke: #0077b6; stroke-linecap: square"/>
   </g>
   <g id="patch_25">
    <path d="M 57.6 153.792 
L 57.6 20.736 
" style="fill: none; stroke: #000000; stroke-width: 0.8; stroke-linejoin: miter; stroke-linecap: square"/>
   </g>
   <g id="patch_26">
    <path d="M 414.72 153.792 
L 414.72 20.736 
" style="fill: none; stroke: #000000; stroke-width: 0.8; stroke-linejoin: miter; stroke-linecap: square"/>
   </g>
   <g id="patch_27">
    <path d="M 57.6 153.792 
L 414.72 153.792 
" style="fill: none; stroke: #000000; stroke-width: 0.8; stroke-linejoin: miter; stroke-linecap: square"/>
   </g>
   <g id="patch_28">
    <path d="M 57.6 20.736 
L 414.72 20.736 
" style="fill: none; stroke: #000000; stroke-width: 0.8; stroke-linejoin: miter; stroke-linecap: square"/>
   </g>
   <g id="text_22">
    <!-- LARRY fate prediction benchmark accuracy -->
    <g transform="translate(128.074844 14.736) scale(0.1 -0.1)">
     <defs>
      <path id="DejaVuSans-59" d="M -13 4666 
L 666 4666 
L 1959 2747 
L 3244 4666 
L 3922 4666 
L 2272 2222 
L 2272 0 
L 1638 0 
L 1638 2222 
L -13 4666 
z
" transform="scale(0.015625)"/>
     </defs>
     <use xlink:href="#DejaVuSans-4c"/>
     <use xlink:href="#DejaVuSans-41" x="57.962891"/>
     <use xlink:href="#DejaVuSans-52" x="126.371094"/>
     <use xlink:href="#DejaVuSans-52" x="195.853516"/>
     <use xlink:href="#DejaVuSans-59" x="258.960938"/>
     <use xlink:href="#DejaVuSans-20" x="320.044922"/>
     <use xlink:href="#DejaVuSans-66" x="351.832031"/>
     <use xlink:href="#DejaVuSans-61" x="387.037109"/>
     <use xlink:href="#DejaVuSans-74" x="448.316406"/>
     <use xlink:href="#DejaVuSans-65" x="487.525391"/>
     <use xlink:href="#DejaVuSans-20" x="549.048828"/>
     <use xlink:href="#DejaVuSans-70" x="580.835938"/>
     <use xlink:href="#DejaVuSans-72" x="644.3125"/>
     <use xlink:href="#DejaVuSans-65" x="683.175781"/>
     <use xlink:href="#DejaVuSans-64" x="744.699219"/>
     <use xlink:href="#DejaVuSans-69" x="808.175781"/>
     <use xlink:href="#DejaVuSans-63" x="835.958984"/>
     <use xlink:href="#DejaVuSans-74" x="890.939453"/>
     <use xlink:href="#DejaVuSans-69" x="930.148438"/>
     <use xlink:href="#DejaVuSans-6f" x="957.931641"/>
     <use xlink:href="#DejaVuSans-6e" x="1019.113281"/>
     <use xlink:href="#DejaVuSans-20" x="1082.492188"/>
     <use xlink:href="#DejaVuSans-62" x="1114.279297"/>
     <use xlink:href="#DejaVuSans-65" x="1177.755859"/>
     <use xlink:href="#DejaVuSans-6e" x="1239.279297"/>
     <use xlink:href="#DejaVuSans-63" x="1302.658203"/>
     <use xlink:href="#DejaVuSans-68" x="1357.638672"/>
     <use xlink:href="#DejaVuSans-6d" x="1421.017578"/>
     <use xlink:href="#DejaVuSans-61" x="1518.429688"/>
     <use xlink:href="#DejaVuSans-72" x="1579.708984"/>
     <use xlink:href="#DejaVuSans-6b" x="1620.822266"/>
     <use xlink:href="#DejaVuSans-20" x="1678.732422"/>
     <use xlink:href="#DejaVuSans-61" x="1710.519531"/>
     <use xlink:href="#DejaVuSans-63" x="1771.798828"/>
     <use xlink:href="#DejaVuSans-63" x="1826.779297"/>
     <use xlink:href="#DejaVuSans-75" x="1881.759766"/>
     <use xlink:href="#DejaVuSans-72" x="1945.138672"/>
     <use xlink:href="#DejaVuSans-61" x="1986.251953"/>
     <use xlink:href="#DejaVuSans-63" x="2047.53125"/>
     <use xlink:href="#DejaVuSans-79" x="2102.511719"/>
    </g>
   </g>
  </g>
 </g>
 <defs>
  <clipPath id="p4e01e38001">
   <rect x="57.6" y="20.736" width="357.12" height="133.056"/>
  </clipPath>
 </defs>
</svg>
