<?xml version="1.0" encoding="utf-8" standalone="no"?>
<!DOCTYPE svg PUBLIC "-//W3C//DTD SVG 1.1//EN"
  "http://www.w3.org/Graphics/SVG/1.1/DTD/svg11.dtd">
<svg xmlns:xlink="http://www.w3.org/1999/xlink" width="1843.2pt" height="345.6pt" viewBox="0 0 1843.2 345.6" xmlns="http://www.w3.org/2000/svg" version="1.1">
 <metadata>
  <rdf:RDF xmlns:dc="http://purl.org/dc/elements/1.1/" xmlns:cc="http://creativecommons.org/ns#" xmlns:rdf="http://www.w3.org/1999/02/22-rdf-syntax-ns#">
   <cc:Work>
    <dc:type rdf:resource="http://purl.org/dc/dcmitype/StillImage"/>
    <dc:date>2024-09-29T23:10:53.793312</dc:date>
    <dc:format>image/svg+xml</dc:format>
    <dc:creator>
     <cc:Agent>
      <dc:title>Matplotlib v3.7.1, https://matplotlib.org/</dc:title>
     </cc:Agent>
    </dc:creator>
   </cc:Work>
  </rdf:RDF>
 </metadata>
 <defs>
  <style type="text/css">*{stroke-linejoin: round; stroke-linecap: butt}</style>
 </defs>
 <g id="figure_1">
  <g id="patch_1">
   <path d="M 0 345.6 
L 1843.2 345.6 
L 1843.2 0 
L 0 0 
z
" style="fill: #ffffff"/>
  </g>
  <g id="axes_1">
   <g id="patch_2">
    <path d="M 230.4 307.584 
L 910.628571 307.584 
L 910.628571 41.472 
L 230.4 41.472 
z
" style="fill: #ffffff"/>
   </g>
   <g id="PolyCollection_1">
    <defs>
     <path id="mbb3aea34e7" d="M 261.319481 -51.80544 
L 261.319481 -50.112 
L 276.779206 -50.112 
L 292.238968 -50.112 
L 307.698694 -50.112 
L 323.158456 -50.112 
L 338.618182 -50.112 
L 354.077907 -50.112 
L 369.53767 -50.112 
L 384.997395 -50.112 
L 400.457158 -50.112 
L 415.916883 -50.112 
L 431.376609 -50.112 
L 446.836371 -50.112 
L 462.296097 -50.112 
L 477.755859 -50.112 
L 493.215584 -50.112 
L 508.67531 -50.112 
L 524.135072 -50.112 
L 539.594798 -50.112 
L 555.05456 -50.112 
L 570.514286 -50.112 
L 585.974011 -50.112 
L 601.433737 -50.112 
L 616.893536 -50.112 
L 632.353261 -50.112 
L 647.812987 -50.112 
L 663.272713 -50.112 
L 678.732438 -50.112 
L 694.192237 -50.112 
L 709.651963 -50.112 
L 725.111688 -50.112 
L 740.571414 -50.112 
L 756.031139 -50.112 
L 771.490939 -50.112 
L 786.950664 -50.112 
L 802.41039 -50.112 
L 817.870115 -50.112 
L 833.329841 -50.112 
L 848.78964 -50.112 
L 864.249365 -50.112 
L 879.709091 -50.112 
L 879.709091 -76.96512 
L 879.709091 -76.96512 
L 864.249365 -76.48128 
L 848.78964 -75.99744 
L 833.329841 -75.99744 
L 817.870115 -75.02976 
L 802.41039 -75.75552 
L 786.950664 -74.78784 
L 771.490939 -73.82016 
L 756.031139 -73.33632 
L 740.571414 -72.61056 
L 725.111688 -72.61056 
L 709.651963 -72.85248 
L 694.192237 -72.85248 
L 678.732438 -71.64288 
L 663.272713 -70.43328 
L 647.812987 -69.94944 
L 632.353261 -69.22368 
L 616.893536 -68.49792 
L 601.433737 -67.28832 
L 585.974011 -67.28832 
L 570.514286 -65.35296 
L 555.05456 -64.6272 
L 539.594798 -62.69184 
L 524.135072 -62.208 
L 508.67531 -61.72416 
L 493.215584 -62.208 
L 477.755859 -60.75648 
L 462.296097 -60.03072 
L 446.836371 -58.82112 
L 431.376609 -58.82112 
L 415.916883 -58.33728 
L 400.457158 -57.61152 
L 384.997395 -56.88576 
L 369.53767 -56.40192 
L 354.077907 -55.43424 
L 338.618182 -55.43424 
L 323.158456 -54.46656 
L 307.698694 -54.22464 
L 292.238968 -52.28928 
L 276.779206 -52.04736 
L 261.319481 -51.80544 
z
" style="stroke: #0a9396"/>
    </defs>
    <g clip-path="url(#p8d19c672e0)">
     <use xlink:href="#mbb3aea34e7" x="0" y="345.6" style="fill: #0a9396; stroke: #0a9396"/>
    </g>
   </g>
   <g id="PolyCollection_2">
    <defs>
     <path id="m2239d18750" d="M 261.319481 -52.04736 
L 261.319481 -51.80544 
L 276.779206 -52.04736 
L 292.238968 -52.28928 
L 307.698694 -54.22464 
L 323.158456 -54.46656 
L 338.618182 -55.43424 
L 354.077907 -55.43424 
L 369.53767 -56.40192 
L 384.997395 -56.88576 
L 400.457158 -57.61152 
L 415.916883 -58.33728 
L 431.376609 -58.82112 
L 446.836371 -58.82112 
L 462.296097 -60.03072 
L 477.755859 -60.75648 
L 493.215584 -62.208 
L 508.67531 -61.72416 
L 524.135072 -62.208 
L 539.594798 -62.69184 
L 555.05456 -64.6272 
L 570.514286 -65.35296 
L 585.974011 -67.28832 
L 601.433737 -67.28832 
L 616.893536 -68.49792 
L 632.353261 -69.22368 
L 647.812987 -69.94944 
L 663.272713 -70.43328 
L 678.732438 -71.64288 
L 694.192237 -72.85248 
L 709.651963 -72.85248 
L 725.111688 -72.61056 
L 740.571414 -72.61056 
L 756.031139 -73.33632 
L 771.490939 -73.82016 
L 786.950664 -74.78784 
L 802.41039 -75.75552 
L 817.870115 -75.02976 
L 833.329841 -75.99744 
L 848.78964 -75.99744 
L 864.249365 -76.48128 
L 879.709091 -76.96512 
L 879.709091 -76.96512 
L 879.709091 -76.96512 
L 864.249365 -76.48128 
L 848.78964 -75.99744 
L 833.329841 -75.99744 
L 817.870115 -75.02976 
L 802.41039 -75.75552 
L 786.950664 -74.78784 
L 771.490939 -73.82016 
L 756.031139 -73.33632 
L 740.571414 -72.61056 
L 725.111688 -72.61056 
L 709.651963 -72.85248 
L 694.192237 -72.85248 
L 678.732438 -71.64288 
L 663.272713 -70.43328 
L 647.812987 -69.94944 
L 632.353261 -69.22368 
L 616.893536 -68.49792 
L 601.433737 -67.28832 
L 585.974011 -67.28832 
L 570.514286 -65.35296 
L 555.05456 -64.6272 
L 539.594798 -62.69184 
L 524.135072 -62.208 
L 508.67531 -61.72416 
L 493.215584 -62.208 
L 477.755859 -60.75648 
L 462.296097 -60.03072 
L 446.836371 -58.82112 
L 431.376609 -59.06304 
L 415.916883 -58.5792 
L 400.457158 -57.85344 
L 384.997395 -57.12768 
L 369.53767 -56.64384 
L 354.077907 -55.67616 
L 338.618182 -55.67616 
L 323.158456 -54.70848 
L 307.698694 -54.46656 
L 292.238968 -52.5312 
L 276.779206 -52.28928 
L 261.319481 -52.04736 
z
" style="stroke: #ae2012"/>
    </defs>
    <g clip-path="url(#p8d19c672e0)">
     <use xlink:href="#m2239d18750" x="0" y="345.6" style="fill: #ae2012; stroke: #ae2012"/>
    </g>
   </g>
   <g id="PolyCollection_3">
    <defs>
     <path id="me1fa34723f" d="M 261.319481 -52.28928 
L 261.319481 -52.04736 
L 276.779206 -52.28928 
L 292.238968 -52.5312 
L 307.698694 -54.46656 
L 323.158456 -54.70848 
L 338.618182 -55.67616 
L 354.077907 -55.67616 
L 369.53767 -56.64384 
L 384.997395 -57.12768 
L 400.457158 -57.85344 
L 415.916883 -58.5792 
L 431.376609 -59.06304 
L 446.836371 -58.82112 
L 462.296097 -60.03072 
L 477.755859 -60.75648 
L 493.215584 -62.208 
L 508.67531 -61.72416 
L 524.135072 -62.208 
L 539.594798 -62.69184 
L 555.05456 -64.6272 
L 570.514286 -65.35296 
L 585.974011 -67.28832 
L 601.433737 -67.28832 
L 616.893536 -68.49792 
L 632.353261 -69.22368 
L 647.812987 -69.94944 
L 663.272713 -70.43328 
L 678.732438 -71.64288 
L 694.192237 -72.85248 
L 709.651963 -72.85248 
L 725.111688 -72.61056 
L 740.571414 -72.61056 
L 756.031139 -73.33632 
L 771.490939 -73.82016 
L 786.950664 -74.78784 
L 802.41039 -75.75552 
L 817.870115 -75.02976 
L 833.329841 -75.99744 
L 848.78964 -75.99744 
L 864.249365 -76.48128 
L 879.709091 -76.96512 
L 879.709091 -77.44896 
L 879.709091 -77.44896 
L 864.249365 -76.96512 
L 848.78964 -76.48128 
L 833.329841 -76.48128 
L 817.870115 -75.5136 
L 802.41039 -76.23936 
L 786.950664 -75.27168 
L 771.490939 -74.304 
L 756.031139 -73.82016 
L 740.571414 -73.0944 
L 725.111688 -73.33632 
L 709.651963 -73.57824 
L 694.192237 -73.33632 
L 678.732438 -72.36864 
L 663.272713 -71.40096 
L 647.812987 -70.91712 
L 632.353261 -70.19136 
L 616.893536 -69.22368 
L 601.433737 -68.01408 
L 585.974011 -67.77216 
L 570.514286 -65.8368 
L 555.05456 -65.11104 
L 539.594798 -63.17568 
L 524.135072 -62.69184 
L 508.67531 -62.208 
L 493.215584 -62.69184 
L 477.755859 -61.24032 
L 462.296097 -60.51456 
L 446.836371 -59.30496 
L 431.376609 -59.54688 
L 415.916883 -59.06304 
L 400.457158 -58.33728 
L 384.997395 -57.61152 
L 369.53767 -57.12768 
L 354.077907 -56.16 
L 338.618182 -56.16 
L 323.158456 -54.9504 
L 307.698694 -54.70848 
L 292.238968 -52.77312 
L 276.779206 -52.5312 
L 261.319481 -52.28928 
z
" style="stroke: #005f73"/>
    </defs>
    <g clip-path="url(#p8d19c672e0)">
     <use xlink:href="#me1fa34723f" x="0" y="345.6" style="fill: #005f73; stroke: #005f73"/>
    </g>
   </g>
   <g id="PolyCollection_4">
    <defs>
     <path id="ma96b1f9dca" d="M 261.319481 -52.28928 
L 261.319481 -52.28928 
L 276.779206 -52.5312 
L 292.238968 -52.77312 
L 307.698694 -54.70848 
L 323.158456 -54.9504 
L 338.618182 -56.16 
L 354.077907 -56.16 
L 369.53767 -57.12768 
L 384.997395 -57.61152 
L 400.457158 -58.33728 
L 415.916883 -59.06304 
L 431.376609 -59.54688 
L 446.836371 -59.30496 
L 462.296097 -60.51456 
L 477.755859 -61.24032 
L 493.215584 -62.69184 
L 508.67531 -62.208 
L 524.135072 -62.69184 
L 539.594798 -63.17568 
L 555.05456 -65.11104 
L 570.514286 -65.8368 
L 585.974011 -67.77216 
L 601.433737 -68.01408 
L 616.893536 -69.22368 
L 632.353261 -70.19136 
L 647.812987 -70.91712 
L 663.272713 -71.40096 
L 678.732438 -72.36864 
L 694.192237 -73.33632 
L 709.651963 -73.57824 
L 725.111688 -73.33632 
L 740.571414 -73.0944 
L 756.031139 -73.82016 
L 771.490939 -74.304 
L 786.950664 -75.27168 
L 802.41039 -76.23936 
L 817.870115 -75.5136 
L 833.329841 -76.48128 
L 848.78964 -76.48128 
L 864.249365 -76.96512 
L 879.709091 -77.44896 
L 879.709091 -77.44896 
L 879.709091 -77.44896 
L 864.249365 -76.96512 
L 848.78964 -76.48128 
L 833.329841 -76.48128 
L 817.870115 -75.5136 
L 802.41039 -76.23936 
L 786.950664 -75.27168 
L 771.490939 -74.304 
L 756.031139 -73.82016 
L 740.571414 -73.0944 
L 725.111688 -73.33632 
L 709.651963 -73.57824 
L 694.192237 -73.33632 
L 678.732438 -72.36864 
L 663.272713 -71.40096 
L 647.812987 -70.91712 
L 632.353261 -70.43328 
L 616.893536 -69.22368 
L 601.433737 -68.256 
L 585.974011 -67.77216 
L 570.514286 -65.8368 
L 555.05456 -65.11104 
L 539.594798 -63.17568 
L 524.135072 -62.69184 
L 508.67531 -62.208 
L 493.215584 -62.93376 
L 477.755859 -61.48224 
L 462.296097 -60.51456 
L 446.836371 -59.54688 
L 431.376609 -59.7888 
L 415.916883 -59.30496 
L 400.457158 -58.5792 
L 384.997395 -57.61152 
L 369.53767 -57.3696 
L 354.077907 -56.16 
L 338.618182 -56.40192 
L 323.158456 -55.19232 
L 307.698694 -54.9504 
L 292.238968 -53.01504 
L 276.779206 -52.5312 
L 261.319481 -52.28928 
z
" style="stroke: #ee9b00"/>
    </defs>
    <g clip-path="url(#p8d19c672e0)">
     <use xlink:href="#ma96b1f9dca" x="0" y="345.6" style="fill: #ee9b00; stroke: #ee9b00"/>
    </g>
   </g>
   <g id="PolyCollection_5">
    <defs>
     <path id="m20db5e11e3" d="M 261.319481 -52.5312 
L 261.319481 -52.28928 
L 276.779206 -52.5312 
L 292.238968 -53.01504 
L 307.698694 -54.9504 
L 323.158456 -55.19232 
L 338.618182 -56.40192 
L 354.077907 -56.16 
L 369.53767 -57.3696 
L 384.997395 -57.61152 
L 400.457158 -58.5792 
L 415.916883 -59.30496 
L 431.376609 -59.7888 
L 446.836371 -59.54688 
L 462.296097 -60.51456 
L 477.755859 -61.48224 
L 493.215584 -62.93376 
L 508.67531 -62.208 
L 524.135072 -62.69184 
L 539.594798 -63.17568 
L 555.05456 -65.11104 
L 570.514286 -65.8368 
L 585.974011 -67.77216 
L 601.433737 -68.256 
L 616.893536 -69.22368 
L 632.353261 -70.43328 
L 647.812987 -70.91712 
L 663.272713 -71.40096 
L 678.732438 -72.36864 
L 694.192237 -73.33632 
L 709.651963 -73.57824 
L 725.111688 -73.33632 
L 740.571414 -73.0944 
L 756.031139 -73.82016 
L 771.490939 -74.304 
L 786.950664 -75.27168 
L 802.41039 -76.23936 
L 817.870115 -75.5136 
L 833.329841 -76.48128 
L 848.78964 -76.48128 
L 864.249365 -76.96512 
L 879.709091 -77.44896 
L 879.709091 -96.80256 
L 879.709091 -96.80256 
L 864.249365 -96.0768 
L 848.78964 -94.8672 
L 833.329841 -95.10912 
L 817.870115 -93.17376 
L 802.41039 -93.89952 
L 786.950664 -92.93184 
L 771.490939 -90.99648 
L 756.031139 -90.0288 
L 740.571414 -89.30304 
L 725.111688 -88.57728 
L 709.651963 -87.36768 
L 694.192237 -87.12576 
L 678.732438 -85.67424 
L 663.272713 -83.73888 
L 647.812987 -82.04544 
L 632.353261 -80.59392 
L 616.893536 -78.90048 
L 601.433737 -76.7232 
L 585.974011 -75.5136 
L 570.514286 -71.64288 
L 555.05456 -70.6752 
L 539.594798 -67.53024 
L 524.135072 -66.32064 
L 508.67531 -65.59488 
L 493.215584 -65.35296 
L 477.755859 -63.4176 
L 462.296097 -61.96608 
L 446.836371 -60.9984 
L 431.376609 -61.24032 
L 415.916883 -60.75648 
L 400.457158 -59.7888 
L 384.997395 -58.5792 
L 369.53767 -58.33728 
L 354.077907 -57.12768 
L 338.618182 -57.12768 
L 323.158456 -55.67616 
L 307.698694 -55.43424 
L 292.238968 -53.49888 
L 276.779206 -53.01504 
L 261.319481 -52.5312 
z
" style="stroke: #94d2bd"/>
    </defs>
    <g clip-path="url(#p8d19c672e0)">
     <use xlink:href="#m20db5e11e3" x="0" y="345.6" style="fill: #94d2bd; stroke: #94d2bd"/>
    </g>
   </g>
   <g id="PolyCollection_6">
    <defs>
     <path id="meb62bcdb9f" d="M 261.319481 -52.5312 
L 261.319481 -52.5312 
L 276.779206 -53.01504 
L 292.238968 -53.49888 
L 307.698694 -55.43424 
L 323.158456 -55.67616 
L 338.618182 -57.12768 
L 354.077907 -57.12768 
L 369.53767 -58.33728 
L 384.997395 -58.5792 
L 400.457158 -59.7888 
L 415.916883 -60.75648 
L 431.376609 -61.24032 
L 446.836371 -60.9984 
L 462.296097 -61.96608 
L 477.755859 -63.4176 
L 493.215584 -65.35296 
L 508.67531 -65.59488 
L 524.135072 -66.32064 
L 539.594798 -67.53024 
L 555.05456 -70.6752 
L 570.514286 -71.64288 
L 585.974011 -75.5136 
L 601.433737 -76.7232 
L 616.893536 -78.90048 
L 632.353261 -80.59392 
L 647.812987 -82.04544 
L 663.272713 -83.73888 
L 678.732438 -85.67424 
L 694.192237 -87.12576 
L 709.651963 -87.36768 
L 725.111688 -88.57728 
L 740.571414 -89.30304 
L 756.031139 -90.0288 
L 771.490939 -90.99648 
L 786.950664 -92.93184 
L 802.41039 -93.89952 
L 817.870115 -93.17376 
L 833.329841 -95.10912 
L 848.78964 -94.8672 
L 864.249365 -96.0768 
L 879.709091 -96.80256 
L 879.709091 -108.65664 
L 879.709091 -108.65664 
L 864.249365 -108.1728 
L 848.78964 -106.72128 
L 833.329841 -107.20512 
L 817.870115 -104.78592 
L 802.41039 -105.7536 
L 786.950664 -104.544 
L 771.490939 -101.64096 
L 756.031139 -100.9152 
L 740.571414 -99.94752 
L 725.111688 -98.73792 
L 709.651963 -97.52832 
L 694.192237 -97.04448 
L 678.732438 -95.59296 
L 663.272713 -93.41568 
L 647.812987 -91.48032 
L 632.353261 -90.0288 
L 616.893536 -87.85152 
L 601.433737 -85.1904 
L 585.974011 -83.73888 
L 570.514286 -79.1424 
L 555.05456 -78.65856 
L 539.594798 -74.78784 
L 524.135072 -73.0944 
L 508.67531 -72.36864 
L 493.215584 -71.15904 
L 477.755859 -68.49792 
L 462.296097 -67.28832 
L 446.836371 -65.35296 
L 431.376609 -64.38528 
L 415.916883 -64.14336 
L 400.457158 -62.44992 
L 384.997395 -60.9984 
L 369.53767 -59.7888 
L 354.077907 -58.82112 
L 338.618182 -57.85344 
L 323.158456 -56.40192 
L 307.698694 -56.40192 
L 292.238968 -53.49888 
L 276.779206 -53.01504 
L 261.319481 -52.5312 
z
" style="stroke: #9b2226"/>
    </defs>
    <g clip-path="url(#p8d19c672e0)">
     <use xlink:href="#meb62bcdb9f" x="0" y="345.6" style="fill: #9b2226; stroke: #9b2226"/>
    </g>
   </g>
   <g id="PolyCollection_7">
    <defs>
     <path id="mc610e6fcc5" d="M 261.319481 -53.49888 
L 261.319481 -52.5312 
L 276.779206 -53.01504 
L 292.238968 -53.49888 
L 307.698694 -56.40192 
L 323.158456 -56.40192 
L 338.618182 -57.85344 
L 354.077907 -58.82112 
L 369.53767 -59.7888 
L 384.997395 -60.9984 
L 400.457158 -62.44992 
L 415.916883 -64.14336 
L 431.376609 -64.38528 
L 446.836371 -65.35296 
L 462.296097 -67.28832 
L 477.755859 -68.49792 
L 493.215584 -71.15904 
L 508.67531 -72.36864 
L 524.135072 -73.0944 
L 539.594798 -74.78784 
L 555.05456 -78.65856 
L 570.514286 -79.1424 
L 585.974011 -83.73888 
L 601.433737 -85.1904 
L 616.893536 -87.85152 
L 632.353261 -90.0288 
L 647.812987 -91.48032 
L 663.272713 -93.41568 
L 678.732438 -95.59296 
L 694.192237 -97.04448 
L 709.651963 -97.52832 
L 725.111688 -98.73792 
L 740.571414 -99.94752 
L 756.031139 -100.9152 
L 771.490939 -101.64096 
L 786.950664 -104.544 
L 802.41039 -105.7536 
L 817.870115 -104.78592 
L 833.329841 -107.20512 
L 848.78964 -106.72128 
L 864.249365 -108.1728 
L 879.709091 -108.65664 
L 879.709091 -175.66848 
L 879.709091 -175.66848 
L 864.249365 -174.94272 
L 848.78964 -172.03968 
L 833.329841 -172.2816 
L 817.870115 -169.37856 
L 802.41039 -169.8624 
L 786.950664 -166.95936 
L 771.490939 -164.29824 
L 756.031139 -163.08864 
L 740.571414 -158.976 
L 725.111688 -156.79872 
L 709.651963 -154.86336 
L 694.192237 -153.41184 
L 678.732438 -151.23456 
L 663.272713 -146.39616 
L 647.812987 -142.76736 
L 632.353261 -139.86432 
L 616.893536 -136.96128 
L 601.433737 -134.05824 
L 585.974011 -129.9456 
L 570.514286 -123.8976 
L 555.05456 -120.2688 
L 539.594798 -114.70464 
L 524.135072 -110.592 
L 508.67531 -107.93088 
L 493.215584 -106.72128 
L 477.755859 -101.64096 
L 462.296097 -97.2864 
L 446.836371 -94.14144 
L 431.376609 -90.51264 
L 415.916883 -87.85152 
L 400.457158 -85.43232 
L 384.997395 -81.5616 
L 369.53767 -78.17472 
L 354.077907 -73.57824 
L 338.618182 -69.70752 
L 323.158456 -66.07872 
L 307.698694 -63.4176 
L 292.238968 -58.5792 
L 276.779206 -56.64384 
L 261.319481 -53.49888 
z
" style="stroke: #f08700"/>
    </defs>
    <g clip-path="url(#p8d19c672e0)">
     <use xlink:href="#mc610e6fcc5" x="0" y="345.6" style="fill: #f08700; stroke: #f08700"/>
    </g>
   </g>
   <g id="PolyCollection_8">
    <defs>
     <path id="mb40a238e55" d="M 261.319481 -55.67616 
L 261.319481 -53.49888 
L 276.779206 -56.64384 
L 292.238968 -58.5792 
L 307.698694 -63.4176 
L 323.158456 -66.07872 
L 338.618182 -69.70752 
L 354.077907 -73.57824 
L 369.53767 -78.17472 
L 384.997395 -81.5616 
L 400.457158 -85.43232 
L 415.916883 -87.85152 
L 431.376609 -90.51264 
L 446.836371 -94.14144 
L 462.296097 -97.2864 
L 477.755859 -101.64096 
L 493.215584 -106.72128 
L 508.67531 -107.93088 
L 524.135072 -110.592 
L 539.594798 -114.70464 
L 555.05456 -120.2688 
L 570.514286 -123.8976 
L 585.974011 -129.9456 
L 601.433737 -134.05824 
L 616.893536 -136.96128 
L 632.353261 -139.86432 
L 647.812987 -142.76736 
L 663.272713 -146.39616 
L 678.732438 -151.23456 
L 694.192237 -153.41184 
L 709.651963 -154.86336 
L 725.111688 -156.79872 
L 740.571414 -158.976 
L 756.031139 -163.08864 
L 771.490939 -164.29824 
L 786.950664 -166.95936 
L 802.41039 -169.8624 
L 817.870115 -169.37856 
L 833.329841 -172.2816 
L 848.78964 -172.03968 
L 864.249365 -174.94272 
L 879.709091 -175.66848 
L 879.709091 -248.4864 
L 879.709091 -248.4864 
L 864.249365 -246.79296 
L 848.78964 -243.648 
L 833.329841 -242.68032 
L 817.870115 -238.32576 
L 802.41039 -236.3904 
L 786.950664 -233.24544 
L 771.490939 -227.9232 
L 756.031139 -225.02016 
L 740.571414 -220.42368 
L 725.111688 -216.31104 
L 709.651963 -215.10144 
L 694.192237 -212.68224 
L 678.732438 -209.05344 
L 663.272713 -202.5216 
L 647.812987 -197.6832 
L 632.353261 -192.36096 
L 616.893536 -188.0064 
L 601.433737 -183.89376 
L 585.974011 -177.60384 
L 570.514286 -169.37856 
L 555.05456 -165.26592 
L 539.594798 -157.52448 
L 524.135072 -154.1376 
L 508.67531 -149.54112 
L 493.215584 -145.42848 
L 477.755859 -137.92896 
L 462.296097 -131.88096 
L 446.836371 -128.97792 
L 431.376609 -123.41376 
L 415.916883 -117.8496 
L 400.457158 -113.73696 
L 384.997395 -109.14048 
L 369.53767 -102.36672 
L 354.077907 -94.62528 
L 338.618182 -88.09344 
L 323.158456 -80.352 
L 307.698694 -74.54592 
L 292.238968 -65.35296 
L 276.779206 -61.24032 
L 261.319481 -55.67616 
z
" style="stroke: #023047"/>
    </defs>
    <g clip-path="url(#p8d19c672e0)">
     <use xlink:href="#mb40a238e55" x="0" y="345.6" style="fill: #023047; stroke: #023047"/>
    </g>
   </g>
   <g id="PolyCollection_9">
    <defs>
     <path id="m8182974a87" d="M 261.319481 -292.032 
L 261.319481 -55.67616 
L 276.779206 -61.24032 
L 292.238968 -65.35296 
L 307.698694 -74.54592 
L 323.158456 -80.352 
L 338.618182 -88.09344 
L 354.077907 -94.62528 
L 369.53767 -102.36672 
L 384.997395 -109.14048 
L 400.457158 -113.73696 
L 415.916883 -117.8496 
L 431.376609 -123.41376 
L 446.836371 -128.97792 
L 462.296097 -131.88096 
L 477.755859 -137.92896 
L 493.215584 -145.42848 
L 508.67531 -149.54112 
L 524.135072 -154.1376 
L 539.594798 -157.52448 
L 555.05456 -165.26592 
L 570.514286 -169.37856 
L 585.974011 -177.60384 
L 601.433737 -183.89376 
L 616.893536 -188.0064 
L 632.353261 -192.36096 
L 647.812987 -197.6832 
L 663.272713 -202.5216 
L 678.732438 -209.05344 
L 694.192237 -212.68224 
L 709.651963 -215.10144 
L 725.111688 -216.31104 
L 740.571414 -220.42368 
L 756.031139 -225.02016 
L 771.490939 -227.9232 
L 786.950664 -233.24544 
L 802.41039 -236.3904 
L 817.870115 -238.32576 
L 833.329841 -242.68032 
L 848.78964 -243.648 
L 864.249365 -246.79296 
L 879.709091 -248.4864 
L 879.709091 -292.032 
L 879.709091 -292.032 
L 864.249365 -292.032 
L 848.78964 -292.032 
L 833.329841 -292.032 
L 817.870115 -292.032 
L 802.41039 -292.032 
L 786.950664 -292.032 
L 771.490939 -292.032 
L 756.031139 -292.032 
L 740.571414 -292.032 
L 725.111688 -292.032 
L 709.651963 -292.032 
L 694.192237 -292.032 
L 678.732438 -292.032 
L 663.272713 -292.032 
L 647.812987 -292.032 
L 632.353261 -292.032 
L 616.893536 -292.032 
L 601.433737 -292.032 
L 585.974011 -292.032 
L 570.514286 -292.032 
L 555.05456 -292.032 
L 539.594798 -292.032 
L 524.135072 -292.032 
L 508.67531 -292.032 
L 493.215584 -292.032 
L 477.755859 -292.032 
L 462.296097 -292.032 
L 446.836371 -292.032 
L 431.376609 -292.032 
L 415.916883 -292.032 
L 400.457158 -292.032 
L 384.997395 -292.032 
L 369.53767 -292.032 
L 354.077907 -292.032 
L 338.618182 -292.032 
L 323.158456 -292.032 
L 307.698694 -292.032 
L 292.238968 -292.032 
L 276.779206 -292.032 
L 261.319481 -292.032 
z
" style="stroke: #f0efeb"/>
    </defs>
    <g clip-path="url(#p8d19c672e0)">
     <use xlink:href="#m8182974a87" x="0" y="345.6" style="fill: #f0efeb; stroke: #f0efeb"/>
    </g>
   </g>
   <g id="matplotlib.axis_1">
    <g id="xtick_1">
     <g id="line2d_1">
      <defs>
       <path id="mf8b7b3c0a9" d="M 0 0 
L 0 3.5 
" style="stroke: #000000; stroke-width: 0.8"/>
      </defs>
      <g>
       <use xlink:href="#mf8b7b3c0a9" x="261.319481" y="307.584" style="stroke: #000000; stroke-width: 0.8"/>
      </g>
     </g>
     <g id="text_1">
      <!-- 2.0 -->
      <g transform="translate(256.548543 319.143062) scale(0.06 -0.06)">
       <defs>
        <path id="DejaVuSans-32" d="M 1228 531 
L 3431 531 
L 3431 0 
L 469 0 
L 469 531 
Q 828 903 1448 1529 
Q 2069 2156 2228 2338 
Q 2531 2678 2651 2914 
Q 2772 3150 2772 3378 
Q 2772 3750 2511 3984 
Q 2250 4219 1831 4219 
Q 1534 4219 1204 4116 
Q 875 4013 500 3803 
L 500 4441 
Q 881 4594 1212 4672 
Q 1544 4750 1819 4750 
Q 2544 4750 2975 4387 
Q 3406 4025 3406 3419 
Q 3406 3131 3298 2873 
Q 3191 2616 2906 2266 
Q 2828 2175 2409 1742 
Q 1991 1309 1228 531 
z
" transform="scale(0.015625)"/>
        <path id="DejaVuSans-2e" d="M 684 794 
L 1344 794 
L 1344 0 
L 684 0 
L 684 794 
z
" transform="scale(0.015625)"/>
        <path id="DejaVuSans-30" d="M 2034 4250 
Q 1547 4250 1301 3770 
Q 1056 3291 1056 2328 
Q 1056 1369 1301 889 
Q 1547 409 2034 409 
Q 2525 409 2770 889 
Q 3016 1369 3016 2328 
Q 3016 3291 2770 3770 
Q 2525 4250 2034 4250 
z
M 2034 4750 
Q 2819 4750 3233 4129 
Q 3647 3509 3647 2328 
Q 3647 1150 3233 529 
Q 2819 -91 2034 -91 
Q 1250 -91 836 529 
Q 422 1150 422 2328 
Q 422 3509 836 4129 
Q 1250 4750 2034 4750 
z
" transform="scale(0.015625)"/>
       </defs>
       <use xlink:href="#DejaVuSans-32"/>
       <use xlink:href="#DejaVuSans-2e" x="63.623047"/>
       <use xlink:href="#DejaVuSans-30" x="95.410156"/>
      </g>
     </g>
    </g>
    <g id="xtick_2">
     <g id="line2d_2">
      <g>
       <use xlink:href="#mf8b7b3c0a9" x="338.618182" y="307.584" style="stroke: #000000; stroke-width: 0.8"/>
      </g>
     </g>
     <g id="text_2">
      <!-- 2.5 -->
      <g transform="translate(333.847244 319.143062) scale(0.06 -0.06)">
       <defs>
        <path id="DejaVuSans-35" d="M 691 4666 
L 3169 4666 
L 3169 4134 
L 1269 4134 
L 1269 2991 
Q 1406 3038 1543 3061 
Q 1681 3084 1819 3084 
Q 2600 3084 3056 2656 
Q 3513 2228 3513 1497 
Q 3513 744 3044 326 
Q 2575 -91 1722 -91 
Q 1428 -91 1123 -41 
Q 819 9 494 109 
L 494 744 
Q 775 591 1075 516 
Q 1375 441 1709 441 
Q 2250 441 2565 725 
Q 2881 1009 2881 1497 
Q 2881 1984 2565 2268 
Q 2250 2553 1709 2553 
Q 1456 2553 1204 2497 
Q 953 2441 691 2322 
L 691 4666 
z
" transform="scale(0.015625)"/>
       </defs>
       <use xlink:href="#DejaVuSans-32"/>
       <use xlink:href="#DejaVuSans-2e" x="63.623047"/>
       <use xlink:href="#DejaVuSans-35" x="95.410156"/>
      </g>
     </g>
    </g>
    <g id="xtick_3">
     <g id="line2d_3">
      <g>
       <use xlink:href="#mf8b7b3c0a9" x="415.916883" y="307.584" style="stroke: #000000; stroke-width: 0.8"/>
      </g>
     </g>
     <g id="text_3">
      <!-- 3.0 -->
      <g transform="translate(411.145946 319.143062) scale(0.06 -0.06)">
       <defs>
        <path id="DejaVuSans-33" d="M 2597 2516 
Q 3050 2419 3304 2112 
Q 3559 1806 3559 1356 
Q 3559 666 3084 287 
Q 2609 -91 1734 -91 
Q 1441 -91 1130 -33 
Q 819 25 488 141 
L 488 750 
Q 750 597 1062 519 
Q 1375 441 1716 441 
Q 2309 441 2620 675 
Q 2931 909 2931 1356 
Q 2931 1769 2642 2001 
Q 2353 2234 1838 2234 
L 1294 2234 
L 1294 2753 
L 1863 2753 
Q 2328 2753 2575 2939 
Q 2822 3125 2822 3475 
Q 2822 3834 2567 4026 
Q 2313 4219 1838 4219 
Q 1578 4219 1281 4162 
Q 984 4106 628 3988 
L 628 4550 
Q 988 4650 1302 4700 
Q 1616 4750 1894 4750 
Q 2613 4750 3031 4423 
Q 3450 4097 3450 3541 
Q 3450 3153 3228 2886 
Q 3006 2619 2597 2516 
z
" transform="scale(0.015625)"/>
       </defs>
       <use xlink:href="#DejaVuSans-33"/>
       <use xlink:href="#DejaVuSans-2e" x="63.623047"/>
       <use xlink:href="#DejaVuSans-30" x="95.410156"/>
      </g>
     </g>
    </g>
    <g id="xtick_4">
     <g id="line2d_4">
      <g>
       <use xlink:href="#mf8b7b3c0a9" x="493.215584" y="307.584" style="stroke: #000000; stroke-width: 0.8"/>
      </g>
     </g>
     <g id="text_4">
      <!-- 3.5 -->
      <g transform="translate(488.444647 319.143062) scale(0.06 -0.06)">
       <use xlink:href="#DejaVuSans-33"/>
       <use xlink:href="#DejaVuSans-2e" x="63.623047"/>
       <use xlink:href="#DejaVuSans-35" x="95.410156"/>
      </g>
     </g>
    </g>
    <g id="xtick_5">
     <g id="line2d_5">
      <g>
       <use xlink:href="#mf8b7b3c0a9" x="570.514286" y="307.584" style="stroke: #000000; stroke-width: 0.8"/>
      </g>
     </g>
     <g id="text_5">
      <!-- 4.0 -->
      <g transform="translate(565.743348 319.143062) scale(0.06 -0.06)">
       <defs>
        <path id="DejaVuSans-34" d="M 2419 4116 
L 825 1625 
L 2419 1625 
L 2419 4116 
z
M 2253 4666 
L 3047 4666 
L 3047 1625 
L 3713 1625 
L 3713 1100 
L 3047 1100 
L 3047 0 
L 2419 0 
L 2419 1100 
L 313 1100 
L 313 1709 
L 2253 4666 
z
" transform="scale(0.015625)"/>
       </defs>
       <use xlink:href="#DejaVuSans-34"/>
       <use xlink:href="#DejaVuSans-2e" x="63.623047"/>
       <use xlink:href="#DejaVuSans-30" x="95.410156"/>
      </g>
     </g>
    </g>
    <g id="xtick_6">
     <g id="line2d_6">
      <g>
       <use xlink:href="#mf8b7b3c0a9" x="647.812987" y="307.584" style="stroke: #000000; stroke-width: 0.8"/>
      </g>
     </g>
     <g id="text_6">
      <!-- 4.5 -->
      <g transform="translate(643.04205 319.143062) scale(0.06 -0.06)">
       <use xlink:href="#DejaVuSans-34"/>
       <use xlink:href="#DejaVuSans-2e" x="63.623047"/>
       <use xlink:href="#DejaVuSans-35" x="95.410156"/>
      </g>
     </g>
    </g>
    <g id="xtick_7">
     <g id="line2d_7">
      <g>
       <use xlink:href="#mf8b7b3c0a9" x="725.111688" y="307.584" style="stroke: #000000; stroke-width: 0.8"/>
      </g>
     </g>
     <g id="text_7">
      <!-- 5.0 -->
      <g transform="translate(720.340751 319.143062) scale(0.06 -0.06)">
       <use xlink:href="#DejaVuSans-35"/>
       <use xlink:href="#DejaVuSans-2e" x="63.623047"/>
       <use xlink:href="#DejaVuSans-30" x="95.410156"/>
      </g>
     </g>
    </g>
    <g id="xtick_8">
     <g id="line2d_8">
      <g>
       <use xlink:href="#mf8b7b3c0a9" x="802.41039" y="307.584" style="stroke: #000000; stroke-width: 0.8"/>
      </g>
     </g>
     <g id="text_8">
      <!-- 5.5 -->
      <g transform="translate(797.639452 319.143062) scale(0.06 -0.06)">
       <use xlink:href="#DejaVuSans-35"/>
       <use xlink:href="#DejaVuSans-2e" x="63.623047"/>
       <use xlink:href="#DejaVuSans-35" x="95.410156"/>
      </g>
     </g>
    </g>
    <g id="xtick_9">
     <g id="line2d_9">
      <g>
       <use xlink:href="#mf8b7b3c0a9" x="879.709091" y="307.584" style="stroke: #000000; stroke-width: 0.8"/>
      </g>
     </g>
     <g id="text_9">
      <!-- 6.0 -->
      <g transform="translate(874.938153 319.143062) scale(0.06 -0.06)">
       <defs>
        <path id="DejaVuSans-36" d="M 2113 2584 
Q 1688 2584 1439 2293 
Q 1191 2003 1191 1497 
Q 1191 994 1439 701 
Q 1688 409 2113 409 
Q 2538 409 2786 701 
Q 3034 994 3034 1497 
Q 3034 2003 2786 2293 
Q 2538 2584 2113 2584 
z
M 3366 4563 
L 3366 3988 
Q 3128 4100 2886 4159 
Q 2644 4219 2406 4219 
Q 1781 4219 1451 3797 
Q 1122 3375 1075 2522 
Q 1259 2794 1537 2939 
Q 1816 3084 2150 3084 
Q 2853 3084 3261 2657 
Q 3669 2231 3669 1497 
Q 3669 778 3244 343 
Q 2819 -91 2113 -91 
Q 1303 -91 875 529 
Q 447 1150 447 2328 
Q 447 3434 972 4092 
Q 1497 4750 2381 4750 
Q 2619 4750 2861 4703 
Q 3103 4656 3366 4563 
z
" transform="scale(0.015625)"/>
       </defs>
       <use xlink:href="#DejaVuSans-36"/>
       <use xlink:href="#DejaVuSans-2e" x="63.623047"/>
       <use xlink:href="#DejaVuSans-30" x="95.410156"/>
      </g>
     </g>
    </g>
   </g>
   <g id="matplotlib.axis_2">
    <g id="ytick_1">
     <g id="line2d_10">
      <defs>
       <path id="m11d0447641" d="M 0 0 
L -3.5 0 
" style="stroke: #000000; stroke-width: 0.8"/>
      </defs>
      <g>
       <use xlink:href="#m11d0447641" x="230.4" y="295.488" style="stroke: #000000; stroke-width: 0.8"/>
      </g>
     </g>
     <g id="text_10">
      <!-- 0 -->
      <g transform="translate(219.5825 297.767531) scale(0.06 -0.06)">
       <use xlink:href="#DejaVuSans-30"/>
      </g>
     </g>
    </g>
    <g id="ytick_2">
     <g id="line2d_11">
      <g>
       <use xlink:href="#m11d0447641" x="230.4" y="247.104" style="stroke: #000000; stroke-width: 0.8"/>
      </g>
     </g>
     <g id="text_11">
      <!-- 200 -->
      <g transform="translate(211.9475 249.383531) scale(0.06 -0.06)">
       <use xlink:href="#DejaVuSans-32"/>
       <use xlink:href="#DejaVuSans-30" x="63.623047"/>
       <use xlink:href="#DejaVuSans-30" x="127.246094"/>
      </g>
     </g>
    </g>
    <g id="ytick_3">
     <g id="line2d_12">
      <g>
       <use xlink:href="#m11d0447641" x="230.4" y="198.72" style="stroke: #000000; stroke-width: 0.8"/>
      </g>
     </g>
     <g id="text_12">
      <!-- 400 -->
      <g transform="translate(211.9475 200.999531) scale(0.06 -0.06)">
       <use xlink:href="#DejaVuSans-34"/>
       <use xlink:href="#DejaVuSans-30" x="63.623047"/>
       <use xlink:href="#DejaVuSans-30" x="127.246094"/>
      </g>
     </g>
    </g>
    <g id="ytick_4">
     <g id="line2d_13">
      <g>
       <use xlink:href="#m11d0447641" x="230.4" y="150.336" style="stroke: #000000; stroke-width: 0.8"/>
      </g>
     </g>
     <g id="text_13">
      <!-- 600 -->
      <g transform="translate(211.9475 152.615531) scale(0.06 -0.06)">
       <use xlink:href="#DejaVuSans-36"/>
       <use xlink:href="#DejaVuSans-30" x="63.623047"/>
       <use xlink:href="#DejaVuSans-30" x="127.246094"/>
      </g>
     </g>
    </g>
    <g id="ytick_5">
     <g id="line2d_14">
      <g>
       <use xlink:href="#m11d0447641" x="230.4" y="101.952" style="stroke: #000000; stroke-width: 0.8"/>
      </g>
     </g>
     <g id="text_14">
      <!-- 800 -->
      <g transform="translate(211.9475 104.231531) scale(0.06 -0.06)">
       <defs>
        <path id="DejaVuSans-38" d="M 2034 2216 
Q 1584 2216 1326 1975 
Q 1069 1734 1069 1313 
Q 1069 891 1326 650 
Q 1584 409 2034 409 
Q 2484 409 2743 651 
Q 3003 894 3003 1313 
Q 3003 1734 2745 1975 
Q 2488 2216 2034 2216 
z
M 1403 2484 
Q 997 2584 770 2862 
Q 544 3141 544 3541 
Q 544 4100 942 4425 
Q 1341 4750 2034 4750 
Q 2731 4750 3128 4425 
Q 3525 4100 3525 3541 
Q 3525 3141 3298 2862 
Q 3072 2584 2669 2484 
Q 3125 2378 3379 2068 
Q 3634 1759 3634 1313 
Q 3634 634 3220 271 
Q 2806 -91 2034 -91 
Q 1263 -91 848 271 
Q 434 634 434 1313 
Q 434 1759 690 2068 
Q 947 2378 1403 2484 
z
M 1172 3481 
Q 1172 3119 1398 2916 
Q 1625 2713 2034 2713 
Q 2441 2713 2670 2916 
Q 2900 3119 2900 3481 
Q 2900 3844 2670 4047 
Q 2441 4250 2034 4250 
Q 1625 4250 1398 4047 
Q 1172 3844 1172 3481 
z
" transform="scale(0.015625)"/>
       </defs>
       <use xlink:href="#DejaVuSans-38"/>
       <use xlink:href="#DejaVuSans-30" x="63.623047"/>
       <use xlink:href="#DejaVuSans-30" x="127.246094"/>
      </g>
     </g>
    </g>
    <g id="ytick_6">
     <g id="line2d_15">
      <g>
       <use xlink:href="#m11d0447641" x="230.4" y="53.568" style="stroke: #000000; stroke-width: 0.8"/>
      </g>
     </g>
     <g id="text_15">
      <!-- 1000 -->
      <g transform="translate(208.13 55.847531) scale(0.06 -0.06)">
       <defs>
        <path id="DejaVuSans-31" d="M 794 531 
L 1825 531 
L 1825 4091 
L 703 3866 
L 703 4441 
L 1819 4666 
L 2450 4666 
L 2450 531 
L 3481 531 
L 3481 0 
L 794 0 
L 794 531 
z
" transform="scale(0.015625)"/>
       </defs>
       <use xlink:href="#DejaVuSans-31"/>
       <use xlink:href="#DejaVuSans-30" x="63.623047"/>
       <use xlink:href="#DejaVuSans-30" x="127.246094"/>
       <use xlink:href="#DejaVuSans-30" x="190.869141"/>
      </g>
     </g>
    </g>
   </g>
   <g id="patch_3">
    <path d="M 230.4 307.584 
L 230.4 41.472 
" style="fill: none; stroke: #000000; stroke-width: 0.8; stroke-linejoin: miter; stroke-linecap: square"/>
   </g>
   <g id="patch_4">
    <path d="M 910.628571 307.584 
L 910.628571 41.472 
" style="fill: none; stroke: #000000; stroke-width: 0.8; stroke-linejoin: miter; stroke-linecap: square"/>
   </g>
   <g id="patch_5">
    <path d="M 230.4 307.584 
L 910.628571 307.584 
" style="fill: none; stroke: #000000; stroke-width: 0.8; stroke-linejoin: miter; stroke-linecap: square"/>
   </g>
   <g id="patch_6">
    <path d="M 230.4 41.472 
L 910.628571 41.472 
" style="fill: none; stroke: #000000; stroke-width: 0.8; stroke-linejoin: miter; stroke-linecap: square"/>
   </g>
   <g id="text_16">
    <!-- Unperturbed -->
    <g transform="translate(538.770536 35.472) scale(0.1 -0.1)">
     <defs>
      <path id="DejaVuSans-55" d="M 556 4666 
L 1191 4666 
L 1191 1831 
Q 1191 1081 1462 751 
Q 1734 422 2344 422 
Q 2950 422 3222 751 
Q 3494 1081 3494 1831 
L 3494 4666 
L 4128 4666 
L 4128 1753 
Q 4128 841 3676 375 
Q 3225 -91 2344 -91 
Q 1459 -91 1007 375 
Q 556 841 556 1753 
L 556 4666 
z
" transform="scale(0.015625)"/>
      <path id="DejaVuSans-6e" d="M 3513 2113 
L 3513 0 
L 2938 0 
L 2938 2094 
Q 2938 2591 2744 2837 
Q 2550 3084 2163 3084 
Q 1697 3084 1428 2787 
Q 1159 2491 1159 1978 
L 1159 0 
L 581 0 
L 581 3500 
L 1159 3500 
L 1159 2956 
Q 1366 3272 1645 3428 
Q 1925 3584 2291 3584 
Q 2894 3584 3203 3211 
Q 3513 2838 3513 2113 
z
" transform="scale(0.015625)"/>
      <path id="DejaVuSans-70" d="M 1159 525 
L 1159 -1331 
L 581 -1331 
L 581 3500 
L 1159 3500 
L 1159 2969 
Q 1341 3281 1617 3432 
Q 1894 3584 2278 3584 
Q 2916 3584 3314 3078 
Q 3713 2572 3713 1747 
Q 3713 922 3314 415 
Q 2916 -91 2278 -91 
Q 1894 -91 1617 61 
Q 1341 213 1159 525 
z
M 3116 1747 
Q 3116 2381 2855 2742 
Q 2594 3103 2138 3103 
Q 1681 3103 1420 2742 
Q 1159 2381 1159 1747 
Q 1159 1113 1420 752 
Q 1681 391 2138 391 
Q 2594 391 2855 752 
Q 3116 1113 3116 1747 
z
" transform="scale(0.015625)"/>
      <path id="DejaVuSans-65" d="M 3597 1894 
L 3597 1613 
L 953 1613 
Q 991 1019 1311 708 
Q 1631 397 2203 397 
Q 2534 397 2845 478 
Q 3156 559 3463 722 
L 3463 178 
Q 3153 47 2828 -22 
Q 2503 -91 2169 -91 
Q 1331 -91 842 396 
Q 353 884 353 1716 
Q 353 2575 817 3079 
Q 1281 3584 2069 3584 
Q 2775 3584 3186 3129 
Q 3597 2675 3597 1894 
z
M 3022 2063 
Q 3016 2534 2758 2815 
Q 2500 3097 2075 3097 
Q 1594 3097 1305 2825 
Q 1016 2553 972 2059 
L 3022 2063 
z
" transform="scale(0.015625)"/>
      <path id="DejaVuSans-72" d="M 2631 2963 
Q 2534 3019 2420 3045 
Q 2306 3072 2169 3072 
Q 1681 3072 1420 2755 
Q 1159 2438 1159 1844 
L 1159 0 
L 581 0 
L 581 3500 
L 1159 3500 
L 1159 2956 
Q 1341 3275 1631 3429 
Q 1922 3584 2338 3584 
Q 2397 3584 2469 3576 
Q 2541 3569 2628 3553 
L 2631 2963 
z
" transform="scale(0.015625)"/>
      <path id="DejaVuSans-74" d="M 1172 4494 
L 1172 3500 
L 2356 3500 
L 2356 3053 
L 1172 3053 
L 1172 1153 
Q 1172 725 1289 603 
Q 1406 481 1766 481 
L 2356 481 
L 2356 0 
L 1766 0 
Q 1100 0 847 248 
Q 594 497 594 1153 
L 594 3053 
L 172 3053 
L 172 3500 
L 594 3500 
L 594 4494 
L 1172 4494 
z
" transform="scale(0.015625)"/>
      <path id="DejaVuSans-75" d="M 544 1381 
L 544 3500 
L 1119 3500 
L 1119 1403 
Q 1119 906 1312 657 
Q 1506 409 1894 409 
Q 2359 409 2629 706 
Q 2900 1003 2900 1516 
L 2900 3500 
L 3475 3500 
L 3475 0 
L 2900 0 
L 2900 538 
Q 2691 219 2414 64 
Q 2138 -91 1772 -91 
Q 1169 -91 856 284 
Q 544 659 544 1381 
z
M 1991 3584 
L 1991 3584 
z
" transform="scale(0.015625)"/>
      <path id="DejaVuSans-62" d="M 3116 1747 
Q 3116 2381 2855 2742 
Q 2594 3103 2138 3103 
Q 1681 3103 1420 2742 
Q 1159 2381 1159 1747 
Q 1159 1113 1420 752 
Q 1681 391 2138 391 
Q 2594 391 2855 752 
Q 3116 1113 3116 1747 
z
M 1159 2969 
Q 1341 3281 1617 3432 
Q 1894 3584 2278 3584 
Q 2916 3584 3314 3078 
Q 3713 2572 3713 1747 
Q 3713 922 3314 415 
Q 2916 -91 2278 -91 
Q 1894 -91 1617 61 
Q 1341 213 1159 525 
L 1159 0 
L 581 0 
L 581 4863 
L 1159 4863 
L 1159 2969 
z
" transform="scale(0.015625)"/>
      <path id="DejaVuSans-64" d="M 2906 2969 
L 2906 4863 
L 3481 4863 
L 3481 0 
L 2906 0 
L 2906 525 
Q 2725 213 2448 61 
Q 2172 -91 1784 -91 
Q 1150 -91 751 415 
Q 353 922 353 1747 
Q 353 2572 751 3078 
Q 1150 3584 1784 3584 
Q 2172 3584 2448 3432 
Q 2725 3281 2906 2969 
z
M 947 1747 
Q 947 1113 1208 752 
Q 1469 391 1925 391 
Q 2381 391 2643 752 
Q 2906 1113 2906 1747 
Q 2906 2381 2643 2742 
Q 2381 3103 1925 3103 
Q 1469 3103 1208 2742 
Q 947 2381 947 1747 
z
" transform="scale(0.015625)"/>
     </defs>
     <use xlink:href="#DejaVuSans-55"/>
     <use xlink:href="#DejaVuSans-6e" x="73.193359"/>
     <use xlink:href="#DejaVuSans-70" x="136.572266"/>
     <use xlink:href="#DejaVuSans-65" x="200.048828"/>
     <use xlink:href="#DejaVuSans-72" x="261.572266"/>
     <use xlink:href="#DejaVuSans-74" x="302.685547"/>
     <use xlink:href="#DejaVuSans-75" x="341.894531"/>
     <use xlink:href="#DejaVuSans-72" x="405.273438"/>
     <use xlink:href="#DejaVuSans-62" x="446.386719"/>
     <use xlink:href="#DejaVuSans-65" x="509.863281"/>
     <use xlink:href="#DejaVuSans-64" x="571.386719"/>
    </g>
   </g>
  </g>
  <g id="axes_2">
   <g id="patch_7">
    <path d="M 978.651429 307.584 
L 1658.88 307.584 
L 1658.88 41.472 
L 978.651429 41.472 
z
" style="fill: #ffffff"/>
   </g>
   <g id="PolyCollection_10">
    <defs>
     <path id="m339a4f3a41" d="M 1009.570909 -51.07968 
L 1009.570909 -50.112 
L 1025.030635 -50.112 
L 1040.490397 -50.112 
L 1055.950122 -50.112 
L 1071.409885 -50.112 
L 1086.86961 -50.112 
L 1102.329336 -50.112 
L 1117.789098 -50.112 
L 1133.248824 -50.112 
L 1148.708586 -50.112 
L 1164.168312 -50.112 
L 1179.628037 -50.112 
L 1195.0878 -50.112 
L 1210.547525 -50.112 
L 1226.007287 -50.112 
L 1241.467013 -50.112 
L 1256.926739 -50.112 
L 1272.386501 -50.112 
L 1287.846226 -50.112 
L 1303.305989 -50.112 
L 1318.765714 -50.112 
L 1334.22544 -50.112 
L 1349.685165 -50.112 
L 1365.144965 -50.112 
L 1380.60469 -50.112 
L 1396.064416 -50.112 
L 1411.524141 -50.112 
L 1426.983867 -50.112 
L 1442.443666 -50.112 
L 1457.903391 -50.112 
L 1473.363117 -50.112 
L 1488.822842 -50.112 
L 1504.282568 -50.112 
L 1519.742367 -50.112 
L 1535.202093 -50.112 
L 1550.661818 -50.112 
L 1566.121544 -50.112 
L 1581.581269 -50.112 
L 1597.041068 -50.112 
L 1612.500794 -50.112 
L 1627.960519 -50.112 
L 1627.960519 -68.73984 
L 1627.960519 -68.73984 
L 1612.500794 -68.256 
L 1597.041068 -67.28832 
L 1581.581269 -67.0464 
L 1566.121544 -66.32064 
L 1550.661818 -66.32064 
L 1535.202093 -65.8368 
L 1519.742367 -65.8368 
L 1504.282568 -65.35296 
L 1488.822842 -65.11104 
L 1473.363117 -63.90144 
L 1457.903391 -63.65952 
L 1442.443666 -62.69184 
L 1426.983867 -62.44992 
L 1411.524141 -61.24032 
L 1396.064416 -60.9984 
L 1380.60469 -60.51456 
L 1365.144965 -60.75648 
L 1349.685165 -60.03072 
L 1334.22544 -59.7888 
L 1318.765714 -59.30496 
L 1303.305989 -59.30496 
L 1287.846226 -58.33728 
L 1272.386501 -57.3696 
L 1256.926739 -56.88576 
L 1241.467013 -57.12768 
L 1226.007287 -56.88576 
L 1210.547525 -55.67616 
L 1195.0878 -55.67616 
L 1179.628037 -55.43424 
L 1164.168312 -55.19232 
L 1148.708586 -54.22464 
L 1133.248824 -53.98272 
L 1117.789098 -53.49888 
L 1102.329336 -52.77312 
L 1086.86961 -52.04736 
L 1071.409885 -51.56352 
L 1055.950122 -51.3216 
L 1040.490397 -51.07968 
L 1025.030635 -51.07968 
L 1009.570909 -51.07968 
z
" style="stroke: #0a9396"/>
    </defs>
    <g clip-path="url(#p4ef35b62ff)">
     <use xlink:href="#m339a4f3a41" x="0" y="345.6" style="fill: #0a9396; stroke: #0a9396"/>
    </g>
   </g>
   <g id="PolyCollection_11">
    <defs>
     <path id="md8cd67760c" d="M 1009.570909 -51.3216 
L 1009.570909 -51.07968 
L 1025.030635 -51.07968 
L 1040.490397 -51.07968 
L 1055.950122 -51.3216 
L 1071.409885 -51.56352 
L 1086.86961 -52.04736 
L 1102.329336 -52.77312 
L 1117.789098 -53.49888 
L 1133.248824 -53.98272 
L 1148.708586 -54.22464 
L 1164.168312 -55.19232 
L 1179.628037 -55.43424 
L 1195.0878 -55.67616 
L 1210.547525 -55.67616 
L 1226.007287 -56.88576 
L 1241.467013 -57.12768 
L 1256.926739 -56.88576 
L 1272.386501 -57.3696 
L 1287.846226 -58.33728 
L 1303.305989 -59.30496 
L 1318.765714 -59.30496 
L 1334.22544 -59.7888 
L 1349.685165 -60.03072 
L 1365.144965 -60.75648 
L 1380.60469 -60.51456 
L 1396.064416 -60.9984 
L 1411.524141 -61.24032 
L 1426.983867 -62.44992 
L 1442.443666 -62.69184 
L 1457.903391 -63.65952 
L 1473.363117 -63.90144 
L 1488.822842 -65.11104 
L 1504.282568 -65.35296 
L 1519.742367 -65.8368 
L 1535.202093 -65.8368 
L 1550.661818 -66.32064 
L 1566.121544 -66.32064 
L 1581.581269 -67.0464 
L 1597.041068 -67.28832 
L 1612.500794 -68.256 
L 1627.960519 -68.73984 
L 1627.960519 -68.73984 
L 1627.960519 -68.73984 
L 1612.500794 -68.256 
L 1597.041068 -67.28832 
L 1581.581269 -67.0464 
L 1566.121544 -66.32064 
L 1550.661818 -66.32064 
L 1535.202093 -65.8368 
L 1519.742367 -66.07872 
L 1504.282568 -65.59488 
L 1488.822842 -65.35296 
L 1473.363117 -64.14336 
L 1457.903391 -63.90144 
L 1442.443666 -62.93376 
L 1426.983867 -62.69184 
L 1411.524141 -61.48224 
L 1396.064416 -61.24032 
L 1380.60469 -60.75648 
L 1365.144965 -60.9984 
L 1349.685165 -60.27264 
L 1334.22544 -60.03072 
L 1318.765714 -59.54688 
L 1303.305989 -59.54688 
L 1287.846226 -58.5792 
L 1272.386501 -57.85344 
L 1256.926739 -57.3696 
L 1241.467013 -57.61152 
L 1226.007287 -57.12768 
L 1210.547525 -55.91808 
L 1195.0878 -55.91808 
L 1179.628037 -55.67616 
L 1164.168312 -55.67616 
L 1148.708586 -54.46656 
L 1133.248824 -54.46656 
L 1117.789098 -53.49888 
L 1102.329336 -53.01504 
L 1086.86961 -52.28928 
L 1071.409885 -51.80544 
L 1055.950122 -51.3216 
L 1040.490397 -51.07968 
L 1025.030635 -51.3216 
L 1009.570909 -51.3216 
z
" style="stroke: #005f73"/>
    </defs>
    <g clip-path="url(#p4ef35b62ff)">
     <use xlink:href="#md8cd67760c" x="0" y="345.6" style="fill: #005f73; stroke: #005f73"/>
    </g>
   </g>
   <g id="PolyCollection_12">
    <defs>
     <path id="mc220ea1cf7" d="M 1009.570909 -51.3216 
L 1009.570909 -51.3216 
L 1025.030635 -51.3216 
L 1040.490397 -51.07968 
L 1055.950122 -51.3216 
L 1071.409885 -51.80544 
L 1086.86961 -52.28928 
L 1102.329336 -53.01504 
L 1117.789098 -53.49888 
L 1133.248824 -54.46656 
L 1148.708586 -54.46656 
L 1164.168312 -55.67616 
L 1179.628037 -55.67616 
L 1195.0878 -55.91808 
L 1210.547525 -55.91808 
L 1226.007287 -57.12768 
L 1241.467013 -57.61152 
L 1256.926739 -57.3696 
L 1272.386501 -57.85344 
L 1287.846226 -58.5792 
L 1303.305989 -59.54688 
L 1318.765714 -59.54688 
L 1334.22544 -60.03072 
L 1349.685165 -60.27264 
L 1365.144965 -60.9984 
L 1380.60469 -60.75648 
L 1396.064416 -61.24032 
L 1411.524141 -61.48224 
L 1426.983867 -62.69184 
L 1442.443666 -62.93376 
L 1457.903391 -63.90144 
L 1473.363117 -64.14336 
L 1488.822842 -65.35296 
L 1504.282568 -65.59488 
L 1519.742367 -66.07872 
L 1535.202093 -65.8368 
L 1550.661818 -66.32064 
L 1566.121544 -66.32064 
L 1581.581269 -67.0464 
L 1597.041068 -67.28832 
L 1612.500794 -68.256 
L 1627.960519 -68.73984 
L 1627.960519 -68.73984 
L 1627.960519 -68.73984 
L 1612.500794 -68.256 
L 1597.041068 -67.28832 
L 1581.581269 -67.0464 
L 1566.121544 -66.32064 
L 1550.661818 -66.32064 
L 1535.202093 -65.8368 
L 1519.742367 -66.56256 
L 1504.282568 -66.07872 
L 1488.822842 -65.8368 
L 1473.363117 -64.6272 
L 1457.903391 -64.38528 
L 1442.443666 -63.17568 
L 1426.983867 -63.17568 
L 1411.524141 -62.44992 
L 1396.064416 -62.208 
L 1380.60469 -61.96608 
L 1365.144965 -61.72416 
L 1349.685165 -60.75648 
L 1334.22544 -60.9984 
L 1318.765714 -60.27264 
L 1303.305989 -60.51456 
L 1287.846226 -59.54688 
L 1272.386501 -59.06304 
L 1256.926739 -58.5792 
L 1241.467013 -58.82112 
L 1226.007287 -58.33728 
L 1210.547525 -57.12768 
L 1195.0878 -57.3696 
L 1179.628037 -56.88576 
L 1164.168312 -57.12768 
L 1148.708586 -55.43424 
L 1133.248824 -55.67616 
L 1117.789098 -54.70848 
L 1102.329336 -54.22464 
L 1086.86961 -53.01504 
L 1071.409885 -52.28928 
L 1055.950122 -51.56352 
L 1040.490397 -51.3216 
L 1025.030635 -51.56352 
L 1009.570909 -51.3216 
z
" style="stroke: #ee9b00"/>
    </defs>
    <g clip-path="url(#p4ef35b62ff)">
     <use xlink:href="#mc220ea1cf7" x="0" y="345.6" style="fill: #ee9b00; stroke: #ee9b00"/>
    </g>
   </g>
   <g id="PolyCollection_13">
    <defs>
     <path id="m018ea4e25e" d="M 1009.570909 -51.3216 
L 1009.570909 -51.3216 
L 1025.030635 -51.56352 
L 1040.490397 -51.3216 
L 1055.950122 -51.56352 
L 1071.409885 -52.28928 
L 1086.86961 -53.01504 
L 1102.329336 -54.22464 
L 1117.789098 -54.70848 
L 1133.248824 -55.67616 
L 1148.708586 -55.43424 
L 1164.168312 -57.12768 
L 1179.628037 -56.88576 
L 1195.0878 -57.3696 
L 1210.547525 -57.12768 
L 1226.007287 -58.33728 
L 1241.467013 -58.82112 
L 1256.926739 -58.5792 
L 1272.386501 -59.06304 
L 1287.846226 -59.54688 
L 1303.305989 -60.51456 
L 1318.765714 -60.27264 
L 1334.22544 -60.9984 
L 1349.685165 -60.75648 
L 1365.144965 -61.72416 
L 1380.60469 -61.96608 
L 1396.064416 -62.208 
L 1411.524141 -62.44992 
L 1426.983867 -63.17568 
L 1442.443666 -63.17568 
L 1457.903391 -64.38528 
L 1473.363117 -64.6272 
L 1488.822842 -65.8368 
L 1504.282568 -66.07872 
L 1519.742367 -66.56256 
L 1535.202093 -65.8368 
L 1550.661818 -66.32064 
L 1566.121544 -66.32064 
L 1581.581269 -67.0464 
L 1597.041068 -67.28832 
L 1612.500794 -68.256 
L 1627.960519 -68.73984 
L 1627.960519 -84.94848 
L 1627.960519 -84.94848 
L 1612.500794 -84.22272 
L 1597.041068 -83.49696 
L 1581.581269 -82.52928 
L 1566.121544 -81.80352 
L 1550.661818 -81.5616 
L 1535.202093 -81.07776 
L 1519.742367 -81.80352 
L 1504.282568 -80.59392 
L 1488.822842 -80.59392 
L 1473.363117 -78.65856 
L 1457.903391 -77.20704 
L 1442.443666 -76.23936 
L 1426.983867 -75.75552 
L 1411.524141 -74.304 
L 1396.064416 -73.0944 
L 1380.60469 -72.61056 
L 1365.144965 -71.8848 
L 1349.685165 -70.6752 
L 1334.22544 -70.91712 
L 1318.765714 -68.49792 
L 1303.305989 -68.01408 
L 1287.846226 -66.80448 
L 1272.386501 -65.35296 
L 1256.926739 -64.14336 
L 1241.467013 -64.14336 
L 1226.007287 -63.17568 
L 1210.547525 -61.24032 
L 1195.0878 -60.75648 
L 1179.628037 -59.30496 
L 1164.168312 -59.54688 
L 1148.708586 -57.3696 
L 1133.248824 -57.61152 
L 1117.789098 -56.40192 
L 1102.329336 -55.91808 
L 1086.86961 -54.46656 
L 1071.409885 -53.49888 
L 1055.950122 -52.77312 
L 1040.490397 -52.04736 
L 1025.030635 -52.04736 
L 1009.570909 -51.3216 
z
" style="stroke: #94d2bd"/>
    </defs>
    <g clip-path="url(#p4ef35b62ff)">
     <use xlink:href="#m018ea4e25e" x="0" y="345.6" style="fill: #94d2bd; stroke: #94d2bd"/>
    </g>
   </g>
   <g id="PolyCollection_14">
    <defs>
     <path id="m9827934fde" d="M 1009.570909 -51.56352 
L 1009.570909 -51.3216 
L 1025.030635 -52.04736 
L 1040.490397 -52.04736 
L 1055.950122 -52.77312 
L 1071.409885 -53.49888 
L 1086.86961 -54.46656 
L 1102.329336 -55.91808 
L 1117.789098 -56.40192 
L 1133.248824 -57.61152 
L 1148.708586 -57.3696 
L 1164.168312 -59.54688 
L 1179.628037 -59.30496 
L 1195.0878 -60.75648 
L 1210.547525 -61.24032 
L 1226.007287 -63.17568 
L 1241.467013 -64.14336 
L 1256.926739 -64.14336 
L 1272.386501 -65.35296 
L 1287.846226 -66.80448 
L 1303.305989 -68.01408 
L 1318.765714 -68.49792 
L 1334.22544 -70.91712 
L 1349.685165 -70.6752 
L 1365.144965 -71.8848 
L 1380.60469 -72.61056 
L 1396.064416 -73.0944 
L 1411.524141 -74.304 
L 1426.983867 -75.75552 
L 1442.443666 -76.23936 
L 1457.903391 -77.20704 
L 1473.363117 -78.65856 
L 1488.822842 -80.59392 
L 1504.282568 -80.59392 
L 1519.742367 -81.80352 
L 1535.202093 -81.07776 
L 1550.661818 -81.5616 
L 1566.121544 -81.80352 
L 1581.581269 -82.52928 
L 1597.041068 -83.49696 
L 1612.500794 -84.22272 
L 1627.960519 -84.94848 
L 1627.960519 -98.97984 
L 1627.960519 -98.97984 
L 1612.500794 -97.77024 
L 1597.041068 -97.2864 
L 1581.581269 -95.83488 
L 1566.121544 -95.10912 
L 1550.661818 -94.62528 
L 1535.202093 -94.38336 
L 1519.742367 -94.38336 
L 1504.282568 -93.6576 
L 1488.822842 -93.41568 
L 1473.363117 -91.48032 
L 1457.903391 -89.30304 
L 1442.443666 -88.33536 
L 1426.983867 -87.6096 
L 1411.524141 -85.67424 
L 1396.064416 -84.22272 
L 1380.60469 -83.49696 
L 1365.144965 -82.52928 
L 1349.685165 -80.83584 
L 1334.22544 -80.352 
L 1318.765714 -76.7232 
L 1303.305989 -76.48128 
L 1287.846226 -74.54592 
L 1272.386501 -73.33632 
L 1256.926739 -71.15904 
L 1241.467013 -71.64288 
L 1226.007287 -70.19136 
L 1210.547525 -67.77216 
L 1195.0878 -66.80448 
L 1179.628037 -65.35296 
L 1164.168312 -64.86912 
L 1148.708586 -62.69184 
L 1133.248824 -61.24032 
L 1117.789098 -59.06304 
L 1102.329336 -58.33728 
L 1086.86961 -56.88576 
L 1071.409885 -55.19232 
L 1055.950122 -53.98272 
L 1040.490397 -52.5312 
L 1025.030635 -52.28928 
L 1009.570909 -51.56352 
z
" style="stroke: #9b2226"/>
    </defs>
    <g clip-path="url(#p4ef35b62ff)">
     <use xlink:href="#m9827934fde" x="0" y="345.6" style="fill: #9b2226; stroke: #9b2226"/>
    </g>
   </g>
   <g id="PolyCollection_15">
    <defs>
     <path id="m6840b0fb9c" d="M 1009.570909 -53.25696 
L 1009.570909 -51.56352 
L 1025.030635 -52.28928 
L 1040.490397 -52.5312 
L 1055.950122 -53.98272 
L 1071.409885 -55.19232 
L 1086.86961 -56.88576 
L 1102.329336 -58.33728 
L 1117.789098 -59.06304 
L 1133.248824 -61.24032 
L 1148.708586 -62.69184 
L 1164.168312 -64.86912 
L 1179.628037 -65.35296 
L 1195.0878 -66.80448 
L 1210.547525 -67.77216 
L 1226.007287 -70.19136 
L 1241.467013 -71.64288 
L 1256.926739 -71.15904 
L 1272.386501 -73.33632 
L 1287.846226 -74.54592 
L 1303.305989 -76.48128 
L 1318.765714 -76.7232 
L 1334.22544 -80.352 
L 1349.685165 -80.83584 
L 1365.144965 -82.52928 
L 1380.60469 -83.49696 
L 1396.064416 -84.22272 
L 1411.524141 -85.67424 
L 1426.983867 -87.6096 
L 1442.443666 -88.33536 
L 1457.903391 -89.30304 
L 1473.363117 -91.48032 
L 1488.822842 -93.41568 
L 1504.282568 -93.6576 
L 1519.742367 -94.38336 
L 1535.202093 -94.38336 
L 1550.661818 -94.62528 
L 1566.121544 -95.10912 
L 1581.581269 -95.83488 
L 1597.041068 -97.2864 
L 1612.500794 -97.77024 
L 1627.960519 -98.97984 
L 1627.960519 -137.44512 
L 1627.960519 -137.44512 
L 1612.500794 -135.9936 
L 1597.041068 -135.02592 
L 1581.581269 -133.33248 
L 1566.121544 -133.09056 
L 1550.661818 -131.1552 
L 1535.202093 -131.39712 
L 1519.742367 -130.18752 
L 1504.282568 -128.736 
L 1488.822842 -127.04256 
L 1473.363117 -124.62336 
L 1457.903391 -121.72032 
L 1442.443666 -119.78496 
L 1426.983867 -118.81728 
L 1411.524141 -116.39808 
L 1396.064416 -114.70464 
L 1380.60469 -112.52736 
L 1365.144965 -110.592 
L 1349.685165 -108.41472 
L 1334.22544 -107.20512 
L 1318.765714 -102.36672 
L 1303.305989 -101.39904 
L 1287.846226 -99.7056 
L 1272.386501 -97.2864 
L 1256.926739 -94.62528 
L 1241.467013 -94.38336 
L 1226.007287 -91.48032 
L 1210.547525 -88.33536 
L 1195.0878 -85.67424 
L 1179.628037 -83.9808 
L 1164.168312 -82.28736 
L 1148.708586 -77.69088 
L 1133.248824 -74.78784 
L 1117.789098 -71.8848 
L 1102.329336 -69.22368 
L 1086.86961 -67.0464 
L 1071.409885 -62.93376 
L 1055.950122 -59.54688 
L 1040.490397 -57.3696 
L 1025.030635 -55.67616 
L 1009.570909 -53.25696 
z
" style="stroke: #f08700"/>
    </defs>
    <g clip-path="url(#p4ef35b62ff)">
     <use xlink:href="#m6840b0fb9c" x="0" y="345.6" style="fill: #f08700; stroke: #f08700"/>
    </g>
   </g>
   <g id="PolyCollection_16">
    <defs>
     <path id="me64f5ae2c3" d="M 1009.570909 -65.8368 
L 1009.570909 -53.25696 
L 1025.030635 -55.67616 
L 1040.490397 -57.3696 
L 1055.950122 -59.54688 
L 1071.409885 -62.93376 
L 1086.86961 -67.0464 
L 1102.329336 -69.22368 
L 1117.789098 -71.8848 
L 1133.248824 -74.78784 
L 1148.708586 -77.69088 
L 1164.168312 -82.28736 
L 1179.628037 -83.9808 
L 1195.0878 -85.67424 
L 1210.547525 -88.33536 
L 1226.007287 -91.48032 
L 1241.467013 -94.38336 
L 1256.926739 -94.62528 
L 1272.386501 -97.2864 
L 1287.846226 -99.7056 
L 1303.305989 -101.39904 
L 1318.765714 -102.36672 
L 1334.22544 -107.20512 
L 1349.685165 -108.41472 
L 1365.144965 -110.592 
L 1380.60469 -112.52736 
L 1396.064416 -114.70464 
L 1411.524141 -116.39808 
L 1426.983867 -118.81728 
L 1442.443666 -119.78496 
L 1457.903391 -121.72032 
L 1473.363117 -124.62336 
L 1488.822842 -127.04256 
L 1504.282568 -128.736 
L 1519.742367 -130.18752 
L 1535.202093 -131.39712 
L 1550.661818 -131.1552 
L 1566.121544 -133.09056 
L 1581.581269 -133.33248 
L 1597.041068 -135.02592 
L 1612.500794 -135.9936 
L 1627.960519 -137.44512 
L 1627.960519 -251.14752 
L 1627.960519 -251.14752 
L 1612.500794 -250.42176 
L 1597.041068 -248.24448 
L 1581.581269 -246.55104 
L 1566.121544 -244.37376 
L 1550.661818 -242.68032 
L 1535.202093 -240.98688 
L 1519.742367 -238.08384 
L 1504.282568 -236.14848 
L 1488.822842 -233.72928 
L 1473.363117 -228.89088 
L 1457.903391 -224.53632 
L 1442.443666 -221.39136 
L 1426.983867 -219.69792 
L 1411.524141 -216.06912 
L 1396.064416 -210.9888 
L 1380.60469 -207.84384 
L 1365.144965 -204.69888 
L 1349.685165 -199.86048 
L 1334.22544 -194.78016 
L 1318.765714 -188.97408 
L 1303.305989 -185.5872 
L 1287.846226 -183.40992 
L 1272.386501 -179.05536 
L 1256.926739 -173.4912 
L 1241.467013 -169.62048 
L 1226.007287 -163.33056 
L 1210.547525 -155.10528 
L 1195.0878 -148.81536 
L 1179.628037 -143.49312 
L 1164.168312 -138.4128 
L 1148.708586 -131.88096 
L 1133.248824 -127.28448 
L 1117.789098 -120.99456 
L 1102.329336 -113.25312 
L 1086.86961 -107.68896 
L 1071.409885 -98.73792 
L 1055.950122 -89.06112 
L 1040.490397 -82.04544 
L 1025.030635 -75.27168 
L 1009.570909 -65.8368 
z
" style="stroke: #023047"/>
    </defs>
    <g clip-path="url(#p4ef35b62ff)">
     <use xlink:href="#me64f5ae2c3" x="0" y="345.6" style="fill: #023047; stroke: #023047"/>
    </g>
   </g>
   <g id="PolyCollection_17">
    <defs>
     <path id="mc94c37cfd5" d="M 1009.570909 -292.032 
L 1009.570909 -65.8368 
L 1025.030635 -75.27168 
L 1040.490397 -82.04544 
L 1055.950122 -89.06112 
L 1071.409885 -98.73792 
L 1086.86961 -107.68896 
L 1102.329336 -113.25312 
L 1117.789098 -120.99456 
L 1133.248824 -127.28448 
L 1148.708586 -131.88096 
L 1164.168312 -138.4128 
L 1179.628037 -143.49312 
L 1195.0878 -148.81536 
L 1210.547525 -155.10528 
L 1226.007287 -163.33056 
L 1241.467013 -169.62048 
L 1256.926739 -173.4912 
L 1272.386501 -179.05536 
L 1287.846226 -183.40992 
L 1303.305989 -185.5872 
L 1318.765714 -188.97408 
L 1334.22544 -194.78016 
L 1349.685165 -199.86048 
L 1365.144965 -204.69888 
L 1380.60469 -207.84384 
L 1396.064416 -210.9888 
L 1411.524141 -216.06912 
L 1426.983867 -219.69792 
L 1442.443666 -221.39136 
L 1457.903391 -224.53632 
L 1473.363117 -228.89088 
L 1488.822842 -233.72928 
L 1504.282568 -236.14848 
L 1519.742367 -238.08384 
L 1535.202093 -240.98688 
L 1550.661818 -242.68032 
L 1566.121544 -244.37376 
L 1581.581269 -246.55104 
L 1597.041068 -248.24448 
L 1612.500794 -250.42176 
L 1627.960519 -251.14752 
L 1627.960519 -292.032 
L 1627.960519 -292.032 
L 1612.500794 -292.032 
L 1597.041068 -292.032 
L 1581.581269 -292.032 
L 1566.121544 -292.032 
L 1550.661818 -292.032 
L 1535.202093 -292.032 
L 1519.742367 -292.032 
L 1504.282568 -292.032 
L 1488.822842 -292.032 
L 1473.363117 -292.032 
L 1457.903391 -292.032 
L 1442.443666 -292.032 
L 1426.983867 -292.032 
L 1411.524141 -292.032 
L 1396.064416 -292.032 
L 1380.60469 -292.032 
L 1365.144965 -292.032 
L 1349.685165 -292.032 
L 1334.22544 -292.032 
L 1318.765714 -292.032 
L 1303.305989 -292.032 
L 1287.846226 -292.032 
L 1272.386501 -292.032 
L 1256.926739 -292.032 
L 1241.467013 -292.032 
L 1226.007287 -292.032 
L 1210.547525 -292.032 
L 1195.0878 -292.032 
L 1179.628037 -292.032 
L 1164.168312 -292.032 
L 1148.708586 -292.032 
L 1133.248824 -292.032 
L 1117.789098 -292.032 
L 1102.329336 -292.032 
L 1086.86961 -292.032 
L 1071.409885 -292.032 
L 1055.950122 -292.032 
L 1040.490397 -292.032 
L 1025.030635 -292.032 
L 1009.570909 -292.032 
z
" style="stroke: #f0efeb"/>
    </defs>
    <g clip-path="url(#p4ef35b62ff)">
     <use xlink:href="#mc94c37cfd5" x="0" y="345.6" style="fill: #f0efeb; stroke: #f0efeb"/>
    </g>
   </g>
   <g id="matplotlib.axis_3">
    <g id="xtick_10">
     <g id="line2d_16">
      <g>
       <use xlink:href="#mf8b7b3c0a9" x="1009.570909" y="307.584" style="stroke: #000000; stroke-width: 0.8"/>
      </g>
     </g>
     <g id="text_17">
      <!-- 2.0 -->
      <g transform="translate(1004.799972 319.143062) scale(0.06 -0.06)">
       <use xlink:href="#DejaVuSans-32"/>
       <use xlink:href="#DejaVuSans-2e" x="63.623047"/>
       <use xlink:href="#DejaVuSans-30" x="95.410156"/>
      </g>
     </g>
    </g>
    <g id="xtick_11">
     <g id="line2d_17">
      <g>
       <use xlink:href="#mf8b7b3c0a9" x="1086.86961" y="307.584" style="stroke: #000000; stroke-width: 0.8"/>
      </g>
     </g>
     <g id="text_18">
      <!-- 2.5 -->
      <g transform="translate(1082.098673 319.143062) scale(0.06 -0.06)">
       <use xlink:href="#DejaVuSans-32"/>
       <use xlink:href="#DejaVuSans-2e" x="63.623047"/>
       <use xlink:href="#DejaVuSans-35" x="95.410156"/>
      </g>
     </g>
    </g>
    <g id="xtick_12">
     <g id="line2d_18">
      <g>
       <use xlink:href="#mf8b7b3c0a9" x="1164.168312" y="307.584" style="stroke: #000000; stroke-width: 0.8"/>
      </g>
     </g>
     <g id="text_19">
      <!-- 3.0 -->
      <g transform="translate(1159.397374 319.143062) scale(0.06 -0.06)">
       <use xlink:href="#DejaVuSans-33"/>
       <use xlink:href="#DejaVuSans-2e" x="63.623047"/>
       <use xlink:href="#DejaVuSans-30" x="95.410156"/>
      </g>
     </g>
    </g>
    <g id="xtick_13">
     <g id="line2d_19">
      <g>
       <use xlink:href="#mf8b7b3c0a9" x="1241.467013" y="307.584" style="stroke: #000000; stroke-width: 0.8"/>
      </g>
     </g>
     <g id="text_20">
      <!-- 3.5 -->
      <g transform="translate(1236.696075 319.143062) scale(0.06 -0.06)">
       <use xlink:href="#DejaVuSans-33"/>
       <use xlink:href="#DejaVuSans-2e" x="63.623047"/>
       <use xlink:href="#DejaVuSans-35" x="95.410156"/>
      </g>
     </g>
    </g>
    <g id="xtick_14">
     <g id="line2d_20">
      <g>
       <use xlink:href="#mf8b7b3c0a9" x="1318.765714" y="307.584" style="stroke: #000000; stroke-width: 0.8"/>
      </g>
     </g>
     <g id="text_21">
      <!-- 4.0 -->
      <g transform="translate(1313.994777 319.143062) scale(0.06 -0.06)">
       <use xlink:href="#DejaVuSans-34"/>
       <use xlink:href="#DejaVuSans-2e" x="63.623047"/>
       <use xlink:href="#DejaVuSans-30" x="95.410156"/>
      </g>
     </g>
    </g>
    <g id="xtick_15">
     <g id="line2d_21">
      <g>
       <use xlink:href="#mf8b7b3c0a9" x="1396.064416" y="307.584" style="stroke: #000000; stroke-width: 0.8"/>
      </g>
     </g>
     <g id="text_22">
      <!-- 4.5 -->
      <g transform="translate(1391.293478 319.143062) scale(0.06 -0.06)">
       <use xlink:href="#DejaVuSans-34"/>
       <use xlink:href="#DejaVuSans-2e" x="63.623047"/>
       <use xlink:href="#DejaVuSans-35" x="95.410156"/>
      </g>
     </g>
    </g>
    <g id="xtick_16">
     <g id="line2d_22">
      <g>
       <use xlink:href="#mf8b7b3c0a9" x="1473.363117" y="307.584" style="stroke: #000000; stroke-width: 0.8"/>
      </g>
     </g>
     <g id="text_23">
      <!-- 5.0 -->
      <g transform="translate(1468.592179 319.143062) scale(0.06 -0.06)">
       <use xlink:href="#DejaVuSans-35"/>
       <use xlink:href="#DejaVuSans-2e" x="63.623047"/>
       <use xlink:href="#DejaVuSans-30" x="95.410156"/>
      </g>
     </g>
    </g>
    <g id="xtick_17">
     <g id="line2d_23">
      <g>
       <use xlink:href="#mf8b7b3c0a9" x="1550.661818" y="307.584" style="stroke: #000000; stroke-width: 0.8"/>
      </g>
     </g>
     <g id="text_24">
      <!-- 5.5 -->
      <g transform="translate(1545.890881 319.143062) scale(0.06 -0.06)">
       <use xlink:href="#DejaVuSans-35"/>
       <use xlink:href="#DejaVuSans-2e" x="63.623047"/>
       <use xlink:href="#DejaVuSans-35" x="95.410156"/>
      </g>
     </g>
    </g>
    <g id="xtick_18">
     <g id="line2d_24">
      <g>
       <use xlink:href="#mf8b7b3c0a9" x="1627.960519" y="307.584" style="stroke: #000000; stroke-width: 0.8"/>
      </g>
     </g>
     <g id="text_25">
      <!-- 6.0 -->
      <g transform="translate(1623.189582 319.143062) scale(0.06 -0.06)">
       <use xlink:href="#DejaVuSans-36"/>
       <use xlink:href="#DejaVuSans-2e" x="63.623047"/>
       <use xlink:href="#DejaVuSans-30" x="95.410156"/>
      </g>
     </g>
    </g>
   </g>
   <g id="matplotlib.axis_4">
    <g id="ytick_7">
     <g id="line2d_25">
      <g>
       <use xlink:href="#m11d0447641" x="978.651429" y="295.488" style="stroke: #000000; stroke-width: 0.8"/>
      </g>
     </g>
     <g id="text_26">
      <!-- 0 -->
      <g transform="translate(967.833929 297.767531) scale(0.06 -0.06)">
       <use xlink:href="#DejaVuSans-30"/>
      </g>
     </g>
    </g>
    <g id="ytick_8">
     <g id="line2d_26">
      <g>
       <use xlink:href="#m11d0447641" x="978.651429" y="247.104" style="stroke: #000000; stroke-width: 0.8"/>
      </g>
     </g>
     <g id="text_27">
      <!-- 200 -->
      <g transform="translate(960.198929 249.383531) scale(0.06 -0.06)">
       <use xlink:href="#DejaVuSans-32"/>
       <use xlink:href="#DejaVuSans-30" x="63.623047"/>
       <use xlink:href="#DejaVuSans-30" x="127.246094"/>
      </g>
     </g>
    </g>
    <g id="ytick_9">
     <g id="line2d_27">
      <g>
       <use xlink:href="#m11d0447641" x="978.651429" y="198.72" style="stroke: #000000; stroke-width: 0.8"/>
      </g>
     </g>
     <g id="text_28">
      <!-- 400 -->
      <g transform="translate(960.198929 200.999531) scale(0.06 -0.06)">
       <use xlink:href="#DejaVuSans-34"/>
       <use xlink:href="#DejaVuSans-30" x="63.623047"/>
       <use xlink:href="#DejaVuSans-30" x="127.246094"/>
      </g>
     </g>
    </g>
    <g id="ytick_10">
     <g id="line2d_28">
      <g>
       <use xlink:href="#m11d0447641" x="978.651429" y="150.336" style="stroke: #000000; stroke-width: 0.8"/>
      </g>
     </g>
     <g id="text_29">
      <!-- 600 -->
      <g transform="translate(960.198929 152.615531) scale(0.06 -0.06)">
       <use xlink:href="#DejaVuSans-36"/>
       <use xlink:href="#DejaVuSans-30" x="63.623047"/>
       <use xlink:href="#DejaVuSans-30" x="127.246094"/>
      </g>
     </g>
    </g>
    <g id="ytick_11">
     <g id="line2d_29">
      <g>
       <use xlink:href="#m11d0447641" x="978.651429" y="101.952" style="stroke: #000000; stroke-width: 0.8"/>
      </g>
     </g>
     <g id="text_30">
      <!-- 800 -->
      <g transform="translate(960.198929 104.231531) scale(0.06 -0.06)">
       <use xlink:href="#DejaVuSans-38"/>
       <use xlink:href="#DejaVuSans-30" x="63.623047"/>
       <use xlink:href="#DejaVuSans-30" x="127.246094"/>
      </g>
     </g>
    </g>
    <g id="ytick_12">
     <g id="line2d_30">
      <g>
       <use xlink:href="#m11d0447641" x="978.651429" y="53.568" style="stroke: #000000; stroke-width: 0.8"/>
      </g>
     </g>
     <g id="text_31">
      <!-- 1000 -->
      <g transform="translate(956.381429 55.847531) scale(0.06 -0.06)">
       <use xlink:href="#DejaVuSans-31"/>
       <use xlink:href="#DejaVuSans-30" x="63.623047"/>
       <use xlink:href="#DejaVuSans-30" x="127.246094"/>
       <use xlink:href="#DejaVuSans-30" x="190.869141"/>
      </g>
     </g>
    </g>
   </g>
   <g id="patch_8">
    <path d="M 978.651429 307.584 
L 978.651429 41.472 
" style="fill: none; stroke: #000000; stroke-width: 0.8; stroke-linejoin: miter; stroke-linecap: square"/>
   </g>
   <g id="patch_9">
    <path d="M 1658.88 307.584 
L 1658.88 41.472 
" style="fill: none; stroke: #000000; stroke-width: 0.8; stroke-linejoin: miter; stroke-linecap: square"/>
   </g>
   <g id="patch_10">
    <path d="M 978.651429 307.584 
L 1658.88 307.584 
" style="fill: none; stroke: #000000; stroke-width: 0.8; stroke-linejoin: miter; stroke-linecap: square"/>
   </g>
   <g id="patch_11">
    <path d="M 978.651429 41.472 
L 1658.88 41.472 
" style="fill: none; stroke: #000000; stroke-width: 0.8; stroke-linejoin: miter; stroke-linecap: square"/>
   </g>
   <g id="text_32">
    <!-- Perturbed -->
    <g transform="translate(1294.190714 35.472) scale(0.1 -0.1)">
     <defs>
      <path id="DejaVuSans-50" d="M 1259 4147 
L 1259 2394 
L 2053 2394 
Q 2494 2394 2734 2622 
Q 2975 2850 2975 3272 
Q 2975 3691 2734 3919 
Q 2494 4147 2053 4147 
L 1259 4147 
z
M 628 4666 
L 2053 4666 
Q 2838 4666 3239 4311 
Q 3641 3956 3641 3272 
Q 3641 2581 3239 2228 
Q 2838 1875 2053 1875 
L 1259 1875 
L 1259 0 
L 628 0 
L 628 4666 
z
" transform="scale(0.015625)"/>
     </defs>
     <use xlink:href="#DejaVuSans-50"/>
     <use xlink:href="#DejaVuSans-65" x="56.677734"/>
     <use xlink:href="#DejaVuSans-72" x="118.201172"/>
     <use xlink:href="#DejaVuSans-74" x="159.314453"/>
     <use xlink:href="#DejaVuSans-75" x="198.523438"/>
     <use xlink:href="#DejaVuSans-72" x="261.902344"/>
     <use xlink:href="#DejaVuSans-62" x="303.015625"/>
     <use xlink:href="#DejaVuSans-65" x="366.492188"/>
     <use xlink:href="#DejaVuSans-64" x="428.015625"/>
    </g>
   </g>
  </g>
 </g>
 <defs>
  <clipPath id="p8d19c672e0">
   <rect x="230.4" y="41.472" width="680.228571" height="266.112"/>
  </clipPath>
  <clipPath id="p4ef35b62ff">
   <rect x="978.651429" y="41.472" width="680.228571" height="266.112"/>
  </clipPath>
 </defs>
</svg>
