<?xml version="1.0" encoding="utf-8" standalone="no"?>
<!DOCTYPE svg PUBLIC "-//W3C//DTD SVG 1.1//EN"
  "http://www.w3.org/Graphics/SVG/1.1/DTD/svg11.dtd">
<svg xmlns:xlink="http://www.w3.org/1999/xlink" width="184.32pt" height="172.8pt" viewBox="0 0 184.32 172.8" xmlns="http://www.w3.org/2000/svg" version="1.1">
 <metadata>
  <rdf:RDF xmlns:dc="http://purl.org/dc/elements/1.1/" xmlns:cc="http://creativecommons.org/ns#" xmlns:rdf="http://www.w3.org/1999/02/22-rdf-syntax-ns#">
   <cc:Work>
    <dc:type rdf:resource="http://purl.org/dc/dcmitype/StillImage"/>
    <dc:date>2023-03-05T20:33:50.704298</dc:date>
    <dc:format>image/svg+xml</dc:format>
    <dc:creator>
     <cc:Agent>
      <dc:title>Matplotlib v3.6.2, https://matplotlib.org/</dc:title>
     </cc:Agent>
    </dc:creator>
   </cc:Work>
  </rdf:RDF>
 </metadata>
 <defs>
  <style type="text/css">*{stroke-linejoin: round; stroke-linecap: butt}</style>
 </defs>
 <g id="figure_1">
  <g id="patch_1">
   <path d="M 0 172.8 
L 184.32 172.8 
L 184.32 0 
L 0 0 
z
" style="fill: #ffffff"/>
  </g>
  <g id="axes_1">
   <g id="patch_2">
    <path d="M 23.04 153.792 
L 82.56 153.792 
L 82.56 20.736 
L 23.04 20.736 
z
" style="fill: #ffffff"/>
   </g>
   <g id="matplotlib.axis_1">
    <g id="xtick_1">
     <g id="line2d_1">
      <defs>
       <path id="m10cf7566a9" d="M 0 0 
L 0 3.5 
" style="stroke: #000000; stroke-width: 0.8"/>
      </defs>
      <g>
       <use xlink:href="#m10cf7566a9" x="37.92" y="153.792" style="stroke: #000000; stroke-width: 0.8"/>
      </g>
     </g>
     <g id="text_1">
      <!-- PRESCIENT -->
      <g transform="translate(21.274219 165.351062) scale(0.06 -0.06)">
       <defs>
        <path id="DejaVuSans-50" d="M 1259 4147 
L 1259 2394 
L 2053 2394 
Q 2494 2394 2734 2622 
Q 2975 2850 2975 3272 
Q 2975 3691 2734 3919 
Q 2494 4147 2053 4147 
L 1259 4147 
z
M 628 4666 
L 2053 4666 
Q 2838 4666 3239 4311 
Q 3641 3956 3641 3272 
Q 3641 2581 3239 2228 
Q 2838 1875 2053 1875 
L 1259 1875 
L 1259 0 
L 628 0 
L 628 4666 
z
" transform="scale(0.015625)"/>
        <path id="DejaVuSans-52" d="M 2841 2188 
Q 3044 2119 3236 1894 
Q 3428 1669 3622 1275 
L 4263 0 
L 3584 0 
L 2988 1197 
Q 2756 1666 2539 1819 
Q 2322 1972 1947 1972 
L 1259 1972 
L 1259 0 
L 628 0 
L 628 4666 
L 2053 4666 
Q 2853 4666 3247 4331 
Q 3641 3997 3641 3322 
Q 3641 2881 3436 2590 
Q 3231 2300 2841 2188 
z
M 1259 4147 
L 1259 2491 
L 2053 2491 
Q 2509 2491 2742 2702 
Q 2975 2913 2975 3322 
Q 2975 3731 2742 3939 
Q 2509 4147 2053 4147 
L 1259 4147 
z
" transform="scale(0.015625)"/>
        <path id="DejaVuSans-45" d="M 628 4666 
L 3578 4666 
L 3578 4134 
L 1259 4134 
L 1259 2753 
L 3481 2753 
L 3481 2222 
L 1259 2222 
L 1259 531 
L 3634 531 
L 3634 0 
L 628 0 
L 628 4666 
z
" transform="scale(0.015625)"/>
        <path id="DejaVuSans-53" d="M 3425 4513 
L 3425 3897 
Q 3066 4069 2747 4153 
Q 2428 4238 2131 4238 
Q 1616 4238 1336 4038 
Q 1056 3838 1056 3469 
Q 1056 3159 1242 3001 
Q 1428 2844 1947 2747 
L 2328 2669 
Q 3034 2534 3370 2195 
Q 3706 1856 3706 1288 
Q 3706 609 3251 259 
Q 2797 -91 1919 -91 
Q 1588 -91 1214 -16 
Q 841 59 441 206 
L 441 856 
Q 825 641 1194 531 
Q 1563 422 1919 422 
Q 2459 422 2753 634 
Q 3047 847 3047 1241 
Q 3047 1584 2836 1778 
Q 2625 1972 2144 2069 
L 1759 2144 
Q 1053 2284 737 2584 
Q 422 2884 422 3419 
Q 422 4038 858 4394 
Q 1294 4750 2059 4750 
Q 2388 4750 2728 4690 
Q 3069 4631 3425 4513 
z
" transform="scale(0.015625)"/>
        <path id="DejaVuSans-43" d="M 4122 4306 
L 4122 3641 
Q 3803 3938 3442 4084 
Q 3081 4231 2675 4231 
Q 1875 4231 1450 3742 
Q 1025 3253 1025 2328 
Q 1025 1406 1450 917 
Q 1875 428 2675 428 
Q 3081 428 3442 575 
Q 3803 722 4122 1019 
L 4122 359 
Q 3791 134 3420 21 
Q 3050 -91 2638 -91 
Q 1578 -91 968 557 
Q 359 1206 359 2328 
Q 359 3453 968 4101 
Q 1578 4750 2638 4750 
Q 3056 4750 3426 4639 
Q 3797 4528 4122 4306 
z
" transform="scale(0.015625)"/>
        <path id="DejaVuSans-49" d="M 628 4666 
L 1259 4666 
L 1259 0 
L 628 0 
L 628 4666 
z
" transform="scale(0.015625)"/>
        <path id="DejaVuSans-4e" d="M 628 4666 
L 1478 4666 
L 3547 763 
L 3547 4666 
L 4159 4666 
L 4159 0 
L 3309 0 
L 1241 3903 
L 1241 0 
L 628 0 
L 628 4666 
z
" transform="scale(0.015625)"/>
        <path id="DejaVuSans-54" d="M -19 4666 
L 3928 4666 
L 3928 4134 
L 2272 4134 
L 2272 0 
L 1638 0 
L 1638 4134 
L -19 4134 
L -19 4666 
z
" transform="scale(0.015625)"/>
       </defs>
       <use xlink:href="#DejaVuSans-50"/>
       <use xlink:href="#DejaVuSans-52" x="60.302734"/>
       <use xlink:href="#DejaVuSans-45" x="129.785156"/>
       <use xlink:href="#DejaVuSans-53" x="192.96875"/>
       <use xlink:href="#DejaVuSans-43" x="256.445312"/>
       <use xlink:href="#DejaVuSans-49" x="326.269531"/>
       <use xlink:href="#DejaVuSans-45" x="355.761719"/>
       <use xlink:href="#DejaVuSans-4e" x="418.945312"/>
       <use xlink:href="#DejaVuSans-54" x="493.75"/>
      </g>
     </g>
    </g>
    <g id="xtick_2">
     <g id="line2d_2">
      <g>
       <use xlink:href="#m10cf7566a9" x="67.68" y="153.792" style="stroke: #000000; stroke-width: 0.8"/>
      </g>
     </g>
     <g id="text_2">
      <!-- scDiffEq -->
      <g transform="translate(55.411875 165.351062) scale(0.06 -0.06)">
       <defs>
        <path id="DejaVuSans-73" d="M 2834 3397 
L 2834 2853 
Q 2591 2978 2328 3040 
Q 2066 3103 1784 3103 
Q 1356 3103 1142 2972 
Q 928 2841 928 2578 
Q 928 2378 1081 2264 
Q 1234 2150 1697 2047 
L 1894 2003 
Q 2506 1872 2764 1633 
Q 3022 1394 3022 966 
Q 3022 478 2636 193 
Q 2250 -91 1575 -91 
Q 1294 -91 989 -36 
Q 684 19 347 128 
L 347 722 
Q 666 556 975 473 
Q 1284 391 1588 391 
Q 1994 391 2212 530 
Q 2431 669 2431 922 
Q 2431 1156 2273 1281 
Q 2116 1406 1581 1522 
L 1381 1569 
Q 847 1681 609 1914 
Q 372 2147 372 2553 
Q 372 3047 722 3315 
Q 1072 3584 1716 3584 
Q 2034 3584 2315 3537 
Q 2597 3491 2834 3397 
z
" transform="scale(0.015625)"/>
        <path id="DejaVuSans-63" d="M 3122 3366 
L 3122 2828 
Q 2878 2963 2633 3030 
Q 2388 3097 2138 3097 
Q 1578 3097 1268 2742 
Q 959 2388 959 1747 
Q 959 1106 1268 751 
Q 1578 397 2138 397 
Q 2388 397 2633 464 
Q 2878 531 3122 666 
L 3122 134 
Q 2881 22 2623 -34 
Q 2366 -91 2075 -91 
Q 1284 -91 818 406 
Q 353 903 353 1747 
Q 353 2603 823 3093 
Q 1294 3584 2113 3584 
Q 2378 3584 2631 3529 
Q 2884 3475 3122 3366 
z
" transform="scale(0.015625)"/>
        <path id="DejaVuSans-44" d="M 1259 4147 
L 1259 519 
L 2022 519 
Q 2988 519 3436 956 
Q 3884 1394 3884 2338 
Q 3884 3275 3436 3711 
Q 2988 4147 2022 4147 
L 1259 4147 
z
M 628 4666 
L 1925 4666 
Q 3281 4666 3915 4102 
Q 4550 3538 4550 2338 
Q 4550 1131 3912 565 
Q 3275 0 1925 0 
L 628 0 
L 628 4666 
z
" transform="scale(0.015625)"/>
        <path id="DejaVuSans-69" d="M 603 3500 
L 1178 3500 
L 1178 0 
L 603 0 
L 603 3500 
z
M 603 4863 
L 1178 4863 
L 1178 4134 
L 603 4134 
L 603 4863 
z
" transform="scale(0.015625)"/>
        <path id="DejaVuSans-66" d="M 2375 4863 
L 2375 4384 
L 1825 4384 
Q 1516 4384 1395 4259 
Q 1275 4134 1275 3809 
L 1275 3500 
L 2222 3500 
L 2222 3053 
L 1275 3053 
L 1275 0 
L 697 0 
L 697 3053 
L 147 3053 
L 147 3500 
L 697 3500 
L 697 3744 
Q 697 4328 969 4595 
Q 1241 4863 1831 4863 
L 2375 4863 
z
" transform="scale(0.015625)"/>
        <path id="DejaVuSans-71" d="M 947 1747 
Q 947 1113 1208 752 
Q 1469 391 1925 391 
Q 2381 391 2643 752 
Q 2906 1113 2906 1747 
Q 2906 2381 2643 2742 
Q 2381 3103 1925 3103 
Q 1469 3103 1208 2742 
Q 947 2381 947 1747 
z
M 2906 525 
Q 2725 213 2448 61 
Q 2172 -91 1784 -91 
Q 1150 -91 751 415 
Q 353 922 353 1747 
Q 353 2572 751 3078 
Q 1150 3584 1784 3584 
Q 2172 3584 2448 3432 
Q 2725 3281 2906 2969 
L 2906 3500 
L 3481 3500 
L 3481 -1331 
L 2906 -1331 
L 2906 525 
z
" transform="scale(0.015625)"/>
       </defs>
       <use xlink:href="#DejaVuSans-73"/>
       <use xlink:href="#DejaVuSans-63" x="52.099609"/>
       <use xlink:href="#DejaVuSans-44" x="107.080078"/>
       <use xlink:href="#DejaVuSans-69" x="184.082031"/>
       <use xlink:href="#DejaVuSans-66" x="211.865234"/>
       <use xlink:href="#DejaVuSans-66" x="247.070312"/>
       <use xlink:href="#DejaVuSans-45" x="282.275391"/>
       <use xlink:href="#DejaVuSans-71" x="345.458984"/>
      </g>
     </g>
    </g>
   </g>
   <g id="matplotlib.axis_2">
    <g id="ytick_1">
     <g id="line2d_3">
      <defs>
       <path id="meb678c842c" d="M 0 0 
L -3.5 0 
" style="stroke: #000000; stroke-width: 0.8"/>
      </defs>
      <g>
       <use xlink:href="#meb678c842c" x="23.04" y="153.792" style="stroke: #000000; stroke-width: 0.8"/>
      </g>
     </g>
     <g id="text_3">
      <!-- 13 -->
      <g transform="translate(8.405 156.071531) scale(0.06 -0.06)">
       <defs>
        <path id="DejaVuSans-31" d="M 794 531 
L 1825 531 
L 1825 4091 
L 703 3866 
L 703 4441 
L 1819 4666 
L 2450 4666 
L 2450 531 
L 3481 531 
L 3481 0 
L 794 0 
L 794 531 
z
" transform="scale(0.015625)"/>
        <path id="DejaVuSans-33" d="M 2597 2516 
Q 3050 2419 3304 2112 
Q 3559 1806 3559 1356 
Q 3559 666 3084 287 
Q 2609 -91 1734 -91 
Q 1441 -91 1130 -33 
Q 819 25 488 141 
L 488 750 
Q 750 597 1062 519 
Q 1375 441 1716 441 
Q 2309 441 2620 675 
Q 2931 909 2931 1356 
Q 2931 1769 2642 2001 
Q 2353 2234 1838 2234 
L 1294 2234 
L 1294 2753 
L 1863 2753 
Q 2328 2753 2575 2939 
Q 2822 3125 2822 3475 
Q 2822 3834 2567 4026 
Q 2313 4219 1838 4219 
Q 1578 4219 1281 4162 
Q 984 4106 628 3988 
L 628 4550 
Q 988 4650 1302 4700 
Q 1616 4750 1894 4750 
Q 2613 4750 3031 4423 
Q 3450 4097 3450 3541 
Q 3450 3153 3228 2886 
Q 3006 2619 2597 2516 
z
" transform="scale(0.015625)"/>
       </defs>
       <use xlink:href="#DejaVuSans-31"/>
       <use xlink:href="#DejaVuSans-33" x="63.623047"/>
      </g>
     </g>
    </g>
    <g id="ytick_2">
     <g id="line2d_4">
      <g>
       <use xlink:href="#meb678c842c" x="23.04" y="109.44" style="stroke: #000000; stroke-width: 0.8"/>
      </g>
     </g>
     <g id="text_4">
      <!-- 14 -->
      <g transform="translate(8.405 111.719531) scale(0.06 -0.06)">
       <defs>
        <path id="DejaVuSans-34" d="M 2419 4116 
L 825 1625 
L 2419 1625 
L 2419 4116 
z
M 2253 4666 
L 3047 4666 
L 3047 1625 
L 3713 1625 
L 3713 1100 
L 3047 1100 
L 3047 0 
L 2419 0 
L 2419 1100 
L 313 1100 
L 313 1709 
L 2253 4666 
z
" transform="scale(0.015625)"/>
       </defs>
       <use xlink:href="#DejaVuSans-31"/>
       <use xlink:href="#DejaVuSans-34" x="63.623047"/>
      </g>
     </g>
    </g>
    <g id="ytick_3">
     <g id="line2d_5">
      <g>
       <use xlink:href="#meb678c842c" x="23.04" y="65.088" style="stroke: #000000; stroke-width: 0.8"/>
      </g>
     </g>
     <g id="text_5">
      <!-- 15 -->
      <g transform="translate(8.405 67.367531) scale(0.06 -0.06)">
       <defs>
        <path id="DejaVuSans-35" d="M 691 4666 
L 3169 4666 
L 3169 4134 
L 1269 4134 
L 1269 2991 
Q 1406 3038 1543 3061 
Q 1681 3084 1819 3084 
Q 2600 3084 3056 2656 
Q 3513 2228 3513 1497 
Q 3513 744 3044 326 
Q 2575 -91 1722 -91 
Q 1428 -91 1123 -41 
Q 819 9 494 109 
L 494 744 
Q 775 591 1075 516 
Q 1375 441 1709 441 
Q 2250 441 2565 725 
Q 2881 1009 2881 1497 
Q 2881 1984 2565 2268 
Q 2250 2553 1709 2553 
Q 1456 2553 1204 2497 
Q 953 2441 691 2322 
L 691 4666 
z
" transform="scale(0.015625)"/>
       </defs>
       <use xlink:href="#DejaVuSans-31"/>
       <use xlink:href="#DejaVuSans-35" x="63.623047"/>
      </g>
     </g>
    </g>
    <g id="ytick_4">
     <g id="line2d_6">
      <g>
       <use xlink:href="#meb678c842c" x="23.04" y="20.736" style="stroke: #000000; stroke-width: 0.8"/>
      </g>
     </g>
     <g id="text_6">
      <!-- 16 -->
      <g transform="translate(8.405 23.015531) scale(0.06 -0.06)">
       <defs>
        <path id="DejaVuSans-36" d="M 2113 2584 
Q 1688 2584 1439 2293 
Q 1191 2003 1191 1497 
Q 1191 994 1439 701 
Q 1688 409 2113 409 
Q 2538 409 2786 701 
Q 3034 994 3034 1497 
Q 3034 2003 2786 2293 
Q 2538 2584 2113 2584 
z
M 3366 4563 
L 3366 3988 
Q 3128 4100 2886 4159 
Q 2644 4219 2406 4219 
Q 1781 4219 1451 3797 
Q 1122 3375 1075 2522 
Q 1259 2794 1537 2939 
Q 1816 3084 2150 3084 
Q 2853 3084 3261 2657 
Q 3669 2231 3669 1497 
Q 3669 778 3244 343 
Q 2819 -91 2113 -91 
Q 1303 -91 875 529 
Q 447 1150 447 2328 
Q 447 3434 972 4092 
Q 1497 4750 2381 4750 
Q 2619 4750 2861 4703 
Q 3103 4656 3366 4563 
z
" transform="scale(0.015625)"/>
       </defs>
       <use xlink:href="#DejaVuSans-31"/>
       <use xlink:href="#DejaVuSans-36" x="63.623047"/>
      </g>
     </g>
    </g>
    <g id="text_7">
     <!-- $W_{2}$ Distance -->
     <g transform="translate(2.325313 118.064) rotate(-90) scale(0.1 -0.1)">
      <defs>
       <path id="DejaVuSans-Oblique-57" d="M 616 4666 
L 1228 4666 
L 1453 697 
L 3213 4666 
L 3916 4666 
L 4147 697 
L 5888 4666 
L 6528 4666 
L 4453 0 
L 3659 0 
L 3444 3891 
L 1697 0 
L 903 0 
L 616 4666 
z
" transform="scale(0.015625)"/>
       <path id="DejaVuSans-32" d="M 1228 531 
L 3431 531 
L 3431 0 
L 469 0 
L 469 531 
Q 828 903 1448 1529 
Q 2069 2156 2228 2338 
Q 2531 2678 2651 2914 
Q 2772 3150 2772 3378 
Q 2772 3750 2511 3984 
Q 2250 4219 1831 4219 
Q 1534 4219 1204 4116 
Q 875 4013 500 3803 
L 500 4441 
Q 881 4594 1212 4672 
Q 1544 4750 1819 4750 
Q 2544 4750 2975 4387 
Q 3406 4025 3406 3419 
Q 3406 3131 3298 2873 
Q 3191 2616 2906 2266 
Q 2828 2175 2409 1742 
Q 1991 1309 1228 531 
z
" transform="scale(0.015625)"/>
       <path id="DejaVuSans-20" transform="scale(0.015625)"/>
       <path id="DejaVuSans-74" d="M 1172 4494 
L 1172 3500 
L 2356 3500 
L 2356 3053 
L 1172 3053 
L 1172 1153 
Q 1172 725 1289 603 
Q 1406 481 1766 481 
L 2356 481 
L 2356 0 
L 1766 0 
Q 1100 0 847 248 
Q 594 497 594 1153 
L 594 3053 
L 172 3053 
L 172 3500 
L 594 3500 
L 594 4494 
L 1172 4494 
z
" transform="scale(0.015625)"/>
       <path id="DejaVuSans-61" d="M 2194 1759 
Q 1497 1759 1228 1600 
Q 959 1441 959 1056 
Q 959 750 1161 570 
Q 1363 391 1709 391 
Q 2188 391 2477 730 
Q 2766 1069 2766 1631 
L 2766 1759 
L 2194 1759 
z
M 3341 1997 
L 3341 0 
L 2766 0 
L 2766 531 
Q 2569 213 2275 61 
Q 1981 -91 1556 -91 
Q 1019 -91 701 211 
Q 384 513 384 1019 
Q 384 1609 779 1909 
Q 1175 2209 1959 2209 
L 2766 2209 
L 2766 2266 
Q 2766 2663 2505 2880 
Q 2244 3097 1772 3097 
Q 1472 3097 1187 3025 
Q 903 2953 641 2809 
L 641 3341 
Q 956 3463 1253 3523 
Q 1550 3584 1831 3584 
Q 2591 3584 2966 3190 
Q 3341 2797 3341 1997 
z
" transform="scale(0.015625)"/>
       <path id="DejaVuSans-6e" d="M 3513 2113 
L 3513 0 
L 2938 0 
L 2938 2094 
Q 2938 2591 2744 2837 
Q 2550 3084 2163 3084 
Q 1697 3084 1428 2787 
Q 1159 2491 1159 1978 
L 1159 0 
L 581 0 
L 581 3500 
L 1159 3500 
L 1159 2956 
Q 1366 3272 1645 3428 
Q 1925 3584 2291 3584 
Q 2894 3584 3203 3211 
Q 3513 2838 3513 2113 
z
" transform="scale(0.015625)"/>
       <path id="DejaVuSans-65" d="M 3597 1894 
L 3597 1613 
L 953 1613 
Q 991 1019 1311 708 
Q 1631 397 2203 397 
Q 2534 397 2845 478 
Q 3156 559 3463 722 
L 3463 178 
Q 3153 47 2828 -22 
Q 2503 -91 2169 -91 
Q 1331 -91 842 396 
Q 353 884 353 1716 
Q 353 2575 817 3079 
Q 1281 3584 2069 3584 
Q 2775 3584 3186 3129 
Q 3597 2675 3597 1894 
z
M 3022 2063 
Q 3016 2534 2758 2815 
Q 2500 3097 2075 3097 
Q 1594 3097 1305 2825 
Q 1016 2553 972 2059 
L 3022 2063 
z
" transform="scale(0.015625)"/>
      </defs>
      <use xlink:href="#DejaVuSans-Oblique-57" transform="translate(0 0.015625)"/>
      <use xlink:href="#DejaVuSans-32" transform="translate(98.876953 -16.390625) scale(0.7)"/>
      <use xlink:href="#DejaVuSans-20" transform="translate(146.147461 0.015625)"/>
      <use xlink:href="#DejaVuSans-44" transform="translate(177.93457 0.015625)"/>
      <use xlink:href="#DejaVuSans-69" transform="translate(254.936523 0.015625)"/>
      <use xlink:href="#DejaVuSans-73" transform="translate(282.719727 0.015625)"/>
      <use xlink:href="#DejaVuSans-74" transform="translate(334.819336 0.015625)"/>
      <use xlink:href="#DejaVuSans-61" transform="translate(374.02832 0.015625)"/>
      <use xlink:href="#DejaVuSans-6e" transform="translate(435.307617 0.015625)"/>
      <use xlink:href="#DejaVuSans-63" transform="translate(498.686523 0.015625)"/>
      <use xlink:href="#DejaVuSans-65" transform="translate(553.666992 0.015625)"/>
     </g>
    </g>
   </g>
   <g id="patch_3">
    <path d="M 23.04 153.792 
L 23.04 20.736 
" style="fill: none; stroke: #000000; stroke-width: 0.8; stroke-linejoin: miter; stroke-linecap: square"/>
   </g>
   <g id="patch_4">
    <path d="M 23.04 153.792 
L 82.56 153.792 
" style="fill: none; stroke: #000000; stroke-width: 0.8; stroke-linejoin: miter; stroke-linecap: square"/>
   </g>
   <g id="text_8">
    <!-- Training (d6) -->
    <g transform="translate(21.228125 14.736) scale(0.1 -0.1)">
     <defs>
      <path id="DejaVuSans-72" d="M 2631 2963 
Q 2534 3019 2420 3045 
Q 2306 3072 2169 3072 
Q 1681 3072 1420 2755 
Q 1159 2438 1159 1844 
L 1159 0 
L 581 0 
L 581 3500 
L 1159 3500 
L 1159 2956 
Q 1341 3275 1631 3429 
Q 1922 3584 2338 3584 
Q 2397 3584 2469 3576 
Q 2541 3569 2628 3553 
L 2631 2963 
z
" transform="scale(0.015625)"/>
      <path id="DejaVuSans-67" d="M 2906 1791 
Q 2906 2416 2648 2759 
Q 2391 3103 1925 3103 
Q 1463 3103 1205 2759 
Q 947 2416 947 1791 
Q 947 1169 1205 825 
Q 1463 481 1925 481 
Q 2391 481 2648 825 
Q 2906 1169 2906 1791 
z
M 3481 434 
Q 3481 -459 3084 -895 
Q 2688 -1331 1869 -1331 
Q 1566 -1331 1297 -1286 
Q 1028 -1241 775 -1147 
L 775 -588 
Q 1028 -725 1275 -790 
Q 1522 -856 1778 -856 
Q 2344 -856 2625 -561 
Q 2906 -266 2906 331 
L 2906 616 
Q 2728 306 2450 153 
Q 2172 0 1784 0 
Q 1141 0 747 490 
Q 353 981 353 1791 
Q 353 2603 747 3093 
Q 1141 3584 1784 3584 
Q 2172 3584 2450 3431 
Q 2728 3278 2906 2969 
L 2906 3500 
L 3481 3500 
L 3481 434 
z
" transform="scale(0.015625)"/>
      <path id="DejaVuSans-28" d="M 1984 4856 
Q 1566 4138 1362 3434 
Q 1159 2731 1159 2009 
Q 1159 1288 1364 580 
Q 1569 -128 1984 -844 
L 1484 -844 
Q 1016 -109 783 600 
Q 550 1309 550 2009 
Q 550 2706 781 3412 
Q 1013 4119 1484 4856 
L 1984 4856 
z
" transform="scale(0.015625)"/>
      <path id="DejaVuSans-64" d="M 2906 2969 
L 2906 4863 
L 3481 4863 
L 3481 0 
L 2906 0 
L 2906 525 
Q 2725 213 2448 61 
Q 2172 -91 1784 -91 
Q 1150 -91 751 415 
Q 353 922 353 1747 
Q 353 2572 751 3078 
Q 1150 3584 1784 3584 
Q 2172 3584 2448 3432 
Q 2725 3281 2906 2969 
z
M 947 1747 
Q 947 1113 1208 752 
Q 1469 391 1925 391 
Q 2381 391 2643 752 
Q 2906 1113 2906 1747 
Q 2906 2381 2643 2742 
Q 2381 3103 1925 3103 
Q 1469 3103 1208 2742 
Q 947 2381 947 1747 
z
" transform="scale(0.015625)"/>
      <path id="DejaVuSans-29" d="M 513 4856 
L 1013 4856 
Q 1481 4119 1714 3412 
Q 1947 2706 1947 2009 
Q 1947 1309 1714 600 
Q 1481 -109 1013 -844 
L 513 -844 
Q 928 -128 1133 580 
Q 1338 1288 1338 2009 
Q 1338 2731 1133 3434 
Q 928 4138 513 4856 
z
" transform="scale(0.015625)"/>
     </defs>
     <use xlink:href="#DejaVuSans-54"/>
     <use xlink:href="#DejaVuSans-72" x="46.333984"/>
     <use xlink:href="#DejaVuSans-61" x="87.447266"/>
     <use xlink:href="#DejaVuSans-69" x="148.726562"/>
     <use xlink:href="#DejaVuSans-6e" x="176.509766"/>
     <use xlink:href="#DejaVuSans-69" x="239.888672"/>
     <use xlink:href="#DejaVuSans-6e" x="267.671875"/>
     <use xlink:href="#DejaVuSans-67" x="331.050781"/>
     <use xlink:href="#DejaVuSans-20" x="394.527344"/>
     <use xlink:href="#DejaVuSans-28" x="426.314453"/>
     <use xlink:href="#DejaVuSans-64" x="465.328125"/>
     <use xlink:href="#DejaVuSans-36" x="528.804688"/>
     <use xlink:href="#DejaVuSans-29" x="592.427734"/>
    </g>
   </g>
   <g id="patch_5">
    <path d="M 30.48 73.554494 
L 45.36 73.554494 
L 45.36 57.692433 
L 30.48 57.692433 
L 30.48 73.554494 
z
" clip-path="url(#pa44a879065)" style="fill: #fb8500; opacity: 0.3; stroke: #000000; stroke-linejoin: miter"/>
   </g>
   <g id="patch_6">
    <path d="M 60.24 117.998406 
L 75.12 117.998406 
L 75.12 112.041119 
L 60.24 112.041119 
L 60.24 117.998406 
z
" clip-path="url(#pa44a879065)" style="fill: #023047; opacity: 0.3; stroke: #000000; stroke-linejoin: miter"/>
   </g>
   <g id="patch_7">
    <path d="M 30.48 73.554494 
L 45.36 73.554494 
L 45.36 57.692433 
L 30.48 57.692433 
L 30.48 73.554494 
L 30.48 73.554494 
z
" clip-path="url(#pa44a879065)" style="fill: none; stroke: #fb8500; stroke-width: 0.5; stroke-linejoin: miter"/>
   </g>
   <g id="line2d_7">
    <path d="M 37.92 73.554494 
L 37.92 92.018224 
" clip-path="url(#pa44a879065)" style="fill: none; stroke: #fb8500; stroke-width: 0.5; stroke-linecap: square"/>
   </g>
   <g id="line2d_8">
    <path d="M 37.92 57.692433 
L 37.92 53.322016 
" clip-path="url(#pa44a879065)" style="fill: none; stroke: #fb8500; stroke-width: 0.5; stroke-linecap: square"/>
   </g>
   <g id="line2d_9">
    <path d="M 34.2 92.018224 
L 41.64 92.018224 
" clip-path="url(#pa44a879065)" style="fill: none; stroke: #fb8500; stroke-width: 0.5; stroke-linecap: square"/>
   </g>
   <g id="line2d_10">
    <path d="M 34.2 53.322016 
L 41.64 53.322016 
" clip-path="url(#pa44a879065)" style="fill: none; stroke: #fb8500; stroke-width: 0.5; stroke-linecap: square"/>
   </g>
   <g id="patch_8">
    <path d="M 60.24 117.998406 
L 75.12 117.998406 
L 75.12 112.041119 
L 60.24 112.041119 
L 60.24 117.998406 
L 60.24 117.998406 
z
" clip-path="url(#pa44a879065)" style="fill: none; stroke: #023047; stroke-width: 0.5; stroke-linejoin: miter"/>
   </g>
   <g id="line2d_11">
    <path d="M 67.68 117.998406 
L 67.68 117.998406 
" clip-path="url(#pa44a879065)" style="fill: none; stroke: #023047; stroke-width: 0.5; stroke-linecap: square"/>
   </g>
   <g id="line2d_12">
    <path d="M 67.68 112.041119 
L 67.68 109.988343 
" clip-path="url(#pa44a879065)" style="fill: none; stroke: #023047; stroke-width: 0.5; stroke-linecap: square"/>
   </g>
   <g id="line2d_13">
    <path d="M 63.96 117.998406 
L 71.4 117.998406 
" clip-path="url(#pa44a879065)" style="fill: none; stroke: #023047; stroke-width: 0.5; stroke-linecap: square"/>
   </g>
   <g id="line2d_14">
    <path d="M 63.96 109.988343 
L 71.4 109.988343 
" clip-path="url(#pa44a879065)" style="fill: none; stroke: #023047; stroke-width: 0.5; stroke-linecap: square"/>
   </g>
   <g id="line2d_15">
    <path d="M 30.48 67.540266 
L 45.36 67.540266 
" clip-path="url(#pa44a879065)" style="fill: none; stroke-dasharray: 3.7,1.6; stroke-dashoffset: 0; stroke: #fb8500"/>
   </g>
   <g id="line2d_16">
    <path d="M 60.24 120.602824 
L 75.12 120.602824 
" clip-path="url(#pa44a879065)" style="fill: none; stroke-dasharray: 3.7,1.6; stroke-dashoffset: 0; stroke: #023047"/>
   </g>
   <g id="PathCollection_1">
    <defs>
     <path id="C0_0_2da39e46e0" d="M 0 2.95804 
C 0.784481 2.95804 1.536938 2.646362 2.09165 2.09165 
C 2.646362 1.536938 2.95804 0.784481 2.95804 -0 
C 2.95804 -0.784481 2.646362 -1.536938 2.09165 -2.09165 
C 1.536938 -2.646362 0.784481 -2.95804 0 -2.95804 
C -0.784481 -2.95804 -1.536938 -2.646362 -2.09165 -2.09165 
C -2.646362 -1.536938 -2.95804 -0.784481 -2.95804 0 
C -2.95804 0.784481 -2.646362 1.536938 -2.09165 2.09165 
C -1.536938 2.646362 -0.784481 2.95804 0 2.95804 
z
"/>
    </defs>
    <g clip-path="url(#pa44a879065)">
     <use xlink:href="#C0_0_2da39e46e0" x="38.208017" y="53.322016" style="fill: #fb8500; fill-opacity: 0.8"/>
    </g>
    <g clip-path="url(#pa44a879065)">
     <use xlink:href="#C0_0_2da39e46e0" x="38.226447" y="92.018224" style="fill: #fb8500; fill-opacity: 0.8"/>
    </g>
    <g clip-path="url(#pa44a879065)">
     <use xlink:href="#C0_0_2da39e46e0" x="38.545558" y="73.554494" style="fill: #fb8500; fill-opacity: 0.8"/>
    </g>
    <g clip-path="url(#pa44a879065)">
     <use xlink:href="#C0_0_2da39e46e0" x="39.13823" y="61.114163" style="fill: #fb8500; fill-opacity: 0.8"/>
    </g>
    <g clip-path="url(#pa44a879065)">
     <use xlink:href="#C0_0_2da39e46e0" x="37.007361" y="57.692433" style="fill: #fb8500; fill-opacity: 0.8"/>
    </g>
   </g>
   <g id="PathCollection_2">
    <defs>
     <path id="C1_0_a00277ecaf" d="M 0 2.95804 
C 0.784481 2.95804 1.536938 2.646362 2.09165 2.09165 
C 2.646362 1.536938 2.95804 0.784481 2.95804 -0 
C 2.95804 -0.784481 2.646362 -1.536938 2.09165 -2.09165 
C 1.536938 -2.646362 0.784481 -2.95804 0 -2.95804 
C -0.784481 -2.95804 -1.536938 -2.646362 -2.09165 -2.09165 
C -2.646362 -1.536938 -2.95804 -0.784481 -2.95804 0 
C -2.95804 0.784481 -2.646362 1.536938 -2.09165 2.09165 
C -1.536938 2.646362 -0.784481 2.95804 0 2.95804 
z
"/>
    </defs>
    <g clip-path="url(#pa44a879065)">
     <use xlink:href="#C1_0_a00277ecaf" x="67.197891" y="148.75836" style="fill: #023047; fill-opacity: 0.8"/>
    </g>
    <g clip-path="url(#pa44a879065)">
     <use xlink:href="#C1_0_a00277ecaf" x="67.983415" y="114.227892" style="fill: #023047; fill-opacity: 0.8"/>
    </g>
    <g clip-path="url(#pa44a879065)">
     <use xlink:href="#C1_0_a00277ecaf" x="67.263175" y="117.998406" style="fill: #023047; fill-opacity: 0.8"/>
    </g>
    <g clip-path="url(#pa44a879065)">
     <use xlink:href="#C1_0_a00277ecaf" x="67.442457" y="112.041119" style="fill: #023047; fill-opacity: 0.8"/>
    </g>
    <g clip-path="url(#pa44a879065)">
     <use xlink:href="#C1_0_a00277ecaf" x="68.086288" y="109.988343" style="fill: #023047; fill-opacity: 0.8"/>
    </g>
   </g>
  </g>
  <g id="axes_2">
   <g id="patch_9">
    <path d="M 106.368 153.792 
L 165.888 153.792 
L 165.888 20.736 
L 106.368 20.736 
z
" style="fill: #ffffff"/>
   </g>
   <g id="matplotlib.axis_3">
    <g id="xtick_3">
     <g id="line2d_17">
      <g>
       <use xlink:href="#m10cf7566a9" x="121.248" y="153.792" style="stroke: #000000; stroke-width: 0.8"/>
      </g>
     </g>
     <g id="text_9">
      <!-- PRESCIENT -->
      <g transform="translate(104.602219 165.351062) scale(0.06 -0.06)">
       <use xlink:href="#DejaVuSans-50"/>
       <use xlink:href="#DejaVuSans-52" x="60.302734"/>
       <use xlink:href="#DejaVuSans-45" x="129.785156"/>
       <use xlink:href="#DejaVuSans-53" x="192.96875"/>
       <use xlink:href="#DejaVuSans-43" x="256.445312"/>
       <use xlink:href="#DejaVuSans-49" x="326.269531"/>
       <use xlink:href="#DejaVuSans-45" x="355.761719"/>
       <use xlink:href="#DejaVuSans-4e" x="418.945312"/>
       <use xlink:href="#DejaVuSans-54" x="493.75"/>
      </g>
     </g>
    </g>
    <g id="xtick_4">
     <g id="line2d_18">
      <g>
       <use xlink:href="#m10cf7566a9" x="151.008" y="153.792" style="stroke: #000000; stroke-width: 0.8"/>
      </g>
     </g>
     <g id="text_10">
      <!-- scDiffEq -->
      <g transform="translate(138.739875 165.351062) scale(0.06 -0.06)">
       <use xlink:href="#DejaVuSans-73"/>
       <use xlink:href="#DejaVuSans-63" x="52.099609"/>
       <use xlink:href="#DejaVuSans-44" x="107.080078"/>
       <use xlink:href="#DejaVuSans-69" x="184.082031"/>
       <use xlink:href="#DejaVuSans-66" x="211.865234"/>
       <use xlink:href="#DejaVuSans-66" x="247.070312"/>
       <use xlink:href="#DejaVuSans-45" x="282.275391"/>
       <use xlink:href="#DejaVuSans-71" x="345.458984"/>
      </g>
     </g>
    </g>
   </g>
   <g id="matplotlib.axis_4">
    <g id="ytick_5">
     <g id="line2d_19">
      <g>
       <use xlink:href="#meb678c842c" x="106.368" y="153.792" style="stroke: #000000; stroke-width: 0.8"/>
      </g>
     </g>
     <g id="text_11">
      <!-- 24 -->
      <g transform="translate(91.733 156.071531) scale(0.06 -0.06)">
       <use xlink:href="#DejaVuSans-32"/>
       <use xlink:href="#DejaVuSans-34" x="63.623047"/>
      </g>
     </g>
    </g>
    <g id="ytick_6">
     <g id="line2d_20">
      <g>
       <use xlink:href="#meb678c842c" x="106.368" y="109.44" style="stroke: #000000; stroke-width: 0.8"/>
      </g>
     </g>
     <g id="text_12">
      <!-- 25 -->
      <g transform="translate(91.733 111.719531) scale(0.06 -0.06)">
       <use xlink:href="#DejaVuSans-32"/>
       <use xlink:href="#DejaVuSans-35" x="63.623047"/>
      </g>
     </g>
    </g>
    <g id="ytick_7">
     <g id="line2d_21">
      <g>
       <use xlink:href="#meb678c842c" x="106.368" y="65.088" style="stroke: #000000; stroke-width: 0.8"/>
      </g>
     </g>
     <g id="text_13">
      <!-- 26 -->
      <g transform="translate(91.733 67.367531) scale(0.06 -0.06)">
       <use xlink:href="#DejaVuSans-32"/>
       <use xlink:href="#DejaVuSans-36" x="63.623047"/>
      </g>
     </g>
    </g>
    <g id="ytick_8">
     <g id="line2d_22">
      <g>
       <use xlink:href="#meb678c842c" x="106.368" y="20.736" style="stroke: #000000; stroke-width: 0.8"/>
      </g>
     </g>
     <g id="text_14">
      <!-- 27 -->
      <g transform="translate(91.733 23.015531) scale(0.06 -0.06)">
       <defs>
        <path id="DejaVuSans-37" d="M 525 4666 
L 3525 4666 
L 3525 4397 
L 1831 0 
L 1172 0 
L 2766 4134 
L 525 4134 
L 525 4666 
z
" transform="scale(0.015625)"/>
       </defs>
       <use xlink:href="#DejaVuSans-32"/>
       <use xlink:href="#DejaVuSans-37" x="63.623047"/>
      </g>
     </g>
    </g>
   </g>
   <g id="patch_10">
    <path d="M 106.368 153.792 
L 106.368 20.736 
" style="fill: none; stroke: #000000; stroke-width: 0.8; stroke-linejoin: miter; stroke-linecap: square"/>
   </g>
   <g id="patch_11">
    <path d="M 106.368 153.792 
L 165.888 153.792 
" style="fill: none; stroke: #000000; stroke-width: 0.8; stroke-linejoin: miter; stroke-linecap: square"/>
   </g>
   <g id="text_15">
    <!-- Test (d4) -->
    <g transform="translate(114.436594 14.736) scale(0.1 -0.1)">
     <use xlink:href="#DejaVuSans-54"/>
     <use xlink:href="#DejaVuSans-65" x="44.083984"/>
     <use xlink:href="#DejaVuSans-73" x="105.607422"/>
     <use xlink:href="#DejaVuSans-74" x="157.707031"/>
     <use xlink:href="#DejaVuSans-20" x="196.916016"/>
     <use xlink:href="#DejaVuSans-28" x="228.703125"/>
     <use xlink:href="#DejaVuSans-64" x="267.716797"/>
     <use xlink:href="#DejaVuSans-34" x="331.193359"/>
     <use xlink:href="#DejaVuSans-29" x="394.816406"/>
    </g>
   </g>
   <g id="patch_12">
    <path d="M 113.808 71.858454 
L 128.688 71.858454 
L 128.688 64.928962 
L 113.808 64.928962 
L 113.808 71.858454 
z
" clip-path="url(#p33686a118c)" style="fill: #fb8500; opacity: 0.3; stroke: #000000; stroke-linejoin: miter"/>
   </g>
   <g id="patch_13">
    <path d="M 143.568 138.963052 
L 158.448 138.963052 
L 158.448 128.053885 
L 143.568 128.053885 
L 143.568 138.963052 
z
" clip-path="url(#p33686a118c)" style="fill: #023047; opacity: 0.3; stroke: #000000; stroke-linejoin: miter"/>
   </g>
   <g id="patch_14">
    <path d="M 113.808 71.858454 
L 128.688 71.858454 
L 128.688 64.928962 
L 113.808 64.928962 
L 113.808 71.858454 
L 113.808 71.858454 
z
" clip-path="url(#p33686a118c)" style="fill: none; stroke: #fb8500; stroke-width: 0.5; stroke-linejoin: miter"/>
   </g>
   <g id="line2d_23">
    <path d="M 121.248 71.858454 
L 121.248 71.858454 
" clip-path="url(#p33686a118c)" style="fill: none; stroke: #fb8500; stroke-width: 0.5; stroke-linecap: square"/>
   </g>
   <g id="line2d_24">
    <path d="M 121.248 64.928962 
L 121.248 63.380455 
" clip-path="url(#p33686a118c)" style="fill: none; stroke: #fb8500; stroke-width: 0.5; stroke-linecap: square"/>
   </g>
   <g id="line2d_25">
    <path d="M 117.528 71.858454 
L 124.968 71.858454 
" clip-path="url(#p33686a118c)" style="fill: none; stroke: #fb8500; stroke-width: 0.5; stroke-linecap: square"/>
   </g>
   <g id="line2d_26">
    <path d="M 117.528 63.380455 
L 124.968 63.380455 
" clip-path="url(#p33686a118c)" style="fill: none; stroke: #fb8500; stroke-width: 0.5; stroke-linecap: square"/>
   </g>
   <g id="patch_15">
    <path d="M 143.568 138.963052 
L 158.448 138.963052 
L 158.448 128.053885 
L 143.568 128.053885 
L 143.568 138.963052 
L 143.568 138.963052 
z
" clip-path="url(#p33686a118c)" style="fill: none; stroke: #023047; stroke-width: 0.5; stroke-linejoin: miter"/>
   </g>
   <g id="line2d_27">
    <path d="M 151.008 138.963052 
L 151.008 146.786795 
" clip-path="url(#p33686a118c)" style="fill: none; stroke: #023047; stroke-width: 0.5; stroke-linecap: square"/>
   </g>
   <g id="line2d_28">
    <path d="M 151.008 128.053885 
L 151.008 128.053885 
" clip-path="url(#p33686a118c)" style="fill: none; stroke: #023047; stroke-width: 0.5; stroke-linecap: square"/>
   </g>
   <g id="line2d_29">
    <path d="M 147.288 146.786795 
L 154.728 146.786795 
" clip-path="url(#p33686a118c)" style="fill: none; stroke: #023047; stroke-width: 0.5; stroke-linecap: square"/>
   </g>
   <g id="line2d_30">
    <path d="M 147.288 128.053885 
L 154.728 128.053885 
" clip-path="url(#p33686a118c)" style="fill: none; stroke: #023047; stroke-width: 0.5; stroke-linecap: square"/>
   </g>
   <g id="line2d_31">
    <path d="M 113.808 71.958327 
L 128.688 71.958327 
" clip-path="url(#p33686a118c)" style="fill: none; stroke-dasharray: 3.7,1.6; stroke-dashoffset: 0; stroke: #fb8500"/>
   </g>
   <g id="line2d_32">
    <path d="M 143.568 129.125328 
L 158.448 129.125328 
" clip-path="url(#p33686a118c)" style="fill: none; stroke-dasharray: 3.7,1.6; stroke-dashoffset: 0; stroke: #023047"/>
   </g>
   <g id="PathCollection_3">
    <defs>
     <path id="C2_0_ebc54b724b" d="M 0 2.95804 
C 0.784481 2.95804 1.536938 2.646362 2.09165 2.09165 
C 2.646362 1.536938 2.95804 0.784481 2.95804 -0 
C 2.95804 -0.784481 2.646362 -1.536938 2.09165 -2.09165 
C 1.536938 -2.646362 0.784481 -2.95804 0 -2.95804 
C -0.784481 -2.95804 -1.536938 -2.646362 -2.09165 -2.09165 
C -2.646362 -1.536938 -2.95804 -0.784481 -2.95804 0 
C -2.95804 0.784481 -2.646362 1.536938 -2.09165 2.09165 
C -1.536938 2.646362 -0.784481 2.95804 0 2.95804 
z
"/>
    </defs>
    <g clip-path="url(#p33686a118c)">
     <use xlink:href="#C2_0_ebc54b724b" x="120.805665" y="63.380455" style="fill: #fb8500; fill-opacity: 0.8"/>
    </g>
    <g clip-path="url(#p33686a118c)">
     <use xlink:href="#C2_0_ebc54b724b" x="120.71556" y="71.858454" style="fill: #fb8500; fill-opacity: 0.8"/>
    </g>
    <g clip-path="url(#p33686a118c)">
     <use xlink:href="#C2_0_ebc54b724b" x="120.342151" y="93.519272" style="fill: #fb8500; fill-opacity: 0.8"/>
    </g>
    <g clip-path="url(#p33686a118c)">
     <use xlink:href="#C2_0_ebc54b724b" x="120.932577" y="64.928962" style="fill: #fb8500; fill-opacity: 0.8"/>
    </g>
    <g clip-path="url(#p33686a118c)">
     <use xlink:href="#C2_0_ebc54b724b" x="121.777053" y="66.10449" style="fill: #fb8500; fill-opacity: 0.8"/>
    </g>
   </g>
   <g id="PathCollection_4">
    <defs>
     <path id="C3_0_bbdad5ab40" d="M 0 2.95804 
C 0.784481 2.95804 1.536938 2.646362 2.09165 2.09165 
C 2.646362 1.536938 2.95804 0.784481 2.95804 -0 
C 2.95804 -0.784481 2.646362 -1.536938 2.09165 -2.09165 
C 1.536938 -2.646362 0.784481 -2.95804 0 -2.95804 
C -0.784481 -2.95804 -1.536938 -2.646362 -2.09165 -2.09165 
C -2.646362 -1.536938 -2.95804 -0.784481 -2.95804 0 
C -2.95804 0.784481 -2.646362 1.536938 -2.09165 2.09165 
C -1.536938 2.646362 -0.784481 2.95804 0 2.95804 
z
"/>
    </defs>
    <g clip-path="url(#p33686a118c)">
     <use xlink:href="#C3_0_bbdad5ab40" x="150.393724" y="138.963052" style="fill: #023047; fill-opacity: 0.8"/>
    </g>
    <g clip-path="url(#p33686a118c)">
     <use xlink:href="#C3_0_bbdad5ab40" x="150.483054" y="146.786795" style="fill: #023047; fill-opacity: 0.8"/>
    </g>
    <g clip-path="url(#p33686a118c)">
     <use xlink:href="#C3_0_bbdad5ab40" x="151.096073" y="100.486156" style="fill: #023047; fill-opacity: 0.8"/>
    </g>
    <g clip-path="url(#p33686a118c)">
     <use xlink:href="#C3_0_bbdad5ab40" x="150.915135" y="131.336753" style="fill: #023047; fill-opacity: 0.8"/>
    </g>
    <g clip-path="url(#p33686a118c)">
     <use xlink:href="#C3_0_bbdad5ab40" x="150.690225" y="128.053885" style="fill: #023047; fill-opacity: 0.8"/>
    </g>
   </g>
  </g>
 </g>
 <defs>
  <clipPath id="pa44a879065">
   <rect x="23.04" y="20.736" width="59.52" height="133.056"/>
  </clipPath>
  <clipPath id="p33686a118c">
   <rect x="106.368" y="20.736" width="59.52" height="133.056"/>
  </clipPath>
 </defs>
</svg>
