<?xml version="1.0" encoding="utf-8" standalone="no"?>
<!DOCTYPE svg PUBLIC "-//W3C//DTD SVG 1.1//EN"
  "http://www.w3.org/Graphics/SVG/1.1/DTD/svg11.dtd">
<svg xmlns:xlink="http://www.w3.org/1999/xlink" width="184.32pt" height="86.4pt" viewBox="0 0 184.32 86.4" xmlns="http://www.w3.org/2000/svg" version="1.1">
 <metadata>
  <rdf:RDF xmlns:dc="http://purl.org/dc/elements/1.1/" xmlns:cc="http://creativecommons.org/ns#" xmlns:rdf="http://www.w3.org/1999/02/22-rdf-syntax-ns#">
   <cc:Work>
    <dc:type rdf:resource="http://purl.org/dc/dcmitype/StillImage"/>
    <dc:date>2025-05-16T13:05:55.054644</dc:date>
    <dc:format>image/svg+xml</dc:format>
    <dc:creator>
     <cc:Agent>
      <dc:title>Matplotlib v3.10.0, https://matplotlib.org/</dc:title>
     </cc:Agent>
    </dc:creator>
   </cc:Work>
  </rdf:RDF>
 </metadata>
 <defs>
  <style type="text/css">*{stroke-linejoin: round; stroke-linecap: butt}</style>
 </defs>
 <g id="figure_1">
  <g id="patch_1">
   <path d="M 0 86.4 
L 184.32 86.4 
L 184.32 0 
L 0 0 
z
" style="fill: #ffffff"/>
  </g>
  <g id="axes_1">
   <g id="patch_2">
    <path d="M 23.04 76.896 
L 165.888 76.896 
L 165.888 10.368 
L 23.04 10.368 
z
" style="fill: #ffffff"/>
   </g>
   <g id="PathCollection_1">
    <defs>
     <path id="C0_0_1b61d6f944" d="M 0 2.95804 
C 0.784481 2.95804 1.536938 2.646362 2.09165 2.09165 
C 2.646362 1.536938 2.95804 0.784481 2.95804 -0 
C 2.95804 -0.784481 2.646362 -1.536938 2.09165 -2.09165 
C 1.536938 -2.646362 0.784481 -2.95804 0 -2.95804 
C -0.784481 -2.95804 -1.536938 -2.646362 -2.09165 -2.09165 
C -2.646362 -1.536938 -2.95804 -0.784481 -2.95804 0 
C -2.95804 0.784481 -2.646362 1.536938 -2.09165 2.09165 
C -1.536938 2.646362 -0.784481 2.95804 0 2.95804 
z
"/>
    </defs>
    <g clip-path="url(#pb227f9a26f)">
     <use xlink:href="#C0_0_1b61d6f944" x="65.354271" y="35.015888" style="fill: #0077b6; fill-opacity: 0.8"/>
    </g>
    <g clip-path="url(#pb227f9a26f)">
     <use xlink:href="#C0_0_1b61d6f944" x="55.162989" y="43.922431" style="fill: #0077b6; fill-opacity: 0.8"/>
    </g>
    <g clip-path="url(#pb227f9a26f)">
     <use xlink:href="#C0_0_1b61d6f944" x="59.839892" y="30.756237" style="fill: #0077b6; fill-opacity: 0.8"/>
    </g>
    <g clip-path="url(#pb227f9a26f)">
     <use xlink:href="#C0_0_1b61d6f944" x="60.066801" y="34.822268" style="fill: #0077b6; fill-opacity: 0.8"/>
    </g>
    <g clip-path="url(#pb227f9a26f)">
     <use xlink:href="#C0_0_1b61d6f944" x="59.784104" y="34.628647" style="fill: #0077b6; fill-opacity: 0.8"/>
    </g>
   </g>
   <g id="PathCollection_2">
    <defs>
     <path id="C1_0_5ffb9a2a92" d="M 0 2.95804 
C 0.784481 2.95804 1.536938 2.646362 2.09165 2.09165 
C 2.646362 1.536938 2.95804 0.784481 2.95804 -0 
C 2.95804 -0.784481 2.646362 -1.536938 2.09165 -2.09165 
C 1.536938 -2.646362 0.784481 -2.95804 0 -2.95804 
C -0.784481 -2.95804 -1.536938 -2.646362 -2.09165 -2.09165 
C -2.646362 -1.536938 -2.95804 -0.784481 -2.95804 0 
C -2.95804 0.784481 -2.646362 1.536938 -2.09165 2.09165 
C -1.536938 2.646362 -0.784481 2.95804 0 2.95804 
z
"/>
    </defs>
    <g clip-path="url(#pb227f9a26f)">
     <use xlink:href="#C1_0_5ffb9a2a92" x="126.220277" y="52.441732" style="fill: #403d39; fill-opacity: 0.8"/>
    </g>
    <g clip-path="url(#pb227f9a26f)">
     <use xlink:href="#C1_0_5ffb9a2a92" x="136.643429" y="60.186552" style="fill: #403d39; fill-opacity: 0.8"/>
    </g>
    <g clip-path="url(#pb227f9a26f)">
     <use xlink:href="#C1_0_5ffb9a2a92" x="129.420697" y="56.120522" style="fill: #403d39; fill-opacity: 0.8"/>
    </g>
    <g clip-path="url(#pb227f9a26f)">
     <use xlink:href="#C1_0_5ffb9a2a92" x="135.124379" y="54.184317" style="fill: #403d39; fill-opacity: 0.8"/>
    </g>
    <g clip-path="url(#pb227f9a26f)">
     <use xlink:href="#C1_0_5ffb9a2a92" x="133.025522" y="48.762943" style="fill: #403d39; fill-opacity: 0.8"/>
    </g>
   </g>
   <g id="patch_3">
    <path d="M 44.4672 35.015888 
L 73.0368 35.015888 
L 73.0368 34.628647 
L 44.4672 34.628647 
L 44.4672 35.015888 
z
" clip-path="url(#pb227f9a26f)" style="fill: #0077b6; opacity: 0.2; stroke: #000000; stroke-linejoin: miter"/>
   </g>
   <g id="line2d_1">
    <path d="M 58.752 35.015888 
L 58.752 35.015888 
" clip-path="url(#pb227f9a26f)" style="fill: none; stroke: #000000; stroke-opacity: 0; stroke-linecap: square"/>
   </g>
   <g id="line2d_2">
    <path d="M 58.752 34.628647 
L 58.752 34.628647 
" clip-path="url(#pb227f9a26f)" style="fill: none; stroke: #000000; stroke-opacity: 0; stroke-linecap: square"/>
   </g>
   <g id="line2d_3">
    <path d="M 51.6096 35.015888 
L 65.8944 35.015888 
" clip-path="url(#pb227f9a26f)" style="fill: none; stroke: #000000; stroke-opacity: 0; stroke-linecap: square"/>
   </g>
   <g id="line2d_4">
    <path d="M 51.6096 34.628647 
L 65.8944 34.628647 
" clip-path="url(#pb227f9a26f)" style="fill: none; stroke: #000000; stroke-opacity: 0; stroke-linecap: square"/>
   </g>
   <g id="patch_4">
    <path d="M 115.8912 56.120522 
L 144.4608 56.120522 
L 144.4608 52.441732 
L 115.8912 52.441732 
L 115.8912 56.120522 
z
" clip-path="url(#pb227f9a26f)" style="fill: #403d39; opacity: 0.2; stroke: #000000; stroke-linejoin: miter"/>
   </g>
   <g id="line2d_5">
    <path d="M 130.176 56.120522 
L 130.176 60.186552 
" clip-path="url(#pb227f9a26f)" style="fill: none; stroke: #000000; stroke-opacity: 0; stroke-linecap: square"/>
   </g>
   <g id="line2d_6">
    <path d="M 130.176 52.441732 
L 130.176 48.762943 
" clip-path="url(#pb227f9a26f)" style="fill: none; stroke: #000000; stroke-opacity: 0; stroke-linecap: square"/>
   </g>
   <g id="line2d_7">
    <path d="M 123.0336 60.186552 
L 137.3184 60.186552 
" clip-path="url(#pb227f9a26f)" style="fill: none; stroke: #000000; stroke-opacity: 0; stroke-linecap: square"/>
   </g>
   <g id="line2d_8">
    <path d="M 123.0336 48.762943 
L 137.3184 48.762943 
" clip-path="url(#pb227f9a26f)" style="fill: none; stroke: #000000; stroke-opacity: 0; stroke-linecap: square"/>
   </g>
   <g id="line2d_9">
    <path d="M 44.4672 35.829094 
L 73.0368 35.829094 
" clip-path="url(#pb227f9a26f)" style="fill: none; stroke-dasharray: 3.7,1.6; stroke-dashoffset: 0; stroke: #0077b6"/>
   </g>
   <g id="line2d_10">
    <path d="M 115.8912 54.339213 
L 144.4608 54.339213 
" clip-path="url(#pb227f9a26f)" style="fill: none; stroke-dasharray: 3.7,1.6; stroke-dashoffset: 0; stroke: #403d39"/>
   </g>
   <g id="matplotlib.axis_1">
    <g id="xtick_1">
     <g id="line2d_11">
      <defs>
       <path id="mad26237434" d="M 0 0 
L 0 3.5 
" style="stroke: #000000; stroke-width: 0.8"/>
      </defs>
      <g>
       <use xlink:href="#mad26237434" x="58.752" y="76.896" style="stroke: #000000; stroke-width: 0.8"/>
      </g>
     </g>
     <g id="text_1">
      <!-- With -->
      <g transform="translate(51.942469 88.455062) scale(0.06 -0.06)">
       <defs>
        <path id="DejaVuSans-57" d="M 213 4666 
L 850 4666 
L 1831 722 
L 2809 4666 
L 3519 4666 
L 4500 722 
L 5478 4666 
L 6119 4666 
L 4947 0 
L 4153 0 
L 3169 4050 
L 2175 0 
L 1381 0 
L 213 4666 
z
" transform="scale(0.015625)"/>
        <path id="DejaVuSans-69" d="M 603 3500 
L 1178 3500 
L 1178 0 
L 603 0 
L 603 3500 
z
M 603 4863 
L 1178 4863 
L 1178 4134 
L 603 4134 
L 603 4863 
z
" transform="scale(0.015625)"/>
        <path id="DejaVuSans-74" d="M 1172 4494 
L 1172 3500 
L 2356 3500 
L 2356 3053 
L 1172 3053 
L 1172 1153 
Q 1172 725 1289 603 
Q 1406 481 1766 481 
L 2356 481 
L 2356 0 
L 1766 0 
Q 1100 0 847 248 
Q 594 497 594 1153 
L 594 3053 
L 172 3053 
L 172 3500 
L 594 3500 
L 594 4494 
L 1172 4494 
z
" transform="scale(0.015625)"/>
        <path id="DejaVuSans-68" d="M 3513 2113 
L 3513 0 
L 2938 0 
L 2938 2094 
Q 2938 2591 2744 2837 
Q 2550 3084 2163 3084 
Q 1697 3084 1428 2787 
Q 1159 2491 1159 1978 
L 1159 0 
L 581 0 
L 581 4863 
L 1159 4863 
L 1159 2956 
Q 1366 3272 1645 3428 
Q 1925 3584 2291 3584 
Q 2894 3584 3203 3211 
Q 3513 2838 3513 2113 
z
" transform="scale(0.015625)"/>
       </defs>
       <use xlink:href="#DejaVuSans-57"/>
       <use xlink:href="#DejaVuSans-69" transform="translate(96.626953 0)"/>
       <use xlink:href="#DejaVuSans-74" transform="translate(124.410156 0)"/>
       <use xlink:href="#DejaVuSans-68" transform="translate(163.619141 0)"/>
      </g>
     </g>
    </g>
    <g id="xtick_2">
     <g id="line2d_12">
      <g>
       <use xlink:href="#mad26237434" x="130.176" y="76.896" style="stroke: #000000; stroke-width: 0.8"/>
      </g>
     </g>
     <g id="text_2">
      <!-- Without -->
      <g transform="translate(118.4535 88.455062) scale(0.06 -0.06)">
       <defs>
        <path id="DejaVuSans-6f" d="M 1959 3097 
Q 1497 3097 1228 2736 
Q 959 2375 959 1747 
Q 959 1119 1226 758 
Q 1494 397 1959 397 
Q 2419 397 2687 759 
Q 2956 1122 2956 1747 
Q 2956 2369 2687 2733 
Q 2419 3097 1959 3097 
z
M 1959 3584 
Q 2709 3584 3137 3096 
Q 3566 2609 3566 1747 
Q 3566 888 3137 398 
Q 2709 -91 1959 -91 
Q 1206 -91 779 398 
Q 353 888 353 1747 
Q 353 2609 779 3096 
Q 1206 3584 1959 3584 
z
" transform="scale(0.015625)"/>
        <path id="DejaVuSans-75" d="M 544 1381 
L 544 3500 
L 1119 3500 
L 1119 1403 
Q 1119 906 1312 657 
Q 1506 409 1894 409 
Q 2359 409 2629 706 
Q 2900 1003 2900 1516 
L 2900 3500 
L 3475 3500 
L 3475 0 
L 2900 0 
L 2900 538 
Q 2691 219 2414 64 
Q 2138 -91 1772 -91 
Q 1169 -91 856 284 
Q 544 659 544 1381 
z
M 1991 3584 
L 1991 3584 
z
" transform="scale(0.015625)"/>
       </defs>
       <use xlink:href="#DejaVuSans-57"/>
       <use xlink:href="#DejaVuSans-69" transform="translate(96.626953 0)"/>
       <use xlink:href="#DejaVuSans-74" transform="translate(124.410156 0)"/>
       <use xlink:href="#DejaVuSans-68" transform="translate(163.619141 0)"/>
       <use xlink:href="#DejaVuSans-6f" transform="translate(226.998047 0)"/>
       <use xlink:href="#DejaVuSans-75" transform="translate(288.179688 0)"/>
       <use xlink:href="#DejaVuSans-74" transform="translate(351.558594 0)"/>
      </g>
     </g>
    </g>
   </g>
   <g id="matplotlib.axis_2">
    <g id="ytick_1">
     <g id="line2d_13">
      <defs>
       <path id="m4d87ea3084" d="M 0 0 
L -3.5 0 
" style="stroke: #000000; stroke-width: 0.8"/>
      </defs>
      <g>
       <use xlink:href="#m4d87ea3084" x="23.04" y="76.896" style="stroke: #000000; stroke-width: 0.8"/>
      </g>
     </g>
     <g id="text_3">
      <!-- 0.3 -->
      <g transform="translate(6.498125 79.175531) scale(0.06 -0.06)">
       <defs>
        <path id="DejaVuSans-30" d="M 2034 4250 
Q 1547 4250 1301 3770 
Q 1056 3291 1056 2328 
Q 1056 1369 1301 889 
Q 1547 409 2034 409 
Q 2525 409 2770 889 
Q 3016 1369 3016 2328 
Q 3016 3291 2770 3770 
Q 2525 4250 2034 4250 
z
M 2034 4750 
Q 2819 4750 3233 4129 
Q 3647 3509 3647 2328 
Q 3647 1150 3233 529 
Q 2819 -91 2034 -91 
Q 1250 -91 836 529 
Q 422 1150 422 2328 
Q 422 3509 836 4129 
Q 1250 4750 2034 4750 
z
" transform="scale(0.015625)"/>
        <path id="DejaVuSans-2e" d="M 684 794 
L 1344 794 
L 1344 0 
L 684 0 
L 684 794 
z
" transform="scale(0.015625)"/>
        <path id="DejaVuSans-33" d="M 2597 2516 
Q 3050 2419 3304 2112 
Q 3559 1806 3559 1356 
Q 3559 666 3084 287 
Q 2609 -91 1734 -91 
Q 1441 -91 1130 -33 
Q 819 25 488 141 
L 488 750 
Q 750 597 1062 519 
Q 1375 441 1716 441 
Q 2309 441 2620 675 
Q 2931 909 2931 1356 
Q 2931 1769 2642 2001 
Q 2353 2234 1838 2234 
L 1294 2234 
L 1294 2753 
L 1863 2753 
Q 2328 2753 2575 2939 
Q 2822 3125 2822 3475 
Q 2822 3834 2567 4026 
Q 2313 4219 1838 4219 
Q 1578 4219 1281 4162 
Q 984 4106 628 3988 
L 628 4550 
Q 988 4650 1302 4700 
Q 1616 4750 1894 4750 
Q 2613 4750 3031 4423 
Q 3450 4097 3450 3541 
Q 3450 3153 3228 2886 
Q 3006 2619 2597 2516 
z
" transform="scale(0.015625)"/>
       </defs>
       <use xlink:href="#DejaVuSans-30"/>
       <use xlink:href="#DejaVuSans-2e" transform="translate(63.623047 0)"/>
       <use xlink:href="#DejaVuSans-33" transform="translate(95.410156 0)"/>
      </g>
     </g>
    </g>
    <g id="ytick_2">
     <g id="line2d_14">
      <g>
       <use xlink:href="#m4d87ea3084" x="23.04" y="60.264" style="stroke: #000000; stroke-width: 0.8"/>
      </g>
     </g>
     <g id="text_4">
      <!-- 0.4 -->
      <g transform="translate(6.498125 62.543531) scale(0.06 -0.06)">
       <defs>
        <path id="DejaVuSans-34" d="M 2419 4116 
L 825 1625 
L 2419 1625 
L 2419 4116 
z
M 2253 4666 
L 3047 4666 
L 3047 1625 
L 3713 1625 
L 3713 1100 
L 3047 1100 
L 3047 0 
L 2419 0 
L 2419 1100 
L 313 1100 
L 313 1709 
L 2253 4666 
z
" transform="scale(0.015625)"/>
       </defs>
       <use xlink:href="#DejaVuSans-30"/>
       <use xlink:href="#DejaVuSans-2e" transform="translate(63.623047 0)"/>
       <use xlink:href="#DejaVuSans-34" transform="translate(95.410156 0)"/>
      </g>
     </g>
    </g>
    <g id="ytick_3">
     <g id="line2d_15">
      <g>
       <use xlink:href="#m4d87ea3084" x="23.04" y="43.632" style="stroke: #000000; stroke-width: 0.8"/>
      </g>
     </g>
     <g id="text_5">
      <!-- 0.5 -->
      <g transform="translate(6.498125 45.911531) scale(0.06 -0.06)">
       <defs>
        <path id="DejaVuSans-35" d="M 691 4666 
L 3169 4666 
L 3169 4134 
L 1269 4134 
L 1269 2991 
Q 1406 3038 1543 3061 
Q 1681 3084 1819 3084 
Q 2600 3084 3056 2656 
Q 3513 2228 3513 1497 
Q 3513 744 3044 326 
Q 2575 -91 1722 -91 
Q 1428 -91 1123 -41 
Q 819 9 494 109 
L 494 744 
Q 775 591 1075 516 
Q 1375 441 1709 441 
Q 2250 441 2565 725 
Q 2881 1009 2881 1497 
Q 2881 1984 2565 2268 
Q 2250 2553 1709 2553 
Q 1456 2553 1204 2497 
Q 953 2441 691 2322 
L 691 4666 
z
" transform="scale(0.015625)"/>
       </defs>
       <use xlink:href="#DejaVuSans-30"/>
       <use xlink:href="#DejaVuSans-2e" transform="translate(63.623047 0)"/>
       <use xlink:href="#DejaVuSans-35" transform="translate(95.410156 0)"/>
      </g>
     </g>
    </g>
    <g id="ytick_4">
     <g id="line2d_16">
      <g>
       <use xlink:href="#m4d87ea3084" x="23.04" y="27" style="stroke: #000000; stroke-width: 0.8"/>
      </g>
     </g>
     <g id="text_6">
      <!-- 0.6 -->
      <g transform="translate(6.498125 29.279531) scale(0.06 -0.06)">
       <defs>
        <path id="DejaVuSans-36" d="M 2113 2584 
Q 1688 2584 1439 2293 
Q 1191 2003 1191 1497 
Q 1191 994 1439 701 
Q 1688 409 2113 409 
Q 2538 409 2786 701 
Q 3034 994 3034 1497 
Q 3034 2003 2786 2293 
Q 2538 2584 2113 2584 
z
M 3366 4563 
L 3366 3988 
Q 3128 4100 2886 4159 
Q 2644 4219 2406 4219 
Q 1781 4219 1451 3797 
Q 1122 3375 1075 2522 
Q 1259 2794 1537 2939 
Q 1816 3084 2150 3084 
Q 2853 3084 3261 2657 
Q 3669 2231 3669 1497 
Q 3669 778 3244 343 
Q 2819 -91 2113 -91 
Q 1303 -91 875 529 
Q 447 1150 447 2328 
Q 447 3434 972 4092 
Q 1497 4750 2381 4750 
Q 2619 4750 2861 4703 
Q 3103 4656 3366 4563 
z
" transform="scale(0.015625)"/>
       </defs>
       <use xlink:href="#DejaVuSans-30"/>
       <use xlink:href="#DejaVuSans-2e" transform="translate(63.623047 0)"/>
       <use xlink:href="#DejaVuSans-36" transform="translate(95.410156 0)"/>
      </g>
     </g>
    </g>
    <g id="ytick_5">
     <g id="line2d_17">
      <g>
       <use xlink:href="#m4d87ea3084" x="23.04" y="10.368" style="stroke: #000000; stroke-width: 0.8"/>
      </g>
     </g>
     <g id="text_7">
      <!-- 0.7 -->
      <g transform="translate(6.498125 12.647531) scale(0.06 -0.06)">
       <defs>
        <path id="DejaVuSans-37" d="M 525 4666 
L 3525 4666 
L 3525 4397 
L 1831 0 
L 1172 0 
L 2766 4134 
L 525 4134 
L 525 4666 
z
" transform="scale(0.015625)"/>
       </defs>
       <use xlink:href="#DejaVuSans-30"/>
       <use xlink:href="#DejaVuSans-2e" transform="translate(63.623047 0)"/>
       <use xlink:href="#DejaVuSans-37" transform="translate(95.410156 0)"/>
      </g>
     </g>
    </g>
    <g id="text_8">
     <!-- Accuracy -->
     <g transform="translate(0.834375 61.8945) rotate(-90) scale(0.08 -0.08)">
      <defs>
       <path id="DejaVuSans-41" d="M 2188 4044 
L 1331 1722 
L 3047 1722 
L 2188 4044 
z
M 1831 4666 
L 2547 4666 
L 4325 0 
L 3669 0 
L 3244 1197 
L 1141 1197 
L 716 0 
L 50 0 
L 1831 4666 
z
" transform="scale(0.015625)"/>
       <path id="DejaVuSans-63" d="M 3122 3366 
L 3122 2828 
Q 2878 2963 2633 3030 
Q 2388 3097 2138 3097 
Q 1578 3097 1268 2742 
Q 959 2388 959 1747 
Q 959 1106 1268 751 
Q 1578 397 2138 397 
Q 2388 397 2633 464 
Q 2878 531 3122 666 
L 3122 134 
Q 2881 22 2623 -34 
Q 2366 -91 2075 -91 
Q 1284 -91 818 406 
Q 353 903 353 1747 
Q 353 2603 823 3093 
Q 1294 3584 2113 3584 
Q 2378 3584 2631 3529 
Q 2884 3475 3122 3366 
z
" transform="scale(0.015625)"/>
       <path id="DejaVuSans-72" d="M 2631 2963 
Q 2534 3019 2420 3045 
Q 2306 3072 2169 3072 
Q 1681 3072 1420 2755 
Q 1159 2438 1159 1844 
L 1159 0 
L 581 0 
L 581 3500 
L 1159 3500 
L 1159 2956 
Q 1341 3275 1631 3429 
Q 1922 3584 2338 3584 
Q 2397 3584 2469 3576 
Q 2541 3569 2628 3553 
L 2631 2963 
z
" transform="scale(0.015625)"/>
       <path id="DejaVuSans-61" d="M 2194 1759 
Q 1497 1759 1228 1600 
Q 959 1441 959 1056 
Q 959 750 1161 570 
Q 1363 391 1709 391 
Q 2188 391 2477 730 
Q 2766 1069 2766 1631 
L 2766 1759 
L 2194 1759 
z
M 3341 1997 
L 3341 0 
L 2766 0 
L 2766 531 
Q 2569 213 2275 61 
Q 1981 -91 1556 -91 
Q 1019 -91 701 211 
Q 384 513 384 1019 
Q 384 1609 779 1909 
Q 1175 2209 1959 2209 
L 2766 2209 
L 2766 2266 
Q 2766 2663 2505 2880 
Q 2244 3097 1772 3097 
Q 1472 3097 1187 3025 
Q 903 2953 641 2809 
L 641 3341 
Q 956 3463 1253 3523 
Q 1550 3584 1831 3584 
Q 2591 3584 2966 3190 
Q 3341 2797 3341 1997 
z
" transform="scale(0.015625)"/>
       <path id="DejaVuSans-79" d="M 2059 -325 
Q 1816 -950 1584 -1140 
Q 1353 -1331 966 -1331 
L 506 -1331 
L 506 -850 
L 844 -850 
Q 1081 -850 1212 -737 
Q 1344 -625 1503 -206 
L 1606 56 
L 191 3500 
L 800 3500 
L 1894 763 
L 2988 3500 
L 3597 3500 
L 2059 -325 
z
" transform="scale(0.015625)"/>
      </defs>
      <use xlink:href="#DejaVuSans-41"/>
      <use xlink:href="#DejaVuSans-63" transform="translate(66.658203 0)"/>
      <use xlink:href="#DejaVuSans-63" transform="translate(121.638672 0)"/>
      <use xlink:href="#DejaVuSans-75" transform="translate(176.619141 0)"/>
      <use xlink:href="#DejaVuSans-72" transform="translate(239.998047 0)"/>
      <use xlink:href="#DejaVuSans-61" transform="translate(281.111328 0)"/>
      <use xlink:href="#DejaVuSans-63" transform="translate(342.390625 0)"/>
      <use xlink:href="#DejaVuSans-79" transform="translate(397.371094 0)"/>
     </g>
    </g>
   </g>
   <g id="patch_5">
    <path d="M 44.4672 35.015888 
L 73.0368 35.015888 
L 73.0368 34.628647 
L 44.4672 34.628647 
L 44.4672 35.015888 
L 44.4672 35.015888 
z
" clip-path="url(#pb227f9a26f)" style="fill: none; stroke: #0077b6; stroke-linejoin: miter"/>
   </g>
   <g id="line2d_18">
    <path d="M 58.752 35.015888 
L 58.752 35.015888 
" clip-path="url(#pb227f9a26f)" style="fill: none; stroke: #0077b6; stroke-linecap: square"/>
   </g>
   <g id="line2d_19">
    <path d="M 58.752 34.628647 
L 58.752 34.628647 
" clip-path="url(#pb227f9a26f)" style="fill: none; stroke: #0077b6; stroke-linecap: square"/>
   </g>
   <g id="line2d_20">
    <path d="M 51.6096 35.015888 
L 65.8944 35.015888 
" clip-path="url(#pb227f9a26f)" style="fill: none; stroke: #0077b6; stroke-linecap: square"/>
   </g>
   <g id="line2d_21">
    <path d="M 51.6096 34.628647 
L 65.8944 34.628647 
" clip-path="url(#pb227f9a26f)" style="fill: none; stroke: #0077b6; stroke-linecap: square"/>
   </g>
   <g id="patch_6">
    <path d="M 115.8912 56.120522 
L 144.4608 56.120522 
L 144.4608 52.441732 
L 115.8912 52.441732 
L 115.8912 56.120522 
L 115.8912 56.120522 
z
" clip-path="url(#pb227f9a26f)" style="fill: none; stroke: #403d39; stroke-linejoin: miter"/>
   </g>
   <g id="line2d_22">
    <path d="M 130.176 56.120522 
L 130.176 60.186552 
" clip-path="url(#pb227f9a26f)" style="fill: none; stroke: #403d39; stroke-linecap: square"/>
   </g>
   <g id="line2d_23">
    <path d="M 130.176 52.441732 
L 130.176 48.762943 
" clip-path="url(#pb227f9a26f)" style="fill: none; stroke: #403d39; stroke-linecap: square"/>
   </g>
   <g id="line2d_24">
    <path d="M 123.0336 60.186552 
L 137.3184 60.186552 
" clip-path="url(#pb227f9a26f)" style="fill: none; stroke: #403d39; stroke-linecap: square"/>
   </g>
   <g id="line2d_25">
    <path d="M 123.0336 48.762943 
L 137.3184 48.762943 
" clip-path="url(#pb227f9a26f)" style="fill: none; stroke: #403d39; stroke-linecap: square"/>
   </g>
   <g id="patch_7">
    <path d="M 23.04 76.896 
L 23.04 10.368 
" style="fill: none; stroke: #000000; stroke-width: 0.8; stroke-linejoin: miter; stroke-linecap: square"/>
   </g>
   <g id="patch_8">
    <path d="M 165.888 76.896 
L 165.888 10.368 
" style="fill: none; stroke: #000000; stroke-width: 0.8; stroke-linejoin: miter; stroke-linecap: square"/>
   </g>
   <g id="patch_9">
    <path d="M 23.04 76.896 
L 165.888 76.896 
" style="fill: none; stroke: #000000; stroke-width: 0.8; stroke-linejoin: miter; stroke-linecap: square"/>
   </g>
   <g id="patch_10">
    <path d="M 23.04 10.368 
L 165.888 10.368 
" style="fill: none; stroke: #000000; stroke-width: 0.8; stroke-linejoin: miter; stroke-linecap: square"/>
   </g>
   <g id="text_9">
    <!-- Fate Prediction -->
    <g transform="translate(57.517906 4.368) scale(0.1 -0.1)">
     <defs>
      <path id="DejaVuSans-46" d="M 628 4666 
L 3309 4666 
L 3309 4134 
L 1259 4134 
L 1259 2759 
L 3109 2759 
L 3109 2228 
L 1259 2228 
L 1259 0 
L 628 0 
L 628 4666 
z
" transform="scale(0.015625)"/>
      <path id="DejaVuSans-65" d="M 3597 1894 
L 3597 1613 
L 953 1613 
Q 991 1019 1311 708 
Q 1631 397 2203 397 
Q 2534 397 2845 478 
Q 3156 559 3463 722 
L 3463 178 
Q 3153 47 2828 -22 
Q 2503 -91 2169 -91 
Q 1331 -91 842 396 
Q 353 884 353 1716 
Q 353 2575 817 3079 
Q 1281 3584 2069 3584 
Q 2775 3584 3186 3129 
Q 3597 2675 3597 1894 
z
M 3022 2063 
Q 3016 2534 2758 2815 
Q 2500 3097 2075 3097 
Q 1594 3097 1305 2825 
Q 1016 2553 972 2059 
L 3022 2063 
z
" transform="scale(0.015625)"/>
      <path id="DejaVuSans-20" transform="scale(0.015625)"/>
      <path id="DejaVuSans-50" d="M 1259 4147 
L 1259 2394 
L 2053 2394 
Q 2494 2394 2734 2622 
Q 2975 2850 2975 3272 
Q 2975 3691 2734 3919 
Q 2494 4147 2053 4147 
L 1259 4147 
z
M 628 4666 
L 2053 4666 
Q 2838 4666 3239 4311 
Q 3641 3956 3641 3272 
Q 3641 2581 3239 2228 
Q 2838 1875 2053 1875 
L 1259 1875 
L 1259 0 
L 628 0 
L 628 4666 
z
" transform="scale(0.015625)"/>
      <path id="DejaVuSans-64" d="M 2906 2969 
L 2906 4863 
L 3481 4863 
L 3481 0 
L 2906 0 
L 2906 525 
Q 2725 213 2448 61 
Q 2172 -91 1784 -91 
Q 1150 -91 751 415 
Q 353 922 353 1747 
Q 353 2572 751 3078 
Q 1150 3584 1784 3584 
Q 2172 3584 2448 3432 
Q 2725 3281 2906 2969 
z
M 947 1747 
Q 947 1113 1208 752 
Q 1469 391 1925 391 
Q 2381 391 2643 752 
Q 2906 1113 2906 1747 
Q 2906 2381 2643 2742 
Q 2381 3103 1925 3103 
Q 1469 3103 1208 2742 
Q 947 2381 947 1747 
z
" transform="scale(0.015625)"/>
      <path id="DejaVuSans-6e" d="M 3513 2113 
L 3513 0 
L 2938 0 
L 2938 2094 
Q 2938 2591 2744 2837 
Q 2550 3084 2163 3084 
Q 1697 3084 1428 2787 
Q 1159 2491 1159 1978 
L 1159 0 
L 581 0 
L 581 3500 
L 1159 3500 
L 1159 2956 
Q 1366 3272 1645 3428 
Q 1925 3584 2291 3584 
Q 2894 3584 3203 3211 
Q 3513 2838 3513 2113 
z
" transform="scale(0.015625)"/>
     </defs>
     <use xlink:href="#DejaVuSans-46"/>
     <use xlink:href="#DejaVuSans-61" transform="translate(48.394531 0)"/>
     <use xlink:href="#DejaVuSans-74" transform="translate(109.673828 0)"/>
     <use xlink:href="#DejaVuSans-65" transform="translate(148.882812 0)"/>
     <use xlink:href="#DejaVuSans-20" transform="translate(210.40625 0)"/>
     <use xlink:href="#DejaVuSans-50" transform="translate(242.193359 0)"/>
     <use xlink:href="#DejaVuSans-72" transform="translate(300.746094 0)"/>
     <use xlink:href="#DejaVuSans-65" transform="translate(339.609375 0)"/>
     <use xlink:href="#DejaVuSans-64" transform="translate(401.132812 0)"/>
     <use xlink:href="#DejaVuSans-69" transform="translate(464.609375 0)"/>
     <use xlink:href="#DejaVuSans-63" transform="translate(492.392578 0)"/>
     <use xlink:href="#DejaVuSans-74" transform="translate(547.373047 0)"/>
     <use xlink:href="#DejaVuSans-69" transform="translate(586.582031 0)"/>
     <use xlink:href="#DejaVuSans-6f" transform="translate(614.365234 0)"/>
     <use xlink:href="#DejaVuSans-6e" transform="translate(675.546875 0)"/>
    </g>
   </g>
  </g>
 </g>
 <defs>
  <clipPath id="pb227f9a26f">
   <rect x="23.04" y="10.368" width="142.848" height="66.528"/>
  </clipPath>
 </defs>
</svg>
